<?xml version="1.0" encoding="UTF-8"?>
<!-- Generator: visioncortex VTracer 0.6.12 -->
<svg version="1.1" xmlns="http://www.w3.org/2000/svg" width="489" height="431">
<path d="M0 0 C161.37 0 322.74 0 489 0 C489 142.23 489 284.46 489 431 C327.63 431 166.26 431 0 431 C0 288.77 0 146.54 0 0 Z " fill="#FCFBFC" transform="translate(0,0)"/>
<path d="M0 0 C22.318 -0.12 22.318 -0.12 31.922 -0.146 C38.443 -0.164 44.965 -0.185 51.486 -0.226 C56.751 -0.259 62.016 -0.277 67.281 -0.285 C69.278 -0.29 71.274 -0.301 73.27 -0.317 C90.187 -0.45 105.346 0.934 121 8 C121.461 8.204 121.461 8.204 123.793 9.234 C142.794 18.557 154.529 36.833 162.168 55.918 C167.93 74.664 163.933 94.639 155.043 111.547 C147.778 124.221 137.844 134.693 125.031 141.809 C123 143 123 143 121 145 C121.557 145.692 122.114 146.384 122.688 147.098 C127.188 152.868 131.158 158.672 134.625 165.125 C134.979 165.776 135.334 166.427 135.699 167.098 C136.535 168.698 137.277 170.346 138 172 C137.67 172.66 137.34 173.32 137 174 C136.134 173.051 135.268 172.102 134.375 171.125 C130.88 167.637 127.115 164.701 123.125 161.812 C122.561 161.397 121.997 160.981 121.416 160.553 C116.888 157.339 112.128 155.106 107 153 C104.941 134.215 104.941 134.215 109.391 127.934 C110.901 126.231 110.901 126.231 112.5 124.688 C113.004 124.197 113.509 123.707 114.028 123.202 C116.987 120.716 119.498 119.681 123.281 119.52 C123.895 119.599 123.895 119.599 127 120 C127.33 120.495 127.33 120.495 129 123 C132.131 123.4 134.131 123.521 136.875 121.875 C138.547 119.089 138.464 117.18 138 114 C136.312 112.062 136.312 112.062 134 111 C131.438 111.062 131.438 111.062 129 112 C128.587 112.66 128.175 113.32 127.75 114 C126 116 126 116 124.124 116.208 C123.377 116.224 122.629 116.241 121.859 116.258 C116.331 116.781 113.364 119.028 109.5 122.875 C108.886 123.479 108.271 124.083 107.638 124.706 C101.71 131.236 101.427 137.827 101.727 146.336 C101.817 147.545 101.907 148.754 102 150 C99.69 149.67 97.38 149.34 95 149 C93.693 129.52 93.693 129.52 96.535 124.039 C98.578 122.11 100.681 120.58 103 119 C104.227 117.682 105.416 116.326 106.562 114.938 C107.144 114.285 107.725 113.633 108.324 112.961 C110 111 110 111 111.395 108.977 C113.166 106.686 114.435 105.389 117 104 C119.815 103.804 122.501 103.721 125.312 103.75 C130.29 103.788 133.093 103.678 137.188 100.617 C139.625 97.839 141.797 94.964 144 92 C144.735 91.575 145.47 91.149 146.227 90.711 C148.812 88.217 148.478 85.968 148.561 82.484 C148.561 82.074 148.561 82.074 148.562 80 C148.571 78.375 148.593 76.75 148.629 75.125 C148.63 74.406 148.63 73.686 148.631 72.945 C149.101 70.466 150.204 69.707 152 68 C152.438 65 152.438 65 152 62 C149.883 59.648 148.56 59.082 145.438 58.625 C143 59 143 59 141.125 60.062 C139.302 63.203 140.134 65.599 141 69 C141.99 69.66 142.98 70.32 144 71 C145.283 76.875 145.729 83.366 143.083 88.927 C139.882 93.855 135.643 98.189 129.763 99.498 C124.777 100.001 119.958 99.634 115 99 C115 99.66 115 100.32 115 101 C114.34 101 113.68 101 113 101 C112.882 101.289 112.882 101.289 112.283 102.75 C110.718 105.494 108.9 106.984 106.465 108.992 C90.016 123.326 90.016 123.326 89.24 134.266 C89.254 138.567 89.496 142.726 90 147 C87.03 147 84.06 147 81 147 C80.918 144.145 80.859 141.293 80.812 138.438 C80.787 137.638 80.762 136.838 80.736 136.014 C80.64 128.165 82.941 122.808 88.062 116.812 C88.857 115.865 89.651 114.918 90.469 113.941 C92.141 111.998 93.828 110.068 95.531 108.152 C102.964 99.63 111.292 89.539 111.75 77.75 C111.097 69.249 108.401 60.844 102 55 C98.757 53.112 95.421 51.535 92 50 C91.423 49.63 90.845 49.26 90.25 48.879 C85.985 47.213 81.176 47.679 76.643 47.697 C72.166 47.582 70.515 47.427 66.934 44.457 C66.296 43.646 65.657 42.835 65 42 C64.866 42.361 64.866 42.361 64.188 44.188 C63.01 46.976 61.609 49.441 60 52 C55.671 50.557 54.415 47.243 52.188 43.5 C51.299 42.038 50.41 40.577 49.52 39.117 C49.09 38.409 48.66 37.701 48.217 36.972 C46.242 33.772 44.114 30.683 41.961 27.602 C41 26 41 26 41 24 C40.34 24 39.68 24 39 24 C38.872 24.342 38.872 24.342 38.227 26.075 C36.816 29.438 35.132 32.607 33.375 35.797 C33.027 36.431 32.68 37.065 32.322 37.719 C31.59 39.051 30.857 40.382 30.123 41.712 C28.998 43.754 27.882 45.801 26.766 47.848 C26.053 49.144 25.339 50.439 24.625 51.734 C24.292 52.348 23.958 52.961 23.615 53.593 C21.229 57.886 21.229 57.886 19 59 C18.175 58.175 18.175 58.175 14 54 C13.776 54.633 13.551 55.266 13.32 55.918 C11.476 60.224 9.173 64.235 6.875 68.312 C6.407 69.148 5.939 69.984 5.457 70.846 C4.307 72.899 3.155 74.95 2 77 C1.34 77 0.68 77 0 77 C0 51.59 0 26.18 0 0 Z " fill="#C6A30E" transform="translate(165,29)"/>
<path d="M0 0 C0 0.66 0 1.32 0 2 C-1.54 2.39 -3.08 2.779 -4.621 3.167 C-6.027 3.521 -7.433 3.877 -8.838 4.233 C-12.927 5.262 -17.021 6.235 -21.141 7.133 C-36.654 10.553 -51.501 14.77 -64 25 C-64.383 25.296 -64.383 25.296 -66.32 26.797 C-76.42 35.082 -84.826 47.735 -86.336 60.938 C-86.39 64.627 -86.171 67.486 -85 71 C-84.01 71.33 -83.02 71.66 -82 72 C-84.332 73.206 -86.496 74.165 -89 75 C-85.807 80.929 -82.716 84.413 -77 88 C-79.313 90.313 -80.479 90.496 -83.625 91.125 C-84.442 91.293 -85.26 91.46 -86.102 91.633 C-86.728 91.754 -87.355 91.875 -88 92 C-83.218 97.837 -78.704 102.452 -72 106 C-76.24 109.25 -78.422 110.154 -83.812 110.188 C-84.85 110.202 -85.888 110.216 -86.957 110.23 C-90.038 109.997 -92.218 109.301 -95 108 C-95 109.98 -95 111.96 -95 114 C-94.189 113.841 -93.378 113.683 -92.543 113.52 C-78.319 111.434 -64.813 113.535 -51 117 C-51.485 116.536 -51.969 116.072 -52.469 115.594 C-57.153 110.765 -60.45 105.788 -63.438 99.812 C-63.779 99.136 -64.121 98.459 -64.473 97.762 C-69.797 86.724 -69.751 71.671 -66.375 60 C-57.811 36.375 -39.77 21.89 -17.75 11.375 C-17.011 11.02 -16.271 10.665 -15.51 10.299 C-13.703 9.465 -11.854 8.724 -10 8 C-9.67 8.165 -9.67 8.165 -8 9 C-8.75 9.473 -9.5 9.946 -10.273 10.434 C-25.805 20.469 -39.206 33.219 -43.453 52.004 C-43.761 54.012 -43.905 55.971 -44 58 C-44.063 58.762 -44.126 59.524 -44.191 60.309 C-45.031 78.105 -38.413 94.792 -26.797 108.074 C-24.605 110.465 -22.326 112.738 -20 115 C-19.698 115.301 -19.698 115.301 -18.168 116.824 C-13.768 120.903 -8.601 123.679 -3.379 126.582 C-2.986 126.816 -2.986 126.816 -1 128 C-1 128.33 -1 128.66 -1 129 C-5.834 129.075 -10.668 129.129 -15.502 129.165 C-17.139 129.18 -18.775 129.2 -20.412 129.226 C-32.995 129.423 -45.427 128.947 -57.375 124.5 C-76.389 117.694 -96.892 118.52 -116 124 C-113.468 121.298 -111.216 119.351 -107.875 117.75 C-107.533 117.582 -107.533 117.582 -105.805 116.734 C-104 116 -104 116 -102 116 C-102 113.36 -102 110.72 -102 108 C-102.529 108.324 -103.057 108.647 -103.602 108.98 C-108.74 111.165 -115.877 110.966 -121.184 109.324 C-122.813 108.5 -122.813 108.5 -125 107 C-124 105 -124 105 -120.938 103.438 C-115.908 100.714 -112.586 96.359 -109 92 C-109.626 91.963 -110.253 91.925 -110.898 91.887 C-111.716 91.821 -112.533 91.755 -113.375 91.688 C-114.187 91.629 -114.999 91.571 -115.836 91.512 C-118 91 -118 91 -120 88 C-119.553 87.648 -119.105 87.296 -118.645 86.934 C-114.25 83.345 -111.124 79.734 -108 75 C-110.64 74.34 -113.28 73.68 -116 73 C-115.34 72.01 -114.68 71.02 -114 70 C-113.34 70 -112.68 70 -112 70 C-111.734 69.438 -111.469 68.876 -111.195 68.297 C-109.907 65.821 -108.439 63.562 -106.875 61.25 C-106.336 60.451 -105.797 59.652 -105.242 58.828 C-104.832 58.225 -104.422 57.622 -104 57 C-104.784 57.516 -105.567 58.031 -106.375 58.562 C-107.241 59.037 -108.108 59.511 -109 60 C-109.66 59.67 -110.32 59.34 -111 59 C-109.128 46.372 -104.566 36.464 -96 27 C-95.394 26.301 -94.788 25.603 -94.164 24.883 C-86.334 16.392 -76.667 11.25 -65.875 7.562 C-65.16 7.315 -64.444 7.068 -63.708 6.814 C-52.043 3.102 -39.447 3.746 -27.325 3.599 C-19.262 3.493 -11.778 3.127 -4.021 0.634 C-2 0 -2 0 0 0 Z " fill="#0D431C" transform="translate(258,134)"/>
<path d="M0 0 C20.59 -0.688 39.589 1.844 55.375 16.25 C62.502 23.07 68.568 30.815 74.562 38.625 C85.81 53.199 98.54 65.712 117 70 C116 72 116 72 113.516 73 C93.636 79.087 73.467 80.479 54 72 C50.425 69.937 47.215 67.583 44 65 C43.251 64.415 42.502 63.83 41.73 63.227 C29.8 53.323 22.209 39.855 14.529 26.631 C12.983 23.971 11.424 21.319 9.863 18.668 C8.866 16.967 7.87 15.265 6.875 13.562 C6.414 12.776 5.952 11.99 5.477 11.179 C3.361 7.529 1.413 3.994 0 0 Z " fill="#03204D" transform="translate(233,183)"/>
<path d="M0 0 C0.66 0 1.32 0 2 0 C3.493 1.709 3.493 1.709 5.23 4.094 C5.869 4.96 6.508 5.826 7.166 6.719 C7.5 7.178 7.5 7.178 9.188 9.5 C13.876 15.919 18.647 22.117 24 28 C23.567 26.824 23.134 25.649 22.688 24.438 C21.992 21.745 21.788 20.486 22.91 17.91 C24.179 16.102 25.373 14.496 27 13 C27.66 13 28.32 13 29 13 C30.23 14.398 30.23 14.398 31.617 16.375 C32.136 17.106 32.655 17.836 33.19 18.589 C33.746 19.385 34.302 20.18 34.875 21 C36.046 22.649 37.217 24.298 38.391 25.945 C38.988 26.786 39.586 27.627 40.201 28.493 C42.954 32.329 45.783 36.105 48.625 39.875 C49.121 40.534 49.617 41.192 50.128 41.871 C50.361 42.18 50.361 42.18 51.539 43.742 C51.753 44.028 51.753 44.028 52.833 45.472 C53.818 46.762 54.853 48.015 55.898 49.258 C56.262 49.833 56.625 50.408 57 51 C56 54 56 54 54.293 54.914 C53.598 55.149 52.903 55.383 52.188 55.625 C51.5 55.865 50.813 56.105 50.105 56.352 C46.534 57.451 43.472 58.123 39.717 58.034 C39.297 58.026 39.297 58.026 37.173 57.985 C36.721 57.975 36.721 57.975 34.434 57.922 C32.482 57.895 30.531 57.869 28.58 57.844 C25.533 57.801 22.486 57.751 19.44 57.678 C-2.119 57.181 -22.148 60.021 -38.75 74.938 C-39.549 75.71 -40.348 76.482 -41.172 77.277 C-43 79 -43 79 -44 79 C-45.468 57.821 -35.336 42.884 -24 26 C-20.091 27.414 -16.84 29.276 -13.375 31.562 C-10.529 33.437 -8.237 34.921 -5 36 C-5.589 35.252 -6.178 34.505 -6.785 33.734 C-7.537 32.75 -8.288 31.765 -9.062 30.75 C-9.817 29.775 -10.571 28.801 -11.348 27.797 C-13 25 -13 25 -12.773 23.137 C-11.848 20.581 -10.64 18.368 -9.277 16.016 C-8.739 15.081 -8.201 14.146 -7.646 13.184 C-7.365 12.7 -7.365 12.7 -5.938 10.25 C-5.37 9.266 -4.802 8.283 -4.217 7.27 C-2.816 4.844 -1.41 2.421 0 0 Z " fill="#1A5B23" transform="translate(204,72)"/>
<path d="M0 0 C0.66 0.33 1.32 0.66 2 1 C1.25 1.473 0.5 1.946 -0.273 2.434 C-15.805 12.469 -29.206 25.219 -33.453 44.004 C-33.761 46.012 -33.905 47.971 -34 50 C-34.063 50.762 -34.126 51.524 -34.191 52.309 C-35.031 70.105 -28.413 86.792 -16.797 100.074 C-14.605 102.465 -12.326 104.738 -10 107 C-9.698 107.301 -9.698 107.301 -8.168 108.824 C-3.768 112.903 1.399 115.679 6.621 118.582 C7.014 118.816 7.014 118.816 9 120 C9 120.33 9 120.66 9 121 C-0.24 121 -9.48 121 -19 121 C-19 120.34 -19 119.68 -19 119 C-19.784 119.103 -20.567 119.206 -21.375 119.312 C-26.581 118.864 -30.495 116.535 -35 114 C-35.838 113.546 -36.676 113.093 -37.539 112.625 C-44.978 107.713 -49.575 99.481 -53.5 91.688 C-53.838 91.018 -54.176 90.349 -54.525 89.659 C-59.818 78.669 -59.733 63.608 -56.375 52 C-47.811 28.375 -29.77 13.89 -7.75 3.375 C-7.011 3.02 -6.271 2.665 -5.51 2.299 C-3.703 1.465 -1.854 0.724 0 0 Z " fill="#05204C" transform="translate(248,142)"/>
<path d="M0 0 C6.005 3.611 9.968 8.834 12.09 15.48 C13.805 22.582 11.909 29.107 8.562 35.438 C4.334 40.299 -0.322 44.096 -6.828 44.809 C-15.714 44.961 -21.349 44.324 -27.918 38.016 C-32.991 32.482 -35.107 26.454 -34.848 19.059 C-33.708 11.778 -29.925 6.173 -24.281 1.594 C-17.263 -2.807 -7.598 -3.418 0 0 Z " fill="#0C1D48" transform="translate(151.4375,284.5625)"/>
<path d="M0 0 C0 0.66 0 1.32 0 2 C-1.54 2.39 -3.08 2.779 -4.621 3.167 C-6.027 3.521 -7.433 3.877 -8.838 4.233 C-12.927 5.262 -17.021 6.235 -21.141 7.133 C-36.654 10.553 -51.501 14.77 -64 25 C-64.383 25.296 -64.383 25.296 -66.32 26.797 C-76.453 35.109 -81.889 45.745 -86 58 C-86.66 58 -87.32 58 -88 58 C-88 59.98 -88 61.96 -88 64 C-88.66 64 -89.32 64 -90 64 C-93.661 57.941 -97 52.207 -97 45 C-97.66 45 -98.32 45 -99 45 C-99.103 45.701 -99.206 46.403 -99.312 47.125 C-100.527 52.203 -101.946 55.214 -106.188 58.375 C-107.116 58.911 -108.044 59.447 -109 60 C-109.66 59.67 -110.32 59.34 -111 59 C-109.128 46.372 -104.566 36.464 -96 27 C-95.394 26.301 -94.788 25.603 -94.164 24.883 C-86.334 16.392 -76.667 11.25 -65.875 7.562 C-65.16 7.315 -64.444 7.068 -63.708 6.814 C-52.043 3.102 -39.447 3.746 -27.325 3.599 C-19.262 3.493 -11.778 3.127 -4.021 0.634 C-2 0 -2 0 0 0 Z " fill="#1B5B24" transform="translate(258,134)"/>
<path d="M0 0 C2.97 0 5.94 0 9 0 C9 15.18 9 30.36 9 46 C6.36 46 3.72 46 1 46 C0.67 36.1 0.34 26.2 0 16 C-4.29 23.59 -8.58 31.18 -13 39 C-18 38 -18 38 -19.669 35.959 C-20.146 35.084 -20.622 34.21 -21.113 33.309 C-21.588 32.458 -22.063 31.608 -22.552 30.732 C-23.133 29.645 -23.714 28.558 -24.312 27.438 C-26.189 23.993 -28.066 20.549 -30 17 C-30.33 26.57 -30.66 36.14 -31 46 C-33.64 46 -36.28 46 -39 46 C-39 31.15 -39 16.3 -39 1 C-35.7 1 -32.4 1 -29 1 C-26.826 4.788 -24.662 8.581 -22.5 12.375 C-21.88 13.455 -21.26 14.535 -20.621 15.648 C-20.035 16.68 -19.448 17.711 -18.844 18.773 C-18.299 19.727 -17.754 20.68 -17.193 21.662 C-16 24 -16 24 -16 26 C-15.34 26 -14.68 26 -14 26 C-13.723 25.275 -13.446 24.549 -13.16 23.802 C-12.06 21.144 -10.821 18.689 -9.434 16.172 C-8.948 15.29 -8.463 14.408 -7.963 13.5 C-7.46 12.592 -6.956 11.685 -6.438 10.75 C-5.93 9.827 -5.423 8.904 -4.9 7.953 C-1.136 1.136 -1.136 1.136 0 0 Z " fill="#091B46" transform="translate(216,283)"/>
<path d="M0 0 C8 0 8 0 10.066 1.478 C10.56 2.162 11.054 2.846 11.562 3.551 C12.132 4.313 12.702 5.076 13.289 5.861 C13.854 6.67 14.418 7.479 15 8.312 C15.565 9.079 16.129 9.845 16.711 10.635 C18.499 13.072 20.249 15.536 22 18 C24.64 21.63 27.28 25.26 30 29 C30.33 19.43 30.66 9.86 31 0 C33.97 0 36.94 0 40 0 C40 15.18 40 30.36 40 46 C32 46 32 46 29.453 43.719 C28.726 42.657 27.999 41.594 27.25 40.5 C26.415 39.319 25.579 38.138 24.742 36.957 C24.306 36.322 23.87 35.688 23.421 35.034 C21.407 32.152 19.287 29.355 17.165 26.553 C14.763 23.379 12.384 20.188 10 17 C9.67 26.57 9.34 36.14 9 46 C6.03 46 3.06 46 0 46 C0 30.82 0 15.64 0 0 Z " fill="#263860" transform="translate(291,283)"/>
<path d="M0 0 C3.3 0 6.6 0 10 0 C12.266 5.603 14.526 11.208 16.781 16.815 C17.549 18.722 18.318 20.628 19.089 22.533 C20.197 25.274 21.3 28.018 22.402 30.762 C22.747 31.611 23.092 32.46 23.447 33.335 C24.994 37.2 26.406 40.851 27 45 C24.03 45 21.06 45 18 45 C17.01 41.7 16.02 38.4 15 35 C8.07 35 1.14 35 -6 35 C-6.66 37.97 -7.32 40.94 -8 44 C-9 45 -9 45 -11.066 45.098 C-12.222 45.081 -12.222 45.081 -18 45 C-15.203 35.957 -11.5 27.296 -7.875 18.562 C-7.222 16.983 -6.57 15.402 -5.918 13.822 C-5.297 12.32 -4.676 10.818 -4.055 9.316 C-3.909 8.964 -3.909 8.964 -3.171 7.18 C-1.119 2.237 -1.119 2.237 0 0 Z " fill="#11224A" transform="translate(383,284)"/>
<path d="M0 0 C2.97 0 5.94 0 9 0 C11.428 5.924 13.849 11.85 16.263 17.78 C17.086 19.797 17.91 21.814 18.737 23.829 C19.923 26.724 21.103 29.622 22.281 32.52 C22.653 33.423 23.025 34.326 23.408 35.257 C23.748 36.097 24.089 36.938 24.439 37.804 C24.741 38.543 25.043 39.283 25.355 40.045 C26 42 26 42 26 45 C23.03 45 20.06 45 17 45 C16.01 42.03 15.02 39.06 14 36 C7.07 35.67 0.14 35.34 -7 35 C-7.66 38.3 -8.32 41.6 -9 45 C-11.97 45 -14.94 45 -18 45 C-17.403 40.463 -16.208 36.642 -14.453 32.422 C-14.2 31.81 -13.947 31.199 -13.686 30.569 C-13.151 29.28 -12.613 27.993 -12.072 26.707 C-11.259 24.772 -10.457 22.834 -9.656 20.895 C-6.703 13.787 -3.572 6.82 0 0 Z " fill="#13254F" transform="translate(254,284)"/>
<path d="M0 0 C37.95 0 75.9 0 115 0 C115 2.31 115 4.62 115 7 C77.05 7 39.1 7 0 7 C0 4.69 0 2.38 0 0 Z " fill="#FBC32B" transform="translate(181,343)"/>
<path d="M0 0 C35.31 0 70.62 0 107 0 C107 2.31 107 4.62 107 7 C71.69 7 36.38 7 0 7 C0 4.69 0 2.38 0 0 Z " fill="#253D84" transform="translate(70,343)"/>
<path d="M0 0 C3.62 3.031 5.403 4.981 6.004 9.77 C6.276 16.177 5.545 20.106 1.688 25.25 C-1.916 28.629 -4.869 29.116 -9.688 29.562 C-15.227 29.085 -17.942 26.692 -21.688 22.75 C-24.089 17.578 -24.052 12.857 -23.312 7.25 C-21.208 2.34 -18.234 -0.001 -13.461 -2.121 C-8.386 -3.607 -4.564 -2.411 0 0 Z " fill="#F6F6F8" transform="translate(149.3125,292.75)"/>
<path d="M0 0 C4.166 -0.082 8.332 -0.165 12.625 -0.25 C13.928 -0.286 15.231 -0.323 16.573 -0.36 C27.329 -0.464 27.329 -0.464 32 4 C34.866 8.715 35.482 12.502 34.641 17.844 C33.529 21.586 31.929 23.404 29 26 C26.188 26.375 26.188 26.375 24 26 C23.958 23.667 23.959 21.333 24 19 C24.33 18.67 24.66 18.34 25 18 C25.273 12.264 25.273 12.264 25 10 C22.154 7.154 19.192 7.545 15.375 7.375 C12.941 7.251 10.507 7.127 8 7 C8 11.95 8 16.9 8 22 C11.96 22 15.92 22 20 22 C20 22.33 20 22.66 20 23 C18.35 23 16.7 23 15 23 C15.66 24.65 16.32 26.3 17 28 C13.7 28 10.4 28 7 28 C7 33.28 7 38.56 7 44 C4.69 44 2.38 44 0 44 C0 29.48 0 14.96 0 0 Z " fill="#0C1D46" transform="translate(71,284)"/>
<path d="M0 0 C36.63 0 73.26 0 111 0 C111 1.98 111 3.96 111 6 C74.37 6 37.74 6 0 6 C0 4.02 0 2.04 0 0 Z " fill="#DB2323" transform="translate(300,344)"/>
<path d="M0 0 C7.59 0 15.18 0 23 0 C23 0.33 23 0.66 23 1 C15.74 1 8.48 1 1 1 C1 15.52 1 30.04 1 45 C3.31 45 5.62 45 8 45 C8 39.72 8 34.44 8 29 C10.97 28.67 13.94 28.34 17 28 C16.67 26.68 16.34 25.36 16 24 C13.69 23.67 11.38 23.34 9 23 C9 18.05 9 13.1 9 8 C10.207 7.969 10.207 7.969 16.312 7.812 C16.69 7.799 16.69 7.799 18.603 7.73 C21.466 7.694 23.516 7.691 25.965 9.254 C27.861 12.453 27.235 15.356 27 19 C26.67 19.33 26.34 19.66 26 20 C25.632 22.328 25.298 24.662 25 27 C25.99 27.33 26.98 27.66 28 28 C28.697 29.654 29.358 31.324 30 33 C31.328 34.929 32.706 36.824 34.125 38.688 C38 43.783 38 43.783 38 46 C34.339 47.052 31.627 47.26 28 46 C25.424 43.137 23.63 39.755 21.704 36.439 C18.569 31.264 18.569 31.264 15.371 29.781 C12.875 29.562 12.875 29.562 9 30 C9 35.28 9 40.56 9 46 C6.03 46 3.06 46 0 46 C0 30.82 0 15.64 0 0 Z " fill="#36456C" transform="translate(70,283)"/>
<path d="M0 0 C4.915 1.34 4.915 1.34 6.438 3.938 C6.812 6.938 6.812 6.938 6.438 9.938 C5.94 10.411 5.443 10.885 4.931 11.374 C3.438 12.938 3.438 12.938 3.116 14.835 C3.135 15.535 3.153 16.236 3.172 16.957 C3.172 17.343 3.172 17.343 3.175 19.297 C3.179 20.107 3.183 20.916 3.188 21.75 C2.981 30.048 2.981 30.048 1.07 33.176 C-0.688 34.562 -0.688 34.562 -2.578 35.707 C-5.028 37.226 -6.582 39.053 -8.438 41.25 C-8.725 41.588 -8.725 41.588 -10.18 43.301 C-10.636 43.841 -11.092 44.381 -11.562 44.938 C-11.892 45.267 -12.222 45.597 -12.562 45.938 C-13.683 45.903 -14.803 45.868 -15.957 45.832 C-28.263 45.472 -28.263 45.472 -33.113 49.391 C-36.212 52.337 -38.898 55.601 -41.562 58.938 C-42.932 60.505 -44.306 62.068 -45.688 63.625 C-45.947 63.936 -45.947 63.936 -47.258 65.512 C-48.562 66.938 -48.562 66.938 -50.562 67.938 C-51.553 67.608 -52.543 67.278 -53.562 66.938 C-54.553 66.938 -55.543 66.938 -56.562 66.938 C-56.232 66.61 -56.232 66.61 -54.559 64.95 C-52.11 62.518 -49.663 60.084 -47.218 57.648 C-46.159 56.594 -45.098 55.54 -44.037 54.488 C-42.513 52.976 -40.993 51.461 -39.473 49.945 C-38.556 49.034 -37.64 48.123 -36.696 47.184 C-34.562 44.938 -34.562 44.938 -33.562 42.938 C-32.902 42.938 -32.243 42.938 -31.562 42.938 C-31.562 42.278 -31.562 41.618 -31.562 40.938 C-30.463 40.993 -29.363 41.048 -28.23 41.105 C-20.195 41.25 -14.248 40.834 -8.062 35.375 C-2.098 28.536 -2.096 21.585 -2.562 12.938 C-3.202 12.677 -3.841 12.417 -4.5 12.148 C-6.562 10.938 -6.562 10.938 -7.562 7.562 C-7.562 3.938 -7.562 3.938 -6.062 1.438 C-3.562 -0.062 -3.562 -0.062 0 0 Z " fill="#FDF7E5" transform="translate(311.5625,87.0625)"/>
<path d="M0 0 C2.97 0 5.94 0 9 0 C9 15.18 9 30.36 9 46 C6.36 46 3.72 46 1 46 C0.67 36.1 0.34 26.2 0 16 C-0.825 17.485 -0.825 17.485 -5 25 C-7 22 -7 22 -7 19 C-8.32 19.33 -9.64 19.66 -11 20 C-9.922 17.789 -8.838 15.581 -7.75 13.375 C-7.45 12.758 -7.149 12.14 -6.84 11.504 C-6.226 10.264 -5.597 9.032 -4.951 7.808 C-4.038 6.072 -3.181 4.306 -2.328 2.539 C-1.56 1.701 -0.792 0.863 0 0 Z " fill="#091E48" transform="translate(216,283)"/>
<path d="M0 0 C2.97 0 5.94 0 9 0 C9 15.18 9 30.36 9 46 C1 46 1 46 -1.312 44.172 C-1.591 43.772 -1.591 43.772 -3 41.75 C-3.577 40.961 -4.155 40.172 -4.75 39.359 C-6 37 -6 37 -6 33 C-2.679 30 -2.679 30 -1 30 C-0.67 20.1 -0.34 10.2 0 0 Z " fill="#2F4066" transform="translate(322,283)"/>
<path d="M0 0 C2.438 1.625 2.438 1.625 4 4 C4.512 7.51 4.408 9.295 2.625 12.375 C2.089 12.911 1.553 13.448 1 14 C0.34 14 -0.32 14 -1 14 C-0.958 14.927 -0.916 15.855 -0.873 16.811 C-0.736 20.285 -0.636 23.756 -0.561 27.232 C-0.521 28.73 -0.466 30.228 -0.396 31.725 C0.169 44.198 0.169 44.198 -2.781 48.746 C-4.758 50.698 -6.777 52.342 -9 54 C-9.33 54.66 -9.66 55.32 -10 56 C-13.3 56 -16.6 56 -20 56 C-19.67 54.35 -19.34 52.7 -19 51 C-17.948 50.959 -16.896 50.917 -15.812 50.875 C-12.056 50.013 -10.395 49.291 -8.032 46.269 C-5.586 40.893 -6.21 34.447 -6.188 28.625 C-6.164 27.207 -6.139 25.789 -6.111 24.371 C-6.049 20.914 -6.016 17.458 -6 14 C-6.639 13.691 -7.279 13.381 -7.938 13.062 C-10 12 -10 12 -11 11 C-11.36 7.18 -11.54 4.843 -9.438 1.562 C-6.058 -0.604 -3.94 -0.563 0 0 Z " fill="#FEFAEF" transform="translate(298,65)"/>
<path d="M0 0 C18.15 0 36.3 0 55 0 C51.255 1.872 50.161 2.247 46.247 2.211 C45.779 2.209 45.779 2.209 43.407 2.201 C42.402 2.187 41.398 2.174 40.363 2.16 C39.328 2.155 38.293 2.15 37.226 2.144 C33.922 2.127 30.617 2.095 27.312 2.062 C23.997 2.035 20.682 2.01 17.367 1.991 C15.303 1.979 13.24 1.961 11.177 1.938 C10.713 1.935 10.713 1.935 8.365 1.918 C7.544 1.91 6.723 1.902 5.878 1.893 C4 2 4 2 3 3 C2.906 5.025 2.883 7.053 2.886 9.08 C2.887 10.382 2.887 11.683 2.887 13.024 C2.892 14.455 2.897 15.885 2.902 17.316 C2.904 18.772 2.906 20.228 2.907 21.684 C2.91 25.523 2.92 29.361 2.931 33.2 C2.942 37.115 2.946 41.029 2.951 44.943 C2.962 52.629 2.979 60.314 3 68 C3.964 66.608 4.921 65.211 5.875 63.812 C6.409 63.035 6.942 62.258 7.492 61.457 C8.98 59.032 10.024 56.667 11 54 C11.66 54 12.32 54 13 54 C13.33 53.01 13.66 52.02 14 51 C15.65 51.33 17.3 51.66 19 52 C19 52.66 19 53.32 19 54 C19.66 54 20.32 54 21 54 C21.064 53.709 21.064 53.709 21.387 52.234 C21.988 50.044 22.769 48.262 23.812 46.25 C24.164 45.564 24.516 44.878 24.879 44.172 C25.064 43.814 25.064 43.814 26 42 C26.752 40.501 27.502 39.001 28.25 37.5 C28.827 36.345 29.405 35.19 30 34 C30.66 34 31.32 34 32 34 C32.103 33.093 32.206 32.185 32.312 31.25 C33.006 27.969 33.701 26.391 36 24 C36.66 24 37.32 24 38 24 C38.165 23.505 38.165 23.505 39 21 C47.006 24.206 51.129 34.759 55 42 C57.739 46.87 57.739 46.87 60 48 C60.66 46.02 61.32 44.04 62 42 C62.66 42 63.32 42 64 42 C64.165 41.67 64.165 41.67 65 40 C64.329 44.194 62.144 47.403 60 51 C55.671 49.557 54.415 46.243 52.188 42.5 C51.299 41.038 50.41 39.577 49.52 38.117 C49.09 37.409 48.66 36.701 48.217 35.972 C46.242 32.772 44.114 29.683 41.961 26.602 C41 25 41 25 41 23 C40.34 23 39.68 23 39 23 C38.872 23.342 38.872 23.342 38.227 25.075 C36.816 28.438 35.132 31.607 33.375 34.797 C33.027 35.431 32.68 36.065 32.322 36.719 C31.59 38.051 30.857 39.382 30.123 40.712 C28.998 42.754 27.882 44.801 26.766 46.848 C26.053 48.144 25.339 49.439 24.625 50.734 C24.292 51.348 23.958 51.961 23.615 52.593 C21.229 56.886 21.229 56.886 19 58 C18.175 57.175 18.175 57.175 14 53 C13.776 53.633 13.551 54.266 13.32 54.918 C11.476 59.224 9.173 63.235 6.875 67.312 C6.407 68.148 5.939 68.984 5.457 69.846 C4.307 71.899 3.155 73.95 2 76 C1.34 76 0.68 76 0 76 C0 50.92 0 25.84 0 0 Z " fill="#265627" transform="translate(165,30)"/>
<path d="M0 0 C4.341 2.775 8.404 3.878 13.48 4.586 C13.48 5.246 13.48 5.906 13.48 6.586 C7.97 6.715 2.943 6.347 -2.457 5.273 C-3.162 5.138 -3.868 5.003 -4.594 4.863 C-8.129 4.159 -11.519 3.349 -14.895 2.086 C-22.075 -0.58 -29.982 -1.268 -37.52 -2.414 C-37.52 -2.744 -37.52 -3.074 -37.52 -3.414 C-39.995 -3.744 -39.995 -3.744 -52.52 -5.414 C-52.52 -6.404 -52.52 -7.394 -52.52 -8.414 C-34.915 -11.862 -15.135 -10.003 0 0 Z " fill="#1A4E24" transform="translate(215.51953125,256.4140625)"/>
<path d="M0 0 C2.64 0 5.28 0 8 0 C8 14.52 8 29.04 8 44 C5.36 44 2.72 44 0 44 C0 29.48 0 14.96 0 0 Z " fill="#051847" transform="translate(346,284)"/>
<path d="M0 0 C7.26 0 14.52 0 22 0 C22 0.33 22 0.66 22 1 C15.07 1 8.14 1 1 1 C1.33 6.28 1.66 11.56 2 17 C4.198 14.802 4.459 13.825 5.125 10.875 C5.269 10.236 5.269 10.236 6 7 C6.33 7 6.66 7 7 7 C7.33 11.62 7.66 16.24 8 21 C11.96 21.33 15.92 21.66 20 22 C20 22.33 20 22.66 20 23 C18.35 23 16.7 23 15 23 C15.66 24.65 16.32 26.3 17 28 C13.7 28 10.4 28 7 28 C7 33.28 7 38.56 7 44 C4.69 44 2.38 44 0 44 C0 29.48 0 14.96 0 0 Z " fill="#030F36" transform="translate(71,284)"/>
<path d="M0 0 C2.941 0 4.376 0.591 6.812 2.188 C8.61 4.931 8.458 6.796 8 10 C6.375 12.375 6.375 12.375 4 14 C0.75 14.25 0.75 14.25 -2 14 C-2.66 12.68 -3.32 11.36 -4 10 C-8.964 9.719 -11.038 10.148 -14.84 13.516 C-16.319 15.022 -17.744 16.556 -19.142 18.138 C-20.359 19.49 -21.676 20.752 -23 22 C-24.32 22 -25.64 22 -27 22 C-27.33 28.27 -27.66 34.54 -28 41 C-28.66 40.67 -29.32 40.34 -30 40 C-30.716 31.577 -31.33 23.418 -25.91 16.434 C-24.643 15.047 -23.339 13.693 -22 12.375 C-21.365 11.743 -20.73 11.11 -20.076 10.459 C-15.842 6.666 -12.661 5.289 -6.956 5.251 C-3.711 4.835 -2.166 2.286 0 0 Z " fill="#FDF9EE" transform="translate(296,139)"/>
<path d="M0 0 C2.438 -0.081 4.874 -0.14 7.312 -0.188 C7.658 -0.2 7.658 -0.2 9.404 -0.264 C14.479 -0.337 14.479 -0.337 16.949 1.262 C18.19 3.314 18.464 4.607 18.5 7 C18.531 7.681 18.562 8.361 18.594 9.062 C18 11 18 11 15.895 12.738 C10.727 14.991 5.567 14.169 0 14 C0 9.38 0 4.76 0 0 Z " fill="#F5F5F7" transform="translate(79,291)"/>
<path d="M0 0 C2.31 0 4.62 0 7 0 C7 0.33 7 0.66 7 1 C5.02 1 3.04 1 1 1 C1.33 5.29 1.66 9.58 2 14 C2.99 13.34 3.98 12.68 5 12 C7.188 12.375 7.188 12.375 9 13 C8.34 13 7.68 13 7 13 C7 23.23 7 33.46 7 44 C4.69 44 2.38 44 0 44 C0 29.48 0 14.96 0 0 Z " fill="#04133C" transform="translate(292,284)"/>
<path d="M0 0 C2.31 0 4.62 0 7 0 C7 14.52 7 29.04 7 44 C4.69 44 2.38 44 0 44 C0 43.67 0 43.34 0 43 C1.98 43 3.96 43 6 43 C5.67 38.38 5.34 33.76 5 29 C3.35 29.33 1.7 29.66 0 30 C0 20.1 0 10.2 0 0 Z " fill="#061440" transform="translate(323,284)"/>
<path d="M0 0 C8.006 3.206 12.129 13.759 16 21 C18.739 25.87 18.739 25.87 21 27 C21.66 25.02 22.32 23.04 23 21 C23.66 21 24.32 21 25 21 C25.33 20.34 25.66 19.68 26 19 C25.329 23.194 23.144 26.403 21 30 C16.671 28.557 15.415 25.243 13.188 21.5 C12.299 20.038 11.41 18.577 10.52 17.117 C10.09 16.409 9.66 15.701 9.217 14.972 C7.242 11.772 5.114 8.683 2.961 5.602 C2 4 2 4 2 2 C1.34 2 0.68 2 0 2 C-0.128 2.342 -0.128 2.342 -0.773 4.075 C-2.184 7.438 -3.868 10.607 -5.625 13.797 C-5.973 14.431 -6.32 15.065 -6.678 15.719 C-7.41 17.051 -8.143 18.382 -8.877 19.712 C-10.002 21.754 -11.118 23.801 -12.234 25.848 C-12.947 27.144 -13.661 28.439 -14.375 29.734 C-14.708 30.348 -15.042 30.961 -15.385 31.593 C-17.771 35.886 -17.771 35.886 -20 37 C-21.65 35.35 -23.3 33.7 -25 32 C-25.235 32.654 -25.469 33.307 -25.711 33.98 C-27.398 37.931 -29.494 41.587 -31.625 45.312 C-32.045 46.053 -32.465 46.794 -32.898 47.557 C-33.929 49.373 -34.964 51.187 -36 53 C-36.33 53 -36.66 53 -37 53 C-37.367 49.786 -37.323 48.419 -35.312 45.812 C-34.549 44.884 -33.786 43.956 -33 43 C-31.219 39.721 -29.598 36.372 -28 33 C-27.34 33 -26.68 33 -26 33 C-25.67 32.01 -25.34 31.02 -25 30 C-23.35 30.33 -21.7 30.66 -20 31 C-20 31.66 -20 32.32 -20 33 C-19.34 33 -18.68 33 -18 33 C-17.936 32.709 -17.936 32.709 -17.613 31.234 C-17.012 29.044 -16.231 27.262 -15.188 25.25 C-14.836 24.564 -14.484 23.878 -14.121 23.172 C-13.751 22.455 -13.381 21.738 -13 21 C-12.248 19.501 -11.498 18.001 -10.75 16.5 C-10.461 15.922 -10.461 15.922 -9 13 C-8.34 13 -7.68 13 -7 13 C-6.897 12.093 -6.794 11.185 -6.688 10.25 C-5.994 6.969 -5.299 5.391 -3 3 C-2.34 3 -1.68 3 -1 3 C-0.67 2.01 -0.34 1.02 0 0 Z " fill="#1D5526" transform="translate(204,51)"/>
<path d="M0 0 C4.095 3.935 7.698 8.135 11.25 12.562 C11.521 12.892 11.521 12.892 12.891 14.561 C13.406 15.202 13.922 15.843 14.453 16.504 C14.919 17.08 15.384 17.655 15.864 18.248 C17.1 20.155 17.575 21.781 18 24 C17.196 24.289 16.391 24.577 15.562 24.875 C13 26 13 26 12 28 C10.207 25.73 8.416 23.459 6.625 21.188 C6.371 20.866 6.371 20.866 5.086 19.24 C4.596 18.618 4.106 17.996 3.602 17.355 C3.376 17.07 3.376 17.07 2.237 15.626 C-0.395 12.166 -1.434 10.342 -1 6 C-0.34 5.01 0.32 4.02 1 3 C0.67 2.01 0.34 1.02 0 0 Z " fill="#0A1B45" transform="translate(303,290)"/>
<path d="M0 0 C3.399 1.133 4.053 2.125 6 5 C6.33 3.35 6.66 1.7 7 0 C7.99 0 8.98 0 10 0 C10.33 1.32 10.66 2.64 11 4 C11.33 2.68 11.66 1.36 12 0 C15.3 0 18.6 0 22 0 C22 0.66 22 1.32 22 2 C20.68 2 19.36 2 18 2 C18 5.3 18 8.6 18 12 C8.962 12.723 8.962 12.723 6.223 10.664 C4.875 9 4.875 9 3 6 C2.67 7.98 2.34 9.96 2 12 C1.34 12 0.68 12 0 12 C0 8.04 0 4.08 0 0 Z " fill="#E4E5EB" transform="translate(223,366)"/>
<path d="M0 0 C0.66 0 1.32 0 2 0 C3.035 2.412 4.053 4.828 5.062 7.25 C5.357 7.932 5.652 8.614 5.955 9.316 C7.483 13.02 8.241 15.184 7 19 C5.02 19.33 3.04 19.66 1 20 C-4.197 9.396 -4.197 9.396 -4.688 4.875 C-4.791 3.926 -4.894 2.978 -5 2 C-5.66 1.67 -6.32 1.34 -7 1 C-6.515 1.01 -6.515 1.01 -4.062 1.062 C-1 1 -1 1 0 0 Z " fill="#0D1A3F" transform="translate(264,291)"/>
<path d="M0 0 C2.97 0 5.94 0 9 0 C9 15.18 9 30.36 9 46 C6.36 46 3.72 46 1 46 C1 35.77 1 25.54 1 15 C1.33 15 1.66 15 2 15 C2 24.57 2 34.14 2 44 C3.65 44 5.3 44 7 44 C7 30.14 7 16.28 7 2 C4.69 2 2.38 2 0 2 C0 1.34 0 0.68 0 0 Z " fill="#2D3255" transform="translate(216,283)"/>
<path d="M0 0 C0.66 0 1.32 0 2 0 C3.002 2.645 4.002 5.291 5 7.938 C5.286 8.692 5.572 9.447 5.867 10.225 C8 15.887 8 15.887 8 17 C3.38 17 -1.24 17 -6 17 C-4.123 11.279 -2.148 5.625 0 0 Z " fill="#EAEBEF" transform="translate(257,294)"/>
<path d="M0 0 C0.66 0 1.32 0 2 0 C2.842 2.08 3.673 4.164 4.5 6.25 C4.964 7.41 5.428 8.57 5.906 9.766 C7 13 7 13 7 17 C2.71 17 -1.58 17 -6 17 C-4.311 11.129 -2.536 5.556 0 0 Z " fill="#EFF0F3" transform="translate(387,294)"/>
<path d="M0 0 C0.66 0 1.32 0 2 0 C4.644 4.944 4.225 9.868 4.125 15.312 C4.116 16.244 4.107 17.175 4.098 18.135 C4.074 20.423 4.041 22.712 4 25 C1.36 25 -1.28 25 -4 25 C-3.67 24.505 -3.67 24.505 -2 22 C-1.551 19.66 -1.551 19.66 -1.312 17.062 C-1.269 16.635 -1.269 16.635 -1.051 14.473 C-1.001 12.069 -1.402 10.306 -2 8 C-1.321 1.321 -1.321 1.321 0 0 Z " fill="#101F46" transform="translate(181,304)"/>
<path d="M0 0 C1.891 1.891 1.237 4.571 1.328 7.09 C1.22 7.72 1.112 8.351 1 9 C-2.233 11.155 -3.252 11.469 -7 11 C-8.812 9.875 -8.812 9.875 -10 8 C-10.393 4.855 -10.476 2.867 -8.938 0.062 C-5.848 -1.632 -3.328 -0.74 0 0 Z " fill="#2B325B" transform="translate(376,367)"/>
<path d="M0 0 C2.615 -0.16 4.526 -0.151 7.047 0.609 C9.631 3.315 11.364 6.282 13.047 9.609 C6.647 10.102 6.647 10.102 3.609 7.609 C3.094 6.949 2.578 6.289 2.047 5.609 C1.511 6.269 0.974 6.929 0.422 7.609 C-1.953 9.609 -1.953 9.609 -5.203 9.859 C-6.111 9.777 -7.018 9.694 -7.953 9.609 C-7.953 8.949 -7.953 8.289 -7.953 7.609 C-7.293 7.609 -6.633 7.609 -5.953 7.609 C-5.664 7.011 -5.376 6.413 -5.078 5.797 C-2.498 0.779 -2.498 0.779 0 0 Z " fill="#151E47" transform="translate(255.953125,270.390625)"/>
<path d="M0 0 C6.378 -0.361 6.378 -0.361 8.938 1.125 C10.504 3.89 10.39 5.882 10 9 C8.938 10.875 8.938 10.875 7 12 C3.312 12.188 3.312 12.188 0 12 C0 8.04 0 4.08 0 0 Z " fill="#1F2348" transform="translate(162,366)"/>
<path d="M0 0 C6 0 6 0 8.375 1.125 C10 3 10 3 10.5 6 C10 9 10 9 8.375 10.875 C6 12 6 12 0 12 C0 8.04 0 4.08 0 0 Z " fill="#282C50" transform="translate(97,366)"/>
<path d="M0 0 C0.027 1.479 0.046 2.958 0.062 4.438 C0.074 5.261 0.086 6.085 0.098 6.934 C0 9 0 9 -1 10 C-4.373 10.562 -7.578 11 -11 11 C-11.481 4.75 -11.481 4.75 -9.438 1.562 C-6.181 -0.525 -3.79 -0.292 0 0 Z " fill="#FEF7E7" transform="translate(298,65)"/>
<path d="M0 0 C0 0.66 0 1.32 0 2 C-24.047 8.146 -24.047 8.146 -31 8 C-31 7.67 -31 7.34 -31 7 C-37.6 6.67 -44.2 6.34 -51 6 C-51 5.67 -51 5.34 -51 5 C-46.857 4.013 -42.932 3.847 -38.68 3.789 C-37.242 3.761 -35.805 3.732 -34.367 3.703 C-32.13 3.662 -29.892 3.625 -27.654 3.599 C-19.484 3.494 -11.867 3.17 -4.008 0.634 C-2 0 -2 0 0 0 Z " fill="#306538" transform="translate(258,134)"/>
<path d="M0 0 C-0.479 4.569 -2.078 6.62 -5.312 9.812 C-5.702 10.208 -5.702 10.208 -7.676 12.207 C-10 14 -10 14 -14 14 C-14.33 20.27 -14.66 26.54 -15 33 C-15.66 32.67 -16.32 32.34 -17 32 C-18.092 15.043 -18.092 15.043 -13.145 8.844 C-4.839 0 -4.839 0 0 0 Z " fill="#FDF3D5" transform="translate(283,147)"/>
<path d="M0 0 C0.99 0.33 1.98 0.66 3 1 C2.653 4.932 1.339 7.836 -1.258 10.84 C-4.752 13.167 -8.987 12.421 -13 12 C-12.67 10.35 -12.34 8.7 -12 7 C-10.948 6.959 -9.896 6.918 -8.812 6.875 C-3.815 5.728 -2.877 4.098 0 0 Z " fill="#FDF5E0" transform="translate(291,109)"/>
<path d="M0 0 C3.375 -0.125 3.375 -0.125 7 0 C9 2 9 2 9 6 C8.34 6 7.68 6 7 6 C7.66 7.98 8.32 9.96 9 12 C8.01 11.67 7.02 11.34 6 11 C5.67 10.34 5.34 9.68 5 9 C4.01 8.67 3.02 8.34 2 8 C2 9.32 2 10.64 2 12 C1.34 12 0.68 12 0 12 C0 8.04 0 4.08 0 0 Z " fill="#2D3058" transform="translate(137,366)"/>
<path d="M0 0 C8.006 3.206 12.129 13.759 16 21 C18.739 25.87 18.739 25.87 21 27 C21.66 25.02 22.32 23.04 23 21 C23.66 21 24.32 21 25 21 C25.33 20.34 25.66 19.68 26 19 C25.329 23.194 23.144 26.403 21 30 C16.671 28.557 15.415 25.243 13.188 21.5 C12.299 20.038 11.41 18.577 10.52 17.117 C10.09 16.409 9.66 15.701 9.217 14.972 C7.242 11.772 5.114 8.683 2.961 5.602 C2 4 2 4 2 2 C1.34 2 0.68 2 0 2 C-0.33 2.66 -0.66 3.32 -1 4 C-0.67 2.68 -0.34 1.36 0 0 Z " fill="#40611E" transform="translate(204,51)"/>
<path d="M0 0 C0.99 0 1.98 0 3 0 C5.188 3 5.188 3 7 6 C7.33 4.02 7.66 2.04 8 0 C8.66 0 9.32 0 10 0 C10 3.96 10 7.92 10 12 C9.34 12 8.68 12 8 12 C6.618 10.374 5.281 8.707 4 7 C3.67 8.65 3.34 10.3 3 12 C2.01 12 1.02 12 0 12 C0 8.04 0 4.08 0 0 Z " fill="#393D60" transform="translate(269,366)"/>
<path d="M0 0 C0.351 0.081 0.351 0.081 2.125 0.492 C5.143 1.025 7.937 1.133 11 1.125 C11.505 1.126 11.505 1.126 14.062 1.133 C16.817 1.008 19.318 0.621 22 0 C21.105 2.449 21.105 2.449 19 5 C15.79 5.801 12.609 5.791 9.312 5.812 C8.42 5.838 7.527 5.863 6.607 5.889 C4.405 5.948 2.204 5.984 0 6 C0 4.02 0 2.04 0 0 Z " fill="#E9EEE9" transform="translate(163,242)"/>
<path d="M0 0 C4 1 4 1 5.75 3.562 C6.162 4.367 6.575 5.171 7 6 C7.33 4.02 7.66 2.04 8 0 C8.66 0 9.32 0 10 0 C10 3.96 10 7.92 10 12 C9.34 12 8.68 12 8 12 C6.611 10.039 5.274 8.038 4 6 C3.67 7.98 3.34 9.96 3 12 C2.01 12 1.02 12 0 12 C0 8.04 0 4.08 0 0 Z " fill="#434666" transform="translate(83,366)"/>
<path d="M0 0 C1.98 0 3.96 0 6 0 C6.66 0.66 7.32 1.32 8 2 C7.695 4.005 7.359 6.004 7 8 C7.438 10.375 7.438 10.375 8 12 C5.007 11.002 4.052 10.248 2 8 C2 9.32 2 10.64 2 12 C1.34 12 0.68 12 0 12 C0 8.04 0 4.08 0 0 Z " fill="#696C8A" transform="translate(381,366)"/>
<path d="M0 0 C3.399 1.133 4.053 2.125 6 5 C6.33 3.35 6.66 1.7 7 0 C7.99 0 8.98 0 10 0 C10 3.96 10 7.92 10 12 C6.233 10.117 5.206 9.309 3 6 C2.67 7.98 2.34 9.96 2 12 C1.34 12 0.68 12 0 12 C0 8.04 0 4.08 0 0 Z " fill="#34385B" transform="translate(223,366)"/>
<path d="M0 0 C1.32 0.33 2.64 0.66 4 1 C4 1.99 4 2.98 4 4 C4.457 5.349 4.961 6.682 5.5 8 C6.588 10.66 7 12.057 7 15 C6.34 15 5.68 15 5 15 C4.67 14.34 4.34 13.68 4 13 C1.438 12.375 1.438 12.375 -1 12 C-1 12.99 -1 13.98 -1 15 C-1.66 15 -2.32 15 -3 15 C-2.691 13.062 -2.377 11.125 -2.062 9.188 C-1.888 8.109 -1.714 7.03 -1.535 5.918 C-1 3 -1 3 0 0 Z " fill="#363B59" transform="translate(249,363)"/>
<path d="M0 0 C0.99 0 1.98 0 3 0 C3 3.3 3 6.6 3 10 C4.32 10 5.64 10 7 10 C7 6.7 7 3.4 7 0 C7.99 0 8.98 0 10 0 C10.054 1.625 10.093 3.25 10.125 4.875 C10.148 5.78 10.171 6.685 10.195 7.617 C10 10 10 10 8 12 C1.423 11.423 1.423 11.423 0 10 C-0.072 8.314 -0.084 6.625 -0.062 4.938 C-0.053 4.018 -0.044 3.099 -0.035 2.152 C-0.024 1.442 -0.012 0.732 0 0 Z " fill="#4E5374" transform="translate(392,366)"/>
<path d="M0 0 C2.85 1.123 5.648 2.294 8.438 3.562 C11.701 4.879 14.524 5.576 18 6 C18 6.66 18 7.32 18 8 C12.269 8.155 7.107 7.652 1.5 6.5 C0.773 6.357 0.046 6.214 -0.703 6.066 C-2.47 5.718 -4.235 5.36 -6 5 C-5.196 4.361 -4.391 3.721 -3.562 3.062 C-1 1 -1 1 0 0 Z " fill="#115323" transform="translate(211,255)"/>
<path d="M0 0 C1.891 0.258 1.891 0.258 4 1 C5.047 2.742 5.047 2.742 5.75 4.875 C5.992 5.574 6.235 6.272 6.484 6.992 C7 9 7 9 7 12 C6.34 12 5.68 12 5 12 C4.67 11.34 4.34 10.68 4 10 C1.438 9.375 1.438 9.375 -1 9 C-1.33 9.99 -1.66 10.98 -2 12 C-2.66 12 -3.32 12 -4 12 C-2.667 8 -1.333 4 0 0 Z " fill="#5B5F7D" transform="translate(152,366)"/>
<path d="M0 0 C0.99 0 1.98 0 3 0 C3 3.3 3 6.6 3 10 C4.32 9.67 5.64 9.34 7 9 C7.33 6.03 7.66 3.06 8 0 C8.66 0 9.32 0 10 0 C10.054 1.625 10.093 3.25 10.125 4.875 C10.148 5.78 10.171 6.685 10.195 7.617 C10 10 10 10 8 12 C5 12.25 5 12.25 2 12 C0 10 0 10 -0.195 7.617 C-0.172 6.712 -0.149 5.807 -0.125 4.875 C-0.107 3.965 -0.089 3.055 -0.07 2.117 C-0.047 1.419 -0.024 0.72 0 0 Z " fill="#3A3F5F" transform="translate(70,366)"/>
<path d="M0 0 C3 1 3 1 4.688 4.312 C6 8 6 8 6 12 C5.34 12 4.68 12 4 12 C4 11.01 4 10.02 4 9 C2.02 9 0.04 9 -2 9 C-2 9.99 -2 10.98 -2 12 C-2.66 12 -3.32 12 -4 12 C-3.335 7.611 -1.812 4.019 0 0 Z " fill="#5B5F7B" transform="translate(202,366)"/>
<path d="M0 0 C2.75 -0.054 5.499 -0.094 8.25 -0.125 C9.027 -0.142 9.805 -0.159 10.605 -0.176 C11.36 -0.182 12.114 -0.189 12.891 -0.195 C13.582 -0.206 14.273 -0.216 14.985 -0.227 C17 0 17 0 21 2 C16.05 2 11.1 2 6 2 C7.125 9.875 7.125 9.875 9 13 C8.67 13.165 8.67 13.165 7 14 C4.69 9.38 2.38 4.76 0 0 Z " fill="#17244E" transform="translate(233,183)"/>
<path d="M0 0 C3.405 3.891 6.242 8.114 8 13 C7.67 13.66 7.34 14.32 7 15 C3 11 -1 7 -5 3 C-3.35 2.01 -1.7 1.02 0 0 Z " fill="#F6BA12" transform="translate(295,188)"/>
<path d="M0 0 C4.219 0.479 6.797 1.166 10 4 C9.01 5.32 8.02 6.64 7 8 C4.69 7.67 2.38 7.34 0 7 C-1.125 2.25 -1.125 2.25 0 0 Z " fill="#0C3F19" transform="translate(202,251)"/>
<path d="M0 0 C-0.541 0.237 -1.083 0.474 -1.641 0.719 C-6.953 3.603 -12.11 7.591 -15 13 C-16.31 18.931 -15.652 25.017 -15 31 C-14.34 31 -13.68 31 -13 31 C-13.165 31.495 -13.165 31.495 -14 34 C-14.99 33.67 -15.98 33.34 -17 33 C-19.07 14.116 -19.07 14.116 -14.504 7.934 C-10.481 3.52 -6.414 -0.892 0 0 Z " fill="#FBBF24" transform="translate(289,149)"/>
<path d="M0 0 C2.64 0 5.28 0 8 0 C8 0.66 8 1.32 8 2 C6.02 2 4.04 2 2 2 C2 2.99 2 3.98 2 5 C3.65 5 5.3 5 7 5 C7 5.66 7 6.32 7 7 C5.35 7 3.7 7 2 7 C2 7.99 2 8.98 2 10 C3.98 10 5.96 10 8 10 C8 10.66 8 11.32 8 12 C5.36 12 2.72 12 0 12 C0 8.04 0 4.08 0 0 Z " fill="#252951" transform="translate(110,366)"/>
<path d="M0 0 C2.64 0 5.28 0 8 0 C8 0.66 8 1.32 8 2 C6.02 2 4.04 2 2 2 C2 2.99 2 3.98 2 5 C3.65 5 5.3 5 7 5 C7 5.66 7 6.32 7 7 C5.35 7 3.7 7 2 7 C2 7.99 2 8.98 2 10 C3.98 10 5.96 10 8 10 C8 10.66 8 11.32 8 12 C5.36 12 2.72 12 0 12 C0 8.04 0 4.08 0 0 Z " fill="#242953" transform="translate(283,366)"/>
<path d="M0 0 C0.66 0 1.32 0 2 0 C0.426 5.544 -2.186 10.265 -5 15.25 C-5.451 16.065 -5.902 16.879 -6.367 17.719 C-9.732 23.732 -9.732 23.732 -12 26 C-12.33 25.34 -12.66 24.68 -13 24 C-11.925 21.557 -10.802 19.232 -9.562 16.875 C-9.224 16.216 -8.886 15.558 -8.537 14.879 C-7.699 13.249 -6.85 11.624 -6 10 C-5.34 10 -4.68 10 -4 10 C-3.897 9.093 -3.794 8.185 -3.688 7.25 C-2.994 3.969 -2.299 2.391 0 0 Z " fill="#255E20" transform="translate(201,54)"/>
<path d="M0 0 C0.99 0.33 1.98 0.66 3 1 C3.33 3.31 3.66 5.62 4 8 C4.66 8 5.32 8 6 8 C6.072 7.526 6.072 7.526 6.438 5.125 C7 2 7 2 8 0 C8.99 0 9.98 0 11 0 C9.858 4.48 8.57 8.145 6 12 C5.01 11.67 4.02 11.34 3 11 C2.051 9.004 2.051 9.004 1.312 6.562 C1.061 5.759 0.81 4.956 0.551 4.129 C0 2 0 2 0 0 Z " fill="#35395C" transform="translate(331,366)"/>
<path d="M0 0 C2.31 0 4.62 0 7 0 C7 0.66 7 1.32 7 2 C5.35 2 3.7 2 2 2 C2 2.99 2 3.98 2 5 C3.65 5 5.3 5 7 5 C7 5.66 7 6.32 7 7 C5.35 7 3.7 7 2 7 C2 7.99 2 8.98 2 10 C3.65 10 5.3 10 7 10 C7 10.66 7 11.32 7 12 C4.69 12 2.38 12 0 12 C0 8.04 0 4.08 0 0 Z " fill="#202450" transform="translate(316,366)"/>
<path d="M0 0 C0.402 0.01 0.402 0.01 2.438 0.062 C2.767 1.053 3.098 2.043 3.438 3.062 C1.788 2.733 0.137 2.402 -1.562 2.062 C-1.562 3.053 -1.562 4.043 -1.562 5.062 C0.087 5.392 1.738 5.723 3.438 6.062 C4.062 7.938 4.062 7.938 4.438 10.062 C2.438 12.062 2.438 12.062 -0.062 12.375 C-0.475 12.323 -0.475 12.323 -2.562 12.062 C-3.223 11.072 -3.882 10.082 -4.562 9.062 C-3.572 9.228 -3.572 9.228 1.438 10.062 C1.438 9.072 1.438 8.082 1.438 7.062 C-0.212 6.733 -1.863 6.402 -3.562 6.062 C-3.605 4.396 -3.603 2.729 -3.562 1.062 C-2.562 0.062 -2.562 0.062 0 0 Z " fill="#2B2E58" transform="translate(297.5625,365.9375)"/>
<path d="M0 0 C0.825 0.165 0.825 0.165 5 1 C5 3.97 5 6.94 5 10 C3.35 10 1.7 10 0 10 C0 6.7 0 3.4 0 0 Z " fill="#071F4F" transform="translate(72,317)"/>
<path d="M0 0 C1.675 0.286 3.344 0.618 5 1 C5 2.98 5 4.96 5 7 C2.625 7.625 2.625 7.625 0 8 C-0.66 7.34 -1.32 6.68 -2 6 C-1.444 1.444 -1.444 1.444 0 0 Z " fill="#E0E1E8" transform="translate(370,368)"/>
<path d="M0 0 C2.97 0 5.94 0 9 0 C9 0.66 9 1.32 9 2 C8.01 2 7.02 2 6 2 C6 5.3 6 8.6 6 12 C5.01 12 4.02 12 3 12 C3 8.7 3 5.4 3 2 C2.01 2 1.02 2 0 2 C0 1.34 0 0.68 0 0 Z " fill="#414369" transform="translate(304,366)"/>
<path d="M0 0 C0 0.66 0 1.32 0 2 C-2.925 2.842 -5.507 3.118 -8.547 3.098 C-9.391 3.094 -10.236 3.091 -11.105 3.088 C-11.978 3.08 -12.851 3.071 -13.75 3.062 C-14.194 3.06 -14.194 3.06 -16.441 3.049 C-18.628 3.037 -20.814 3.021 -23 3 C-23 2.67 -23 2.34 -23 2 C-19.919 1.466 -16.835 0.95 -13.75 0.438 C-13.314 0.362 -13.314 0.362 -11.105 -0.021 C-10.261 -0.16 -9.417 -0.299 -8.547 -0.441 C-7.772 -0.572 -6.997 -0.703 -6.198 -0.838 C-3.888 -1.008 -2.199 -0.686 0 0 Z " fill="#296633" transform="translate(252,127)"/>
<path d="M0 0 C0 0.99 0 1.98 0 3 C0.66 3.33 1.32 3.66 2 4 C-3.61 5.32 -9.22 6.64 -15 8 C-10.461 3.461 -10.461 3.461 -6.938 1.75 C-6.266 1.415 -5.594 1.08 -4.902 0.734 C-3 0 -3 0 0 0 Z " fill="#244F2B" transform="translate(157,250)"/>
<path d="M0 0 C0.66 0.33 1.32 0.66 2 1 C-3 4.333 -8 7.667 -13 11 C-13 10.34 -13 9.68 -13 9 C-14.32 8.67 -15.64 8.34 -17 8 C-14.214 6.633 -11.421 5.284 -8.625 3.938 C-7.831 3.548 -7.037 3.158 -6.219 2.756 C-5.458 2.392 -4.698 2.028 -3.914 1.652 C-3.563 1.482 -3.563 1.482 -1.788 0.621 C-1.198 0.416 -0.608 0.211 0 0 Z " fill="#343B60" transform="translate(248,142)"/>
<path d="M0 0 C0.825 0.165 0.825 0.165 5 1 C5.625 3.375 5.625 3.375 6 6 C5.34 6.66 4.68 7.32 4 8 C2.68 8 1.36 8 0 8 C0 5.36 0 2.72 0 0 Z " fill="#DCDEE7" transform="translate(164,368)"/>
<path d="M0 0 C0.825 0.165 0.825 0.165 5 1 C5.625 3.375 5.625 3.375 6 6 C5.34 6.66 4.68 7.32 4 8 C2.68 8 1.36 8 0 8 C0 5.36 0 2.72 0 0 Z " fill="#E2E3E9" transform="translate(99,368)"/>
<path d="M0 0 C3.3 0 6.6 0 10 0 C10 0.66 10 1.32 10 2 C8.68 2 7.36 2 6 2 C6 5.3 6 8.6 6 12 C5.34 12 4.68 12 4 12 C4 8.7 4 5.4 4 2 C2.68 2 1.36 2 0 2 C0 1.34 0 0.68 0 0 Z " fill="#212549" transform="translate(125,366)"/>
<path d="M0 0 C3.3 0 6.6 0 10 0 C10 0.66 10 1.32 10 2 C8.68 2 7.36 2 6 2 C6 5.3 6 8.6 6 12 C5.34 12 4.68 12 4 12 C4 8.7 4 5.4 4 2 C2.68 2 1.36 2 0 2 C0 1.34 0 0.68 0 0 Z " fill="#252A53" transform="translate(235,366)"/>
<path d="M0 0 C3.3 0 6.6 0 10 0 C10 0.66 10 1.32 10 2 C8.68 2 7.36 2 6 2 C6 5.3 6 8.6 6 12 C5.34 12 4.68 12 4 12 C4 8.7 4 5.4 4 2 C2.68 2 1.36 2 0 2 C0 1.34 0 0.68 0 0 Z " fill="#282A58" transform="translate(180,366)"/>
<path d="M0 0 C3.96 0 7.92 0 12 0 C11.67 0.66 11.34 1.32 11 2 C8.69 2 6.38 2 4 2 C3.67 3.65 3.34 5.3 3 7 C1.68 7 0.36 7 -1 7 C-1.33 6.34 -1.66 5.68 -2 5 C-1.34 3.35 -0.68 1.7 0 0 Z " fill="#FCBF19" transform="translate(275,114)"/>
<path d="M0 0 C0 0.66 0 1.32 0 2 C-0.66 2 -1.32 2 -2 2 C-2 5.96 -2 9.92 -2 14 C-2.66 14 -3.32 14 -4 14 C-4 10.04 -4 6.08 -4 2 C-4.66 2 -5.32 2 -6 2 C-6 1.34 -6 0.68 -6 0 C-3.509 -1.245 -2.589 -0.777 0 0 Z " fill="#454865" transform="translate(221,364)"/>
<path d="M0 0 C2.97 0 5.94 0 9 0 C9 0.66 9 1.32 9 2 C8.01 2 7.02 2 6 2 C6 5.3 6 8.6 6 12 C5.34 12 4.68 12 4 12 C4 8.7 4 5.4 4 2 C2.68 2 1.36 2 0 2 C0 1.34 0 0.68 0 0 Z " fill="#303359" transform="translate(355,366)"/>
<path d="M0 0 C1.32 0 2.64 0 4 0 C4.66 2.97 5.32 5.94 6 9 C5.34 9 4.68 9 4 9 C3.67 8.34 3.34 7.68 3 7 C0.938 6.375 0.938 6.375 -1 6 C-0.67 4.02 -0.34 2.04 0 0 Z " fill="#575A76" transform="translate(250,369)"/>
<path d="M0 0 C0.598 0.763 1.196 1.526 1.812 2.312 C3.47 4.348 5.103 6.198 7 8 C7.66 6.02 8.32 4.04 9 2 C9.66 2 10.32 2 11 2 C11.33 1.34 11.66 0.68 12 0 C11.329 4.194 9.144 7.403 7 11 C3.302 9.767 3.065 8.799 1.312 5.438 C0.876 4.611 0.439 3.785 -0.012 2.934 C-0.338 2.296 -0.664 1.657 -1 1 C-0.67 0.67 -0.34 0.34 0 0 Z " fill="#788022" transform="translate(218,70)"/>
<path d="M0 0 C0.99 0 1.98 0 3 0 C3 3.96 3 7.92 3 12 C2.01 12 1.02 12 0 12 C0 8.04 0 4.08 0 0 Z " fill="#535673" transform="translate(344,366)"/>
<path d="M0 0 C0.99 0 1.98 0 3 0 C3 3.96 3 7.92 3 12 C2.01 12 1.02 12 0 12 C0 8.04 0 4.08 0 0 Z " fill="#565A76" transform="translate(350,366)"/>
<path d="M0 0 C0.66 0 1.32 0 2 0 C2 3.3 2 6.6 2 10 C3.98 10 5.96 10 8 10 C8 10.66 8 11.32 8 12 C5.36 12 2.72 12 0 12 C0 8.04 0 4.08 0 0 Z " fill="#2C3254" transform="translate(259,366)"/>
<path d="M0 0 C0.99 0 1.98 0 3 0 C3 3.96 3 7.92 3 12 C2.01 12 1.02 12 0 12 C0 8.04 0 4.08 0 0 Z " fill="#535673" transform="translate(175,366)"/>
<path d="M0 0 C0.66 0 1.32 0 2 0 C2 3.3 2 6.6 2 10 C3.65 10 5.3 10 7 10 C7 10.66 7 11.32 7 12 C4.69 12 2.38 12 0 12 C0 8.04 0 4.08 0 0 Z " fill="#1D224F" transform="translate(405,366)"/>
<path d="M0 0 C0.66 0.66 1.32 1.32 2 2 C1.625 5.125 1.625 5.125 1 8 C-0.32 7.67 -1.64 7.34 -3 7 C-3.33 5.02 -3.66 3.04 -4 1 C-2.125 0.375 -2.125 0.375 0 0 Z " fill="#081536" transform="translate(395,298)"/>
<path d="M0 0 C2.125 0.375 2.125 0.375 4 1 C4.562 2.938 4.562 2.938 5 5 C4 6 4 6 1.438 6.062 C1.035 6.052 1.035 6.052 -1 6 C-1.625 4.125 -1.625 4.125 -2 2 C-1.34 1.34 -0.68 0.68 0 0 Z " fill="#FCBA1D" transform="translate(293,69)"/>
<path d="M0 0 C0.66 0 1.32 0 2 0 C2 3.96 2 7.92 2 12 C1.34 12 0.68 12 0 12 C-1.688 10.188 -1.688 10.188 -3 8 C-2.67 7.01 -2.34 6.02 -2 5 C-1.67 5.33 -1.34 5.66 -1 6 C-0.67 4.02 -0.34 2.04 0 0 Z " fill="#242A4C" transform="translate(91,366)"/>
<path d="M0 0 C2 1 2 1 3.125 3.375 C4 6 4 6 4 9 C3.34 9 2.68 9 2 9 C1.67 8.34 1.34 7.68 1 7 C-1.562 6.375 -1.562 6.375 -4 6 C-4.33 6.99 -4.66 7.98 -5 9 C-5.66 9 -6.32 9 -7 9 C-6.688 7.062 -6.688 7.062 -6 5 C-2.867 3.956 -2.01 4.066 1 5 C0.835 4.175 0.835 4.175 0 0 Z " fill="#272B4F" transform="translate(155,369)"/>
<path d="M0 0 C1.98 0 3.96 0 6 0 C8 2 8 2 8 6 C7.34 6 6.68 6 6 6 C5.67 5.01 5.34 4.02 5 3 C3.68 2.67 2.36 2.34 1 2 C1 5.3 1 8.6 1 12 C0.67 12 0.34 12 0 12 C0 8.04 0 4.08 0 0 Z " fill="#1D2149" transform="translate(381,366)"/>
<path d="M0 0 C0.66 0 1.32 0 2 0 C2 3.96 2 7.92 2 12 C1.34 12 0.68 12 0 12 C-0.66 10.35 -1.32 8.7 -2 7 C-1.34 7 -0.68 7 0 7 C0 4.69 0 2.38 0 0 Z " fill="#191F44" transform="translate(277,366)"/>
<path d="M0 0 C1.5 1.25 1.5 1.25 3 3 C3 4.32 3 5.64 3 7 C2.34 7 1.68 7 1 7 C1 6.01 1 5.02 1 4 C-0.98 4 -2.96 4 -5 4 C-5 4.99 -5 5.98 -5 7 C-5.66 7 -6.32 7 -7 7 C-6.625 4.562 -6.625 4.562 -6 2 C-5.34 1.67 -4.68 1.34 -4 1 C-4 1.66 -4 2.32 -4 3 C-2.68 3 -1.36 3 0 3 C0 2.01 0 1.02 0 0 Z " fill="#24274B" transform="translate(205,371)"/>
<path d="M0 0 C4.833 -0.083 9.237 0.047 14 1 C14 1.66 14 2.32 14 3 C8.78 3.18 4.927 2.971 0 1 C0 0.67 0 0.34 0 0 Z " fill="#245836" transform="translate(215,260)"/>
<path d="M0 0 C2.645 3.125 3.844 6.088 5 10 C3.825 9.073 2.66 8.133 1.5 7.188 C1.175 6.926 1.175 6.926 -0.469 5.605 C-2 4 -2 4 -2 1 C-1.34 0.67 -0.68 0.34 0 0 Z " fill="#FCBF27" transform="translate(298,193)"/>
<path d="M0 0 C2.743 3.2 4.63 6.005 6 10 C5.34 10 4.68 10 4 10 C4 9.34 4 8.68 4 8 C3.01 8 2.02 8 1 8 C0.67 8.66 0.34 9.32 0 10 C0 6.7 0 3.4 0 0 Z " fill="#E7E7EE" transform="translate(185,298)"/>
<path d="M0 0 C0.66 0.33 1.32 0.66 2 1 C0.68 3.31 -0.64 5.62 -2 8 C-2.66 8 -3.32 8 -4 8 C-4.66 6.68 -5.32 5.36 -6 4 C-4.02 2.68 -2.04 1.36 0 0 Z " fill="#EBEBEE" transform="translate(204,301)"/>
<path d="M0 0 C0.644 0.006 0.644 0.006 3.902 0.035 C5.193 0.044 6.483 0.053 7.812 0.062 C8.812 0.074 9.811 0.086 10.84 0.098 C7.623 1.843 5.52 2.302 1.84 2.098 C1.51 3.088 1.18 4.078 0.84 5.098 C0.84 3.778 0.84 2.458 0.84 1.098 C-1.16 2.098 -1.16 2.098 -3.16 5.098 C-3.723 3.16 -3.723 3.16 -4.16 1.098 C-3.16 0.098 -3.16 0.098 0 0 Z " fill="#82810D" transform="translate(223.16015625,29.90234375)"/>
<path d="M0 0 C0.99 0.33 1.98 0.66 3 1 C3.124 2.134 3.248 3.269 3.375 4.438 C3.581 5.613 3.788 6.789 4 8 C4.66 8.33 5.32 8.66 6 9 C5.01 9.66 4.02 10.32 3 11 C2.496 9.543 1.997 8.084 1.5 6.625 C1.222 5.813 0.943 5.001 0.656 4.164 C0 2 0 2 0 0 Z " fill="#3B4168" transform="translate(331,366)"/>
<path d="M0 0 C6.875 0.875 6.875 0.875 8 2 C8.041 4 8.043 6 8 8 C7.887 7.68 7.887 7.68 7.312 6.062 C6 4 6 4 3.562 3.25 C1 3 1 3 -2 3 C-1.34 2.01 -0.68 1.02 0 0 Z " fill="#212448" transform="translate(369,366)"/>
<path d="M0 0 C0.66 0 1.32 0 2 0 C1.01 3.96 0.02 7.92 -1 12 C-1.99 12 -2.98 12 -4 12 C-2.667 8 -1.333 4 0 0 Z " fill="#1C284E" transform="translate(370,315)"/>
<path d="M0 0 C0.825 0.165 0.825 0.165 5 1 C5.33 2.65 5.66 4.3 6 6 C4.02 6 2.04 6 0 6 C0 4.02 0 2.04 0 0 Z " fill="#DAE2DC" transform="translate(163,242)"/>
<path d="M0 0 C0.33 0 0.66 0 1 0 C1.061 0.782 1.121 1.565 1.184 2.371 C1.267 3.383 1.351 4.395 1.438 5.438 C1.519 6.447 1.6 7.456 1.684 8.496 C2 11 2 11 3 12 C3.041 13.666 3.043 15.334 3 17 C2.34 17 1.68 17 1 17 C-0.187 13.44 -0.097 10.562 -0.062 6.812 C-0.053 5.54 -0.044 4.268 -0.035 2.957 C-0.024 1.981 -0.012 1.005 0 0 Z " fill="#050E33" transform="translate(190,206)"/>
<path d="M0 0 C0.99 0.33 1.98 0.66 3 1 C2.34 1 1.68 1 1 1 C1 4.96 1 8.92 1 13 C0.01 13.33 -0.98 13.66 -2 14 C-2 12.68 -2 11.36 -2 10 C-1.34 10 -0.68 10 0 10 C0 6.7 0 3.4 0 0 Z " fill="#9D9FB7" transform="translate(186,368)"/>
<path d="M0 0 C0 2 0 2 -1.426 3.543 C-2.048 4.086 -2.671 4.628 -3.312 5.188 C-3.927 5.738 -4.542 6.288 -5.176 6.855 C-5.778 7.233 -6.38 7.611 -7 8 C-7.99 7.67 -8.98 7.34 -10 7 C-8.714 5.827 -7.421 4.662 -6.125 3.5 C-5.765 3.175 -5.765 3.175 -3.945 1.531 C-2 0 -2 0 0 0 Z " fill="#1A2348" transform="translate(131,285)"/>
<path d="M0 0 C-3.122 0.967 -5.521 0.99 -8.75 0.562 C-9.15 0.512 -9.15 0.512 -11.172 0.254 C-11.775 0.17 -12.378 0.086 -13 0 C-8.464 -4.536 -5.19 -2.495 0 0 Z " fill="#152756" transform="translate(257,262)"/>
<path d="M0 0 C3 1 3 1 4.387 3.285 C4.816 4.202 5.245 5.118 5.688 6.062 C5.906 6.522 5.906 6.522 7.012 8.848 C7.338 9.558 7.664 10.268 8 11 C7.67 11.165 7.67 11.165 6 12 C4.02 8.04 2.04 4.08 0 0 Z " fill="#161F46" transform="translate(242,199)"/>
<path d="M0 0 C1.65 0.33 3.3 0.66 5 1 C4.67 1.99 4.34 2.98 4 4 C2.062 4.812 2.062 4.812 0 5 C-0.66 4.34 -1.32 3.68 -2 3 C-1.34 2.01 -0.68 1.02 0 0 Z " fill="#21632B" transform="translate(256,122)"/>
<path d="M0 0 C0.66 0 1.32 0 2 0 C1.125 3.875 1.125 3.875 0 5 C-2.438 5.25 -2.438 5.25 -5 5 C-5.66 4.01 -6.32 3.02 -7 2 C-4.69 2.33 -2.38 2.66 0 3 C0 2.01 0 1.02 0 0 Z " fill="#24274E" transform="translate(300,373)"/>
<path d="M0 0 C2 3 2 3 1.625 5.188 C1.419 5.786 1.212 6.384 1 7 C0.01 7 -0.98 7 -2 7 C-2.125 4.625 -2.125 4.625 -2 2 C-1.34 1.34 -0.68 0.68 0 0 Z " fill="#08183D" transform="translate(326,305)"/>
<path d="M0 0 C1.875 0.312 1.875 0.312 4 1 C4.66 1.99 5.32 2.98 6 4 C3.69 4 1.38 4 -1 4 C-0.67 2.68 -0.34 1.36 0 0 Z " fill="#272D58" transform="translate(263,276)"/>
<path d="M0 0 C0.66 0 1.32 0 2 0 C0.509 3.795 -1.757 5.61 -5 8 C-5.66 7.67 -6.32 7.34 -7 7 C-6.381 6.752 -5.762 6.505 -5.125 6.25 C-2.63 4.782 -2.099 3.62 -1 1 C-0.67 0.67 -0.34 0.34 0 0 Z " fill="#244E2D" transform="translate(149,199)"/>
<path d="M0 0 C2.31 0 4.62 0 7 0 C7.33 1.32 7.66 2.64 8 4 C5.648 3.401 3.314 2.731 1 2 C0.67 1.34 0.34 0.68 0 0 Z " fill="#051A4A" transform="translate(79,307)"/>
<path d="M0 0 C0.928 0.206 1.856 0.412 2.812 0.625 C2.483 1.285 2.152 1.945 1.812 2.625 C-0.836 3.219 -3.479 3.367 -6.188 3.625 C-6.188 2.965 -6.188 2.305 -6.188 1.625 C-3.188 -0.375 -3.188 -0.375 0 0 Z " fill="#1B2352" transform="translate(347.1875,252.375)"/>
<path d="M0 0 C3.161 1.37 3.993 1.989 6 5 C2.7 4.34 -0.6 3.68 -4 3 C-2.68 2.01 -1.36 1.02 0 0 Z " fill="#C9CECD" transform="translate(202,247)"/>
<path d="M0 0 C0.33 0.66 0.66 1.32 1 2 C0.223 3.727 0.223 3.727 -0.938 5.625 C-1.618 6.739 -2.299 7.853 -3 9 C-3.99 8.01 -4.98 7.02 -6 6 C-5.67 5.34 -5.34 4.68 -5 4 C-4.01 4.33 -3.02 4.66 -2 5 C-1.856 4.361 -1.711 3.721 -1.562 3.062 C-1 1 -1 1 0 0 Z " fill="#114C1A" transform="translate(188,79)"/>
<path d="M0 0 C1 3 1 3 0.223 5.043 C-0.16 5.751 -0.543 6.458 -0.938 7.188 C-1.318 7.903 -1.698 8.618 -2.09 9.355 C-2.24 9.627 -2.24 9.627 -3 11 C-3.66 10.34 -4.32 9.68 -5 9 C-3.35 6.03 -1.7 3.06 0 0 Z " fill="#1E5825" transform="translate(193,69)"/>
<path d="M0 0 C0.66 0 1.32 0 2 0 C2.33 1.65 2.66 3.3 3 5 C1.35 5.66 -0.3 6.32 -2 7 C-1.125 2.25 -1.125 2.25 0 0 Z " fill="#DADCE5" transform="translate(387,294)"/>
<path d="M0 0 C2.97 0 5.94 0 9 0 C6.64 2.097 5.454 2.969 2.25 3.188 C1.879 3.157 1.879 3.157 0 3 C0 2.01 0 1.02 0 0 Z " fill="#091230" transform="translate(383,284)"/>
<path d="M0 0 C0.66 0.33 1.32 0.66 2 1 C-2.821 7.295 -2.821 7.295 -7 8 C-6.021 6.854 -5.042 5.708 -4.062 4.562 C-3.517 3.924 -2.972 3.286 -2.41 2.629 C-1.632 1.73 -0.841 0.841 0 0 Z " fill="#2E3352" transform="translate(212,163)"/>
<path d="M0 0 C1.65 0 3.3 0 5 0 C5.33 0.99 5.66 1.98 6 3 C3 4 3 4 0 3 C0 2.01 0 1.02 0 0 Z " fill="#DBDCE5" transform="translate(248,375)"/>
<path d="M0 0 C1.98 0 3.96 0 6 0 C6 0.99 6 1.98 6 3 C4.02 3 2.04 3 0 3 C0 2.01 0 1.02 0 0 Z " fill="#D3D4DF" transform="translate(200,375)"/>
<path d="M0 0 C1.32 0 2.64 0 4 0 C4.33 0.99 4.66 1.98 5 3 C4.01 3 3.02 3 2 3 C1.67 4.65 1.34 6.3 1 8 C0.67 8 0.34 8 0 8 C0 5.36 0 2.72 0 0 Z " fill="#54597A" transform="translate(271,370)"/>
<path d="M0 0 C0.825 0.165 0.825 0.165 5 1 C4.67 1.99 4.34 2.98 4 4 C2.68 4 1.36 4 0 4 C0 2.68 0 1.36 0 0 Z " fill="#CACBD9" transform="translate(139,368)"/>
<path d="M0 0 C3 3.625 3 3.625 3 7 C1.68 7 0.36 7 -1 7 C-1.33 6.34 -1.66 5.68 -2 5 C-1.062 2.375 -1.062 2.375 0 0 Z " fill="#FDC32D" transform="translate(275,114)"/>
<path d="M0 0 C1.32 0.66 2.64 1.32 4 2 C2.35 3.32 0.7 4.64 -1 6 C-1.043 4.334 -1.041 2.666 -1 1 C-0.67 0.67 -0.34 0.34 0 0 Z " fill="#0D1B45" transform="translate(250,293)"/>
<path d="M0 0 C0.66 0 1.32 0 2 0 C1.67 1.32 1.34 2.64 1 4 C-1.31 4.33 -3.62 4.66 -6 5 C-5.196 4.361 -4.391 3.721 -3.562 3.062 C-1 1 -1 1 0 0 Z " fill="#296038" transform="translate(211,255)"/>
<path d="M0 0 C0.33 0 0.66 0 1 0 C1.369 5.415 1.369 5.415 -0.5 8.375 C-0.995 8.911 -1.49 9.447 -2 10 C-1.86 8.52 -1.712 7.041 -1.562 5.562 C-1.481 4.739 -1.4 3.915 -1.316 3.066 C-1 1 -1 1 0 0 Z " fill="#FABE2B" transform="translate(248,153)"/>
</svg>
