<?xml version="1.0" encoding="UTF-8"?>
<!-- Generator: visioncortex VTracer 0.6.12 -->
<svg version="1.1" xmlns="http://www.w3.org/2000/svg" width="468" height="430">
<path d="M0 0 C154.44 0 308.88 0 468 0 C468 141.9 468 283.8 468 430 C313.56 430 159.12 430 0 430 C0 288.1 0 146.2 0 0 Z " fill="#010101" transform="translate(0,0)"/>
<path d="M0 0 C2.716 -0.01 5.431 -0.041 8.146 -0.072 C33.715 -0.227 55.024 5.933 73.652 24.24 C74.279 24.854 74.905 25.467 75.551 26.1 C86.08 37.249 93.908 53.866 94.652 69.24 C94.714 70.143 94.776 71.045 94.84 71.975 C95.484 88.164 90.656 102.392 82.652 116.24 C82.405 116.677 82.405 116.677 81.152 118.885 C75.412 128.195 67.44 135.224 58.097 140.768 C55.826 142.136 53.742 143.612 51.652 145.24 C52.281 146.065 52.91 146.89 53.558 147.74 C69.652 169.295 69.652 169.295 69.652 177.24 C68.992 177.24 68.332 177.24 67.652 177.24 C66.455 175.808 65.262 174.371 64.093 172.916 C50.266 156.839 28.921 150.062 8.652 147.24 C8.112 131.87 10.633 124.32 20.652 112.24 C22.38 110.445 24.16 108.727 25.961 107.006 C34.496 98.096 40.086 87.113 39.859 74.701 C39.146 66.228 36.132 59.807 29.652 54.24 C24.417 50.871 19.313 49.217 13.105 48.924 C12.683 48.903 12.683 48.903 10.547 48.797 C9.674 48.758 8.801 48.718 7.902 48.678 C7.014 48.635 6.126 48.591 5.211 48.547 C3.025 48.441 0.838 48.339 -1.348 48.24 C1.456 54.061 4.376 59.785 7.535 65.42 C7.786 65.869 7.786 65.869 9.057 68.14 C10.075 69.95 11.1 71.757 12.132 73.56 C12.601 74.395 13.071 75.231 13.554 76.092 C13.768 76.467 13.768 76.467 14.851 78.368 C15.115 78.986 15.38 79.604 15.652 80.24 C15.322 80.9 14.992 81.56 14.652 82.24 C7.758 73.726 0.978 65.19 -5.348 56.24 C-7.932 58.781 -10.239 61.288 -12.348 64.24 C-20.214 60.674 -25.244 53.032 -30.43 46.4 C-31.063 45.688 -31.696 44.975 -32.348 44.24 C-33.008 44.24 -33.668 44.24 -34.348 44.24 C-35.445 45.646 -35.445 45.646 -36.625 47.6 C-37.056 48.303 -37.488 49.007 -37.932 49.732 C-38.379 50.477 -38.825 51.223 -39.285 51.99 C-40.168 53.444 -41.052 54.898 -41.938 56.35 C-42.352 57.033 -42.767 57.716 -43.194 58.42 C-44.348 60.24 -44.348 60.24 -46.176 62.604 C-47.348 64.24 -47.348 64.24 -47.16 66.678 C-46.341 69.26 -45.415 71.75 -44.348 74.24 C-44.856 73.879 -45.364 73.518 -45.887 73.146 C-46.575 72.682 -47.264 72.218 -47.973 71.74 C-48.646 71.276 -49.319 70.812 -50.012 70.334 C-53.172 68.854 -54.899 68.564 -58.348 69.24 C-60.502 71.318 -61.945 73.745 -63.473 76.303 C-63.889 76.96 -64.306 77.616 -64.735 78.293 C-67.401 82.535 -69.886 86.878 -72.348 91.24 C-73.407 88.048 -73.319 86.363 -72.055 83.264 C-71.756 82.515 -71.457 81.766 -71.15 80.995 C-70.823 80.21 -70.497 79.424 -70.16 78.615 C-69.835 77.81 -69.51 77.005 -69.175 76.175 C-68.53 74.58 -67.881 72.986 -67.227 71.394 C-66.149 68.752 -65.125 66.09 -64.098 63.428 C-62.781 60.169 -61.44 57.093 -59.348 54.24 C-58.688 54.24 -58.028 54.24 -57.348 54.24 C-56.688 55.89 -56.028 57.54 -55.348 59.24 C-54.688 59.24 -54.028 59.24 -53.348 59.24 C-53.082 58.367 -52.816 57.494 -52.543 56.594 C-51.376 53.319 -49.982 50.577 -48.231 47.58 C-47.927 47.06 -47.927 47.06 -46.391 44.426 C-45.758 43.354 -45.125 42.282 -44.473 41.178 C-44.16 40.64 -44.16 40.64 -42.578 37.918 C-39.744 33.085 -36.934 28.56 -33.348 24.24 C-31.368 26.88 -29.388 29.52 -27.348 32.24 C-27.513 31.415 -27.513 31.415 -28.348 27.24 C-29.008 27.24 -29.668 27.24 -30.348 27.24 C-31.721 25.948 -33.058 24.616 -34.348 23.24 C-34.746 23.927 -35.145 24.614 -35.555 25.322 C-36.085 26.223 -36.615 27.124 -37.16 28.053 C-37.421 28.499 -37.421 28.499 -38.742 30.76 C-40.14 32.919 -41.526 34.461 -43.348 36.24 C-44.035 38.428 -44.035 38.428 -44.348 40.24 C-45.008 40.24 -45.668 40.24 -46.348 40.24 C-46.472 40.983 -46.595 41.725 -46.723 42.49 C-47.303 45.042 -48.085 46.967 -49.348 49.24 C-50.008 49.24 -50.668 49.24 -51.348 49.24 C-51.637 49.838 -51.925 50.436 -52.223 51.053 C-53.348 53.24 -53.348 53.24 -55.348 56.24 C-56.008 55.25 -56.668 54.26 -57.348 53.24 C-60.348 54.24 -60.348 54.24 -61.735 56.525 C-62.164 57.442 -62.593 58.358 -63.035 59.303 C-63.472 60.222 -63.909 61.141 -64.36 62.088 C-64.686 62.798 -65.012 63.508 -65.348 64.24 C-66.008 64.24 -66.668 64.24 -67.348 64.24 C-67.595 64.859 -67.843 65.478 -68.098 66.115 C-69.568 68.615 -70.762 69.073 -73.348 70.24 C-73.371 61.522 -73.389 52.803 -73.4 44.085 C-73.405 40.037 -73.412 35.989 -73.423 31.941 C-73.434 28.038 -73.44 24.135 -73.443 20.231 C-73.445 18.739 -73.448 17.246 -73.454 15.754 C-73.461 13.671 -73.462 11.587 -73.461 9.504 C-73.464 8.316 -73.466 7.128 -73.468 5.904 C-73.348 3.24 -73.348 3.24 -72.348 2.24 C-69.809 2.092 -67.295 2.005 -64.754 1.959 C-63.975 1.941 -63.195 1.922 -62.392 1.903 C-59.877 1.844 -57.363 1.792 -54.848 1.74 C-51.587 1.671 -48.327 1.598 -45.067 1.521 C-44.248 1.502 -43.43 1.483 -42.587 1.463 C-37.363 1.328 -32.16 1.07 -26.946 0.725 C-17.966 0.145 -8.997 0.019 0 0 Z " fill="#C09D0B" transform="translate(229.347900390625,28.759765625)"/>
<path d="M0 0 C2.966 1.312 4.809 2.625 6.875 5.117 C7.385 5.724 7.896 6.331 8.422 6.957 C8.682 7.273 8.682 7.273 10 8.875 C16.39 16.546 16.39 16.546 20 20 C23.35 18.883 23.793 18.253 25.688 15.438 C26.124 14.797 26.561 14.156 27.012 13.496 C27.338 13.002 27.664 12.509 28 12 C31.674 15.53 34.871 19.239 37.938 23.312 C38.371 23.882 38.805 24.452 39.252 25.039 C42.117 28.806 44.952 32.594 47.746 36.414 C49 38 49 38 50.426 39.398 C52.441 41.449 54.07 43.668 55.75 46 C56.384 46.866 57.018 47.733 57.672 48.625 C58.11 49.409 58.548 50.192 59 51 C58 54 58 54 56.293 54.949 C55.598 55.193 54.903 55.436 54.188 55.688 C53.5 55.939 52.813 56.19 52.105 56.449 C50 57 50 57 46 57 C46 57.99 46 58.98 46 60 C49.63 60 53.26 60 57 60 C50.86 66.14 44.336 66.563 36 67 C36 67.66 36 68.32 36 69 C35.498 69.115 35.498 69.115 32.957 69.699 C11.266 74.811 -10.266 83.294 -23 102.625 C-24.031 104.399 -25.034 106.19 -26 108 C-26.199 108.363 -26.199 108.363 -27.203 110.199 C-30.452 116.758 -31.658 123.851 -33 131 C-36.21 128.31 -37.776 124.821 -39.562 121.125 C-39.866 120.513 -40.17 119.9 -40.482 119.27 C-42.139 115.898 -43.659 112.509 -45 109 C-46.839 111.276 -48.148 113.324 -49.375 116 C-51.166 119.307 -52.89 120.927 -56 123 C-56.66 123 -57.32 123 -58 123 C-56.873 105.818 -47.567 89.253 -37 76 C-36.304 75.076 -35.608 74.151 -34.891 73.199 C-34.579 72.836 -34.579 72.836 -33 71 C-32.34 71 -31.68 71 -31 71 C-31 70.34 -31 69.68 -31 69 C-36.446 71.723 -40.218 74.968 -44.398 79.391 C-44.927 79.922 -45.455 80.453 -46 81 C-46.33 81 -46.66 81 -47 81 C-47.559 71.505 -46.241 63.911 -43 55 C-42.738 54.19 -42.477 53.381 -42.207 52.547 C-41.243 49.671 -40.437 47.42 -38.227 45.293 C-35.184 42.16 -33.122 38.602 -30.875 34.875 C-30 33.433 -29.122 31.993 -28.242 30.555 C-27.859 29.92 -27.476 29.286 -27.082 28.632 C-26 27 -26 27 -24 25 C-19.761 24.31 -17.516 25.072 -14.125 27.5 C-13.073 28.32 -12.027 29.149 -11 30 C-11.516 29.278 -12.031 28.556 -12.562 27.812 C-14.286 24.44 -14.046 23.552 -13 20 C-11.693 17.596 -11.693 17.596 -10.059 15.137 C-9.475 14.25 -8.892 13.364 -8.291 12.451 C-7.679 11.539 -7.068 10.627 -6.438 9.688 C-5.822 8.756 -5.206 7.825 -4.572 6.865 C-3.055 4.572 -1.531 2.284 0 0 Z " fill="#195A21" transform="translate(195,72)"/>
<path d="M0 0 C23.611 -0.42 42.078 2.304 59.922 18.93 C64.385 23.286 68.26 28.016 72 33 C84.693 49.783 97.52 65.863 119 71 C119 71.66 119 72.32 119 73 C116.147 73.818 113.293 74.63 110.438 75.438 C109.638 75.668 108.838 75.898 108.014 76.135 C88.746 81.561 69.647 80.231 51.863 70.738 C28.33 56.451 15.566 30.228 2.641 6.996 C2.13 6.08 1.62 5.164 1.095 4.22 C0 2 0 2 0 0 Z " fill="#02316C" transform="translate(225,184)"/>
<path d="M0 0 C-0.32 0.182 -0.32 0.182 -1.941 1.102 C-15.632 9.059 -24.366 19.475 -29 35 C-33.075 54.412 -27.827 72.228 -18 89 C-15.878 92.232 -13.6 95.142 -11 98 C-10.385 98.683 -9.77 99.366 -9.137 100.07 C-2.802 106.748 4.582 112.234 13 116 C13 116.33 13 116.66 13 117 C8.875 117.088 4.751 117.141 0.625 117.188 C-0.531 117.213 -1.688 117.238 -2.879 117.264 C-17.089 117.384 -29.64 112.841 -40.16 103.031 C-52.181 89.76 -55.705 74.47 -55.127 57.197 C-54.188 40.992 -44.262 26.492 -32.614 15.795 C-25.186 9.259 -17.011 4.977 -8 1 C-7.082 0.578 -6.164 0.157 -5.219 -0.277 C-3 -1 -3 -1 0 0 Z " fill="#F7F7F8" transform="translate(233,147)"/>
<path d="M0 0 C1.7 0.082 3.403 0.107 5.105 0.098 C5.597 0.096 5.597 0.096 8.084 0.088 C9.108 0.08 10.132 0.071 11.188 0.062 C12.223 0.058 13.259 0.053 14.326 0.049 C16.884 0.037 19.442 0.021 22 0 C16.165 6.217 9.107 6.575 1 7 C1 7.66 1 8.32 1 9 C-0.004 9.231 -1.008 9.461 -2.043 9.699 C-23.734 14.811 -45.266 23.294 -58 42.625 C-59.031 44.399 -60.034 46.19 -61 48 C-61.397 48.726 -61.794 49.451 -62.203 50.199 C-65.452 56.758 -66.658 63.851 -68 71 C-71.21 68.31 -72.776 64.821 -74.562 61.125 C-74.866 60.513 -75.17 59.9 -75.482 59.27 C-77.139 55.898 -78.659 52.509 -80 49 C-81.839 51.276 -83.148 53.324 -84.375 56 C-86.166 59.307 -87.89 60.927 -91 63 C-91.66 63 -92.32 63 -93 63 C-91.873 45.818 -82.567 29.253 -72 16 C-71.358 15.149 -70.716 14.298 -70.055 13.422 C-54.479 -4.938 -21.691 -7.23 0 0 Z " fill="#195921" transform="translate(230,132)"/>
<path d="M0 0 C1.849 2.774 3.088 5.481 4.361 8.548 C7.212 15.406 10.149 21.308 15 27 C15.66 27.99 16.32 28.98 17 30 C14.69 30.66 12.38 31.32 10 32 C13.753 36.964 17.459 41.734 22 46 C18.366 48.326 15.229 48.163 11 48 C15.694 54.995 20.511 59.157 28 63 C27 65 27 65 24.125 66.125 C17.348 67.889 10.396 67.909 4 65 C4 67.31 4 69.62 4 72 C4.495 71.835 4.495 71.835 7 71 C41.803 68.841 41.803 68.841 53 78 C55.134 79.128 57.303 80.189 59.5 81.188 C60.603 81.697 61.707 82.206 62.844 82.73 C65.604 83.841 68.071 84.546 71 85 C71 85.33 71 85.66 71 86 C61.896 86.49 53.662 84.624 44.875 82.562 C42.743 82.07 40.61 81.581 38.476 81.095 C36.545 80.655 34.616 80.206 32.687 79.756 C16.411 76.418 -0.949 76.74 -17 81 C-14.845 78.643 -12.803 77.21 -9.938 75.812 C-9.245 75.468 -8.553 75.124 -7.84 74.77 C-6 74 -6 74 -4 74 C-4 71.36 -4 68.72 -4 66 C-4.33 66.165 -4.33 66.165 -6 67 C-8.451 67.125 -10.861 67.185 -13.312 67.188 C-14.629 67.202 -15.945 67.216 -17.301 67.23 C-20.721 67.017 -22.953 66.491 -26 65 C-26 64.34 -26 63.68 -26 63 C-24.277 61.809 -24.277 61.809 -21.938 60.438 C-16.745 57.127 -13.471 53.023 -10 48 C-10.307 48.017 -10.307 48.017 -11.863 48.105 C-12.672 48.133 -13.48 48.16 -14.312 48.188 C-14.713 48.205 -14.713 48.205 -16.738 48.293 C-19.479 47.938 -20.292 47.106 -22 45 C-21.469 44.564 -20.938 44.129 -20.391 43.68 C-16.129 40.087 -12.819 36.815 -10 32 C-12.31 31.34 -14.62 30.68 -17 30 C-17 26.717 -14.257 25.257 -12 23 C-7 16.851 -7 16.851 -7 13 C-6 12 -5 11 -4 10 C-2.832 7.52 -2.832 7.52 -1.812 4.812 C-1.468 3.911 -1.124 3.01 -0.77 2.082 C-0.643 1.738 -0.643 1.738 0 0 Z " fill="#0B4A1D" transform="translate(149,178)"/>
<path d="M0 0 C1.65 0 3.3 0 5 0 C5.165 0.495 5.165 0.495 6 3 C6.99 3.66 7.98 4.32 9 5 C6.241 6.502 4.447 7.092 1.25 7.625 C-9.876 9.964 -20.539 16.631 -29 24 C-29.66 24.495 -30.32 24.99 -31 25.5 C-39.796 32.372 -46.377 43.551 -50 54 C-50.223 54.632 -50.446 55.263 -50.676 55.914 C-54.878 70.723 -52.092 86.429 -45.125 99.812 C-42.433 104.496 -39.362 108.781 -36 113 C-36.684 112.857 -37.367 112.714 -38.071 112.567 C-46.672 110.934 -55.021 110.764 -63.75 110.875 C-65.141 110.885 -66.531 110.894 -67.922 110.902 C-71.281 110.926 -74.641 110.958 -78 111 C-78 108.69 -78 106.38 -78 104 C-77.286 104.161 -76.572 104.322 -75.836 104.488 C-68.697 105.777 -61.823 105.426 -55 103 C-55.652 102.576 -56.305 102.152 -56.977 101.715 C-62.558 97.969 -66.975 94.403 -71 89 C-71 88.34 -71 87.68 -71 87 C-69.35 86.67 -69.35 86.67 -61 85 C-61.681 84.361 -62.361 83.721 -63.062 83.062 C-66.759 79.377 -69.962 75.238 -73 71 C-73 70.67 -73 70.34 -73 70 C-71.845 69.67 -71.845 69.67 -66 68 C-66.495 67.649 -66.99 67.299 -67.5 66.938 C-69.261 64.663 -69.486 63.12 -69.348 60.273 C-66.724 43.118 -57.137 28.508 -43.312 18.25 C-31.311 10.489 -14.745 1.084 0 2 C0 1.34 0 0.68 0 0 Z " fill="#050806" transform="translate(231,139)"/>
<path d="M0 0 C4.503 3.24 7.523 7.392 9.27 12.633 C10.064 21.021 10.407 28.055 4.914 34.898 C0.465 39.591 -3.502 42.297 -10.09 42.82 C-18.637 43.028 -24.69 41.574 -30.996 35.598 C-36.216 29.684 -36.392 22.704 -36.203 15.047 C-35.346 8.854 -32.529 4.858 -27.691 1.012 C-18.833 -4.844 -9.334 -5.145 0 0 Z " fill="#EFEFEF" transform="translate(144.73046875,288.3671875)"/>
<path d="M0 0 C2.938 1.314 4.47 2.452 6.375 5.062 C6.887 8.572 6.783 10.357 5 13.438 C4.464 13.974 3.928 14.51 3.375 15.062 C2.715 15.062 2.055 15.062 1.375 15.062 C1.393 15.526 1.393 15.526 1.486 17.873 C1.606 21.347 1.693 24.819 1.76 28.295 C1.795 29.793 1.842 31.29 1.903 32.787 C2.46 46.825 2.46 46.825 -2.09 51.969 C-3.254 53.016 -4.43 54.051 -5.625 55.062 C-5.79 55.392 -5.79 55.392 -6.625 57.062 C-8.583 57.089 -10.542 57.109 -12.5 57.125 C-13.045 57.131 -13.045 57.131 -15.805 57.16 C-18.625 57.062 -18.625 57.062 -20.625 56.062 C-20.873 56.764 -21.12 57.465 -21.375 58.188 C-23.859 63.901 -27.418 67.979 -31.812 72.27 C-40.298 80.663 -40.298 80.663 -40.625 86.062 C-35.899 85.618 -34.183 83.95 -31.141 80.406 C-30.296 79.466 -29.452 78.526 -28.582 77.558 C-28.361 77.312 -28.361 77.312 -27.244 76.069 C-15.981 63.673 -15.981 63.673 -9.852 62.836 C-7.68 62.793 -5.579 62.932 -3.415 63.094 C1.155 63.377 3.849 62.799 7.462 59.864 C11.717 55.75 13.939 51.969 14.306 46.122 C14.331 38.093 14.331 38.093 11.316 34.844 C10.676 34.256 10.035 33.668 9.375 33.062 C9.375 29.239 9.522 27.006 12.125 24.125 C14.898 22.816 16.35 22.458 19.375 23.062 C21.75 25.125 21.75 25.125 23.375 28.062 C23.312 31.75 23.312 31.75 22.375 35.062 C21.385 35.722 20.395 36.382 19.375 37.062 C19.365 39.019 19.37 40.977 19.471 42.93 C19.75 50.188 18.92 55.625 14.215 61.334 C8.978 66.795 4.661 69.742 -3.045 70.007 C-6.622 69.906 -10.082 69.569 -13.625 69.062 C-13.861 69.639 -14.098 70.216 -14.342 70.811 C-15.907 73.557 -17.732 75.069 -20.16 77.09 C-36.609 91.519 -36.609 91.519 -37.385 101.971 C-37.371 106.061 -37.131 110.001 -36.625 114.062 C-41.575 113.403 -46.525 112.743 -51.625 112.062 C-52.046 96.336 -49.816 89.35 -39.625 77.062 C-37.897 75.267 -36.117 73.55 -34.316 71.828 C-23.536 60.575 -20.928 49.001 -19.625 34.062 C-17.2 37.7 -17.238 39.92 -17 44.25 C-16.925 45.522 -16.85 46.795 -16.773 48.105 C-16.724 49.081 -16.675 50.057 -16.625 51.062 C-14.645 51.062 -12.665 51.062 -10.625 51.062 C-10.625 50.403 -10.625 49.743 -10.625 49.062 C-9.812 48.498 -8.999 47.933 -8.162 47.352 C-5.625 45.062 -5.625 45.062 -5.01 41.994 C-5.017 40.819 -5.024 39.644 -5.031 38.434 C-5.034 37.152 -5.036 35.87 -5.039 34.549 C-5.054 33.884 -5.068 33.22 -5.083 32.535 C-5.125 30.502 -5.124 28.473 -5.117 26.439 C-5.217 16.517 -5.217 16.517 -7.119 14.399 C-7.616 13.958 -8.113 13.517 -8.625 13.062 C-9.587 6.432 -9.587 6.432 -7.453 3.395 C-5.066 1.198 -3.264 0.078 0 0 Z " fill="#EFB407" transform="translate(289.625,63.9375)"/>
<path d="M0 0 C23.36 -0.863 23.36 -0.863 33.438 7.438 C39.639 13.327 41.983 19.903 42.312 28.375 C41.947 40.914 35.21 51.008 27 60 C25.68 59.34 24.36 58.68 23 58 C23.33 57.34 23.66 56.68 24 56 C20.37 55.67 16.74 55.34 13 55 C13 54.01 13 53.02 13 52 C13.699 51.795 14.397 51.59 15.117 51.379 C16.027 51.109 16.937 50.84 17.875 50.562 C18.78 50.296 19.685 50.029 20.617 49.754 C23 49 23 49 25 48 C23.782 44.712 22.436 41.989 20.395 39.145 C16.384 33.262 13.092 27.006 9.766 20.723 C8.679 18.671 7.581 16.623 6.482 14.576 C5.783 13.263 5.085 11.95 4.387 10.637 C4.061 10.029 3.735 9.422 3.399 8.796 C1.877 5.907 0.587 3.227 0 0 Z " fill="#050502" transform="translate(228,77)"/>
<path d="M0 0 C2.97 0 5.94 0 9 0 C11.418 2.457 11.418 2.457 13.188 5.812 C13.507 6.395 13.827 6.977 14.156 7.577 C14.811 8.778 15.451 9.987 16.076 11.203 C17.485 13.942 19.003 16.62 20.5 19.312 C21.337 20.873 22.172 22.435 23 24 C26.815 19.625 29.444 14.826 32.188 9.75 C33.075 8.119 33.965 6.489 34.855 4.859 C35.244 4.142 35.632 3.425 36.032 2.687 C37 1 37 1 38 0 C40.97 0 43.94 0 47 0 C47 14.52 47 29.04 47 44 C44.36 44 41.72 44 39 44 C38.67 34.43 38.34 24.86 38 15 C32.312 25.938 32.312 25.938 30.552 29.39 C30.315 29.836 30.315 29.836 29.113 32.09 C28.637 33.006 28.16 33.923 27.669 34.867 C26 37 26 37 21 38 C17.04 30.74 13.08 23.48 9 16 C8.67 25.24 8.34 34.48 8 44 C5.36 44 2.72 44 0 44 C0 29.48 0 14.96 0 0 Z " fill="#F2F2F2" transform="translate(167,286)"/>
<path d="M0 0 C3.857 -0.062 7.714 -0.124 11.688 -0.188 C12.291 -0.201 12.291 -0.201 15.346 -0.27 C16.308 -0.278 17.271 -0.285 18.262 -0.293 C19.241 -0.309 20.22 -0.324 21.229 -0.341 C26.3 0.283 29.712 3.242 33 7 C34.463 11.389 34.885 15.643 33.246 20.008 C31.41 23.45 29.782 25.784 26 27 C27.378 30.876 29.192 33.879 31.625 37.188 C35 41.782 35 41.782 35 44 C31.776 44.739 29.203 44.905 26 44 C21.607 39.673 18.496 34.984 17 29 C14.03 29 11.06 29 8 29 C8 33.95 8 38.9 8 44 C5.36 44 2.72 44 0 44 C0 29.48 0 14.96 0 0 Z " fill="#F1F1F1" transform="translate(64,286)"/>
<path d="M0 0 C4.236 3.888 7.111 8.024 10.062 12.938 C10.907 14.322 11.752 15.706 12.598 17.09 C12.999 17.751 13.4 18.412 13.813 19.093 C14.932 20.891 16.106 22.636 17.309 24.379 C19 27 19 27 19 29 C19.66 29 20.32 29 21 29 C21.248 28.299 21.495 27.597 21.75 26.875 C23.172 23.605 24.872 20.859 27 18 C27.66 18 28.32 18 29 18 C33.108 25.307 37.205 32.62 41.29 39.939 C42.313 41.77 43.338 43.6 44.366 45.428 C45.397 47.26 46.418 49.098 47.438 50.938 C47.705 51.416 47.705 51.416 49.059 53.84 C49.369 54.553 49.68 55.266 50 56 C49.835 56.33 49.835 56.33 49 58 C42.106 49.485 35.326 40.95 29 32 C26.416 34.541 24.109 37.048 22 40 C14.134 36.434 9.104 28.792 3.918 22.16 C3.285 21.447 2.652 20.734 2 20 C1.34 20 0.68 20 0 20 C-1.097 21.405 -1.097 21.405 -2.277 23.359 C-2.709 24.063 -3.14 24.767 -3.584 25.492 C-4.031 26.237 -4.477 26.982 -4.938 27.75 C-5.82 29.204 -6.704 30.657 -7.59 32.109 C-8.005 32.792 -8.419 33.476 -8.846 34.179 C-10 36 -10 36 -11.828 38.363 C-13 40 -13 40 -12.812 42.438 C-11.994 45.02 -11.067 47.51 -10 50 C-10.508 49.639 -11.016 49.278 -11.539 48.906 C-12.227 48.442 -12.916 47.978 -13.625 47.5 C-14.298 47.036 -14.971 46.572 -15.664 46.094 C-18.824 44.614 -20.551 44.324 -24 45 C-26.154 47.077 -27.597 49.505 -29.125 52.062 C-29.333 52.391 -29.333 52.391 -30.387 54.053 C-33.053 58.294 -35.538 62.638 -38 67 C-39.059 63.808 -38.971 62.123 -37.707 59.023 C-37.408 58.275 -37.11 57.526 -36.802 56.755 C-36.475 55.969 -36.149 55.184 -35.812 54.375 C-35.487 53.57 -35.162 52.764 -34.827 51.935 C-34.182 50.339 -33.533 48.746 -32.879 47.154 C-31.801 44.512 -30.777 41.85 -29.75 39.188 C-28.433 35.929 -27.092 32.852 -25 30 C-24.34 30 -23.68 30 -23 30 C-22.34 31.65 -21.68 33.3 -21 35 C-20.34 35 -19.68 35 -19 35 C-18.735 34.127 -18.47 33.253 -18.197 32.354 C-17.024 29.069 -15.62 26.338 -13.848 23.34 C-13.236 22.299 -12.624 21.258 -11.994 20.186 C-11.357 19.114 -10.719 18.042 -10.062 16.938 C-9.429 15.862 -8.795 14.786 -8.143 13.678 C-5.448 9.107 -2.733 4.548 0 0 Z " fill="#F3F5F2" transform="translate(195,53)"/>
<path d="M0 0 C8 0 8 0 10.082 1.601 C10.582 2.34 11.082 3.079 11.598 3.84 C12.172 4.656 12.746 5.473 13.338 6.314 C13.907 7.18 14.476 8.046 15.062 8.938 C16.219 10.614 17.376 12.29 18.535 13.965 C19.034 14.714 19.533 15.463 20.047 16.234 C22.89 20.26 25.974 24.11 29 28 C29.33 18.76 29.66 9.52 30 0 C32.64 0 35.28 0 38 0 C38 14.52 38 29.04 38 44 C30 44 30 44 27.602 42.086 C26.949 41.191 26.297 40.297 25.625 39.375 C24.884 38.382 24.143 37.39 23.379 36.367 C22.585 35.246 21.792 34.123 21 33 C20.094 31.752 19.186 30.504 18.277 29.258 C15.11 24.889 11.994 20.49 9 16 C8.67 25.57 8.34 35.14 8 45 C5.36 45 2.72 45 0 45 C0 30.15 0 15.3 0 0 Z " fill="#F1F1F1" transform="translate(280,286)"/>
<path d="M0 0 C3.3 0 6.6 0 10 0 C14.373 10.88 18.715 21.772 23 32.688 C23.398 33.697 23.795 34.706 24.205 35.746 C24.57 36.68 24.936 37.613 25.312 38.574 C25.639 39.405 25.965 40.236 26.301 41.093 C27 43 27 43 27 44 C23.7 44 20.4 44 17 44 C16.34 41.03 15.68 38.06 15 35 C8.07 35 1.14 35 -6 35 C-6.165 35.99 -6.165 35.99 -7 41 C-7.66 41.99 -8.32 42.98 -9 44 C-10.945 44.293 -10.945 44.293 -13.125 44.188 C-14.404 44.126 -15.683 44.064 -17 44 C-16.434 39.925 -15.532 36.44 -13.926 32.656 C-13.717 32.16 -13.717 32.16 -12.66 29.646 C-12.215 28.608 -11.771 27.57 -11.312 26.5 C-10.863 25.436 -10.413 24.372 -9.95 23.275 C-8.64 20.181 -7.321 17.09 -6 14 C-5.335 12.438 -4.669 10.875 -4.004 9.312 C-2.678 6.205 -1.343 3.101 0 0 Z " fill="#ECECEC" transform="translate(242,286)"/>
<path d="M0 0 C3.3 0 6.6 0 10 0 C16.023 14.546 22.007 29.062 27 44 C24.03 44 21.06 44 18 44 C17.01 41.03 16.02 38.06 15 35 C8.07 35 1.14 35 -6 35 C-6.165 35.99 -6.165 35.99 -7 41 C-7.66 41.99 -8.32 42.98 -9 44 C-10.945 44.293 -10.945 44.293 -13.125 44.188 C-14.404 44.126 -15.683 44.064 -17 44 C-14.94 36.681 -12.423 29.629 -9.625 22.562 C-9.251 21.603 -8.877 20.643 -8.492 19.654 C-5.875 13 -3.018 6.482 0 0 Z " fill="#EEEEEE" transform="translate(370,286)"/>
<path d="M0 0 C1.7 0.082 3.403 0.107 5.105 0.098 C5.597 0.096 5.597 0.096 8.084 0.088 C9.108 0.08 10.132 0.071 11.188 0.062 C12.223 0.058 13.259 0.053 14.326 0.049 C16.884 0.037 19.442 0.021 22 0 C17.272 5.113 10.869 6.76 4.067 7.095 C1.848 7.145 -0.37 7.164 -2.59 7.176 C-4.279 7.199 -5.969 7.223 -7.658 7.248 C-10.284 7.283 -12.909 7.312 -15.535 7.326 C-40.859 7.482 -61.831 14.698 -80 33 C-81.557 34.958 -82.769 36.817 -84 39 C-85 36 -85 36 -83.664 33.031 C-82.999 31.846 -82.318 30.669 -81.625 29.5 C-81.261 28.879 -80.896 28.258 -80.521 27.619 C-71.024 11.84 -59.652 3.009 -41.938 -1.75 C-28.892 -4.555 -12.717 -4.239 0 0 Z " fill="#EFF2EF" transform="translate(230,132)"/>
<path d="M0 0 C4.181 1.727 6.425 4.321 9 8 C10.66 12.981 10.599 17.303 8.875 22.188 C6.623 25.565 4.723 28.298 1 30 C-4.398 30.841 -9.181 30.965 -14.062 28.375 C-18.072 23.46 -19.534 19.457 -19.281 13.172 C-18.609 7.979 -15.999 4.11 -11.875 0.914 C-8.07 -0.941 -4.097 -0.624 0 0 Z " fill="#060605" transform="translate(136,293)"/>
<path d="M0 0 C36.96 0 73.92 0 112 0 C112 1.98 112 3.96 112 6 C75.04 6 38.08 6 0 6 C0 4.02 0 2.04 0 0 Z " fill="#E4B402" transform="translate(172,345)"/>
<path d="M0 0 C35.97 0 71.94 0 109 0 C109 1.98 109 3.96 109 6 C73.03 6 37.06 6 0 6 C0 4.02 0 2.04 0 0 Z " fill="#DC1419" transform="translate(289,345)"/>
<path d="M0 0 C2.375 2.062 2.375 2.062 4 5 C3.938 8.687 3.938 8.687 3 12 C2.01 12.66 1.02 13.32 0 14 C-0.01 15.956 -0.005 17.914 0.096 19.868 C0.375 27.126 -0.455 32.562 -5.16 38.272 C-10.397 43.733 -14.714 46.68 -22.42 46.945 C-25.997 46.843 -29.457 46.506 -33 46 C-33.236 46.577 -33.473 47.154 -33.717 47.748 C-35.282 50.495 -37.107 52.006 -39.535 54.027 C-55.984 68.457 -55.984 68.457 -56.76 78.908 C-56.746 82.999 -56.506 86.939 -56 91 C-57.32 90.67 -58.64 90.34 -60 90 C-62.072 70.271 -62.072 70.271 -57.82 64.137 C-55.395 61.321 -52.622 58.948 -49.766 56.58 C-47.876 54.889 -46.304 53.09 -44.684 51.141 C-35.893 40.818 -35.893 40.818 -29.719 40.285 C-27.521 40.249 -25.341 40.312 -23.144 40.384 C-17.627 40.431 -14.432 39.236 -10.438 35.375 C-5.316 29.436 -4.905 24.787 -5.223 17.285 C-6.1 13.576 -7.26 12.514 -10 10 C-10 6.176 -9.853 3.944 -7.25 1.062 C-4.477 -0.247 -3.025 -0.605 0 0 Z " fill="#FEF9EE" transform="translate(309,87)"/>
<path d="M0 0 C34.32 0 68.64 0 104 0 C104 1.98 104 3.96 104 6 C69.68 6 35.36 6 0 6 C0 4.02 0 2.04 0 0 Z " fill="#0B5DB7" transform="translate(63,345)"/>
<path d="M0 0 C2.938 1.314 4.47 2.452 6.375 5.062 C6.887 8.572 6.783 10.357 5 13.438 C4.464 13.974 3.928 14.51 3.375 15.062 C2.715 15.062 2.055 15.062 1.375 15.062 C1.412 15.99 1.448 16.917 1.486 17.873 C1.606 21.347 1.693 24.819 1.76 28.295 C1.795 29.793 1.842 31.29 1.903 32.787 C2.46 46.825 2.46 46.825 -2.09 51.969 C-3.254 53.016 -4.43 54.051 -5.625 55.062 C-5.955 55.722 -6.285 56.382 -6.625 57.062 C-10.255 57.062 -13.885 57.062 -17.625 57.062 C-17.295 55.412 -16.965 53.763 -16.625 52.062 C-15.594 52.021 -14.562 51.98 -13.5 51.938 C-9.693 51.078 -7.574 50.165 -4.882 47.332 C-1.993 42.117 -2.736 35.52 -2.75 29.688 C-2.732 28.269 -2.711 26.852 -2.688 25.434 C-2.636 21.976 -2.621 18.52 -2.625 15.062 C-2.934 14.918 -2.934 14.918 -4.5 14.188 C-6.625 13.062 -6.625 13.062 -8.625 11.062 C-9.125 8.25 -9.125 8.25 -8.625 5.062 C-4.082 0.097 -4.082 0.097 0 0 Z " fill="#FDF9F0" transform="translate(289.625,63.9375)"/>
<path d="M0 0 C2.97 0 5.94 0 9 0 C9 14.52 9 29.04 9 44 C6.03 44 3.06 44 0 44 C0 29.48 0 14.96 0 0 Z " fill="#ECECEC" transform="translate(333,286)"/>
<path d="M0 0 C2 2 2 2 2.375 5.938 C2.295 8.881 2.263 9.689 0.312 12 C-2.412 13.178 -4.063 13.452 -7 13 C-8.812 11.625 -8.812 11.625 -10 10 C-10 9.34 -10 8.68 -10 8 C-14.691 7.829 -16.908 8.015 -20.465 11.223 C-22.719 13.762 -24.876 16.352 -27 19 C-27.66 19.66 -28.32 20.32 -29 21 C-29.319 23.063 -29.319 23.063 -29.414 25.57 C-29.453 26.466 -29.491 27.362 -29.531 28.285 C-29.562 29.222 -29.593 30.159 -29.625 31.125 C-29.664 32.07 -29.702 33.015 -29.742 33.988 C-29.837 36.325 -29.922 38.662 -30 41 C-31.65 40.67 -33.3 40.34 -35 40 C-37.567 21.777 -37.567 21.777 -32.012 14.266 C-30.758 12.867 -29.462 11.506 -28.125 10.188 C-27.81 9.871 -27.81 9.871 -26.215 8.269 C-22.371 4.878 -19.665 3.632 -14.492 3.613 C-12.992 3.711 -11.493 3.829 -10 4 C-9.876 3.361 -9.752 2.721 -9.625 2.062 C-9.522 1.722 -9.522 1.722 -9 0 C-5.881 -1.559 -3.337 -0.655 0 0 Z " fill="#FCF4DF" transform="translate(296,141)"/>
<path d="M0 0 C18.48 0 36.96 0 56 0 C56 0.33 56 0.66 56 1 C43.815 1.8 31.644 2.267 19.438 2.562 C17.732 2.606 16.027 2.649 14.322 2.693 C10.215 2.799 6.107 2.9 2 3 C2.002 3.81 2.004 4.62 2.007 5.454 C2.027 13.077 2.042 20.699 2.052 28.321 C2.057 32.24 2.064 36.159 2.075 40.078 C2.086 43.858 2.092 47.638 2.095 51.418 C2.097 52.863 2.1 54.307 2.106 55.751 C2.113 57.769 2.113 59.788 2.114 61.806 C2.116 62.956 2.118 64.107 2.12 65.292 C2 68 2 68 1 70 C5.875 66.25 5.875 66.25 7 64 C7.66 64 8.32 64 9 64 C9.248 62.948 9.495 61.896 9.75 60.812 C10.767 57.187 12.454 54.801 15 52 C18 53 18 53 19 55 C20.317 53.065 21.628 51.127 22.938 49.188 C23.668 48.109 24.399 47.03 25.152 45.918 C27 43 27 43 28 40 C28.66 40 29.32 40 30 40 C29.938 39.257 29.876 38.515 29.812 37.75 C30.032 34.525 30.783 33.303 33 31 C33.66 31 34.32 31 35 31 C35.248 30.258 35.495 29.515 35.75 28.75 C37.091 25.799 38.609 24.152 41 22 C42.5 23.375 42.5 23.375 44 25 C44 25.66 44 26.32 44 27 C44.66 27 45.32 27 46 27 C46 27.66 46 28.32 46 29 C46.66 29.33 47.32 29.66 48 30 C47.835 30.495 47.835 30.495 47 33 C45.02 30.36 43.04 27.72 41 25 C35.415 33.02 30.722 41.458 26 50 C24.979 51.833 23.959 53.667 22.938 55.5 C22.291 56.666 21.645 57.833 21 59 C20.34 59 19.68 59 19 59 C18.34 57.35 17.68 55.7 17 54 C16.34 54 15.68 54 15 54 C14.714 54.715 14.428 55.431 14.133 56.168 C12.422 60.445 10.711 64.723 9 69 C8.34 68.67 7.68 68.34 7 68 C6.578 68.65 6.157 69.299 5.723 69.969 C5.175 70.804 4.627 71.639 4.062 72.5 C3.517 73.335 2.972 74.171 2.41 75.031 C2.177 75.356 2.177 75.356 1 77 C0.67 77 0.34 77 0 77 C0 51.59 0 26.18 0 0 Z " fill="#19571E" transform="translate(155,29)"/>
<path d="M0 0 C2.375 2.062 2.375 2.062 4 5 C3.938 8.688 3.938 8.688 3 12 C2.01 12.66 1.02 13.32 0 14 C-0.432 15.879 -0.432 15.879 -0.512 18.133 C-0.547 18.938 -0.583 19.744 -0.619 20.574 C-0.63 20.995 -0.63 20.995 -0.688 23.125 C-0.722 23.974 -0.756 24.824 -0.791 25.699 C-0.874 27.799 -0.938 29.899 -1 32 C-2.98 31.67 -4.96 31.34 -7 31 C-6.67 30.34 -6.34 29.68 -6 29 C-5.823 26.524 -5.723 24.103 -5.688 21.625 C-5.658 20.952 -5.629 20.279 -5.6 19.586 C-5.555 16.076 -5.636 14.406 -8.02 11.746 C-8.673 11.17 -9.327 10.594 -10 10 C-10 6.176 -9.853 3.944 -7.25 1.062 C-4.477 -0.247 -3.025 -0.605 0 0 Z " fill="#FEFBF3" transform="translate(309,87)"/>
<path d="M0 0 C12.655 -0.275 12.655 -0.275 16 2 C18.164 5.246 18.376 6.243 18 10 C16 13 16 13 13 14 C8.663 14.135 4.34 14.043 0 14 C0 9.38 0 4.76 0 0 Z " fill="#090909" transform="translate(72,293)"/>
<path d="M0 0 C5.667 0 11.333 0 17 0 C17.33 0.99 17.66 1.98 18 3 C17.175 2.835 17.175 2.835 13 2 C13 2.66 13 3.32 13 4 C13.804 4.248 14.609 4.495 15.438 4.75 C18 6 18 6 19 7.938 C19 10 19 10 17.625 11.562 C17.089 12.037 16.553 12.511 16 13 C15.67 13.99 15.34 14.98 15 16 C14.67 14.68 14.34 13.36 14 12 C9.38 12 4.76 12 0 12 C0 8.04 0 4.08 0 0 Z " fill="#1C1D1D" transform="translate(271,367)"/>
<path d="M0 0 C2 2 2 2 2.375 5.938 C2.295 8.881 2.263 9.689 0.312 12 C-2.412 13.178 -4.063 13.452 -7 13 C-8.812 11.625 -8.812 11.625 -10 10 C-10 9.34 -10 8.68 -10 8 C-11.65 8 -13.3 8 -15 8 C-15.33 7.01 -15.66 6.02 -16 5 C-15.608 4.959 -15.608 4.959 -13.625 4.75 C-11 4 -11 4 -9.812 2 C-9.544 1.34 -9.276 0.68 -9 0 C-5.881 -1.559 -3.337 -0.655 0 0 Z " fill="#FDF8EC" transform="translate(296,141)"/>
<path d="M0 0 C4 2 4 2 5.25 4.625 C5.498 5.409 5.745 6.192 6 7 C6.66 7 7.32 7 8 7 C8 4.69 8 2.38 8 0 C12.62 0 17.24 0 22 0 C22 0.66 22 1.32 22 2 C20.68 2 19.36 2 18 2 C18 5.3 18 8.6 18 12 C16.35 12 14.7 12 13 12 C12.67 11.34 12.34 10.68 12 10 C11.34 10.33 11.34 10.33 8 12 C6.35 9.69 4.7 7.38 3 5 C2.67 7.31 2.34 9.62 2 12 C1.34 12 0.68 12 0 12 C0 8.04 0 4.08 0 0 Z " fill="#131312" transform="translate(212,367)"/>
<path d="M0 0 C-1.377 3.205 -2.885 4.878 -5.566 7.066 C-9.423 10.811 -9.843 13.826 -9.971 19.08 C-9.96 20.023 -9.949 20.966 -9.938 21.938 C-9.954 22.908 -9.97 23.878 -9.986 24.877 C-10.021 27.253 -10.025 29.624 -10 32 C-11.32 31.67 -12.64 31.34 -14 31 C-15.728 10.559 -15.728 10.559 -11.914 5.535 C-7.871 1.878 -5.546 0 0 0 Z " fill="#FBFAF4" transform="translate(263,146)"/>
<path d="M0 0 C2.91 2.468 3.935 4.931 5.188 8.5 C5.532 9.459 5.876 10.418 6.23 11.406 C7 14 7 14 7 17 C2.71 17 -1.58 17 -6 17 C-4.311 11.129 -2.536 5.556 0 0 Z " fill="#101010" transform="translate(246,296)"/>
<path d="M0 0 C2.91 2.468 3.935 4.931 5.188 8.5 C5.532 9.459 5.876 10.418 6.23 11.406 C7 14 7 14 7 17 C2.71 17 -1.58 17 -6 17 C-4.311 11.129 -2.536 5.556 0 0 Z " fill="#121212" transform="translate(374,296)"/>
<path d="M0 0 C1.938 1.688 1.938 1.688 3 4 C2.861 6.853 2.369 8.465 0.75 10.812 C-1.692 12.47 -3.112 12.505 -6 12 C-8.286 9.872 -8.923 8.526 -9.375 5.438 C-9 3 -9 3 -7.875 1.188 C-5.1 -0.57 -3.211 -0.468 0 0 Z " fill="#DCDCDD" transform="translate(362,367)"/>
<path d="M0 0 C0.99 0 1.98 0 3 0 C3.99 1.98 4.98 3.96 6 6 C6.99 4.02 7.98 2.04 9 0 C11.31 0 13.62 0 16 0 C16 3.96 16 7.92 16 12 C15.01 12 14.02 12 13 12 C12.34 10.02 11.68 8.04 11 6 C10.402 6.99 9.804 7.98 9.188 9 C8.466 9.99 7.744 10.98 7 12 C6.01 12 5.02 12 4 12 C3.329 10.377 2.663 8.751 2 7.125 C1.629 6.22 1.257 5.315 0.875 4.383 C0 2 0 2 0 0 Z " fill="#7B7B7B" transform="translate(318,367)"/>
<path d="M0 0 C3.036 0.148 3.895 0.624 5.977 2.898 C7.49 5.173 8.858 7.456 10.125 9.875 C3.725 10.244 3.725 10.244 0.688 8.375 C0.172 7.88 -0.344 7.385 -0.875 6.875 C-1.246 7.37 -1.618 7.865 -2 8.375 C-4.622 10.473 -6.613 10.092 -9.875 9.875 C-7.56 4.666 -5.809 1.312 0 0 Z " fill="#EAEAEA" transform="translate(246.875,272.125)"/>
<path d="M0 0 C6.055 -0.195 6.055 -0.195 8 0 C10 2 10 2 10.312 5.438 C10 9 10 9 8.938 10.938 C5.988 12.555 3.291 12.186 0 12 C0 8.04 0 4.08 0 0 Z " fill="#C6C6C6" transform="translate(89,367)"/>
<path d="M0 0 C2.948 1.581 2.948 1.581 6 4 C7.078 8.215 6.905 12.394 6.837 16.735 C6.813 18.798 6.857 20.853 6.908 22.916 C6.87 34.017 6.87 34.017 2.688 38.406 C-0.665 41.235 -3.659 41.574 -8 42 C-9.438 44.062 -9.438 44.062 -10 46 C-10.66 44.68 -11.32 43.36 -12 42 C-10.68 40.68 -9.36 39.36 -8 38 C-8 38.66 -8 39.32 -8 40 C-6.02 40 -4.04 40 -2 40 C-2 39.34 -2 38.68 -2 38 C-1.594 37.718 -1.594 37.718 0.463 36.289 C3 34 3 34 3.615 30.931 C3.608 29.756 3.601 28.582 3.594 27.371 C3.592 26.73 3.592 26.73 3.586 23.486 C3.571 22.822 3.557 22.157 3.542 21.473 C3.5 19.44 3.501 17.41 3.508 15.377 C3.408 5.475 3.408 5.475 1.471 3.219 C1.228 3.018 1.228 3.018 0 2 C0 1.34 0 0.68 0 0 Z " fill="#FAB931" transform="translate(281,75)"/>
<path d="M0 0 C3.683 4.702 6.387 9.9 9.25 15.125 C9.817 16.139 10.384 17.154 10.969 18.199 C11.5 19.167 12.031 20.135 12.578 21.133 C12.823 21.576 12.823 21.576 14.06 23.817 C14.37 24.537 14.68 25.258 15 26 C14.67 26.66 14.34 27.32 14 28 C0.851 11.851 0.851 11.851 -4 4 C-3.67 3.34 -3.34 2.68 -3 2 C-2.01 2 -1.02 2 0 2 C0 1.34 0 0.68 0 0 Z " fill="#E2E5E3" transform="translate(230,83)"/>
<path d="M0 0 C6.326 -0.358 6.326 -0.358 9 1.062 C10.634 4.228 9.853 6.65 9 10 C6 12 6 12 0 12 C0 8.04 0 4.08 0 0 Z " fill="#E4E4E4" transform="translate(153,367)"/>
<path d="M0 0 C3.238 0.227 3.238 0.227 6 1 C1.884 5.919 -2.404 10.526 -7 15 C-7.66 14.01 -8.32 13.02 -9 12 C-11.936 11.616 -14.68 11.396 -17.625 11.312 C-18.427 11.278 -19.229 11.244 -20.055 11.209 C-22.036 11.126 -24.018 11.062 -26 11 C-26 10.67 -26 10.34 -26 10 C-24.877 10.032 -23.754 10.064 -22.598 10.098 C-10.549 10.116 -10.549 10.116 -6.078 6.895 C-3.812 4.375 -3.812 4.375 -1.957 1.836 C-1.311 1.23 -0.665 0.624 0 0 Z " fill="#FDEEC7" transform="translate(301,118)"/>
<path d="M0 0 C0 0.99 0 1.98 0 3 C-0.66 3.66 -1.32 4.32 -2 5 C-2.633 7.164 -2.633 7.164 -3.125 9.625 C-3.209 10.034 -3.209 10.034 -3.633 12.102 C-3.754 12.728 -3.875 13.355 -4 14 C-3.34 14 -2.68 14 -2 14 C-2.33 16.31 -2.66 18.62 -3 21 C-1.68 20.67 -0.36 20.34 1 20 C1.33 17.69 1.66 15.38 2 13 C2.33 13 2.66 13 3 13 C3 17.95 3 22.9 3 28 C-4 27 -4 27 -5 26 C-5.335 22.593 -5.325 19.171 -5.375 15.75 C-5.394 15.272 -5.394 15.272 -5.488 12.855 C-5.575 5.902 -5.575 5.902 -3.86 3.213 C-2.477 1.828 -2.477 1.828 0 0 Z " fill="#E9AA13" transform="translate(258,152)"/>
<path d="M0 0 C4.62 0 9.24 0 14 0 C14 0.66 14 1.32 14 2 C13.01 2 12.02 2 11 2 C11 5.3 11 8.6 11 12 C10.01 12 9.02 12 8 12 C8 9.03 8 6.06 8 3 C6.062 4.125 6.062 4.125 4 6 C3.25 9.188 3.25 9.188 3 12 C2.01 12 1.02 12 0 12 C0 8.04 0 4.08 0 0 Z " fill="#7E7F7E" transform="translate(166,367)"/>
<path d="M0 0 C7.967 4.051 15.158 8.183 22 14 C23.32 13.01 24.64 12.02 26 11 C29.522 15.737 31.343 20.351 33 26 C32.34 26 31.68 26 31 26 C29.807 24.567 28.617 23.13 27.45 21.675 C25.075 18.931 22.301 16.774 19.438 14.562 C19.135 14.326 19.135 14.326 17.607 13.129 C12.692 9.358 7.602 6.26 2.133 3.34 C1.781 3.119 1.781 3.119 0 2 C0 1.34 0 0.68 0 0 Z " fill="#E4B304" transform="translate(266,180)"/>
<path d="M0 0 C6.152 -0.098 6.152 -0.098 8 0 C9 1 9 1 9.062 3.375 C9.042 4.241 9.021 5.108 9 6 C9 9 9 9 10 12 C9.01 12 8.02 12 7 12 C6.711 11.361 6.423 10.721 6.125 10.062 C5 8 5 8 3 7 C3 8.65 3 10.3 3 12 C2.01 12 1.02 12 0 12 C0 8.04 0 4.08 0 0 Z " fill="#BDBDBD" transform="translate(128,367)"/>
<path d="M0 0 C1.32 0 2.64 0 4 0 C2.475 3.556 0.375 5.985 -2.312 8.75 C-3.072 9.549 -3.831 10.348 -4.613 11.172 C-7.434 13.333 -8.558 13.156 -12 13 C-13.801 14.094 -13.801 14.094 -15.312 15.5 C-15.756 15.912 -15.756 15.912 -18 18 C-16.432 14.225 -14.068 11.801 -11.188 8.938 C-10.335 8.08 -9.483 7.223 -8.605 6.34 C-6.179 4.161 -3.834 2.588 -1 1 C-0.67 0.67 -0.34 0.34 0 0 Z " fill="#FDF4DC" transform="translate(271,134)"/>
<path d="M0 0 C5.116 9.602 1.598 22.68 -1.242 32.698 C-3.595 39.842 -7.154 49.065 -13 54 C-12.062 49.905 -11.019 46.837 -8.625 43.375 C-3.45 35.552 -1.083 25.228 -0.684 15.918 C-0.642 14.987 -0.6 14.055 -0.557 13.096 C-0.537 12.616 -0.537 12.616 -0.438 10.188 C-0.394 9.208 -0.351 8.229 -0.307 7.221 C-0.201 4.814 -0.099 2.407 0 0 Z " fill="#EBC103" transform="translate(322,94)"/>
<path d="M0 0 C3.375 -0.125 3.375 -0.125 7 0 C9 2 9 2 9 6 C8.34 6 7.68 6 7 6 C7.66 7.98 8.32 9.96 9 12 C6 11 6 11 4 8 C3.67 9.32 3.34 10.64 3 12 C2.01 12 1.02 12 0 12 C0 8.04 0 4.08 0 0 Z " fill="#B6B6B7" transform="translate(367,367)"/>
<path d="M0 0 C1.65 0.33 3.3 0.66 5 1 C4.67 1.99 4.34 2.98 4 4 C4.979 6.342 5.98 8.675 7 11 C7 12.32 7 13.64 7 15 C6.34 15 5.68 15 5 15 C5 14.01 5 13.02 5 12 C3.02 12 1.04 12 -1 12 C-1 12.99 -1 13.98 -1 15 C-1.99 15 -2.98 15 -4 15 C-3.898 14.668 -3.898 14.668 -3.379 12.988 C-3.109 12.105 -2.84 11.222 -2.562 10.312 C-2.296 9.442 -2.029 8.572 -1.754 7.676 C-1.037 5.13 -0.482 2.6 0 0 Z " fill="#CBCCCB" transform="translate(238,364)"/>
<path d="M0 0 C12.759 5.604 20.241 20.922 25.102 33.188 C26.372 37.166 26.792 40.836 27 45 C24.757 41.636 23.613 38.243 22.375 34.438 C22.26 34.095 22.26 34.095 21.68 32.361 C20 27.267 20 27.267 20 25 C19.34 24.67 18.68 24.34 18 24 C16.93 22.441 16.93 22.441 15.875 20.562 C15.522 19.945 15.169 19.328 14.805 18.691 C14 17 14 17 14 15 C13.34 15 12.68 15 12 15 C11.67 14.01 11.34 13.02 11 12 C9.357 10.31 7.685 8.648 6 7 C3.962 4.699 1.975 2.355 0 0 Z " fill="#ECBC03" transform="translate(295,47)"/>
<path d="M0 0 C4.294 1.074 4.747 1.508 7 5 C7.33 3.35 7.66 1.7 8 0 C8.66 0 9.32 0 10 0 C10 3.96 10 7.92 10 12 C9.34 12 8.68 12 8 12 C6.611 10.039 5.274 8.038 4 6 C3.67 7.98 3.34 9.96 3 12 C2.01 12 1.02 12 0 12 C0 8.04 0 4.08 0 0 Z " fill="#C2C2C2" transform="translate(76,367)"/>
<path d="M0 0 C2.97 0 5.94 0 9 0 C10.283 3.85 10.066 6.947 10 11 C7.509 11.687 5.621 12 3 12 C3 8.7 3 5.4 3 2 C2.01 2 1.02 2 0 2 C0 1.34 0 0.68 0 0 Z " fill="#222222" transform="translate(292,367)"/>
<path d="M0 0 C4 2 4 2 6 5 C6.33 3.35 6.66 1.7 7 0 C7.99 0 8.98 0 10 0 C10 3.96 10 7.92 10 12 C6.233 10.117 5.206 9.309 3 6 C2.67 7.98 2.34 9.96 2 12 C1.34 12 0.68 12 0 12 C0 8.04 0 4.08 0 0 Z " fill="#D6D6D7" transform="translate(258,367)"/>
<path d="M0 0 C23.294 -1.192 23.294 -1.192 32 6 C32.99 6.33 33.98 6.66 35 7 C36.168 8.523 36.168 8.523 37.188 10.375 C37.532 10.981 37.876 11.587 38.23 12.211 C39 14 39 14 39 17 C38.515 16.397 38.031 15.793 37.531 15.172 C29.768 5.915 22.21 2.757 10.316 1.66 C6.879 1.407 3.442 1.186 0 1 C0 0.67 0 0.34 0 0 Z " fill="#E5BD03" transform="translate(228,75)"/>
<path d="M0 0 C4 2 4 2 5.25 4.625 C5.498 5.409 5.745 6.192 6 7 C6.66 7 7.32 7 8 7 C8 4.69 8 2.38 8 0 C8.66 0 9.32 0 10 0 C10 3.96 10 7.92 10 12 C5.822 9.911 5.076 8.945 3 5 C2.67 7.31 2.34 9.62 2 12 C1.34 12 0.68 12 0 12 C0 8.04 0 4.08 0 0 Z " fill="#DDDDDD" transform="translate(212,367)"/>
<path d="M0 0 C1.812 0.062 1.812 0.062 4 1 C6.097 4.969 7 7.484 7 12 C6.34 12 5.68 12 5 12 C5 11.01 5 10.02 5 9 C3.02 9 1.04 9 -1 9 C-1 9.99 -1 10.98 -1 12 C-1.66 12 -2.32 12 -3 12 C-2.492 7.682 -1.803 3.967 0 0 Z " fill="#D2D3D3" transform="translate(143,367)"/>
<path d="M0 0 C3 1 3 1 4.168 2.996 C4.504 3.802 4.841 4.607 5.188 5.438 C5.532 6.241 5.876 7.044 6.23 7.871 C7 10 7 10 7 12 C6.01 12 5.02 12 4 12 C4 11.01 4 10.02 4 9 C2.02 9 0.04 9 -2 9 C-2 9.99 -2 10.98 -2 12 C-2.66 12 -3.32 12 -4 12 C-3.716 10.561 -3.423 9.124 -3.125 7.688 C-2.963 6.887 -2.8 6.086 -2.633 5.262 C-2 3 -2 3 0 0 Z " fill="#E7E7E8" transform="translate(192,367)"/>
<path d="M0 0 C1.32 0 2.64 0 4 0 C4.613 1.789 4.613 1.789 5 4 C3.653 6.531 2.298 8.776 0.688 11.125 C0.27 11.758 -0.147 12.391 -0.576 13.043 C-2.247 15.553 -3.864 17.864 -6 20 C-5.368 15.275 -4.082 11.094 -2.438 6.625 C-2.204 5.984 -1.97 5.344 -1.729 4.684 C-1.157 3.121 -0.579 1.56 0 0 Z " fill="#E4E6E4" transform="translate(162,100)"/>
<path d="M0 0 C2.64 0 5.28 0 8 0 C8 0.66 8 1.32 8 2 C6.35 2 4.7 2 3 2 C3 2.99 3 3.98 3 5 C4.65 5 6.3 5 8 5 C8 5.66 8 6.32 8 7 C6.35 7 4.7 7 3 7 C3 7.99 3 8.98 3 10 C4.65 10 6.3 10 8 10 C8 10.66 8 11.32 8 12 C5.36 12 2.72 12 0 12 C0 8.04 0 4.08 0 0 Z " fill="#C9C9C9" transform="translate(102,367)"/>
<path d="M0 0 C0.66 0.99 1.32 1.98 2 3 C1.325 3.58 0.649 4.16 -0.047 4.758 C-4.736 8.864 -8.924 12.548 -12 18 C-13 15 -13 15 -11.523 11.68 C-10.818 10.405 -10.102 9.137 -9.375 7.875 C-9.031 7.229 -8.687 6.583 -8.332 5.918 C-6.594 2.858 -5.631 1.212 -2.227 0.07 C-1.492 0.047 -0.757 0.024 0 0 Z " fill="#E3E5E3" transform="translate(158,153)"/>
<path d="M0 0 C7 8.448 7 8.448 7 12 C7.66 12 8.32 12 9 12 C9.33 12.495 9.33 12.495 11 15 C12.32 14.34 13.64 13.68 15 13 C15 16.767 14.765 17.912 13 21 C12.34 21 11.68 21 11 21 C9.887 19.595 9.887 19.595 8.688 17.641 C8.252 16.937 7.816 16.233 7.367 15.508 C6.916 14.763 6.465 14.018 6 13.25 C5.774 12.885 5.774 12.885 4.633 11.039 C2.61 7.748 0.692 4.475 -1 1 C-0.67 0.67 -0.34 0.34 0 0 Z " fill="#8E8E23" transform="translate(203,61)"/>
<path d="M0 0 C2.64 0 5.28 0 8 0 C8 0.66 8 1.32 8 2 C6.02 2 4.04 2 2 2 C2 2.99 2 3.98 2 5 C3.65 5 5.3 5 7 5 C7 5.66 7 6.32 7 7 C5.68 7 4.36 7 3 7 C3 7.99 3 8.98 3 10 C4.65 10 6.3 10 8 10 C8 10.66 8 11.32 8 12 C5.36 12 2.72 12 0 12 C0 8.04 0 4.08 0 0 Z " fill="#CECFCF" transform="translate(303,367)"/>
<path d="M0 0 C0.402 0.01 0.402 0.01 2.438 0.062 C2.767 1.053 3.098 2.043 3.438 3.062 C1.788 2.733 0.137 2.402 -1.562 2.062 C-1.562 2.723 -1.562 3.382 -1.562 4.062 C-0.758 4.31 0.046 4.558 0.875 4.812 C3.438 6.062 3.438 6.062 4.438 8 C4.438 10.062 4.438 10.062 3.062 11.625 C2.526 12.099 1.99 12.574 1.438 13.062 C1.108 14.053 0.777 15.043 0.438 16.062 C0.334 15.423 0.231 14.784 0.125 14.125 C-0.102 13.444 -0.329 12.764 -0.562 12.062 C-1.553 11.733 -2.543 11.402 -3.562 11.062 C-3.562 10.402 -3.562 9.743 -3.562 9.062 C-1.913 9.062 -0.262 9.062 1.438 9.062 C-1.562 7.062 -1.562 7.062 -3.562 6.062 C-3.605 4.396 -3.603 2.729 -3.562 1.062 C-2.562 0.062 -2.562 0.062 0 0 Z " fill="#DADBDB" transform="translate(285.5625,366.9375)"/>
<path d="M0 0 C0.99 0 1.98 0 3 0 C3.33 0.99 3.66 1.98 4 3 C6.062 4.188 6.062 4.188 8 5 C6.02 6.65 4.04 8.3 2 10 C0.02 9.01 -1.96 8.02 -4 7 C-2.68 4.69 -1.36 2.38 0 0 Z " fill="#E7A808" transform="translate(245,147)"/>
<path d="M0 0 C2.136 0.004 3.987 0.043 6.062 0.566 C8.062 3.066 8.062 3.066 9.062 5.566 C8.176 5.216 7.289 4.865 6.375 4.504 C2.807 3.494 1.531 3.45 -1.938 4.566 C-6.28 7.862 -10.943 11.767 -12.805 17.008 C-13.062 19.191 -13.062 19.191 -12.938 22.566 C-13.267 22.566 -13.598 22.566 -13.938 22.566 C-14.433 19.095 -14.699 16.929 -13.938 13.566 C-11.9 10.925 -9.696 8.817 -7.199 6.609 C-4.938 4.566 -4.938 4.566 -3.395 2.34 C-1.938 0.566 -1.938 0.566 0 0 Z " fill="#F9B411" transform="translate(279.9375,148.43359375)"/>
<path d="M0 0 C2.64 0 5.28 0 8 0 C8 0.66 8 1.32 8 2 C6.02 2 4.04 2 2 2 C2 2.99 2 3.98 2 5 C3.65 5 5.3 5 7 5 C7 5.66 7 6.32 7 7 C5.35 7 3.7 7 2 7 C2 7.99 2 8.98 2 10 C3.98 10 5.96 10 8 10 C8 10.66 8 11.32 8 12 C5.36 12 2.72 12 0 12 C0 8.04 0 4.08 0 0 Z " fill="#D9DADA" transform="translate(271,367)"/>
<path d="M0 0 C2 1.375 2 1.375 4 3 C4 3.66 4 4.32 4 5 C4.66 5 5.32 5 6 5 C6 5.66 6 6.32 6 7 C6.66 7.33 7.32 7.66 8 8 C7.67 8.99 7.34 9.98 7 11 C5.02 8.36 3.04 5.72 1 3 C-2.548 8.241 -5.937 13.462 -9 19 C-9.899 16.484 -10.162 15.393 -9.125 12.875 C-8.754 12.256 -8.382 11.638 -8 11 C-7.67 10.34 -7.34 9.68 -7 9 C-6.34 9 -5.68 9 -5 9 C-4.866 8.629 -4.866 8.629 -4.188 6.75 C-3.058 4.134 -1.791 2.198 0 0 Z " fill="#325E20" transform="translate(195,51)"/>
<path d="M0 0 C3.517 0.653 6.893 1.514 10.312 2.562 C11.196 2.832 12.079 3.101 12.988 3.379 C13.652 3.584 14.316 3.789 15 4 C15 4.66 15 5.32 15 6 C12.816 6.678 10.628 7.342 8.438 8 C7.219 8.371 6.001 8.743 4.746 9.125 C1.021 9.995 -2.191 10.157 -6 10 C-6 9.67 -6 9.34 -6 9 C-2.04 8.34 1.92 7.68 6 7 C6 5.68 6 4.36 6 3 C4.02 2.34 2.04 1.68 0 1 C0 0.67 0 0.34 0 0 Z " fill="#043C7C" transform="translate(329,251)"/>
<path d="M0 0 C4.457 0.262 6.515 0.577 9.938 3.562 C10.618 4.367 11.299 5.171 12 6 C12.33 5.67 12.66 5.34 13 5 C13.66 5 14.32 5 15 5 C15.99 7.31 16.98 9.62 18 12 C14.412 10.667 11.164 9.169 8 7 C8 6.34 8 5.68 8 5 C7.618 4.866 7.618 4.866 5.688 4.188 C3.126 3.056 1.803 2.088 0 0 Z " fill="#1B391A" transform="translate(173,98)"/>
<path d="M0 0 C0.99 0 1.98 0 3 0 C3.99 1.98 4.98 3.96 6 6 C6.99 4.02 7.98 2.04 9 0 C9.66 0 10.32 0 11 0 C10.523 1.626 10.043 3.251 9.562 4.875 C9.296 5.78 9.029 6.685 8.754 7.617 C8 10 8 10 7 12 C6.01 12 5.02 12 4 12 C3.329 10.377 2.663 8.751 2 7.125 C1.629 6.22 1.257 5.315 0.875 4.383 C0 2 0 2 0 0 Z " fill="#DCDCDD" transform="translate(318,367)"/>
<path d="M0 0 C0.66 0 1.32 0 2 0 C2.33 2.97 2.66 5.94 3 9 C3.99 9 4.98 9 6 9 C6.33 6.03 6.66 3.06 7 0 C7.66 0 8.32 0 9 0 C9.054 1.625 9.093 3.25 9.125 4.875 C9.148 5.78 9.171 6.685 9.195 7.617 C9 10 9 10 7 12 C4.5 12.25 4.5 12.25 2 12 C0 10 0 10 -0.195 7.617 C-0.172 6.712 -0.149 5.807 -0.125 4.875 C-0.107 3.965 -0.089 3.055 -0.07 2.117 C-0.047 1.419 -0.024 0.72 0 0 Z " fill="#DDDEDE" transform="translate(379,367)"/>
<path d="M0 0 C0.66 0 1.32 0 2 0 C2.33 2.97 2.66 5.94 3 9 C3.99 9 4.98 9 6 9 C6.33 6.03 6.66 3.06 7 0 C7.66 0 8.32 0 9 0 C9.054 1.625 9.093 3.25 9.125 4.875 C9.148 5.78 9.171 6.685 9.195 7.617 C9 10 9 10 7 12 C4.5 12.25 4.5 12.25 2 12 C0 10 0 10 -0.195 7.617 C-0.172 6.712 -0.149 5.807 -0.125 4.875 C-0.107 3.965 -0.089 3.055 -0.07 2.117 C-0.047 1.419 -0.024 0.72 0 0 Z " fill="#E0E1E1" transform="translate(64,367)"/>
<path d="M0 0 C0.66 0.165 0.66 0.165 4 1 C3.67 5.62 3.34 10.24 3 15 C2.01 15 1.02 15 0 15 C-0.194 12.688 -0.38 10.375 -0.562 8.062 C-0.615 7.419 -0.615 7.419 -0.879 4.16 C-0.919 3.117 -0.959 2.074 -1 1 C-0.67 0.67 -0.34 0.34 0 0 Z " fill="#B0B1B1" transform="translate(206,364)"/>
<path d="M0 0 C4.351 0.561 7.901 2.263 11.84 4.078 C14.2 5.086 16.454 5.672 19 6 C19 6.33 19 6.66 19 7 C12.05 7.266 5.765 6.612 -1 5 C-0.01 4.67 0.98 4.34 2 4 C2 3.01 2 2.02 2 1 C1.34 0.67 0.68 0.34 0 0 Z " fill="#194720" transform="translate(201,257)"/>
<path d="M0 0 C2.97 0 5.94 0 9 0 C9 0.66 9 1.32 9 2 C8.01 2 7.02 2 6 2 C6 5.3 6 8.6 6 12 C5.01 12 4.02 12 3 12 C3 8.7 3 5.4 3 2 C2.01 2 1.02 2 0 2 C0 1.34 0 0.68 0 0 Z " fill="#D0D1D1" transform="translate(171,367)"/>
<path d="M0 0 C2.97 0 5.94 0 9 0 C9 0.66 9 1.32 9 2 C8.01 2 7.02 2 6 2 C6 5.3 6 8.6 6 12 C5.01 12 4.02 12 3 12 C3 8.7 3 5.4 3 2 C2.01 2 1.02 2 0 2 C0 1.34 0 0.68 0 0 Z " fill="#C3C3C3" transform="translate(117,367)"/>
<path d="M0 0 C2.625 0.375 2.625 0.375 5 1 C4.67 3.31 4.34 5.62 4 8 C2.35 7.67 0.7 7.34 -1 7 C-1.625 4.625 -1.625 4.625 -2 2 C-1.34 1.34 -0.68 0.68 0 0 Z " fill="#181717" transform="translate(357,369)"/>
<path d="M0 0 C0.825 0.165 0.825 0.165 5 1 C5.625 3.375 5.625 3.375 6 6 C5.34 6.66 4.68 7.32 4 8 C2.68 8 1.36 8 0 8 C0 5.36 0 2.72 0 0 Z " fill="#232323" transform="translate(155,369)"/>
<path d="M0 0 C-1.65 1.32 -3.3 2.64 -5 4 C-4.669 4.452 -4.669 4.452 -2.996 6.738 C-2.143 7.929 -1.29 9.121 -0.438 10.312 C0 10.907 0.438 11.502 0.889 12.115 C2.006 13.69 3.011 15.342 4 17 C3.67 17.99 3.34 18.98 3 20 C2.771 19.632 2.771 19.632 1.609 17.77 C0.996 16.794 0.382 15.818 -0.25 14.812 C-0.552 14.331 -0.552 14.331 -2.078 11.895 C-3.916 9.126 -5.884 6.56 -8 4 C-7.25 2.062 -7.25 2.062 -6 0 C-3.403 -1.055 -2.539 -1.269 0 0 Z " fill="#EAB403" transform="translate(286,170)"/>
<path d="M0 0 C3.3 0 6.6 0 10 0 C10 0.66 10 1.32 10 2 C8.68 2 7.36 2 6 2 C6 5.3 6 8.6 6 12 C5.34 12 4.68 12 4 12 C4 8.7 4 5.4 4 2 C2.68 2 1.36 2 0 2 C0 1.34 0 0.68 0 0 Z " fill="#E4E4E5" transform="translate(342,367)"/>
<path d="M0 0 C2.97 0 5.94 0 9 0 C9 0.66 9 1.32 9 2 C7.68 2 6.36 2 5 2 C5 5.3 5 8.6 5 12 C4.34 12 3.68 12 3 12 C3 8.7 3 5.4 3 2 C2.01 2 1.02 2 0 2 C0 1.34 0 0.68 0 0 Z " fill="#E1E2E2" transform="translate(292,367)"/>
<path d="M0 0 C2.97 0 5.94 0 9 0 C9 0.66 9 1.32 9 2 C7.68 2 6.36 2 5 2 C5 5.3 5 8.6 5 12 C4.34 12 3.68 12 3 12 C3 8.7 3 5.4 3 2 C2.01 2 1.02 2 0 2 C0 1.34 0 0.68 0 0 Z " fill="#DBDCDC" transform="translate(225,367)"/>
<path d="M0 0 C-6.349 3.817 -11.519 6.718 -19 7 C-15.855 4.423 -12.678 2.826 -8.938 1.25 C-7.895 0.801 -6.852 0.353 -5.777 -0.109 C-3 -1 -3 -1 0 0 Z " fill="#CAC9C8" transform="translate(233,147)"/>
<path d="M0 0 C1.32 0.66 2.64 1.32 4 2 C1.69 4.31 -0.62 6.62 -3 9 C-4.32 8.34 -5.64 7.68 -7 7 C-4.69 4.69 -2.38 2.38 0 0 Z " fill="#FEF5DA" transform="translate(303,118)"/>
<path d="M0 0 C0.825 0.165 0.825 0.165 5 1 C5 2.98 5 4.96 5 7 C3.35 7.33 1.7 7.66 0 8 C0 5.36 0 2.72 0 0 Z " fill="#141414" transform="translate(92,369)"/>
<path d="M0 0 C4.62 0 9.24 0 14 0 C10.735 3.265 6.59 3.932 2.062 4.125 C1.382 4.084 0.701 4.042 0 4 C0 2.68 0 1.36 0 0 Z " fill="#1F6521" transform="translate(214,140)"/>
<path d="M0 0 C0.66 0 1.32 0 2 0 C2 3.3 2 6.6 2 10 C3.98 10 5.96 10 8 10 C8 10.66 8 11.32 8 12 C5.36 12 2.72 12 0 12 C0 8.04 0 4.08 0 0 Z " fill="#C8C9C9" transform="translate(391,367)"/>
<path d="M0 0 C0.99 0 1.98 0 3 0 C3 3.96 3 7.92 3 12 C2.01 12 1.02 12 0 12 C0 8.04 0 4.08 0 0 Z " fill="#C3C3C5" transform="translate(337,367)"/>
<path d="M0 0 C0.99 0 1.98 0 3 0 C3 3.96 3 7.92 3 12 C2.01 12 1.02 12 0 12 C0 8.04 0 4.08 0 0 Z " fill="#C0C0C2" transform="translate(182,367)"/>
<path d="M0 0 C0 4.39 -2.128 5.769 -5 9 C-4.34 9.66 -3.68 10.32 -3 11 C-5.64 10.67 -8.28 10.34 -11 10 C-11 9.34 -11 8.68 -11 8 C-9.102 6.562 -9.102 6.562 -6.625 5 C-4.15 3.429 -2.076 2.076 0 0 Z " fill="#0C5621" transform="translate(134,233)"/>
<path d="M0 0 C1.675 0.286 3.344 0.618 5 1 C4.67 2.65 4.34 4.3 4 6 C3.01 6.33 2.02 6.66 1 7 C0.34 6.67 -0.32 6.34 -1 6 C-1.043 4.334 -1.041 2.666 -1 1 C-0.67 0.67 -0.34 0.34 0 0 Z " fill="#FABA29" transform="translate(287,69)"/>
<path d="M0 0 C0.701 0.268 1.402 0.536 2.125 0.812 C2.125 1.802 2.125 2.793 2.125 3.812 C0.25 4.438 0.25 4.438 -1.875 4.812 C-2.535 4.153 -3.195 3.493 -3.875 2.812 C-6.774 5.208 -7.377 7.125 -7.875 10.812 C-8.205 10.812 -8.535 10.812 -8.875 10.812 C-9.25 8.125 -9.25 8.125 -8.875 4.812 C-4.22 -0.275 -4.22 -0.275 0 0 Z " fill="#FDEFCF" transform="translate(289.875,64.1875)"/>
<path d="M0 0 C0.66 0 1.32 0 2 0 C2 3.3 2 6.6 2 10 C3.65 10 5.3 10 7 10 C7 10.66 7 11.32 7 12 C4.69 12 2.38 12 0 12 C0 8.04 0 4.08 0 0 Z " fill="#E4E4E4" transform="translate(248,367)"/>
<path d="M0 0 C0.33 0 0.66 0 1 0 C1 3.96 1 7.92 1 12 C0.01 12 -0.98 12 -2 12 C-2.66 9.36 -3.32 6.72 -4 4 C-3.01 3.67 -2.02 3.34 -1 3 C-0.67 2.01 -0.34 1.02 0 0 Z " fill="#19191A" transform="translate(152,367)"/>
<path d="M0 0 C0 0.66 0 1.32 0 2 C-0.833 2.5 -0.833 2.5 -5 5 C-5.846 5.846 -6.691 6.691 -7.562 7.562 C-9.708 9.708 -11.233 10.873 -14 12 C-11.844 7.257 -5.628 0 0 0 Z " fill="#1C2F5B" transform="translate(228,150)"/>
<path d="M0 0 C0 0.66 0 1.32 0 2 C2.31 2 4.62 2 7 2 C7 2.33 7 2.66 7 3 C4.062 3.054 1.125 3.094 -1.812 3.125 C-2.646 3.142 -3.479 3.159 -4.338 3.176 C-5.14 3.182 -5.943 3.189 -6.77 3.195 C-7.139 3.201 -7.139 3.201 -9.007 3.227 C-11 3 -11 3 -14 1 C-12.229 0.832 -10.458 0.665 -8.688 0.5 C-7.701 0.407 -6.715 0.314 -5.699 0.219 C-3 0 -3 0 0 0 Z " fill="#3F443F" transform="translate(241,130)"/>
<path d="M0 0 C-6.4 4.062 -6.4 4.062 -9.438 3.75 C-9.953 3.502 -10.469 3.255 -11 3 C-11 2.01 -11 1.02 -11 0 C-3.571 -1.286 -3.571 -1.286 0 0 Z " fill="#D8DAD9" transform="translate(252,133)"/>
<path d="M0 0 C0.66 0.33 1.32 0.66 2 1 C0.938 2.438 0.938 2.438 -1 4 C-1.588 4.072 -1.588 4.072 -4.562 4.438 C-5.13 4.53 -5.13 4.53 -8 5 C-9.438 7.062 -9.438 7.062 -10 9 C-10.66 7.68 -11.32 6.36 -12 5 C-10.68 3.68 -9.36 2.36 -8 1 C-8 1.66 -8 2.32 -8 3 C-6.02 3 -4.04 3 -2 3 C-2 2.34 -2 1.68 -2 1 C-1.34 0.67 -0.68 0.34 0 0 Z " fill="#F9B912" transform="translate(281,112)"/>
<path d="M0 0 C0.66 0 1.32 0 2 0 C2 3.96 2 7.92 2 12 C0.68 11.34 -0.64 10.68 -2 10 C-2 9.34 -2 8.68 -2 8 C-1.34 8 -0.68 8 0 8 C0 5.36 0 2.72 0 0 Z " fill="#CBCCCB" transform="translate(266,367)"/>
<path d="M0 0 C1.65 0.33 3.3 0.66 5 1 C5 1.66 5 2.32 5 3 C3.68 3 2.36 3 1 3 C1.33 3.495 1.33 3.495 3 6 C3 7.32 3 8.64 3 10 C2.34 10 1.68 10 1 10 C-0.837 6.218 -1.158 4.054 0 0 Z " fill="#878788" transform="translate(238,364)"/>
<path d="M0 0 C0 3 0 3 -1 6 C-1.029 8.516 -0.935 11.013 -0.84 13.527 C-1.011 16.177 -1.659 17.734 -3 20 C-3.081 17.041 -3.14 14.084 -3.188 11.125 C-3.213 10.283 -3.238 9.441 -3.264 8.574 C-3.269 8.171 -3.269 8.171 -3.293 6.133 C-3.309 5.389 -3.324 4.646 -3.341 3.879 C-3.228 3.259 -3.116 2.639 -3 2 C-2.01 1.34 -1.02 0.68 0 0 Z " fill="#F7BC37" transform="translate(311,99)"/>
<path d="M0 0 C0.763 0.309 1.526 0.619 2.312 0.938 C4.188 1.679 6.087 2.362 8 3 C9.168 4.523 9.168 4.523 10.188 6.375 C10.532 6.981 10.876 7.587 11.23 8.211 C12 10 12 10 12 13 C11.469 12.397 10.938 11.793 10.391 11.172 C9.684 10.373 8.978 9.573 8.25 8.75 C7.554 7.961 6.858 7.172 6.141 6.359 C4.154 4.17 2.109 2.071 0 0 Z " fill="#F1C503" transform="translate(255,79)"/>
<path d="M0 0 C7 8.448 7 8.448 7 12 C7.66 12 8.32 12 9 12 C8.67 12.99 8.34 13.98 8 15 C6.683 13.233 5.371 11.461 4.062 9.688 C3.332 8.701 2.601 7.715 1.848 6.699 C0 4 0 4 -1 1 C-0.67 0.67 -0.34 0.34 0 0 Z " fill="#647428" transform="translate(203,61)"/>
<path d="M0 0 C0.99 0.33 1.98 0.66 3 1 C2.67 4.63 2.34 8.26 2 12 C1.34 12 0.68 12 0 12 C0 8.04 0 4.08 0 0 Z " fill="#E3E4E4" transform="translate(212,367)"/>
<path d="M0 0 C0.99 2.97 1.98 5.94 3 9 C2.34 9 1.68 9 1 9 C-0.508 7.25 -0.508 7.25 -2.125 5 C-2.664 4.257 -3.203 3.515 -3.758 2.75 C-3.963 2.461 -3.963 2.461 -5 1 C-2 0 -2 0 0 0 Z " fill="#E2B801" transform="translate(296,197)"/>
<path d="M0 0 C0.66 0 1.32 0 2 0 C1.67 1.32 1.34 2.64 1 4 C0.67 2.68 0.34 1.36 0 0 Z M-7 1 C-4.69 1 -2.38 1 0 1 C-0.33 2.65 -0.66 4.3 -1 6 C-1.33 5.34 -1.66 4.68 -2 4 C-3.65 4 -5.3 4 -7 4 C-7 3.01 -7 2.02 -7 1 Z " fill="#2D2D2D" transform="translate(280,368)"/>
<path d="M0 0 C0.99 0.99 1.98 1.98 3 3 C1.473 6.055 -0.794 8.398 -3 11 C-3.33 10.34 -3.66 9.68 -4 9 C-3.223 6.836 -3.223 6.836 -2.062 4.375 C-1.682 3.558 -1.302 2.74 -0.91 1.898 C-0.61 1.272 -0.309 0.645 0 0 Z " fill="#313031" transform="translate(246,296)"/>
<path d="M0 0 C3.96 0 7.92 0 12 0 C12 0.33 12 0.66 12 1 C11.681 1.03 11.681 1.03 10.066 1.184 C9.24 1.267 8.414 1.351 7.562 1.438 C7.151 1.478 7.151 1.478 5.066 1.684 C3 2 3 2 2 3 C1.768 4.515 1.588 6.038 1.438 7.562 C1.354 8.389 1.27 9.215 1.184 10.066 C1.123 10.704 1.062 11.343 1 12 C0.67 12 0.34 12 0 12 C0 8.04 0 4.08 0 0 Z " fill="#232323" transform="translate(72,293)"/>
<path d="M0 0 C0.66 0 1.32 0 2 0 C2.33 1.65 2.66 3.3 3 5 C1.35 5 -0.3 5 -2 5 C-2 6.32 -2 7.64 -2 9 C-2.66 9 -3.32 9 -4 9 C-3.67 6.69 -3.34 4.38 -3 2 C-2.34 2.33 -1.68 2.66 -1 3 C-0.67 2.01 -0.34 1.02 0 0 Z " fill="#9C9D9E" transform="translate(192,370)"/>
<path d="M0 0 C0 1.65 0 3.3 0 5 C-2.491 6.245 -3.411 5.777 -6 5 C-6 3.68 -6 2.36 -6 1 C-1.125 0 -1.125 0 0 0 Z " fill="#7A7A7A" transform="translate(137,368)"/>
<path d="M0 0 C-1.556 3.819 -3.956 6.26 -7 9 C-7.66 9 -8.32 9 -9 9 C-7.457 5.212 -4.447 0 0 0 Z " fill="#24592B" transform="translate(159,157)"/>
<path d="M0 0 C5.373 -0.44 5.373 -0.44 8 0 C10 2.5 10 2.5 11 5 C10.113 4.691 9.226 4.381 8.312 4.062 C5.533 3.171 2.869 2.506 0 2 C0 1.34 0 0.68 0 0 Z " fill="#F7BB31" transform="translate(278,149)"/>
<path d="M0 0 C2.359 0.047 2.359 0.047 4.75 0.75 C5.549 0.972 6.348 1.193 7.172 1.422 C7.775 1.613 8.378 1.803 9 2 C9 2.33 9 2.66 9 3 C6.855 3.165 6.855 3.165 -4 4 C-2.68 2.68 -1.36 1.36 0 0 Z " fill="#121211" transform="translate(248,280)"/>
<path d="M0 0 C2 3 2 3 1.609 5.008 C1.326 5.706 1.042 6.405 0.75 7.125 C0.477 7.829 0.203 8.533 -0.078 9.258 C-1 11 -1 11 -3 12 C-2.492 7.682 -1.803 3.967 0 0 Z " fill="#181F33" transform="translate(206,174)"/>
<path d="M0 0 C0.33 0.99 0.66 1.98 1 3 C0.67 3.66 0.34 4.32 0 5 C1.32 5.33 2.64 5.66 4 6 C2.35 6 0.7 6 -1 6 C-1 6.99 -1 7.98 -1 9 C-1.99 9 -2.98 9 -4 9 C-2.801 5.917 -1.523 2.937 0 0 Z " fill="#D6D5D5" transform="translate(238,370)"/>
<path d="M0 0 C0.66 0.66 1.32 1.32 2 2 C1.762 6.396 -0.141 8.773 -3 12 C-2.401 7.805 -1.425 3.99 0 0 Z " fill="#C9CDCB" transform="translate(159,108)"/>
<path d="M0 0 C0.33 0.66 0.66 1.32 1 2 C1.99 2.33 2.98 2.66 4 3 C2.544 3.363 1.085 3.715 -0.375 4.062 C-0.781 4.161 -0.781 4.161 -2.836 4.66 C-5 5 -5 5 -7 4 C-7 3.34 -7 2.68 -7 2 C-4.69 2 -2.38 2 0 2 C0 1.34 0 0.68 0 0 Z " fill="#1C1C1C" transform="translate(291,367)"/>
<path d="M0 0 C0.99 0 1.98 0 3 0 C3.66 2.31 4.32 4.62 5 7 C4.34 7.66 3.68 8.32 3 9 C2.01 6.03 1.02 3.06 0 0 Z " fill="#D4D4D5" transform="translate(318,367)"/>
<path d="M0 0 C2.31 0.33 4.62 0.66 7 1 C7.33 2.32 7.66 3.64 8 5 C4.625 3.814 2.353 2.724 0 0 Z " fill="#112A14" transform="translate(173,98)"/>
<path d="M0 0 C-5.176 3.223 -5.176 3.223 -7 4 C-7.99 3.67 -8.98 3.34 -10 3 C-4.378 -1.459 -4.378 -1.459 0 0 Z " fill="#D2D8E3" transform="translate(233,147)"/>
<path d="M0 0 C0.688 2.062 0.688 2.062 1 4 C0.01 4 -0.98 4 -2 4 C-2 3.01 -2 2.02 -2 1 C-3.98 1 -5.96 1 -8 1 C-8 0.67 -8 0.34 -8 0 C-4.713 -0.8 -3.29 -1.097 0 0 Z " fill="#DDDDDE" transform="translate(198,375)"/>
<path d="M0 0 C0.33 0 0.66 0 1 0 C1 3.96 1 7.92 1 12 C0.34 12 -0.32 12 -1 12 C-1.33 10.68 -1.66 9.36 -2 8 C-1.34 8 -0.68 8 0 8 C0 5.36 0 2.72 0 0 Z " fill="#EFEEEE" transform="translate(85,367)"/>
<path d="M0 0 C2.31 0 4.62 0 7 0 C6.67 0.99 6.34 1.98 6 3 C4.68 2.67 3.36 2.34 2 2 C1.67 2.99 1.34 3.98 1 5 C0.835 4.175 0.835 4.175 0 0 Z " fill="#E3E3E3" transform="translate(129,367)"/>
<path d="M0 0 C-1 3 -1 3 -2.938 4.25 C-3.618 4.498 -4.299 4.745 -5 5 C-5.66 4.67 -6.32 4.34 -7 4 C-7 3.34 -7 2.68 -7 2 C-4.353 0.539 -3.106 0 0 0 Z " fill="#E5E9EE" transform="translate(222,152)"/>
<path d="M0 0 C0.66 0.33 1.32 0.66 2 1 C1.67 2.32 1.34 3.64 1 5 C0.67 4.67 0.34 4.34 0 4 C-1.32 5.32 -2.64 6.64 -4 8 C-3.401 4.644 -2.154 2.622 0 0 Z " fill="#224E27" transform="translate(162,93)"/>
<path d="M0 0 C0.99 0.33 1.98 0.66 3 1 C2.67 2.65 2.34 4.3 2 6 C1.01 5.67 0.02 5.34 -1 5 C-0.67 3.35 -0.34 1.7 0 0 Z " fill="#C1C1C2" transform="translate(362,370)"/>
<path d="M0 0 C0.99 0.33 1.98 0.66 3 1 C4.178 3.944 4.033 4.9 3 8 C2.01 7.67 1.02 7.34 0 7 C0.66 7 1.32 7 2 7 C2 5.68 2 4.36 2 3 C1.34 3 0.68 3 0 3 C0 2.01 0 1.02 0 0 Z " fill="#D6D7D7" transform="translate(144,367)"/>
<path d="M0 0 C0.33 0.99 0.66 1.98 1 3 C1.66 3 2.32 3 3 3 C3 4.32 3 5.64 3 7 C2.01 7 1.02 7 0 7 C-0.934 3.99 -1.044 3.133 0 0 Z " fill="#828284" transform="translate(143,367)"/>
</svg>
