<?xml version="1.0" encoding="UTF-8"?>
<!-- Generator: visioncortex VTracer 0.6.12 -->
<svg version="1.1" xmlns="http://www.w3.org/2000/svg" width="580" height="430">
<path d="M0 0 C191.4 0 382.8 0 580 0 C580 141.9 580 283.8 580 430 C388.6 430 197.2 430 0 430 C0 288.1 0 146.2 0 0 Z " fill="#FCFCFC" transform="translate(0,0)"/>
<path d="M0 0 C18.744 -0.201 18.744 -0.201 26.848 -0.244 C32.338 -0.274 37.827 -0.309 43.317 -0.377 C47.752 -0.432 52.187 -0.462 56.622 -0.474 C58.299 -0.483 59.975 -0.501 61.652 -0.529 C81.995 -0.847 101.558 3.97 116.652 18.426 C128.795 31.74 135.708 47.601 135.309 65.77 C133.66 83.029 125.592 97.452 113 109 C103.746 116 103.746 116 99 116 C99.675 117.002 100.351 118.003 101.047 119.035 C101.948 120.378 102.849 121.72 103.75 123.062 C104.193 123.719 104.637 124.376 105.094 125.053 C107.921 129.273 110.675 133.479 113 138 C112.67 138.66 112.34 139.32 112 140 C111.441 139.432 110.881 138.863 110.305 138.277 C103.499 131.723 96.558 127.835 88 124 C86.773 108.852 86.773 108.852 89.711 104.418 C91.729 102.746 93.788 101.395 96 100 C96.33 99.505 96.33 99.505 98 97 C101 96.688 101 96.688 104 97 C104.66 97.66 105.32 98.32 106 99 C109.062 99.188 109.062 99.188 112 99 C113 98 113 98 113.062 94.938 C113.042 93.968 113.021 92.999 113 92 C110.69 91.67 108.38 91.34 106 91 C105.34 91.99 104.68 92.98 104 94 C102.055 94.293 102.055 94.293 99.875 94.188 C98.596 94.126 97.317 94.064 96 94 C95.754 94.593 95.508 95.186 95.254 95.797 C93.807 98.338 92.236 99.465 89.938 101.25 C85.649 105.314 85.214 108.853 85 114.5 C84.942 117.007 84.951 119.492 85 122 C83.02 121.67 81.04 121.34 79 121 C77.83 114.053 76.67 106.77 80.538 100.511 C84.855 95.162 89.865 90.548 95 86 C95.66 85.34 96.32 84.68 97 84 C99.166 83.953 101.334 83.962 103.5 84 C110.716 83.539 114.427 81.56 119.211 76.176 C121.992 71.24 121.98 66.733 121.84 61.223 C122 58 122 58 123.523 56.258 C124.011 55.843 124.498 55.428 125 55 C124.688 51.812 124.688 51.812 124 49 C118.566 47.672 118.566 47.672 116.062 49.125 C115 51 115 51 115.188 53.562 C116 56 116 56 118 58 C119.68 69.599 119.68 69.599 116.469 74.188 C114.712 75.627 112.923 76.801 111 78 C110.67 78.66 110.34 79.32 110 80 C105.05 80 100.1 80 95 80 C94.67 80.66 94.67 80.66 93 84 C91.535 85.676 91.535 85.676 89.848 87.312 C89.236 87.913 88.624 88.514 87.994 89.133 C87.357 89.749 86.719 90.365 86.062 91 C83.685 93.312 81.33 95.641 79 98 C78.374 98.624 77.747 99.248 77.102 99.891 C75.301 103.338 75.424 106.917 75.312 110.75 C75.278 111.543 75.244 112.336 75.209 113.152 C75.127 115.101 75.062 117.051 75 119 C72.36 119 69.72 119 67 119 C66.465 109.38 66.67 102.197 72.988 94.613 C74.517 92.932 76.06 91.264 77.617 89.609 C86.131 80.286 91.821 71.892 91.398 59.031 C90.584 52.835 88.537 47.983 83.547 44.082 C76.786 39.921 71.283 38.77 63.449 38.658 C60.076 38.515 58.427 38.443 56.031 35.957 C55.691 35.311 55.351 34.665 55 34 C54.662 34.577 54.325 35.155 53.977 35.75 C53.754 36.121 53.754 36.121 52.625 38 C52.184 38.743 51.743 39.485 51.289 40.25 C50.864 40.827 50.438 41.405 50 42 C49.34 42 48.68 42 48 42 C46.703 40.212 46.703 40.212 45.25 37.73 C44.724 36.842 44.198 35.953 43.656 35.037 C43.11 34.097 42.563 33.156 42 32.188 C40.917 30.347 39.834 28.508 38.75 26.668 C38.27 25.846 37.791 25.024 37.297 24.177 C36.25 22.419 35.135 20.702 34 19 C27.872 27.519 23.013 36.803 18 46 C15 46 15 46 12 45 C11.672 45.576 11.344 46.151 11.006 46.744 C9.529 49.332 8.046 51.916 6.562 54.5 C6.304 54.953 6.304 54.953 4.998 57.246 C4.505 58.103 4.012 58.961 3.504 59.844 C3.276 60.242 3.276 60.242 2.123 62.256 C1.753 62.831 1.382 63.407 1 64 C0.67 64 0.34 64 0 64 C0 42.88 0 21.76 0 0 Z " fill="#F9B80A" transform="translate(59,120)"/>
<path d="M0 0 C-4.155 4.155 -10.898 4.385 -16.5 5.312 C-33.967 8.442 -50.853 14.753 -61.855 29.484 C-66.352 36.635 -70.035 44.378 -69 53 C-67.5 54.812 -67.5 54.812 -66 56 C-66 56.66 -66 57.32 -66 58 C-67.98 58 -69.96 58 -72 58 C-69.911 61.327 -68.046 63.954 -65.25 66.75 C-64.507 67.493 -63.765 68.235 -63 69 C-63 69.66 -63 70.32 -63 71 C-65.64 71.33 -68.28 71.66 -71 72 C-67.042 76.825 -63.408 80.834 -58 84 C-60.554 86.554 -62.272 86.966 -65.848 87.133 C-66.909 87.13 -67.969 87.128 -69.062 87.125 C-70.126 87.128 -71.189 87.13 -72.285 87.133 C-75 87 -75 87 -77 86 C-77 87.65 -77 89.3 -77 91 C-76.67 90.835 -76.67 90.835 -75 90 C-71.506 89.757 -68.002 89.815 -64.5 89.812 C-63.544 89.8 -62.587 89.788 -61.602 89.775 C-55.17 89.762 -49.251 90.489 -43 92 C-43.243 91.722 -43.243 91.722 -44.474 90.313 C-53.208 80.116 -56.026 69.405 -55.418 56.242 C-54.979 50.677 -53.54 45.968 -51 41 C-50.599 40.175 -50.198 39.35 -49.785 38.5 C-41.852 23.783 -27.235 13.406 -11.891 7.461 C-10 7 -10 7 -8 8 C-8.351 8.237 -8.351 8.237 -10.125 9.434 C-21.448 17.326 -31.04 26.969 -34 41 C-34.24 44.06 -34.231 47.119 -34.25 50.188 C-34.271 51 -34.291 51.813 -34.312 52.65 C-34.399 66.306 -27.32 79.187 -18.641 89.387 C-13.942 94.037 -8.548 97.435 -3 101 C-1.661 101.992 -0.326 102.991 1 104 C-17.39 104.685 -33.674 103.356 -51.289 98 C-64.468 94.139 -79.694 94.914 -93 98 C-90.797 95.716 -88.966 94.205 -86 93 C-85.01 93 -84.02 93 -83 93 C-83 90.69 -83 88.38 -83 86 C-83.33 86.165 -83.33 86.165 -85 87 C-86.768 87.122 -88.541 87.176 -90.312 87.188 C-91.257 87.202 -92.202 87.216 -93.176 87.23 C-96.144 86.988 -98.309 86.24 -101 85 C-98.116 82.034 -94.991 79.395 -91.84 76.719 C-90 75 -90 75 -88 72 C-89.093 72.021 -90.186 72.041 -91.312 72.062 C-95 72 -95 72 -98 71 C-98 70.34 -98 69.68 -98 69 C-97.299 68.629 -96.597 68.257 -95.875 67.875 C-91.918 65.294 -89.66 61.848 -87 58 C-88.98 58 -90.96 58 -93 58 C-91.59 54.961 -89.911 52.406 -87.875 49.75 C-87.336 49.044 -86.797 48.337 -86.242 47.609 C-85.832 47.078 -85.422 46.547 -85 46 C-85.66 46.165 -85.66 46.165 -89 47 C-88.652 36.568 -84.204 27.437 -77.031 19.871 C-61.966 5.993 -44.604 1.652 -24.562 1.375 C-21.918 1.327 -19.273 1.269 -16.629 1.211 C-16.052 1.202 -16.052 1.202 -13.131 1.158 C-8.653 0.932 -4.51 -0.129 0 0 Z " fill="#114D1F" transform="translate(135,206)"/>
<path d="M0 0 C19.347 -0.688 33.953 1.983 48.656 15.547 C53.03 20.125 56.794 25.192 60.636 30.217 C69.219 41.434 78.734 52.183 93 55.75 C93.66 55.832 94.32 55.915 95 56 C95 56.66 95 57.32 95 58 C92.96 58.651 90.918 59.295 88.875 59.938 C87.738 60.297 86.601 60.657 85.43 61.027 C73.619 64.377 60.515 64.401 49 60 C48.184 59.694 47.368 59.389 46.527 59.074 C23.53 49.051 10.293 21.193 0 0 Z " fill="#052451" transform="translate(116,245)"/>
<path d="M0 0 C3.948 3.776 7.305 7.793 10.625 12.125 C11.574 13.358 12.524 14.59 13.477 15.82 C13.683 16.09 13.683 16.09 14.729 17.454 C16.063 19.076 17.493 20.539 19 22 C19 21.34 19 20.68 19 20 C19.481 16.23 19.859 14.212 22 11 C25.389 12.13 25.838 12.787 27.82 15.613 C28.352 16.362 28.883 17.11 29.431 17.881 C29.71 18.282 29.71 18.282 31.125 20.312 C32.287 21.955 33.449 23.597 34.613 25.238 C35.185 26.047 35.757 26.856 36.346 27.69 C39.294 31.807 42.39 35.808 45.488 39.812 C47 42 47 42 47 44 C37.017 47.609 27.394 47.229 16.978 46.938 C-2.758 46.439 -18.547 50.229 -34 63 C-35.019 63.98 -36.03 64.971 -37 66 C-38.588 51.002 -30.732 35.688 -21.754 24.102 C-21.465 23.755 -21.465 23.755 -20 22 C-16.21 23.427 -12.729 25.162 -9.188 27.125 C-8.212 27.664 -7.236 28.203 -6.23 28.758 C-5.494 29.168 -4.758 29.578 -4 30 C-4.529 29.336 -5.057 28.672 -5.602 27.988 C-6.269 27.105 -6.937 26.222 -7.625 25.312 C-8.298 24.442 -8.971 23.572 -9.664 22.676 C-11 20 -11 20 -10.465 17.621 C-9.981 16.756 -9.498 15.891 -9 15 C-8.699 14.443 -8.398 13.886 -8.088 13.312 C-7.066 11.44 -6.007 9.595 -4.938 7.75 C-4.755 7.432 -4.755 7.432 -3.834 5.82 C-1.141 1.141 -1.141 1.141 0 0 Z " fill="#1A5B23" transform="translate(92,155)"/>
<path d="M0 0 C18.81 0 37.62 0 57 0 C56.351 6.492 55.769 11.744 54.125 17.875 C53.798 19.131 53.47 20.386 53.133 21.68 C52.098 24.714 51.096 26.617 49 29 C49.33 29 49.66 29 50 29 C50.144 29.784 50.289 30.567 50.438 31.375 C51 34 51 34 52 36 C50.688 38.625 50.688 38.625 49 41 C48.34 41 47.68 41 47 41 C45.703 39.212 45.703 39.212 44.25 36.73 C43.724 35.842 43.198 34.953 42.656 34.037 C42.11 33.097 41.563 32.156 41 31.188 C39.917 29.347 38.834 27.508 37.75 25.668 C37.27 24.846 36.791 24.024 36.297 23.177 C35.25 21.419 34.135 19.702 33 18 C26.872 26.519 22.013 35.803 17 45 C14 45 14 45 11 44 C10.374 45.143 9.747 46.287 9.102 47.465 C8.276 48.956 7.451 50.447 6.625 51.938 C6.213 52.692 5.8 53.447 5.375 54.225 C4.975 54.943 4.576 55.662 4.164 56.402 C3.981 56.735 3.981 56.735 3.053 58.418 C2 60 2 60 0 61 C0 40.87 0 20.74 0 0 Z " fill="#1D591E" transform="translate(60,121)"/>
<path d="M0 0 C-0.351 0.237 -0.351 0.237 -2.125 1.434 C-13.448 9.326 -23.04 18.969 -26 33 C-26.24 36.06 -26.231 39.119 -26.25 42.188 C-26.271 43 -26.291 43.813 -26.312 44.65 C-26.399 58.306 -19.32 71.187 -10.641 81.387 C-5.942 86.037 -0.548 89.435 5 93 C6.339 93.992 7.674 94.991 9 96 C-9.792 95.723 -24.317 95.089 -38 81 C-40.458 77.825 -42.314 74.638 -44 71 C-44.336 70.341 -44.673 69.683 -45.02 69.004 C-48.864 59.999 -48.491 47.151 -45.375 38 C-44.631 36.311 -43.84 34.643 -43 33 C-42.599 32.175 -42.198 31.35 -41.785 30.5 C-33.852 15.783 -19.235 5.406 -3.891 -0.539 C-2 -1 -2 -1 0 0 Z " fill="#072652" transform="translate(127,214)"/>
<path d="M0 0 C4.495 3.87 7.496 9.238 8.285 15.129 C8.544 21.592 7.455 27.802 3.453 33.016 C-1.525 38.258 -6.038 41.106 -13.375 41.5 C-19.879 41.306 -23.984 39.008 -28.531 34.473 C-34.047 28.171 -34.612 22.916 -34.379 14.711 C-33.711 8.167 -30.781 4.457 -26.062 0.125 C-17.493 -5.821 -8.659 -5.348 0 0 Z " fill="#0D1C43" transform="translate(307,174)"/>
<path d="M0 0 C3.506 -0.062 7.012 -0.124 10.625 -0.188 C11.719 -0.215 12.813 -0.242 13.94 -0.27 C20.724 -0.328 25.056 0.521 30.375 5 C32.855 9.578 32.628 13.905 32 19 C30.812 22.062 30.812 22.062 29 24 C27.35 24.708 25.684 25.38 24 26 C24.303 26.479 24.606 26.959 24.918 27.453 C26.281 29.613 27.641 31.775 29 33.938 C29.477 34.692 29.954 35.447 30.445 36.225 C30.671 36.584 30.671 36.584 31.812 38.402 C32.231 39.067 32.65 39.732 33.082 40.418 C34 42 34 42 34 43 C30.692 43.985 28.275 44.18 25 43 C22.82 40.104 21.054 37.305 19.448 34.068 C16.91 29.294 16.91 29.294 13.942 28.335 C11.723 28.059 11.723 28.059 8 28 C8 32.95 8 37.9 8 43 C5.36 43 2.72 43 0 43 C0 28.81 0 14.62 0 0 Z " fill="#0F1D43" transform="translate(231,171)"/>
<path d="M0 0 C8 0 8 0 9.848 1.73 C10.249 2.541 10.649 3.352 11.062 4.188 C11.53 5.086 11.998 5.984 12.48 6.91 C12.731 7.42 12.731 7.42 14 10 C14.958 11.791 15.933 13.571 16.908 15.353 C18.293 17.891 19.646 20.445 21 23 C23.143 20.267 24.878 17.532 26.48 14.453 C26.922 13.609 27.363 12.764 27.818 11.895 C28.044 11.458 28.044 11.458 29.188 9.25 C29.419 8.806 29.419 8.806 30.592 6.559 C31.731 4.374 32.867 2.188 34 0 C36.97 0 39.94 0 43 0 C43 14.19 43 28.38 43 43 C40.36 43 37.72 43 35 43 C34.835 38.71 34.835 38.71 34 17 C30.37 23.6 26.74 30.2 23 37 C19 36 19 36 17.536 33.959 C17.096 33.084 16.656 32.21 16.203 31.309 C15.766 30.458 15.33 29.608 14.88 28.732 C14.342 27.645 13.804 26.558 13.25 25.438 C11.517 21.993 9.785 18.549 8 15 C7.67 24.24 7.34 33.48 7 43 C4.69 43 2.38 43 0 43 C0 28.81 0 14.62 0 0 Z " fill="#071742" transform="translate(326,171)"/>
<path d="M0 0 C-4.155 4.155 -10.898 4.385 -16.5 5.312 C-33.932 8.435 -51.049 14.738 -61.891 29.59 C-64.582 33.933 -66.494 38.106 -68 43 C-68.33 43.165 -68.33 43.165 -70 44 C-70.722 45.644 -71.394 47.311 -72 49 C-74.792 46.592 -75.897 44.239 -77.188 40.812 C-77.532 39.911 -77.876 39.01 -78.23 38.082 C-78.484 37.395 -78.738 36.708 -79 36 C-79.219 36.626 -79.438 37.253 -79.664 37.898 C-82.286 44.657 -82.286 44.657 -86.25 46.562 C-87.157 46.707 -88.065 46.851 -89 47 C-88.652 36.568 -84.204 27.437 -77.031 19.871 C-61.966 5.993 -44.604 1.652 -24.562 1.375 C-21.918 1.327 -19.273 1.269 -16.629 1.211 C-16.052 1.202 -16.052 1.202 -13.131 1.158 C-8.653 0.932 -4.51 -0.129 0 0 Z " fill="#1C5D25" transform="translate(135,206)"/>
<path d="M0 0 C8 0 8 0 9.899 1.402 C10.315 2.05 10.731 2.699 11.16 3.367 C11.644 4.089 12.128 4.811 12.627 5.555 C13.101 6.32 13.574 7.086 14.062 7.875 C15.032 9.352 16.003 10.828 16.973 12.305 C17.972 13.854 18.971 15.404 20 17 C22.31 20.3 24.62 23.6 27 27 C27.33 18.09 27.66 9.18 28 0 C30.64 0 33.28 0 36 0 C36 14.19 36 28.38 36 43 C28 43 28 43 26.101 41.598 C25.685 40.95 25.269 40.301 24.84 39.633 C24.356 38.911 23.872 38.189 23.373 37.445 C22.899 36.68 22.426 35.914 21.938 35.125 C20.968 33.648 19.997 32.172 19.027 30.695 C18.028 29.146 17.029 27.596 16 26 C13.69 22.7 11.38 19.4 9 16 C8.67 24.91 8.34 33.82 8 43 C5.36 43 2.72 43 0 43 C0 28.81 0 14.62 0 0 Z " fill="#111F43" transform="translate(428,171)"/>
<path d="M0 0 C0.412 0.006 0.412 0.006 2.496 0.035 C3.322 0.044 4.149 0.053 5 0.062 C5.638 0.074 6.276 0.086 6.934 0.098 C10.859 10.035 14.685 20.006 18.371 30.035 C18.725 30.988 19.079 31.941 19.443 32.922 C19.769 33.814 20.094 34.706 20.43 35.625 C20.575 36.021 20.575 36.021 21.31 38.023 C21.934 40.098 21.934 40.098 21.934 43.098 C19.294 43.098 16.654 43.098 13.934 43.098 C12.944 40.458 11.954 37.818 10.934 35.098 C4.994 34.768 -0.946 34.438 -7.066 34.098 C-8.056 37.068 -9.046 40.038 -10.066 43.098 C-12.706 43.098 -15.346 43.098 -18.066 43.098 C-16.766 37.514 -15.132 32.256 -13.062 26.914 C-12.779 26.173 -12.496 25.432 -12.204 24.669 C-11.61 23.119 -11.014 21.571 -10.416 20.023 C-9.498 17.644 -8.587 15.263 -7.678 12.881 C-7.098 11.371 -6.518 9.861 -5.938 8.352 C-5.665 7.638 -5.392 6.925 -5.11 6.19 C-2.763 0.131 -2.763 0.131 0 0 Z " fill="#122047" transform="translate(513.06640625,170.90234375)"/>
<path d="M0 0 C2.97 0 5.94 0 9 0 C14.808 14.18 20.154 28.462 25 43 C22.03 43 19.06 43 16 43 C15.34 40.03 14.68 37.06 14 34 C7.73 34 1.46 34 -5 34 C-5.99 36.97 -6.98 39.94 -8 43 C-10.64 43 -13.28 43 -16 43 C-13.478 35.161 -10.602 27.463 -7.702 19.759 C-6.868 17.544 -6.037 15.328 -5.207 13.111 C-4.677 11.7 -4.147 10.29 -3.617 8.879 C-3.493 8.548 -3.493 8.548 -2.866 6.875 C-1.116 2.231 -1.116 2.231 0 0 Z " fill="#111D43" transform="translate(394,171)"/>
<path d="M0 0 C3.68 2.828 5.253 5.615 6.148 10.094 C6.646 15.562 5.787 19.272 3.148 24.094 C-0.093 27.613 -3.114 28.896 -7.793 29.25 C-11.503 28.968 -14.124 27.584 -16.852 25.094 C-20.339 19.582 -21.037 13.51 -19.852 7.094 C-15.854 -0.072 -7.861 -3.848 0 0 Z " fill="#F7F7F8" transform="translate(300.8515625,178.90625)"/>
<path d="M0 0 C33.66 0 67.32 0 102 0 C102 1.65 102 3.3 102 5 C68.34 5 34.68 5 0 5 C0 3.35 0 1.7 0 0 Z " fill="#FDBC0A" transform="translate(331,236)"/>
<path d="M0 0 C32.67 0 65.34 0 99 0 C99 1.65 99 3.3 99 5 C66.33 5 33.66 5 0 5 C0 3.35 0 1.7 0 0 Z " fill="#E11013" transform="translate(437,236)"/>
<path d="M0 0 C6.93 0 13.86 0 21 0 C20.351 6.492 19.769 11.744 18.125 17.875 C17.798 19.131 17.47 20.386 17.133 21.68 C16.098 24.714 15.096 26.617 13 29 C13.33 29 13.66 29 14 29 C14.144 29.784 14.289 30.567 14.438 31.375 C15 34 15 34 16 36 C14.688 38.625 14.688 38.625 13 41 C12.34 41 11.68 41 11 41 C9.38 38.611 7.892 36.237 6.438 33.75 C6.026 33.068 5.614 32.386 5.189 31.684 C3.269 28.447 1.796 25.702 1 22 C0.732 20.886 0.464 19.773 0.188 18.625 C-0.05 14.026 1.116 12.508 4 9 C4.722 8.299 5.444 7.597 6.188 6.875 C8.119 4.877 8.613 3.71 9 1 C6.36 1.33 3.72 1.66 1 2 C0.67 1.34 0.34 0.68 0 0 Z " fill="#697913" transform="translate(96,121)"/>
<path d="M0 0 C31.35 0 62.7 0 95 0 C95 1.65 95 3.3 95 5 C63.65 5 32.3 5 0 5 C0 3.35 0 1.7 0 0 Z " fill="#062B84" transform="translate(231,236)"/>
<path d="M0 0 C2.97 0 5.94 0 9 0 C9 14.19 9 28.38 9 43 C6.36 43 3.72 43 1 43 C0.67 34.42 0.34 25.84 0 17 C-0.99 17 -1.98 17 -3 17 C-3 16.34 -3 15.68 -3 15 C-3.66 15 -4.32 15 -5 15 C-5.684 13.359 -5.684 13.359 -6 11 C-4.785 8.203 -4.785 8.203 -3.062 5.25 C-2.497 4.265 -1.931 3.28 -1.348 2.266 C-0.903 1.518 -0.458 0.77 0 0 Z " fill="#192549" transform="translate(360,171)"/>
<path d="M0 0 C2.938 0.812 2.938 0.812 4.938 3.812 C4.562 7 4.562 7 3.938 9.812 C2.947 10.143 1.958 10.472 0.938 10.812 C1.065 11.768 1.193 12.723 1.324 13.707 C1.781 19.662 2.01 23.944 -1.02 29.223 C-4.798 33.421 -7.75 36.453 -13.559 37.355 C-15.937 37.368 -18.316 37.365 -20.695 37.344 C-27.063 38.23 -30.162 43.1 -34.062 47.812 C-34.766 48.409 -35.47 49.006 -36.195 49.621 C-40.678 53.55 -41.473 57.031 -41.89 62.791 C-42.05 66.47 -42.09 70.13 -42.062 73.812 C-42.393 73.812 -42.722 73.812 -43.062 73.812 C-43.393 67.873 -43.722 61.933 -44.062 55.812 C-44.393 61.093 -44.722 66.373 -45.062 71.812 C-45.393 71.812 -45.722 71.812 -46.062 71.812 C-47.837 56.687 -47.837 56.687 -43.895 51.293 C-41.194 48.193 -38.157 45.513 -35.062 42.812 C-33.51 41.282 -31.967 39.742 -30.438 38.188 C-29.806 37.576 -29.174 36.965 -28.523 36.336 C-27.062 34.812 -27.062 34.812 -26.062 32.812 C-21.113 32.812 -16.162 32.812 -11.062 32.812 C-10.403 31.493 -9.743 30.173 -9.062 28.812 C-8.207 28.216 -7.351 27.619 -6.469 27.004 C-4.062 24.812 -4.062 24.812 -3.469 21.465 C-3.5 20.239 -3.531 19.013 -3.562 17.75 C-3.573 16.522 -3.583 15.293 -3.594 14.027 C-4.096 10.582 -4.547 9.978 -7.062 7.812 C-6.938 4.75 -6.938 4.75 -6.062 1.812 C-3.062 -0.188 -3.062 -0.188 0 0 Z " fill="#FEF6DD" transform="translate(180.0625,167.1875)"/>
<path d="M0 0 C25.74 0 51.48 0 78 0 C78 0.33 78 0.66 78 1 C74.04 1 70.08 1 66 1 C66.165 1.66 66.165 1.66 67 5 C66.618 5.082 66.618 5.082 64.688 5.5 C60.698 7.727 60.217 10.765 59 15 C58.794 15.687 58.588 16.374 58.375 17.082 C57.896 18.715 57.445 20.357 57 22 C58.32 21.34 59.64 20.68 61 20 C60.427 22.867 60.139 23.861 58 26 C56.831 30.383 56.971 32.942 59 37 C60.32 37 61.64 37 63 37 C63 36.34 63 35.68 63 35 C64.32 34.67 65.64 34.34 67 34 C67 35.32 67 36.64 67 38 C63.967 38.229 61.025 38.365 58 38 C55.938 36 55.938 36 55 34 C54.34 34.66 53.68 35.32 53 36 C52.34 36 51.68 36 51 36 C50.403 33.237 50 30.84 50 28 C50.66 27.34 51.32 26.68 52 26 C55.051 18.183 56.076 10.316 57 2 C38.52 1.67 20.04 1.34 1 1 C1.33 21.46 1.66 41.92 2 63 C1.67 63.165 1.67 63.165 0 64 C0 42.88 0 21.76 0 0 Z " fill="#A4B174" transform="translate(59,120)"/>
<path d="M0 0 C2.64 0 5.28 0 8 0 C8 14.19 8 28.38 8 43 C5.36 43 2.72 43 0 43 C0 28.81 0 14.62 0 0 Z " fill="#081B44" transform="translate(477,171)"/>
<path d="M0 0 C3.3 0 6.6 0 10 0 C10 0.99 10 1.98 10 3 C7.69 3 5.38 3 3 3 C3 3.99 3 4.98 3 6 C8.766 5.064 11.876 4.266 16 0 C19.25 -0.25 19.25 -0.25 22 0 C22.66 1.32 23.32 2.64 24 4 C23.01 4 22.02 4 21 4 C21 3.34 21 2.68 21 2 C19.68 2 18.36 2 17 2 C17.33 2.99 17.66 3.98 18 5 C18.99 5.454 19.98 5.908 21 6.375 C24 8 24 8 25.062 10.312 C24.979 13.917 23.974 16.005 22 19 C19.812 19.875 19.812 19.875 18 20 C17.773 19.216 17.546 18.433 17.312 17.625 C16 15 16 15 13.375 13.688 C12.591 13.461 11.808 13.234 11 13 C11 13.66 11 14.32 11 15 C7.37 15 3.74 15 0 15 C0 10.05 0 5.1 0 0 Z " fill="#DFE0E8" transform="translate(315,293)"/>
<path d="M0 0 C2.774 2.024 3.855 3.152 4.438 6.562 C4 9 4 9 2.505 10.279 C0.327 12.77 0.568 14.71 0.488 17.98 C0.453 19.144 0.417 20.307 0.381 21.506 C0.358 22.721 0.336 23.936 0.312 25.188 C0.278 26.414 0.244 27.641 0.209 28.904 C0.126 31.936 0.057 34.968 0 38 C-0.66 38 -1.32 38 -2 38 C-2.268 38.598 -2.536 39.196 -2.812 39.812 C-4.851 43.567 -4.851 43.567 -7 45 C-9.718 45.253 -12.259 45.135 -15 45 C-15 43.68 -15 42.36 -15 41 C-13.886 40.897 -12.773 40.794 -11.625 40.688 C-10.429 40.461 -9.232 40.234 -8 40 C-7.34 39.01 -6.68 38.02 -6 37 C-5.34 37 -4.68 37 -4 37 C-4 28.75 -4 20.5 -4 12 C-5.32 11.34 -6.64 10.68 -8 10 C-8.33 9.67 -8.66 9.34 -9 9 C-8.75 5.562 -8.75 5.562 -8 2 C-4.752 -0.166 -3.769 -0.552 0 0 Z " fill="#FEF8E6" transform="translate(168,149)"/>
<path d="M0 0 C2.97 0 5.94 0 9 0 C9.866 1.932 10.717 3.871 11.562 5.812 C12.038 6.891 12.514 7.97 13.004 9.082 C14 12 14 12 13 15 C12.34 15 11.68 15 11 15 C10.67 13.02 10.34 11.04 10 9 C8.68 9.33 7.36 9.66 6 10 C6.18 10.53 6.18 10.53 7.094 13.211 C7.563 14.599 8.031 15.987 8.5 17.375 C8.738 18.074 8.977 18.772 9.223 19.492 C11 24.773 11 24.773 11 27 C6.71 27 2.42 27 -2 27 C-1.251 24.559 -0.503 22.117 0.246 19.676 C0.963 17.13 1.518 14.6 2 12 C1.01 12 0.02 12 -1 12 C-1.99 12 -2.98 12 -4 12 C-3.523 10.374 -3.043 8.749 -2.562 7.125 C-2.296 6.22 -2.029 5.315 -1.754 4.383 C-1 2 -1 2 0 0 Z " fill="#10204A" transform="translate(394,171)"/>
<path d="M0 0 C2.97 0 5.94 0 9 0 C14.908 13.595 14.908 13.595 13 20 C12.835 20.743 12.67 21.485 12.5 22.25 C12.044 23.847 11.525 25.425 11 27 C8.69 21.72 6.38 16.44 4 11 C3.01 13.31 2.02 15.62 1 18 C-1.188 18.938 -1.188 18.938 -3 19 C-3 18.34 -3 17.68 -3 17 C-3.66 17 -4.32 17 -5 17 C-4.528 10.513 -2.837 5.858 0 0 Z " fill="#0D1B41" transform="translate(511,171)"/>
<path d="M0 0 C2.444 3.083 4.331 6.285 6.188 9.75 C6.717 10.735 7.247 11.72 7.793 12.734 C8.191 13.482 8.59 14.23 9 15 C11.464 11.824 13.266 8.632 15 5 C15.66 5 16.32 5 17 5 C17 5.66 17 6.32 17 7 C17.66 7 18.32 7 19 7 C19 7.66 19 8.32 19 9 C19.66 9.33 20.32 9.66 21 10 C17.7 16.27 14.4 22.54 11 29 C7 28 7 28 5.812 26.418 C5.497 25.753 5.183 25.088 4.859 24.402 C4.511 23.684 4.163 22.965 3.805 22.225 C3.457 21.47 3.109 20.715 2.75 19.938 C2.568 19.558 2.568 19.558 1.648 17.639 C0.753 15.765 -0.125 13.883 -1 12 C-0.34 12 0.32 12 1 12 C1.845 8.622 2.108 6.325 1 3 C0.34 3 -0.32 3 -1 3 C-0.67 2.01 -0.34 1.02 0 0 Z " fill="#101C3E" transform="translate(338,179)"/>
<path d="M0 0 C10.977 -0.483 10.977 -0.483 15.312 1.562 C17 4 17 4 17.062 7.562 C15.882 11.381 15.393 12.107 12 14 C8.984 14.293 8.984 14.293 5.75 14.188 C4.801 14.157 4.801 14.157 0 14 C0 9.38 0 4.76 0 0 Z " fill="#EEEEF2" transform="translate(239,178)"/>
<path d="M0 0 C0.485 0.01 0.485 0.01 2.938 0.062 C2.502 9.321 1.255 21.879 -5.062 29.062 C-4.733 29.062 -4.403 29.062 -4.062 29.062 C-3.465 31.825 -3.062 34.223 -3.062 37.062 C-4.713 36.733 -6.362 36.403 -8.062 36.062 C-8.75 33.438 -8.75 33.438 -9.062 30.062 C-8.567 29.217 -8.073 28.371 -7.562 27.5 C-5.87 23.622 -6.097 21.946 -6.562 17.812 C-7.231 11.608 -6.534 6.79 -4.062 1.062 C-3.062 0.062 -3.062 0.062 0 0 Z " fill="#9C8D09" transform="translate(114.0625,120.9375)"/>
<path d="M0 0 C8 0 8 0 11 1.562 C13 4 13 4 13.625 7.438 C13 11 13 11 11 13.938 C8 16 8 16 0 16 C0 10.72 0 5.44 0 0 Z " fill="#282F5A" transform="translate(266,264)"/>
<path d="M0 0 C7.92 0 7.92 0 12 3 C13 4 13 4 13.375 7.812 C13.316 11.111 13.156 11.804 11 14.5 C8 16 8 16 0 16 C0 10.72 0 5.44 0 0 Z " fill="#393E6B" transform="translate(350,264)"/>
<path d="M0 0 C2.875 1.625 2.875 1.625 5 4 C5.726 7.79 5.278 9.489 3.438 12.875 C1 15 1 15 -2.5 15.562 C-6 15 -6 15 -8.438 13.438 C-10.604 10.058 -10.563 7.94 -10 4 C-7.257 -0.115 -4.814 -0.786 0 0 Z " fill="#121749" transform="translate(432,293)"/>
<path d="M0 0 C1.98 0 3.96 0 6 0 C6 9.24 6 18.48 6 28 C5.34 27.34 4.68 26.68 4 26 C3.01 26.99 2.02 27.98 1 29 C0 28 0 28 -0.114 25.316 C-0.108 24.148 -0.103 22.981 -0.098 21.777 C-0.094 20.517 -0.091 19.257 -0.088 17.959 C-0.08 16.618 -0.071 15.278 -0.062 13.938 C-0.057 12.593 -0.053 11.249 -0.049 9.904 C-0.037 6.603 -0.021 3.301 0 0 Z " fill="#0A1842" transform="translate(456,171)"/>
<path d="M0 0 C2.31 0 4.62 0 7 0 C7 7.59 7 15.18 7 23 C6.67 23 6.34 23 6 23 C6 15.74 6 8.48 6 1 C4.35 1 2.7 1 1 1 C1.33 6.28 1.66 11.56 2 17 C2.99 17 3.98 17 5 17 C5.33 24.92 5.66 32.84 6 41 C4.35 41 2.7 41 1 41 C0.056 31.898 -0.122 22.895 -0.062 13.75 C-0.057 12.408 -0.053 11.065 -0.049 9.723 C-0.037 6.482 -0.021 3.241 0 0 Z " fill="#061136" transform="translate(478,171)"/>
<path d="M0 0 C8.593 -0.934 8.593 -0.934 11.801 1.195 C12.32 1.708 12.84 2.221 13.375 2.75 C21.417 10.661 33.375 10.71 44 11 C44 11.33 44 11.66 44 12 C28.45 12.808 12.405 11.449 -2 5 C-1.01 4.67 -0.02 4.34 1 4 C0.67 2.68 0.34 1.36 0 0 Z " fill="#144E1F" transform="translate(84,298)"/>
<path d="M0 0 C2.938 0.812 2.938 0.812 4.938 3.812 C4.562 7 4.562 7 3.938 9.812 C2.618 10.143 1.298 10.472 -0.062 10.812 C-0.062 14.773 -0.062 18.733 -0.062 22.812 C-1.053 23.142 -2.042 23.472 -3.062 23.812 C-3.1 22.909 -3.137 22.005 -3.176 21.074 C-3.242 19.895 -3.307 18.715 -3.375 17.5 C-3.433 16.328 -3.491 15.156 -3.551 13.949 C-4.101 10.578 -4.613 9.965 -7.062 7.812 C-6.938 4.75 -6.938 4.75 -6.062 1.812 C-3.062 -0.188 -3.062 -0.188 0 0 Z " fill="#FDF9EB" transform="translate(180.0625,167.1875)"/>
<path d="M0 0 C8 0 8 0 10 1.188 C11.338 3.613 11.273 5.265 11 8 C10.67 8.99 10.34 9.98 10 11 C10.938 13.688 10.938 13.688 12 16 C10.125 15.812 10.125 15.812 8 15 C6.75 12.438 6.75 12.438 6 10 C5.01 10 4.02 10 3 10 C3 11.98 3 13.96 3 16 C2.01 16 1.02 16 0 16 C0 10.72 0 5.44 0 0 Z " fill="#232959" transform="translate(318,264)"/>
<path d="M0 0 C3.542 -0.029 7.083 -0.047 10.625 -0.062 C11.624 -0.071 12.623 -0.079 13.652 -0.088 C18.55 -0.104 23.187 -0.043 28 1 C26.68 1.33 25.36 1.66 24 2 C24.33 3.32 24.66 4.64 25 6 C22.455 6.654 20.52 7.112 17.926 6.555 C12.932 5.608 7.845 5.639 2.773 5.482 C2.361 5.465 2.361 5.465 0.273 5.379 C-0.475 5.354 -1.223 5.329 -1.995 5.303 C-4 5 -4 5 -7 3 C-4.69 3 -2.38 3 0 3 C0 2.01 0 1.02 0 0 Z " fill="#1C5326" transform="translate(60,296)"/>
<path d="M0 0 C1.258 -0.041 2.516 -0.082 3.812 -0.125 C4.52 -0.148 5.228 -0.171 5.957 -0.195 C8 0 8 0 11 2 C11.477 5.723 11.139 6.792 9 10 C9.875 12.688 9.875 12.688 11 15 C9.125 14.75 9.125 14.75 7 14 C5.875 12 5.875 12 5 10 C4.34 9.67 3.68 9.34 3 9 C3 10.98 3 12.96 3 15 C2.01 15 1.02 15 0 15 C0 10.05 0 5.1 0 0 Z " fill="#555C89" transform="translate(441,293)"/>
<path d="M0 0 C4.23 1.057 4.549 1.2 6.75 4.562 C7.178 5.203 7.606 5.844 8.047 6.504 C8.361 6.998 8.676 7.491 9 8 C9.33 5.36 9.66 2.72 10 0 C10.99 0 11.98 0 13 0 C13 4.95 13 9.9 13 15 C8.77 13.943 8.451 13.8 6.25 10.438 C5.822 9.797 5.394 9.156 4.953 8.496 C4.639 8.002 4.324 7.509 4 7 C3.67 9.64 3.34 12.28 3 15 C2.01 15 1.02 15 0 15 C0 10.05 0 5.1 0 0 Z " fill="#252C5B" transform="translate(239,293)"/>
<path d="M0 0 C4.23 1.057 4.549 1.2 6.75 4.562 C7.178 5.203 7.606 5.844 8.047 6.504 C8.361 6.998 8.676 7.491 9 8 C9.33 5.36 9.66 2.72 10 0 C10.99 0 11.98 0 13 0 C13 4.95 13 9.9 13 15 C8.77 13.943 8.451 13.8 6.25 10.438 C5.822 9.797 5.394 9.156 4.953 8.496 C4.639 8.002 4.324 7.509 4 7 C3.67 9.64 3.34 12.28 3 15 C2.01 15 1.02 15 0 15 C0 10.05 0 5.1 0 0 Z " fill="#222952" transform="translate(298,293)"/>
<path d="M0 0 C2.512 3.038 3.882 5.914 5.188 9.625 C5.532 10.587 5.876 11.548 6.23 12.539 C7 15 7 15 7 17 C2.71 17 -1.58 17 -6 17 C-4.311 11.129 -2.536 5.556 0 0 Z " fill="#DBDDE3" transform="translate(398,181)"/>
<path d="M0 0 C1.828 0.098 1.828 0.098 4 1 C5.484 3.871 5.484 3.871 6.75 7.438 C7.178 8.612 7.606 9.786 8.047 10.996 C9 14 9 14 9 16 C7.68 15.67 6.36 15.34 5 15 C5 14.01 5 13.02 5 12 C2.69 12 0.38 12 -2 12 C-2.33 13.32 -2.66 14.64 -3 16 C-3.99 16 -4.98 16 -6 16 C-4.252 10.533 -2.342 5.242 0 0 Z " fill="#171D51" transform="translate(338,264)"/>
<path d="M0 0 C1.32 0 2.64 0 4 0 C4.33 3.96 4.66 7.92 5 12 C6.32 12 7.64 12 9 12 C9.33 8.04 9.66 4.08 10 0 C10.99 0 11.98 0 13 0 C13.081 2.104 13.139 4.208 13.188 6.312 C13.222 7.484 13.257 8.656 13.293 9.863 C13 13 13 13 11.672 14.891 C9.016 16.653 7.099 16.443 4 16 C1.824 14.363 1.824 14.363 0 12 C-0.391 8.984 -0.391 8.984 -0.25 5.75 C-0.214 4.672 -0.178 3.595 -0.141 2.484 C-0.094 1.665 -0.048 0.845 0 0 Z " fill="#3D436B" transform="translate(231,264)"/>
<path d="M0 0 C1.828 0.129 1.828 0.129 4 1 C5.484 3.652 5.484 3.652 6.75 6.938 C7.178 8.019 7.606 9.101 8.047 10.215 C9 13 9 13 9 15 C7.68 14.67 6.36 14.34 5 14 C5 13.34 5 12.68 5 12 C2.69 12 0.38 12 -2 12 C-2 12.99 -2 13.98 -2 15 C-2.99 15 -3.98 15 -5 15 C-4.432 9.459 -2.371 4.963 0 0 Z " fill="#252A51" transform="translate(273,293)"/>
<path d="M0 0 C4.709 1.055 5.909 3.007 8.559 6.867 C9.625 8.812 9.625 8.812 9.625 10.812 C6.875 11.062 6.875 11.062 3.625 10.812 C1.25 8.812 1.25 8.812 -0.375 6.812 C-0.746 7.472 -1.118 8.132 -1.5 8.812 C-3.375 10.812 -3.375 10.812 -6.562 11.062 C-7.491 10.98 -8.419 10.898 -9.375 10.812 C-7.536 5.448 -5.806 1.398 0 0 Z " fill="#242B4F" transform="translate(398.375,156.1875)"/>
<path d="M0 0 C1.65 0.33 3.3 0.66 5 1 C5.67 2.957 6.336 4.916 7 6.875 C7.371 7.966 7.743 9.056 8.125 10.18 C9 13 9 13 9 15 C8.01 15 7.02 15 6 15 C5.67 14.01 5.34 13.02 5 12 C3.02 12 1.04 12 -1 12 C-1.33 12.99 -1.66 13.98 -2 15 C-2.99 15 -3.98 15 -5 15 C-1.925 4.442 -1.925 4.442 0 0 Z " fill="#484D77" transform="translate(400,265)"/>
<path d="M0 0 C1.787 2.68 2.932 5.031 4.125 8 C4.302 8.433 4.302 8.433 5.195 10.625 C6 13 6 13 6 16 C2.04 16 -1.92 16 -6 16 C-5.191 13.52 -4.378 11.041 -3.562 8.562 C-3.332 7.855 -3.102 7.148 -2.865 6.42 C-1.113 1.113 -1.113 1.113 0 0 Z " fill="#ECEDF0" transform="translate(515,181)"/>
<path d="M0 0 C0.949 0.041 1.897 0.082 2.875 0.125 C3.535 1.445 4.195 2.765 4.875 4.125 C3.885 4.125 2.895 4.125 1.875 4.125 C1.875 3.465 1.875 2.805 1.875 2.125 C0.555 2.125 -0.765 2.125 -2.125 2.125 C-1.795 3.115 -1.465 4.105 -1.125 5.125 C-0.135 5.579 0.855 6.033 1.875 6.5 C4.875 8.125 4.875 8.125 5.938 10.438 C5.854 14.042 4.849 16.13 2.875 19.125 C0.688 20 0.688 20 -1.125 20.125 C-1.414 19.321 -1.702 18.516 -2 17.688 C-3.125 15.125 -3.125 15.125 -5.125 14.125 C-5.125 13.135 -5.125 12.145 -5.125 11.125 C-2.815 11.455 -0.505 11.785 1.875 12.125 C1.875 11.465 1.875 10.805 1.875 10.125 C1.39 9.929 1.39 9.929 -1.062 8.938 C-4.125 7.125 -4.125 7.125 -5.125 4.562 C-5.125 0.609 -3.774 0.151 0 0 Z " fill="#1D224D" transform="translate(334.125,292.875)"/>
<path d="M0 0 C0.99 0.33 1.98 0.66 3 1 C3 2.98 3 4.96 3 7 C3.33 7 3.66 7 4 7 C4.33 14.26 4.66 21.52 5 29 C3.35 29 1.7 29 0 29 C0 19.43 0 9.86 0 0 Z " fill="#091539" transform="translate(362,185)"/>
<path d="M0 0 C3.3 0 6.6 0 10 0 C10 0.99 10 1.98 10 3 C7.69 3 5.38 3 3 3 C3 4.32 3 5.64 3 7 C4.98 7 6.96 7 9 7 C9 7.66 9 8.32 9 9 C7.02 9 5.04 9 3 9 C3 10.32 3 11.64 3 13 C5.31 13 7.62 13 10 13 C10 13.99 10 14.98 10 16 C6.7 16 3.4 16 0 16 C0 10.72 0 5.44 0 0 Z " fill="#2C3364" transform="translate(283,264)"/>
<path d="M0 0 C3.3 0 6.6 0 10 0 C10 0.99 10 1.98 10 3 C7.69 3 5.38 3 3 3 C3 3.99 3 4.98 3 6 C4.98 6 6.96 6 9 6 C9 6.99 9 7.98 9 9 C7.02 9 5.04 9 3 9 C3 10.32 3 11.64 3 13 C5.31 13 7.62 13 10 13 C10 13.66 10 14.32 10 15 C6.7 15 3.4 15 0 15 C0 10.05 0 5.1 0 0 Z " fill="#1E2354" transform="translate(315,293)"/>
<path d="M0 0 C0.99 0 1.98 0 3 0 C3.33 3.96 3.66 7.92 4 12 C5.32 12 6.64 12 8 12 C8.33 8.04 8.66 4.08 9 0 C9.99 0 10.98 0 12 0 C12.081 1.937 12.139 3.875 12.188 5.812 C12.222 6.891 12.257 7.97 12.293 9.082 C12 12 12 12 10.711 13.863 C7.85 15.764 5.312 15.361 2 15 C-0.351 11.473 -0.214 9.971 -0.125 5.812 C-0.107 4.726 -0.089 3.639 -0.07 2.52 C-0.047 1.688 -0.024 0.857 0 0 Z " fill="#181F53" transform="translate(456,293)"/>
<path d="M0 0 C4 1 4 1 6.25 3.938 C8 7 8 7 8 9 C8.66 9 9.32 9 10 9 C10 6.03 10 3.06 10 0 C10.66 0 11.32 0 12 0 C12 4.62 12 9.24 12 14 C8 13 8 13 5.75 10.062 C4 7 4 7 4 5 C3.34 5 2.68 5 2 5 C2 7.97 2 10.94 2 14 C1.34 14 0.68 14 0 14 C0 9.38 0 4.76 0 0 Z " fill="#191F50" transform="translate(249,265)"/>
<path d="M0 0 C0.33 0 0.66 0 1 0 C1.33 8.91 1.66 17.82 2 27 C2.66 26.67 3.32 26.34 4 26 C4.33 19.73 4.66 13.46 5 7 C5.33 7 5.66 7 6 7 C6 16.24 6 25.48 6 35 C4.02 35 2.04 35 0 35 C0 23.45 0 11.9 0 0 Z " fill="#020A32" transform="translate(327,178)"/>
<path d="M0 0 C0.33 1.98 0.66 3.96 1 6 C1.99 5.67 2.98 5.34 4 5 C6.215 10.292 6.215 10.292 5.125 13.875 C4.754 14.576 4.382 15.278 4 16 C3.34 16 2.68 16 2 16 C1.67 16.66 1.34 17.32 1 18 C0.158 15.92 -0.673 13.836 -1.5 11.75 C-1.964 10.59 -2.428 9.43 -2.906 8.234 C-4 5 -4 5 -4 1 C-2 0 -2 0 0 0 Z " fill="#0B183B" transform="translate(404,180)"/>
<path d="M0 0 C-0.713 0.496 -1.426 0.993 -2.16 1.504 C-7.946 5.608 -13.205 9.764 -18 15 C-18.66 14.01 -19.32 13.02 -20 12 C-21.65 12.33 -23.3 12.66 -25 13 C-20.29 7.849 -7.203 -3.602 0 0 Z " fill="#0C1C41" transform="translate(127,214)"/>
<path d="M0 0 C0.33 0 0.66 0 1 0 C1.33 13.53 1.66 27.06 2 41 C3.65 41 5.3 41 7 41 C7 35.06 7 29.12 7 23 C7.33 23 7.66 23 8 23 C8 29.6 8 36.2 8 43 C5.36 43 2.72 43 0 43 C0 28.81 0 14.62 0 0 Z " fill="#262D4E" transform="translate(477,171)"/>
<path d="M0 0 C1.32 0.33 2.64 0.66 4 1 C4.66 3.97 5.32 6.94 6 10 C6.66 10 7.32 10 8 10 C8.66 7.03 9.32 4.06 10 1 C11.32 0.67 12.64 0.34 14 0 C12.35 4.95 10.7 9.9 9 15 C7.68 15 6.36 15 5 15 C4.163 12.877 3.33 10.751 2.5 8.625 C2.268 8.033 2.268 8.033 1.094 5.039 C0 2 0 2 0 0 Z " fill="#151F51" transform="translate(377,293)"/>
<path d="M0 0 C3.96 0 7.92 0 12 0 C12 0.99 12 1.98 12 3 C10.68 3 9.36 3 8 3 C8 6.96 8 10.92 8 15 C6.68 15 5.36 15 4 15 C4 11.04 4 7.08 4 3 C2.68 3 1.36 3 0 3 C0 2.01 0 1.02 0 0 Z " fill="#3F456F" transform="translate(255,293)"/>
<path d="M0 0 C4.75 0.75 4.75 0.75 7 3 C7.25 5.5 7.25 5.5 7 8 C5 10 5 10 2.5 10.25 C0 10 0 10 -2 8 C-2.383 4.267 -2.149 3.224 0 0 Z " fill="#ECEDF1" transform="translate(427,295)"/>
<path d="M0 0 C3.96 0 7.92 0 12 0 C12 0.99 12 1.98 12 3 C10.35 3 8.7 3 7 3 C7 6.96 7 10.92 7 15 C6.01 15 5.02 15 4 15 C4 11.04 4 7.08 4 3 C2.68 3 1.36 3 0 3 C0 2.01 0 1.02 0 0 Z " fill="#292E5F" transform="translate(408,293)"/>
<path d="M0 0 C2.97 0 5.94 0 9 0 C9 0.66 9 1.32 9 2 C7.02 2.33 5.04 2.66 3 3 C3 3.99 3 4.98 3 6 C4.65 6.33 6.3 6.66 8 7 C8 7.33 8 7.66 8 8 C6.35 8.33 4.7 8.66 3 9 C2.67 10.32 2.34 11.64 2 13 C4.31 13 6.62 13 9 13 C9 13.66 9 14.32 9 15 C6.03 15 3.06 15 0 15 C0 10.05 0 5.1 0 0 Z " fill="#0B1143" transform="translate(358,293)"/>
<path d="M0 0 C2.051 0.033 4.102 0.065 6.152 0.098 C6.482 1.418 6.812 2.738 7.152 4.098 C6.76 4.221 6.76 4.221 4.777 4.848 C1.743 6.293 1.482 7.153 0.152 10.098 C-0.838 10.428 -1.828 10.758 -2.848 11.098 C-2.875 9.452 -2.894 7.806 -2.91 6.16 C-2.922 5.244 -2.933 4.327 -2.945 3.383 C-2.826 0.595 -2.792 0.148 0 0 Z " fill="#C59E08" transform="translate(118.84765625,120.90234375)"/>
<path d="M0 0 C3.63 0 7.26 0 11 0 C11 0.99 11 1.98 11 3 C9.68 3 8.36 3 7 3 C7 6.96 7 10.92 7 15 C6.01 15 5.02 15 4 15 C4 10.71 4 6.42 4 2 C2.68 2 1.36 2 0 2 C0 1.34 0 0.68 0 0 Z " fill="#222958" transform="translate(343,293)"/>
<path d="M0 0 C2.755 2.755 3.734 4.229 5.188 7.688 C5.532 8.496 5.876 9.304 6.23 10.137 C6.484 10.752 6.738 11.366 7 12 C5.35 12.33 3.7 12.66 2 13 C1.67 18.28 1.34 23.56 1 29 C0.67 29 0.34 29 0 29 C0 19.43 0 9.86 0 0 Z " fill="#C7C7D1" transform="translate(333,185)"/>
<path d="M0 0 C0.66 0.33 1.32 0.66 2 1 C1.67 2.32 1.34 3.64 1 5 C-4.94 5.33 -10.88 5.66 -17 6 C-17 4.35 -17 2.7 -17 1 C-16.512 1.006 -16.512 1.006 -14.043 1.035 C-12.771 1.044 -11.498 1.053 -10.188 1.062 C-9.555 1.068 -9.555 1.068 -6.355 1.098 C-3 1 -3 1 0 0 Z " fill="#C9D5C9" transform="translate(75,291)"/>
<path d="M0 0 C1.65 0 3.3 0 5 0 C7 2 7 2 7.25 5 C7 8 7 8 5 10 C3.35 10 1.7 10 0 10 C0 6.7 0 3.4 0 0 Z " fill="#E7E8EE" transform="translate(353,267)"/>
<path d="M0 0 C1.65 0 3.3 0 5 0 C7 2 7 2 7.25 5 C7 8 7 8 5 10 C3.35 10 1.7 10 0 10 C0 6.7 0 3.4 0 0 Z " fill="#EDEEF2" transform="translate(269,267)"/>
<path d="M0 0 C0.33 0.99 0.66 1.98 1 3 C0.763 3.186 0.763 3.186 -0.438 4.125 C-2.598 6.718 -2.799 8.658 -3 12 C-2.062 14.875 -2.062 14.875 -1 17 C0.32 17 1.64 17 3 17 C3 16.34 3 15.68 3 15 C4.32 14.67 5.64 14.34 7 14 C7 15.32 7 16.64 7 18 C3.967 18.229 1.025 18.365 -2 18 C-4.062 16 -4.062 16 -5 14 C-5.66 14.66 -6.32 15.32 -7 16 C-7.296 10.963 -7.071 8.058 -4 4 C-2.704 2.63 -1.38 1.285 0 0 Z " fill="#BD9C0C" transform="translate(119,140)"/>
<path d="M0 0 C1.258 -0.041 2.516 -0.082 3.812 -0.125 C4.52 -0.148 5.228 -0.171 5.957 -0.195 C8 0 8 0 11 2 C11.188 4.625 11.188 4.625 11 7 C10.01 7.33 9.02 7.66 8 8 C7.752 7.196 7.505 6.391 7.25 5.562 C6.837 4.717 6.425 3.871 6 3 C4.68 2.67 3.36 2.34 2 2 C2 6.29 2 10.58 2 15 C1.34 15 0.68 15 0 15 C0 10.05 0 5.1 0 0 Z " fill="#0A1147" transform="translate(441,293)"/>
<path d="M0 0 C1.98 0 3.96 0 6 0 C6.133 0.687 6.266 1.374 6.402 2.082 C6.579 2.983 6.756 3.884 6.938 4.812 C7.112 5.706 7.286 6.599 7.465 7.52 C8 10 8 10 9 13 C7.125 12.812 7.125 12.812 5 12 C4.298 10.348 3.63 8.681 3 7 C2.01 6.67 1.02 6.34 0 6 C0 4.02 0 2.04 0 0 Z " fill="#343A6F" transform="translate(321,267)"/>
<path d="M0 0 C3.63 0 7.26 0 11 0 C11 0.66 11 1.32 11 2 C9.68 2 8.36 2 7 2 C7 6.29 7 10.58 7 15 C6.01 15 5.02 15 4 15 C4 10.71 4 6.42 4 2 C2.68 2 1.36 2 0 2 C0 1.34 0 0.68 0 0 Z " fill="#20295C" transform="translate(374,265)"/>
<path d="M0 0 C1.32 0 2.64 0 4 0 C4 4.95 4 9.9 4 15 C2.68 15 1.36 15 0 15 C0 10.05 0 5.1 0 0 Z " fill="#53577A" transform="translate(388,265)"/>
<path d="M0 0 C0.99 0 1.98 0 3 0 C3 4.29 3 8.58 3 13 C5.31 13 7.62 13 10 13 C10 13.66 10 14.32 10 15 C6.7 15 3.4 15 0 15 C0 10.05 0 5.1 0 0 Z " fill="#1D2351" transform="translate(285,293)"/>
<path d="M0 0 C-0.758 7.883 -0.758 7.883 -4 11 C-4.99 11 -5.98 11 -7 11 C-7.33 8.03 -7.66 5.06 -8 2 C-5.094 0.743 -3.204 0 0 0 Z " fill="#0C183B" transform="translate(397,181)"/>
<path d="M0 0 C2 2 2 2 2.195 3.945 C2.13 5.964 2.065 7.982 2 10 C3.155 9.835 3.155 9.835 9 9 C9.33 6.36 9.66 3.72 10 1 C10.66 1 11.32 1 12 1 C12.367 8.472 12.367 8.472 10.781 10.75 C8.479 12.366 7.097 12.309 4.312 12.188 C2.889 12.126 1.466 12.064 0 12 C0 8.04 0 4.08 0 0 Z " fill="#0B0F3C" transform="translate(351,267)"/>
<path d="M0 0 C0.33 0 0.66 0 1 0 C0.25 7.625 0.25 7.625 -2 11 C-1.875 14.062 -1.875 14.062 -1 17 C1.062 18.375 1.062 18.375 3 19 C2.34 19.99 1.68 20.98 1 22 C0.34 22 -0.32 22 -1 22 C-4.062 17.159 -5.534 13.707 -6 8 C-5.381 7.794 -4.763 7.588 -4.125 7.375 C-1.153 5.452 -0.87 3.334 0 0 Z " fill="#7E830F" transform="translate(108,140)"/>
<path d="M0 0 C-3.497 3.497 -7.826 3.956 -12.64 4.135 C-13.902 4.083 -15.165 4.031 -16.465 3.977 C-16.804 3.964 -16.804 3.964 -18.52 3.901 C-20.66 3.819 -22.798 3.722 -24.938 3.625 C-26.399 3.567 -27.861 3.509 -29.322 3.453 C-32.882 3.314 -36.441 3.161 -40 3 C-40 2.67 -40 2.34 -40 2 C-39.117 1.975 -38.235 1.95 -37.325 1.924 C-34.036 1.829 -30.747 1.729 -27.457 1.628 C-26.036 1.585 -24.616 1.543 -23.195 1.503 C-21.147 1.445 -19.099 1.381 -17.051 1.316 C-16.435 1.298 -16.435 1.298 -13.322 1.205 C-8.78 0.925 -4.573 -0.131 0 0 Z " fill="#82A487" transform="translate(135,206)"/>
<path d="M0 0 C0.66 0.66 1.32 1.32 2 2 C1.67 2.495 1.67 2.495 0 5 C0.33 5 0.66 5 1 5 C1.597 7.763 2 10.16 2 13 C0.35 12.67 -1.3 12.34 -3 12 C-3.75 9.375 -3.75 9.375 -4 6 C-2.062 2.625 -2.062 2.625 0 0 Z " fill="#89880D" transform="translate(109,145)"/>
<path d="M0 0 C3.96 0 7.92 0 12 0 C12 0.66 12 1.32 12 2 C10.35 2 8.7 2 7 2 C7 5.96 7 9.92 7 14 C6.34 14 5.68 14 5 14 C5 10.04 5 6.08 5 2 C3.35 2 1.7 2 0 2 C0 1.34 0 0.68 0 0 Z " fill="#0C154C" transform="translate(303,265)"/>
<path d="M0 0 C3.63 0.33 7.26 0.66 11 1 C9.68 1.33 8.36 1.66 7 2 C7.33 3.32 7.66 4.64 8 6 C5.688 6.625 5.688 6.625 3 7 C0 5 0 5 -2 3 C-1.34 2.01 -0.68 1.02 0 0 Z " fill="#1B5B26" transform="translate(77,296)"/>
<path d="M0 0 C0.346 0.102 0.346 0.102 2.098 0.621 C10.461 2.924 18.369 3.658 27 4 C27 4.33 27 4.66 27 5 C7.032 5.369 7.032 5.369 -2 3 C-1.34 2.01 -0.68 1.02 0 0 Z " fill="#355852" transform="translate(101,305)"/>
<path d="M0 0 C0.99 0 1.98 0 3 0 C3 4.95 3 9.9 3 15 C2.01 15 1.02 15 0 15 C0 10.05 0 5.1 0 0 Z " fill="#292F58" transform="translate(232,293)"/>
<path d="M0 0 C0.99 0 1.98 0 3 0 C3 4.95 3 9.9 3 15 C2.01 15 1.02 15 0 15 C0 10.05 0 5.1 0 0 Z " fill="#1B234F" transform="translate(394,293)"/>
<path d="M0 0 C0.99 0 1.98 0 3 0 C3 4.95 3 9.9 3 15 C2.01 15 1.02 15 0 15 C0 10.05 0 5.1 0 0 Z " fill="#2D3463" transform="translate(402,293)"/>
<path d="M0 0 C0.99 0 1.98 0 3 0 C3 4.95 3 9.9 3 15 C2.01 15 1.02 15 0 15 C0 10.05 0 5.1 0 0 Z " fill="#182156" transform="translate(367,265)"/>
<path d="M0 0 C2.152 2.764 3.984 5.565 5.688 8.625 C5.906 9.013 5.906 9.013 7.012 10.977 C8 13 8 13 8 15 C7.34 15 6.68 15 6 15 C6 14.34 6 13.68 6 13 C5.01 13 4.02 13 3 13 C2.34 14.32 1.68 15.64 1 17 C0.34 15.35 -0.32 13.7 -1 12 C-0.34 12 0.32 12 1 12 C1.845 8.622 2.108 6.325 1 3 C0.34 3 -0.32 3 -1 3 C-0.67 2.01 -0.34 1.02 0 0 Z " fill="#172247" transform="translate(338,179)"/>
<path d="M0 0 C0.66 0 1.32 0 2 0 C2 4.29 2 8.58 2 13 C4.31 13 6.62 13 9 13 C9 13.66 9 14.32 9 15 C6.03 15 3.06 15 0 15 C0 10.05 0 5.1 0 0 Z " fill="#070E46" transform="translate(473,293)"/>
<path d="M0 0 C1.319 0.928 2.63 1.868 3.938 2.812 C4.668 3.335 5.399 3.857 6.152 4.395 C8 6 8 6 9 9 C5.625 9.125 5.625 9.125 2 9 C-0.578 6.422 -0.621 4.56 -1 1 C-0.67 0.67 -0.34 0.34 0 0 Z " fill="#1C5831" transform="translate(93,298)"/>
<path d="M0 0 C4 5 4 5 4 8 C3.67 8.165 3.67 8.165 2 9 C1.67 15.6 1.34 22.2 1 29 C0.67 29 0.34 29 0 29 C0 19.43 0 9.86 0 0 Z " fill="#EBECF2" transform="translate(436,185)"/>
<path d="M0 0 C1.32 0.33 2.64 0.66 4 1 C3.34 1 2.68 1 2 1 C1.918 1.784 1.835 2.567 1.75 3.375 C0.756 8.178 -1.087 12.498 -3 17 C-4.515 11.745 -3.694 7.527 -1.438 2.562 C-1.2 2.14 -1.2 2.14 0 0 Z " fill="#8B860B" transform="translate(111,121)"/>
<path d="M0 0 C2.062 0.438 2.062 0.438 4 1 C4.934 4.01 5.044 4.867 4 8 C4 8.66 4 9.32 4 10 C2.35 10 0.7 10 -1 10 C-1.027 8.521 -1.046 7.042 -1.062 5.562 C-1.074 4.739 -1.086 3.915 -1.098 3.066 C-1 1 -1 1 0 0 Z " fill="#3A3F6D" transform="translate(338,264)"/>
<path d="M0 0 C0.99 0 1.98 0 3 0 C3 4.29 3 8.58 3 13 C2.67 13.165 2.67 13.165 1 14 C0.34 13.34 -0.32 12.68 -1 12 C-0.977 9.18 -0.977 9.18 -0.625 5.875 C-0.514 4.779 -0.403 3.684 -0.289 2.555 C-0.241 2.133 -0.241 2.133 0 0 Z " fill="#2D3460" transform="translate(241,264)"/>
<path d="M0 0 C0.99 0.33 1.98 0.66 3 1 C3 1.66 3 2.32 3 3 C3.66 3 4.32 3 5 3 C5.33 3.99 5.66 4.98 6 6 C5.526 6.454 5.051 6.907 4.562 7.375 C3 9 3 9 2 11 C-0.313 8.494 -0.978 7.277 -1.25 3.812 C-1 1 -1 1 0 0 Z " fill="#060F31" transform="translate(341,191)"/>
<path d="M0 0 C2.97 0 5.94 0 9 0 C8.34 1.65 7.68 3.3 7 5 C6.01 4.835 6.01 4.835 1 4 C1 4.66 1 5.32 1 6 C0.34 6 -0.32 6 -1 6 C-0.67 4.02 -0.34 2.04 0 0 Z " fill="#0D1A3B" transform="translate(394,171)"/>
<path d="M0 0 C1.32 0.33 2.64 0.66 4 1 C4.121 1.638 4.242 2.276 4.367 2.934 C4.535 3.76 4.702 4.586 4.875 5.438 C4.956 5.849 4.956 5.849 5.367 7.934 C5.576 8.616 5.785 9.297 6 10 C6.66 10.33 7.32 10.66 8 11 C7.34 11.33 7.34 11.33 4 13 C3.329 11.21 2.664 9.418 2 7.625 C1.629 6.627 1.257 5.63 0.875 4.602 C0 2 0 2 0 0 Z " fill="#262E58" transform="translate(377,293)"/>
<path d="M0 0 C0.33 1.32 0.66 2.64 1 4 C-2.3 4.66 -5.6 5.32 -9 6 C-8.67 5.01 -8.34 4.02 -8 3 C-8.99 2.34 -9.98 1.68 -11 1 C-3.375 0 -3.375 0 0 0 Z " fill="#E0E5E3" transform="translate(129,209)"/>
<path d="M0 0 C0.66 0 1.32 0 2 0 C2 4.95 2 9.9 2 15 C0.68 14.67 -0.64 14.34 -2 14 C-1.34 9.38 -0.68 4.76 0 0 Z " fill="#1A1E4C" transform="translate(309,293)"/>
<path d="M0 0 C2.375 0.25 2.375 0.25 5 1 C6.312 3.062 6.312 3.062 7 5 C4 6 4 6 1 6 C0.67 6.165 0.67 6.165 -1 7 C-1.66 6.67 -2.32 6.34 -3 6 C-3 5.34 -3 4.68 -3 4 C-2.01 4 -1.02 4 0 4 C0 2.68 0 1.36 0 0 Z " fill="#101939" transform="translate(396,158)"/>
<path d="M0 0 C0.33 0.66 0.66 1.32 1 2 C1.99 2 2.98 2 4 2 C4 3.32 4 4.64 4 6 C4.66 6 5.32 6 6 6 C6 6.66 6 7.32 6 8 C0.25 8.125 0.25 8.125 -2 7 C-1.34 4.69 -0.68 2.38 0 0 Z " fill="#656B8C" transform="translate(272,295)"/>
<path d="M0 0 C0 1.98 0 3.96 0 6 C-0.99 6.33 -1.98 6.66 -3 7 C-4.688 9.562 -4.688 9.562 -6 12 C-7.11 8.67 -6.934 8.022 -5.75 4.875 C-5.497 4.171 -5.245 3.467 -4.984 2.742 C-3.778 0.607 -2.569 0 0 0 Z " fill="#E3E3EA" transform="translate(394,293)"/>
<path d="M0 0 C2.64 0.33 5.28 0.66 8 1 C8 1.33 8 1.66 8 2 C5.69 2 3.38 2 1 2 C1 2.99 1 3.98 1 5 C2.98 5 4.96 5 7 5 C7 5.99 7 6.98 7 8 C4.69 8 2.38 8 0 8 C0 5.36 0 2.72 0 0 Z " fill="#303462" transform="translate(317,294)"/>
<path d="M0 0 C3.3 0 6.6 0 10 0 C7.698 2.302 6.151 2.758 3.062 3.688 C2.187 3.959 1.312 4.231 0.41 4.512 C-2 5 -2 5 -5 4 C-4.68 3.948 -4.68 3.948 -3.062 3.688 C-2.382 3.461 -1.701 3.234 -1 3 C-0.67 2.01 -0.34 1.02 0 0 Z " fill="#13581B" transform="translate(102,211)"/>
<path d="M0 0 C0.33 0 0.66 0 1 0 C1 2.97 1 5.94 1 9 C-0.98 9.66 -2.96 10.32 -5 11 C-3.778 6.957 -2.372 3.507 0 0 Z " fill="#E8E9ED" transform="translate(360,186)"/>
<path d="M0 0 C0.33 0.66 0.66 1.32 1 2 C1.66 2 2.32 2 3 2 C3 2.66 3 3.32 3 4 C3.66 4.33 4.32 4.66 5 5 C4.188 6.938 4.188 6.938 3 9 C2.01 9.33 1.02 9.66 0 10 C-0.66 10.66 -1.32 11.32 -2 12 C-2 8 -2 8 -0.438 6 C1 4 1 4 0.688 1.75 C0.461 1.173 0.234 0.595 0 0 Z " fill="#091537" transform="translate(354,184)"/>
<path d="M0 0 C0.949 0.041 1.897 0.082 2.875 0.125 C3.535 1.445 4.195 2.765 4.875 4.125 C3.885 4.125 2.895 4.125 1.875 4.125 C1.875 3.465 1.875 2.805 1.875 2.125 C0 2.375 0 2.375 -2.125 3.125 C-3.375 5.188 -3.375 5.188 -4.125 7.125 C-4.75 4.75 -4.75 4.75 -5.125 2.125 C-3.125 0.125 -3.125 0.125 0 0 Z " fill="#151945" transform="translate(334.125,292.875)"/>
<path d="M0 0 C1.98 0.33 1.98 0.33 12 2 C8.965 4.024 7.806 4.321 4.312 4.625 C3.504 4.7 2.696 4.775 1.863 4.852 C1.556 4.876 1.556 4.876 0 5 C0 3.35 0 1.7 0 0 Z " fill="#E8F0E9" transform="translate(58,292)"/>
<path d="M0 0 C0.66 0 1.32 0 2 0 C2 4.62 2 9.24 2 14 C1.01 14 0.02 14 -1 14 C-0.835 13.361 -0.67 12.721 -0.5 12.062 C0.159 8.024 0.08 4.082 0 0 Z " fill="#030939" transform="translate(259,265)"/>
<path d="M0 0 C2.867 0.573 3.861 0.861 6 3 C6.125 6.625 6.125 6.625 6 10 C5.01 9.67 4.02 9.34 3 9 C1.875 6.125 1.875 6.125 1 3 C0.67 2.01 0.34 1.02 0 0 Z " fill="#282D5C" transform="translate(273,265)"/>
<path d="M0 0 C0.99 0 1.98 0 3 0 C3 3.96 3 7.92 3 12 C2.01 11.67 1.02 11.34 0 11 C0 7.37 0 3.74 0 0 Z " fill="#323D6C" transform="translate(465,293)"/>
<path d="M0 0 C0 0.66 0 1.32 0 2 C-1.98 2.33 -3.96 2.66 -6 3 C-6.33 3.99 -6.66 4.98 -7 6 C-7.99 6 -8.98 6 -10 6 C-9.398 3.98 -8.727 1.979 -8 0 C-5.138 -1.431 -3.066 -0.6 0 0 Z " fill="#1E2553" transform="translate(405,274)"/>
<path d="M0 0 C0.66 0 1.32 0 2 0 C3.104 3.311 2.927 5.247 2.562 8.688 C2.512 9.184 2.512 9.184 2.254 11.699 C2.212 12.079 2.212 12.079 2 14 C1.34 14 0.68 14 0 14 C0 9.38 0 4.76 0 0 Z " fill="#080E45" transform="translate(249,265)"/>
<path d="M0 0 C0.66 0.66 1.32 1.32 2 2 C-0.31 4.31 -2.62 6.62 -5 9 C-5.99 8.67 -6.98 8.34 -8 8 C-5.333 5.333 -2.667 2.667 0 0 Z " fill="#25642E" transform="translate(65,220)"/>
<path d="M0 0 C-6.031 4.923 -6.031 4.923 -10.938 5.312 C-11.948 5.209 -12.959 5.106 -14 5 C-11.75 2.75 -9.937 1.995 -7 0.812 C-6.113 0.448 -5.226 0.083 -4.312 -0.293 C-2 -1 -2 -1 0 0 Z " fill="#30385E" transform="translate(127,214)"/>
<path d="M0 0 C0.99 0 1.98 0 3 0 C2.67 2.64 2.34 5.28 2 8 C1.01 8.33 0.02 8.66 -1 9 C-1.125 2.25 -1.125 2.25 0 0 Z " fill="#B39706" transform="translate(115,131)"/>
<path d="M0 0 C0.485 0.01 0.485 0.01 2.938 0.062 C2.618 0.207 2.618 0.207 1 0.938 C-1.062 2.062 -1.062 2.062 -2.062 4.062 C-0.413 4.062 1.238 4.062 2.938 4.062 C2.938 5.053 2.938 6.043 2.938 7.062 C0.957 7.062 -1.022 7.062 -3.062 7.062 C-3.444 5.071 -3.776 3.07 -4.062 1.062 C-3.062 0.062 -3.062 0.062 0 0 Z " fill="#898CAA" transform="translate(364.0625,294.9375)"/>
<path d="M0 0 C2.31 0 4.62 0 7 0 C7 0.99 7 1.98 7 3 C8.32 3.66 9.64 4.32 11 5 C7.7 4.67 4.4 4.34 1 4 C1.33 3.34 1.66 2.68 2 2 C1.34 1.34 0.68 0.68 0 0 Z " fill="#104C19" transform="translate(70,297)"/>
<path d="M0 0 C0.33 0.99 0.66 1.98 1 3 C-0.438 5.688 -0.438 5.688 -2 8 C-1.01 8 -0.02 8 1 8 C0.67 8.66 0.34 9.32 0 10 C-0.99 9.835 -0.99 9.835 -6 9 C-4.473 5.564 -2.401 2.881 0 0 Z " fill="#295531" transform="translate(48,255)"/>
<path d="M0 0 C0.99 0 1.98 0 3 0 C6.223 5.273 6.223 5.273 7 7 C6.67 7.66 6.34 8.32 6 9 C3.36 6.69 0.72 4.38 -2 2 C-1.34 1.34 -0.68 0.68 0 0 Z " fill="#FDC331" transform="translate(165,251)"/>
<path d="M0 0 C1.98 0 3.96 0 6 0 C6.33 1.32 6.66 2.64 7 4 C4.69 4 2.38 4 0 4 C0 2.68 0 1.36 0 0 Z " fill="#E4E5EC" transform="translate(286,273)"/>
<path d="M0 0 C0.66 0.33 1.32 0.66 2 1 C-0.64 3.97 -3.28 6.94 -6 10 C-6.66 9.34 -7.32 8.68 -8 8 C-5.36 5.36 -2.72 2.72 0 0 Z " fill="#0B1F49" transform="translate(99,228)"/>
<path d="M0 0 C0.33 0.66 0.66 1.32 1 2 C3.062 2.625 3.062 2.625 5 3 C4.361 3.103 3.721 3.206 3.062 3.312 C2.382 3.539 1.701 3.766 1 4 C0.67 4.99 0.34 5.98 0 7 C-0.99 7 -1.98 7 -3 7 C-2.625 4.062 -2.625 4.062 -2 1 C-1.34 0.67 -0.68 0.34 0 0 Z " fill="#1C234F" transform="translate(271,301)"/>
<path d="M0 0 C0.825 0.165 0.825 0.165 5 1 C4.67 2.32 4.34 3.64 4 5 C2.68 5 1.36 5 0 5 C0 3.35 0 1.7 0 0 Z " fill="#E2E3EB" transform="translate(321,267)"/>
<path d="M0 0 C0.825 0.33 0.825 0.33 5 2 C5 2.66 5 3.32 5 4 C2.394 4.931 1.358 5.149 -1.25 4.062 C-1.827 3.712 -2.405 3.361 -3 3 C-2.01 2.01 -1.02 1.02 0 0 Z " fill="#1D6528" transform="translate(134,195)"/>
<path d="M0 0 C0.66 0 1.32 0 2 0 C2.248 0.619 2.495 1.238 2.75 1.875 C4.206 4.351 5.378 4.951 8 6 C7.67 6.495 7.67 6.495 6 9 C5.34 9 4.68 9 4 9 C0 2.25 0 2.25 0 0 Z " fill="#7A7C1C" transform="translate(103,153)"/>
<path d="M0 0 C-0.75 1.938 -0.75 1.938 -2 4 C-4.125 4.75 -4.125 4.75 -6 5 C-6.165 4.175 -6.165 4.175 -7 0 C-2.25 -1.125 -2.25 -1.125 0 0 Z " fill="#878AA5" transform="translate(339,308)"/>
<path d="M0 0 C0 0.66 0 1.32 0 2 C0.99 2.33 1.98 2.66 3 3 C-0.96 3.66 -4.92 4.32 -9 5 C-4 0 -4 0 0 0 Z " fill="#355F3B" transform="translate(51,299)"/>
<path d="M0 0 C0.33 0 0.66 0 1 0 C1.33 1.98 1.66 3.96 2 6 C-0.31 6 -2.62 6 -5 6 C-5 5.01 -5 4.02 -5 3 C-4.361 2.876 -3.721 2.752 -3.062 2.625 C-2.722 2.522 -2.722 2.522 -1 2 C-0.67 1.34 -0.34 0.68 0 0 Z " fill="#F5B509" transform="translate(132,233)"/>
<path d="M0 0 C0.99 0 1.98 0 3 0 C5 6.625 5 6.625 5 10 C3.02 7.03 1.04 4.06 -1 1 C-0.67 0.67 -0.34 0.34 0 0 Z " fill="#426923" transform="translate(93,136)"/>
<path d="M0 0 C0.66 0 1.32 0 2 0 C2.369 5.415 2.369 5.415 0.5 8.375 C0.005 8.911 -0.49 9.447 -1 10 C-1.027 8.521 -1.046 7.042 -1.062 5.562 C-1.074 4.739 -1.086 3.915 -1.098 3.066 C-1 1 -1 1 0 0 Z " fill="#B89809" transform="translate(117,121)"/>
<path d="M0 0 C3.786 0.541 5.554 2.117 8 5 C8 5.66 8 6.32 8 7 C6.125 6.75 6.125 6.75 4 6 C2.875 4.062 2.875 4.062 2 2 C1.34 1.34 0.68 0.68 0 0 Z " fill="#202857" transform="translate(444,301)"/>
<path d="M0 0 C0.99 0.33 1.98 0.66 3 1 C3 2.65 3 4.3 3 6 C2.01 6.33 1.02 6.66 0 7 C-0.66 5.02 -1.32 3.04 -2 1 C-1.34 0.67 -0.68 0.34 0 0 Z " fill="#252C5A" transform="translate(449,294)"/>
<path d="M0 0 C0.33 0.66 0.66 1.32 1 2 C-0.32 3.65 -1.64 5.3 -3 7 C-3.99 6.34 -4.98 5.68 -6 5 C-3.993 1.989 -3.161 1.37 0 0 Z " fill="#E5EAE5" transform="translate(50,250)"/>
<path d="M0 0 C0.99 1.32 1.98 2.64 3 4 C2.67 4.66 2.34 5.32 2 6 C0.35 5.67 -1.3 5.34 -3 5 C-3 4.01 -3 3.02 -3 2 C-2.01 2 -1.02 2 0 2 C0 1.34 0 0.68 0 0 Z " fill="#FBBF1B" transform="translate(164,246)"/>
<path d="M0 0 C0.66 1.32 1.32 2.64 2 4 C1.01 4.825 1.01 4.825 -4 9 C-4 5 -4 5 -2.562 3.375 C-2.047 2.921 -1.531 2.468 -1 2 C-0.67 1.34 -0.34 0.68 0 0 Z " fill="#07163B" transform="translate(112,220)"/>
<path d="M0 0 C-1.32 1.32 -2.64 2.64 -4 4 C-4.66 3.67 -5.32 3.34 -6 3 C-7.329 2.648 -8.662 2.312 -10 2 C-6.356 -0.429 -4.288 -0.162 0 0 Z " fill="#19254D" transform="translate(118,219)"/>
<path d="M0 0 C0.66 0.165 0.66 0.165 4 1 C3.67 2.32 3.34 3.64 3 5 C1.68 4.67 0.36 4.34 -1 4 C-0.67 2.68 -0.34 1.36 0 0 Z " fill="#FCBD2F" transform="translate(164,153)"/>
<path d="M0 0 C1.945 2.918 2.453 4.625 3 8 C1.68 7.67 0.36 7.34 -1 7 C-0.67 4.69 -0.34 2.38 0 0 Z " fill="#333A5E" transform="translate(344,272)"/>
<path d="M0 0 C1.32 0.33 2.64 0.66 4 1 C4.33 2.65 4.66 4.3 5 6 C3.68 6 2.36 6 1 6 C0.67 4.02 0.34 2.04 0 0 Z " fill="#080F28" transform="translate(389,186)"/>
<path d="M0 0 C0.66 0 1.32 0 2 0 C2.66 2.31 3.32 4.62 4 7 C3.01 7.33 2.02 7.66 1 8 C0.67 5.36 0.34 2.72 0 0 Z " fill="#1C2648" transform="translate(404,178)"/>
<path d="M0 0 C0.66 0 1.32 0 2 0 C2.33 1.32 2.66 2.64 3 4 C2.34 4.33 2.34 4.33 -1 6 C-1.33 5.01 -1.66 4.02 -2 3 C-1.34 2.01 -0.68 1.02 0 0 Z " fill="#DBA808" transform="translate(123,121)"/>
<path d="M0 0 C0 0.66 0 1.32 0 2 C-5.75 3.125 -5.75 3.125 -8 2 C-8 1.34 -8 0.68 -8 0 C-5.138 -1.431 -3.066 -0.6 0 0 Z " fill="#283261" transform="translate(211,301)"/>
<path d="M0 0 C0.598 0.454 1.196 0.908 1.812 1.375 C3.506 2.633 5.245 3.83 7 5 C6.34 5.66 5.68 6.32 5 7 C4.175 6.67 4.175 6.67 0 5 C0 3.35 0 1.7 0 0 Z " fill="#282C5D" transform="translate(331,296)"/>
<path d="M0 0 C3.875 1.875 3.875 1.875 5 3 C5.041 5 5.043 7 5 9 C4.67 9 4.34 9 4 9 C4 7.35 4 5.7 4 4 C2.68 3.67 1.36 3.34 0 3 C0 2.01 0 1.02 0 0 Z " fill="#2D3462" transform="translate(432,294)"/>
<path d="M0 0 C2.97 0 5.94 0 9 0 C9 0.66 9 1.32 9 2 C6.36 2.33 3.72 2.66 1 3 C0.67 2.01 0.34 1.02 0 0 Z " fill="#11164B" transform="translate(358,293)"/>
<path d="M0 0 C0.99 0.33 1.98 0.66 3 1 C2.688 2.875 2.688 2.875 2 5 C1.01 5.66 0.02 6.32 -1 7 C-1.043 5 -1.041 3 -1 1 C-0.67 0.67 -0.34 0.34 0 0 Z " fill="#0B183D" transform="translate(341,191)"/>
<path d="M0 0 C0.99 0 1.98 0 3 0 C2.67 2.97 2.34 5.94 2 9 C0.438 7.312 0.438 7.312 -1 5 C-0.688 2.25 -0.688 2.25 0 0 Z " fill="#071032" transform="translate(521,189)"/>
<path d="M0 0 C0.825 0.165 0.825 0.165 5 1 C5.33 1.99 5.66 2.98 6 4 C4.68 4.33 3.36 4.66 2 5 C2 4.34 2 3.68 2 3 C1.34 3 0.68 3 0 3 C0 2.01 0 1.02 0 0 Z " fill="#081331" transform="translate(506,185)"/>
<path d="M0 0 C0.66 -0.33 1.32 -0.66 2 -1 C1.67 -0.01 1.34 0.98 1 2 C-1.64 2.33 -4.28 2.66 -7 3 C-7.66 2.01 -8.32 1.02 -9 0 C-5.958 -1.521 -3.3 -0.471 0 0 Z " fill="#3D446F" transform="translate(432,304)"/>
<path d="M0 0 C0.99 0.33 1.98 0.66 3 1 C3 1.99 3 2.98 3 4 C3.66 4.33 4.32 4.66 5 5 C4.34 5.33 4.34 5.33 1 7 C0.67 4.69 0.34 2.38 0 0 Z " fill="#1E2656" transform="translate(380,299)"/>
<path d="M0 0 C0.825 0.165 0.825 0.165 5 1 C4.67 1.99 4.34 2.98 4 4 C2.68 4 1.36 4 0 4 C0 2.68 0 1.36 0 0 Z " fill="#F6F5F7" transform="translate(444,296)"/>
<path d="M0 0 C0.66 0.33 1.32 0.66 2 1 C2.625 3.562 2.625 3.562 3 6 C1.35 6 -0.3 6 -2 6 C-1.34 4.02 -0.68 2.04 0 0 Z " fill="#BDC2D5" transform="translate(339,268)"/>
<path d="M0 0 C0.66 0.66 1.32 1.32 2 2 C1.625 4.625 1.625 4.625 1 7 C0.01 7 -0.98 7 -2 7 C-1.34 4.69 -0.68 2.38 0 0 Z " fill="#3B4166" transform="translate(334,273)"/>
<path d="M0 0 C0.99 0.33 1.98 0.66 3 1 C4.188 3.562 4.188 3.562 5 6 C3.68 5.67 2.36 5.34 1 5 C0.835 4.175 0.835 4.175 0 0 Z " fill="#3B4165" transform="translate(325,274)"/>
<path d="M0 0 C0.33 0.99 0.66 1.98 1 3 C0.01 3.33 -0.98 3.66 -2 4 C-2 4.99 -2 5.98 -2 7 C-2.66 7 -3.32 7 -4 7 C-4 5.35 -4 3.7 -4 2 C-2.68 2 -1.36 2 0 2 C0 1.34 0 0.68 0 0 Z " fill="#E8E8F0" transform="translate(385,265)"/>
<path d="M0 0 C0.66 1.32 1.32 2.64 2 4 C1.34 4 0.68 4 0 4 C-0.33 5.32 -0.66 6.64 -1 8 C-1.625 5.125 -1.625 5.125 -2 2 C-1.34 1.34 -0.68 0.68 0 0 Z " fill="#030E33" transform="translate(404,184)"/>
<path d="M0 0 C1.98 0 3.96 0 6 0 C6.66 1.32 7.32 2.64 8 4 C7.34 4 6.68 4 6 4 C5.67 3.34 5.34 2.68 5 2 C3.68 2.33 2.36 2.66 1 3 C0.67 2.01 0.34 1.02 0 0 Z " fill="#0E1636" transform="translate(430,171)"/>
</svg>
