<?xml version="1.0" encoding="UTF-8"?>
<!-- Generator: visioncortex VTracer 0.6.12 -->
<svg version="1.1" xmlns="http://www.w3.org/2000/svg" width="369" height="322">
<path d="M0 0 C121.77 0 243.54 0 369 0 C369 106.26 369 212.52 369 322 C247.23 322 125.46 322 0 322 C0 215.74 0 109.48 0 0 Z " fill="#FBFBFB" transform="translate(0,0)"/>
<path d="M0 0 C18.276 -0.12 18.276 -0.12 26.123 -0.146 C31.458 -0.164 36.792 -0.185 42.127 -0.226 C46.432 -0.259 50.737 -0.277 55.043 -0.285 C56.678 -0.29 58.312 -0.301 59.947 -0.317 C78.36 -0.493 94.544 3.866 108.641 16.336 C120.449 28.398 126.399 43.071 126.372 59.844 C125.926 75.605 118.14 89.238 107 100 C96.405 109 96.405 109 92 109 C92.687 110.025 93.374 111.05 94.082 112.105 C94.992 113.466 95.902 114.827 96.812 116.188 C97.264 116.861 97.716 117.535 98.182 118.229 C99.463 120.147 100.734 122.072 102 124 C102.311 124.472 102.311 124.472 103.887 126.863 C104.254 127.568 104.621 128.274 105 129 C104.67 129.66 104.34 130.32 104 131 C103.154 130.031 102.309 129.061 101.438 128.062 C98.898 125.418 96.456 123.632 93.195 122.023 C82.685 116.796 82.685 116.796 80.715 111.629 C80.401 106.324 80.969 102.614 83.852 98.102 C89.278 92.19 89.278 92.19 94.18 91.648 C97 92 97 92 99 94 C103.556 93.444 103.556 93.444 105 92 C105.041 90 105.043 88 105 86 C102.188 85.312 102.188 85.312 99 85 C97.563 86.312 97.563 86.312 96 88 C95.484 88.103 95.484 88.103 92.875 88.625 C87.155 90.177 83.081 94.052 80 99 C78.718 103.909 78.834 108.958 79 114 C77.02 113.67 75.04 113.34 73 113 C72.837 110.268 72.719 107.547 72.625 104.812 C72.575 104.044 72.524 103.275 72.473 102.482 C72.413 100.183 72.459 98.238 73 96 C75.797 93.203 75.797 93.203 79 91 C80.245 89.679 81.459 88.328 82.625 86.938 C83.74 85.616 84.865 84.304 86 83 C86.603 82.261 87.207 81.523 87.828 80.762 C90.733 78.405 92.436 78.724 96.125 78.875 C101.652 78.582 104.589 77.5 108.75 73.812 C113.509 68.51 114.031 63.975 113.84 57.004 C114 54 114 54 115.523 52.258 C116.011 51.843 116.498 51.428 117 51 C116.688 48.313 116.688 48.313 116 46 C113.667 45.958 111.333 45.959 109 46 C108 47 108 47 107.812 49.438 C108 52 108 52 110 54 C110.926 59.361 111.19 64.675 108.668 69.602 C105.824 72.894 103.48 74.882 99.047 75.235 C97.988 75.213 96.93 75.191 95.84 75.168 C87.915 75.615 84.074 78.952 78.75 84.562 C77.919 85.409 77.088 86.256 76.231 87.128 C71.342 92.473 68.39 96.827 68.312 104.188 C68.551 108.168 68.551 108.168 69 111 C66.69 111 64.38 111 62 111 C61.447 100.929 61.708 94.801 68.504 87.199 C69.943 85.648 71.392 84.107 72.849 82.573 C79.1 75.918 84.813 68.077 85.062 58.629 C84.691 51.003 81.997 45.848 76.5 40.625 C70.737 36.879 65.4 36.658 58.707 36.609 C53.422 36.432 53.422 36.432 51.008 33.961 C50.675 33.314 50.343 32.667 50 32 C48.68 34.31 47.36 36.62 46 39 C45.34 39 44.68 39 44 39 C42.671 37.288 42.671 37.288 41.18 34.914 C40.645 34.066 40.11 33.218 39.559 32.344 C39.003 31.447 38.447 30.549 37.875 29.625 C37.312 28.736 36.748 27.846 36.168 26.93 C32 20.269 32 20.269 32 18 C31.34 18 30.68 18 30 18 C29.75 18.859 29.5 19.717 29.242 20.602 C27.915 24.231 26.21 27.126 24.125 30.375 C21.113 35.132 18.398 39.904 16 45 C14.35 44.01 12.7 43.02 11 42 C10.702 42.515 10.405 43.03 10.098 43.561 C8.757 45.876 7.41 48.188 6.062 50.5 C5.828 50.905 5.828 50.905 4.643 52.957 C4.195 53.724 3.747 54.491 3.285 55.281 C2.871 55.993 2.458 56.706 2.031 57.439 C1.691 57.954 1.351 58.469 1 59 C0.67 59 0.34 59 0 59 C0 39.53 0 20.06 0 0 Z " fill="#F9B709" transform="translate(140,24)"/>
<path d="M0 0 C-5.09 2.056 -9.989 3.519 -15.358 4.634 C-31.496 8.014 -48.373 14.155 -57.875 28.438 C-62.134 35.671 -64.454 41.526 -64 50 C-63.34 50.33 -62.68 50.66 -62 51 C-62 51.66 -62 52.32 -62 53 C-62.825 53.165 -62.825 53.165 -67 54 C-66.236 55.13 -65.463 56.253 -64.688 57.375 C-64.258 58.001 -63.829 58.628 -63.387 59.273 C-62 61 -62 61 -59 63 C-59 63.66 -59 64.32 -59 65 C-60.155 65.165 -60.155 65.165 -66 66 C-62.975 71.546 -59.791 73.61 -54 76 C-54 76.66 -54 77.32 -54 78 C-58.955 80.033 -63.696 80.687 -69 80 C-69.495 79.67 -69.495 79.67 -72 78 C-72 79.65 -72 81.3 -72 83 C-71.493 82.84 -70.987 82.68 -70.465 82.516 C-60.051 80.337 -49.057 82.107 -39 85 C-39.229 84.763 -39.229 84.763 -40.391 83.566 C-48.092 75.266 -52.644 65.02 -52.309 53.543 C-50.739 40.612 -44.252 28.143 -34 20 C-17.927 8.71 -17.927 8.71 -10 6 C-9.01 6.33 -8.02 6.66 -7 7 C-7.58 7.375 -8.16 7.75 -8.758 8.137 C-19.428 15.127 -27.847 22.663 -31.57 35.418 C-32.987 43.929 -32.773 52.82 -30 61 C-29.743 61.786 -29.487 62.573 -29.223 63.383 C-26.9 69.901 -23.566 74.837 -19 80 C-18.38 80.703 -17.76 81.405 -17.121 82.129 C-12.847 86.68 -8.366 89.853 -2.906 92.871 C-2.277 93.244 -1.648 93.616 -1 94 C-1 94.33 -1 94.66 -1 95 C-15.22 95.82 -28.075 95.222 -41.875 91.5 C-56.844 87.474 -70.846 85.959 -86 90 C-83.289 87.029 -80.868 86.118 -77 85 C-77 83.02 -77 81.04 -77 79 C-77.495 79.165 -77.495 79.165 -80 80 C-85.388 80.441 -89.944 80.074 -95 78 C-95 77.34 -95 76.68 -95 76 C-94.734 75.885 -94.734 75.885 -93.391 75.301 C-88.798 73.181 -85.882 71.322 -83 67 C-85.64 66.34 -88.28 65.68 -91 65 C-91 64.34 -91 63.68 -91 63 C-90.093 62.423 -89.185 61.845 -88.25 61.25 C-84.602 58.724 -83.219 56.754 -81 53 C-82.98 53 -84.96 53 -87 53 C-87 49.712 -84.248 48.248 -82 46 C-80.947 44.366 -79.927 42.708 -79 41 C-80.32 41.66 -81.64 42.32 -83 43 C-82.565 31.697 -76.825 22.759 -68.695 15.188 C-54.702 3.83 -37.995 1.946 -20.625 1.482 C-15.152 1.291 -10.141 0.781 -4.853 -0.68 C-3 -1 -3 -1 0 0 Z " fill="#135020" transform="translate(211,105)"/>
<path d="M0 0 C16.551 -0.912 30.141 1.537 43 13 C46.908 16.827 50.267 21.03 53.586 25.367 C62.442 36.924 71.332 47.408 86 51 C86 51.66 86 52.32 86 53 C71.39 57.959 55.221 60.131 40.758 53.547 C36.411 51.109 32.682 48.35 29 45 C28.348 44.439 27.695 43.879 27.023 43.301 C15.331 32.564 6.645 16.248 0 2 C0 1.34 0 0.68 0 0 Z " fill="#052555" transform="translate(194,141)"/>
<path d="M0 0 C0.66 0 1.32 0 2 0 C3.274 1.574 4.469 3.212 5.625 4.875 C9.553 10.421 13.705 15.734 18 21 C17.917 19.927 17.835 18.855 17.75 17.75 C18.041 13.381 18.863 12.791 22 10 C27.006 16.48 31.999 22.969 36.938 29.5 C37.648 30.438 38.358 31.377 39.09 32.344 C40.877 34.828 42.47 37.352 44 40 C37.627 43.409 32.649 44.145 25.496 43.992 C24.018 43.975 22.539 43.958 21.061 43.941 C18.759 43.911 16.458 43.875 14.157 43.829 C-3.766 43.484 -17.746 46.469 -31.066 59.207 C-33 61 -33 61 -34 61 C-34.513 44.832 -27.82 33.256 -19 20 C-13.354 22.126 -8.27 25.079 -3 28 C-5.31 24.7 -7.62 21.4 -10 18 C-6.722 11.966 -3.435 5.946 0 0 Z " fill="#1B5C25" transform="translate(170,57)"/>
<path d="M0 0 C5.152 5.438 7.995 11.384 8.379 18.898 C7.99 26.361 4.705 33.266 -0.75 38.375 C-7.431 42.603 -15.008 43.594 -22.75 42.375 C-29.384 39.859 -34.787 34.374 -37.891 28.051 C-39.893 21.815 -39.923 14.045 -37.25 8 C-33.921 2.447 -29.209 -1.615 -23.25 -4.062 C-14.548 -5.461 -7.63 -4.509 0 0 Z " fill="#0A1B46" transform="translate(113.75,226.625)"/>
<path d="M0 0 C-0.58 0.375 -1.16 0.75 -1.758 1.137 C-12.428 8.127 -20.847 15.663 -24.57 28.418 C-25.987 36.929 -25.773 45.82 -23 54 C-22.743 54.786 -22.487 55.573 -22.223 56.383 C-19.9 62.901 -16.566 67.837 -12 73 C-11.38 73.703 -10.76 74.405 -10.121 75.129 C-5.847 79.68 -1.366 82.853 4.094 85.871 C4.723 86.244 5.352 86.616 6 87 C6 87.33 6 87.66 6 88 C2.979 88.081 -0.041 88.141 -3.062 88.188 C-3.91 88.213 -4.758 88.238 -5.631 88.264 C-11.266 88.329 -14.965 87.524 -20 85 C-20.485 84.876 -20.485 84.876 -22.938 84.25 C-31.055 80.937 -37.769 73.132 -41.223 65.188 C-45.81 52.822 -46.023 43.41 -41 31 C-35.576 20.581 -13.838 -4.613 0 0 Z " fill="#082754" transform="translate(204,112)"/>
<path d="M0 0 C14.19 0 28.38 0 43 0 C42.67 0.66 42.34 1.32 42 2 C42.66 2 43.32 2 44 2 C43.75 4.875 43.75 4.875 43 8 C41.062 9.063 41.062 9.063 39 10 C38.278 11.644 37.606 13.311 37 15 C36.34 15.33 35.68 15.66 35 16 C35 17.65 35 19.3 35 21 C34.01 20.34 33.02 19.68 32 19 C32 18.34 32 17.68 32 17 C31.34 17 30.68 17 30 17 C29.75 17.859 29.5 18.717 29.242 19.602 C27.915 23.231 26.21 26.126 24.125 29.375 C21.113 34.132 18.398 38.904 16 44 C14.35 43.01 12.7 42.02 11 41 C10.702 41.515 10.405 42.03 10.098 42.561 C8.757 44.876 7.41 47.188 6.062 49.5 C5.828 49.905 5.828 49.905 4.643 51.957 C4.195 52.724 3.747 53.491 3.285 54.281 C2.871 54.993 2.458 55.706 2.031 56.439 C1.691 56.954 1.351 57.469 1 58 C0.67 58 0.34 58 0 58 C0 38.86 0 19.72 0 0 Z " fill="#215C1F" transform="translate(140,25)"/>
<path d="M0 0 C27.559 0 27.559 0 33.438 5.125 C35.991 9.823 36.56 14.534 35.375 19.75 C33.593 22.667 31.597 24.783 29 27 C28.01 27 27.02 27 26 27 C26.333 27.51 26.666 28.019 27.01 28.545 C28.509 30.841 30.004 33.139 31.5 35.438 C32.025 36.24 32.549 37.042 33.09 37.869 C33.586 38.633 34.082 39.397 34.594 40.184 C35.055 40.891 35.515 41.598 35.99 42.326 C37 44 37 44 37 45 C33.338 46.052 30.628 46.259 27 45 C24.405 42.151 22.537 38.823 20.752 35.424 C20.378 34.749 20.003 34.074 19.617 33.379 C19.304 32.756 18.99 32.133 18.667 31.49 C17 30 17 30 9 29 C9 34.61 9 40.22 9 46 C6.03 46 3.06 46 0 46 C0 30.82 0 15.64 0 0 Z " fill="#081944" transform="translate(28,223)"/>
<path d="M0 0 C2.97 0 5.94 0 9 0 C13.62 8.25 18.24 16.5 23 25 C27.759 16.713 32.467 8.413 37 0 C40.3 0 43.6 0 47 0 C47 15.18 47 30.36 47 46 C44.36 46 41.72 46 39 46 C37.168 44.168 37.761 41.243 37.684 38.777 C37.642 37.517 37.6 36.257 37.557 34.959 C37.517 33.618 37.477 32.278 37.438 30.938 C37.394 29.593 37.351 28.249 37.307 26.904 C37.2 23.603 37.1 20.302 37 17 C33.04 24.26 29.08 31.52 25 39 C23.68 39 22.36 39 21 39 C17.04 31.74 13.08 24.48 9 17 C8.67 26.57 8.34 36.14 8 46 C5.36 46 2.72 46 0 46 C0 30.82 0 15.64 0 0 Z " fill="#0B1A44" transform="translate(135,223)"/>
<path d="M0 0 C8 0 8 0 10.066 1.478 C10.56 2.162 11.054 2.846 11.562 3.551 C12.132 4.313 12.702 5.076 13.289 5.861 C13.854 6.67 14.418 7.479 15 8.312 C15.565 9.079 16.129 9.845 16.711 10.635 C18.499 13.072 20.249 15.536 22 18 C24.64 21.63 27.28 25.26 30 29 C30.33 19.43 30.66 9.86 31 0 C33.64 0 36.28 0 39 0 C39 14.85 39 29.7 39 45 C31 45 31 45 28.75 43.199 C28.173 42.37 27.595 41.541 27 40.688 C26.343 39.776 25.685 38.865 25.008 37.926 C24.677 37.443 24.677 37.443 23 35 C21.628 33.123 20.253 31.248 18.875 29.375 C18.274 28.537 17.674 27.699 17.055 26.836 C14.414 23.191 11.7 19.6 9 16 C8.67 25.57 8.34 35.14 8 45 C5.36 45 2.72 45 0 45 C0 30.15 0 15.3 0 0 Z " fill="#071841" transform="translate(248,223)"/>
<path d="M0 0 C3.3 0 6.6 0 10 0 C14.204 9.884 18.36 19.787 22.375 29.75 C22.708 30.57 23.041 31.39 23.385 32.235 C25.204 36.776 26.748 41.271 28 46 C25.03 46 22.06 46 19 46 C18.329 44.544 17.663 43.085 17 41.625 C16.629 40.813 16.257 40.001 15.875 39.164 C15 37 15 37 15 35 C8.4 35 1.8 35 -5 35 C-5.99 38.3 -6.98 41.6 -8 45 C-10.97 45 -13.94 45 -17 45 C-14.588 36.302 -11.33 28.035 -7.938 19.688 C-7.39 18.33 -6.842 16.973 -6.295 15.615 C-5.293 13.13 -4.288 10.646 -3.281 8.163 C-2.18 5.445 -1.087 2.724 0 0 Z " fill="#091A46" transform="translate(339,223)"/>
<path d="M0 0 C2.97 0 5.94 0 9 0 C13.272 8.919 17.05 17.939 20.58 27.17 C21.391 29.291 22.209 31.409 23.027 33.527 C27 43.844 27 43.844 27 45 C24.03 45 21.06 45 18 45 C15 38.375 15 38.375 15 35 C11.7 35.165 11.7 35.165 -5 36 C-5.66 37.65 -5.66 37.65 -9 46 C-11.97 46 -14.94 46 -18 46 C-15.433 36.493 -11.66 27.569 -7.875 18.5 C-7.222 16.925 -6.57 15.349 -5.918 13.773 C-1.221 2.441 -1.221 2.441 0 0 Z " fill="#0B1A42" transform="translate(210,223)"/>
<path d="M0 0 C-5.09 2.056 -9.989 3.519 -15.358 4.634 C-31.496 8.014 -48.373 14.155 -57.875 28.438 C-61.803 35.085 -64.198 41.302 -65 49 C-65.66 49 -66.32 49 -67 49 C-68.007 46.732 -69.006 44.461 -70 42.188 C-70.286 41.545 -70.572 40.902 -70.867 40.24 C-72.137 37.322 -73 35.217 -73 32 C-73.33 32.165 -73.33 32.165 -75 33 C-75.289 33.99 -75.577 34.98 -75.875 36 C-76.246 36.99 -76.618 37.98 -77 39 C-79.125 39.875 -79.125 39.875 -81 40 C-82.697 34.354 -80.659 31.133 -77.992 26.137 C-69.59 12.908 -56.837 6.598 -42 3 C-34.928 1.714 -27.793 1.674 -20.625 1.482 C-15.152 1.291 -10.141 0.781 -4.853 -0.68 C-3 -1 -3 -1 0 0 Z " fill="#1B5D24" transform="translate(211,105)"/>
<path d="M0 0 C1.812 1.125 1.812 1.125 3 3 C3.312 6.062 3.312 6.062 3 9 C2.34 9.66 1.68 10.32 1 11 C0.805 13.383 0.805 13.383 0.875 16.125 C0.893 17.035 0.911 17.945 0.93 18.883 C0.953 19.581 0.976 20.28 1 21 C1.99 20.67 2.98 20.34 4 20 C4.474 20.969 4.949 21.939 5.438 22.938 C7 26 7 26 8 27 C8.767 32.382 9.192 37.662 6.672 42.605 C3.823 45.892 1.48 47.882 -2.953 48.235 C-4.012 48.213 -5.07 48.191 -6.16 48.168 C-14.085 48.615 -17.926 51.952 -23.25 57.562 C-24.081 58.409 -24.912 59.256 -25.769 60.128 C-30.658 65.473 -33.61 69.827 -33.688 77.188 C-33.449 81.168 -33.449 81.168 -33 84 C-35.31 84 -37.62 84 -40 84 C-40.553 73.929 -40.292 67.801 -33.496 60.199 C-32.059 58.649 -30.611 57.111 -29.151 55.582 C-24.954 51.134 -21.923 46.367 -19 41 C-18.34 40.01 -17.68 39.02 -17 38 C-17 38.66 -17 39.32 -17 40 C-15.559 39.574 -14.122 39.134 -12.688 38.688 C-11.887 38.444 -11.086 38.2 -10.262 37.949 C-7.773 36.905 -6.665 36.11 -5 34 C-4.612 31.687 -4.612 31.687 -4.602 29 C-4.598 28.031 -4.594 27.061 -4.59 26.062 C-4.601 25.052 -4.613 24.041 -4.625 23 C-4.613 21.989 -4.602 20.979 -4.59 19.938 C-4.592 19.453 -4.592 19.453 -4.602 17 C-4.605 16.113 -4.608 15.226 -4.612 14.312 C-5.077 11.539 -5.977 10.856 -8 9 C-8.398 5.818 -8.552 3.872 -6.812 1.125 C-4.345 -0.407 -2.855 -0.428 0 0 Z " fill="#FAB912" transform="translate(242,51)"/>
<path d="M0 0 C3.812 2.512 6.218 4.524 7.285 9.113 C7.987 14.426 7.909 18.807 5.75 23.812 C2.546 27.817 -0.206 29.804 -5.25 30.812 C-10.692 30.618 -14.127 29.386 -18.25 25.812 C-21.946 20.651 -23.044 16.068 -22.25 9.812 C-20.56 4.903 -17.822 1.777 -13.176 -0.531 C-8.563 -2.103 -4.584 -1.675 0 0 Z " fill="#F7F7F9" transform="translate(105.25,231.1875)"/>
<path d="M0 0 C37.62 0 75.24 0 114 0 C114 1.98 114 3.96 114 6 C76.38 6 38.76 6 0 6 C0 4.02 0 2.04 0 0 Z " fill="#F9BB1A" transform="translate(138,283)"/>
<path d="M0 0 C36.3 0 72.6 0 110 0 C110 1.98 110 3.96 110 6 C73.7 6 37.4 6 0 6 C0 4.02 0 2.04 0 0 Z " fill="#C32928" transform="translate(257,283)"/>
<path d="M0 0 C24.75 0 49.5 0 75 0 C75 0.33 75 0.66 75 1 C70.71 1.33 66.42 1.66 62 2 C61.567 3.382 61.134 4.764 60.688 6.188 C59.495 9.799 57.985 12.752 56 16 C55.835 16.825 55.67 17.65 55.5 18.5 C55 21 55 21 53.375 23.375 C51.525 26.907 52.178 29.187 53 33 C52.01 32.67 51.02 32.34 50 32 C48.68 34.31 47.36 36.62 46 39 C45.34 39 44.68 39 44 39 C42.036 36.644 40.499 33.973 38.875 31.375 C38.407 30.662 37.939 29.949 37.457 29.215 C34.802 24.997 33.366 22.149 34 17 C34.99 16.67 35.98 16.34 37 16 C37.083 15.216 37.165 14.432 37.25 13.625 C37.498 12.759 37.745 11.892 38 11 C38.639 10.691 39.279 10.381 39.938 10.062 C42 9 42 9 43.25 5.875 C43.498 4.926 43.745 3.977 44 3 C43.01 3.33 42.02 3.66 41 4 C40.34 3.34 39.68 2.68 39 2 C36.063 1.754 33.214 1.626 30.273 1.586 C29.842 1.576 29.842 1.576 27.659 1.527 C24.898 1.467 22.136 1.421 19.375 1.375 C17.505 1.337 15.635 1.298 13.766 1.258 C9.177 1.162 4.589 1.078 0 1 C0 0.67 0 0.34 0 0 Z " fill="#80830E" transform="translate(140,24)"/>
<path d="M0 0 C34.98 0 69.96 0 106 0 C106 1.98 106 3.96 106 6 C71.02 6 36.04 6 0 6 C0 4.02 0 2.04 0 0 Z " fill="#1D2F77" transform="translate(28,283)"/>
<path d="M0 0 C3.3 0 6.6 0 10 0 C10 15.18 10 30.36 10 46 C7.36 46 4.72 46 2 46 C0.168 44.168 0.761 41.243 0.684 38.777 C0.663 38.147 0.663 38.147 0.557 34.959 C0.517 33.618 0.477 32.278 0.438 30.938 C0.394 29.593 0.351 28.249 0.307 26.904 C0.2 23.603 0.098 20.302 0 17 C-0.825 18.485 -0.825 18.485 -5 26 C-5.66 25.67 -6.32 25.34 -7 25 C-7.33 24.01 -7.66 23.02 -8 22 C-8.99 22 -9.98 22 -11 22 C-9.235 17.16 -6.805 12.716 -4.375 8.188 C-3.955 7.399 -3.535 6.611 -3.102 5.799 C-2.07 3.865 -1.035 1.932 0 0 Z " fill="#263457" transform="translate(172,223)"/>
<path d="M0 0 C2.97 0 5.94 0 9 0 C9 15.18 9 30.36 9 46 C6.03 46 3.06 46 0 46 C0 30.82 0 15.64 0 0 Z " fill="#091E4D" transform="translate(302,223)"/>
<path d="M0 0 C0.577 0.052 0.577 0.052 3.5 0.312 C5.5 3.312 5.5 3.312 5.125 6 C4.919 6.763 4.712 7.526 4.5 8.312 C3.51 8.642 2.52 8.972 1.5 9.312 C1.628 10.196 1.755 11.079 1.887 11.988 C2.41 18.31 2.481 23.122 -1.775 28.181 C-6.141 32.644 -9.676 34.854 -16.125 34.938 C-16.668 34.932 -16.668 34.932 -19.418 34.906 C-25.155 35.662 -28.062 39.994 -31.5 44.312 C-33.481 46.665 -35.478 48.995 -37.5 51.312 C-38.16 51.312 -38.82 51.312 -39.5 51.312 C-39.5 56.593 -39.5 61.873 -39.5 67.312 C-39.83 67.312 -40.16 67.312 -40.5 67.312 C-40.83 65.662 -41.16 64.012 -41.5 62.312 C-41.83 63.963 -42.16 65.613 -42.5 67.312 C-45.14 67.312 -47.78 67.312 -50.5 67.312 C-50.5 66.983 -50.5 66.653 -50.5 66.312 C-48.19 66.312 -45.88 66.312 -43.5 66.312 C-43.732 65.39 -43.964 64.467 -44.203 63.516 C-45.048 57.407 -45.199 52.933 -41.747 47.608 C-39.4 44.703 -36.933 42.034 -34.312 39.375 C-33.891 38.934 -33.891 38.934 -31.757 36.702 C-25.835 31.081 -21.574 29.32 -13.385 29.481 C-10.125 29.291 -8.718 28.568 -6.188 26.562 C-2.533 22.23 -2.865 17.544 -3.059 12.105 C-3.5 9.312 -3.5 9.312 -5.5 7.312 C-5.75 4.812 -5.75 4.812 -5.5 2.312 C-3.5 0.312 -3.5 0.312 0 0 Z " fill="#FDF5DE" transform="translate(252.5,68.6875)"/>
<path d="M0 0 C3.3 0 6.6 0 10 0 C11.175 2.747 12.34 5.497 13.5 8.25 C13.834 9.027 14.168 9.805 14.512 10.605 C14.828 11.36 15.143 12.114 15.469 12.891 C15.615 13.236 15.615 13.236 16.357 14.985 C17 17 17 17 17 21 C15.02 21.33 13.04 21.66 11 22 C10.711 21.402 10.423 20.804 10.125 20.188 C9 18 9 18 7 15 C6.34 13.68 5.68 12.36 5 11 C3.02 15.95 1.04 20.9 -1 26 C-1.66 25.34 -2.32 24.68 -3 24 C-3 23.01 -3 22.02 -3 21 C-4.65 21.33 -6.3 21.66 -8 22 C-5.93 14.392 -3.142 7.227 0 0 Z " fill="#0C1B42" transform="translate(339,223)"/>
<path d="M0 0 C35.64 0 71.28 0 108 0 C108 0.99 108 1.98 108 3 C72.36 3 36.72 3 0 3 C0 2.01 0 1.02 0 0 Z " fill="#D01515" transform="translate(258,285)"/>
<path d="M0 0 C34.65 0 69.3 0 105 0 C105 1.32 105 2.64 105 4 C70.35 3.67 35.7 3.34 0 3 C0 2.01 0 1.02 0 0 Z " fill="#082B80" transform="translate(29,285)"/>
<path d="M0 0 C13.199 -0.493 13.199 -0.493 16.918 1.797 C19 4 19 4 19.625 7.5 C19 11 19 11 16.918 13.203 C11.645 16.45 6.042 15.226 0 15 C0 10.05 0 5.1 0 0 Z " fill="#E7E8EC" transform="translate(36,230)"/>
<path d="M0 0 C24.75 0 49.5 0 75 0 C75 0.33 75 0.66 75 1 C70.71 1.33 66.42 1.66 62 2 C61.67 3.299 61.34 4.599 61 5.938 C59.088 11.812 55.29 15.689 51 20 C50.835 19.34 50.835 19.34 50 16 C49.01 16 48.02 16 47 16 C47.012 15.325 47.023 14.649 47.035 13.953 C47.044 13.061 47.053 12.169 47.062 11.25 C47.074 10.368 47.086 9.487 47.098 8.578 C47 6 47 6 46 2 C30.82 1.67 15.64 1.34 0 1 C0 0.67 0 0.34 0 0 Z " fill="#BBA834" transform="translate(140,24)"/>
<path d="M0 0 C1.812 1.125 1.812 1.125 3 3 C3.375 6 3.375 6 3 9 C2.503 9.448 2.005 9.895 1.493 10.356 C-0.608 12.67 -0.326 14.213 -0.266 17.297 C-0.269 18.338 -0.273 19.38 -0.277 20.453 C-0.259 22.636 -0.226 24.818 -0.176 27 C-0.223 32.52 -0.387 36.12 -4.301 40.238 C-7.132 42.77 -7.944 42.994 -11.938 43.438 C-12.948 43.293 -13.959 43.149 -15 43 C-15 41.68 -15 40.36 -15 39 C-13.907 38.732 -12.814 38.464 -11.688 38.188 C-6.992 36.676 -6.992 36.676 -5 34 C-4.612 31.688 -4.612 31.688 -4.602 29 C-4.598 28.031 -4.594 27.061 -4.59 26.062 C-4.601 25.052 -4.613 24.041 -4.625 23 C-4.613 21.989 -4.602 20.979 -4.59 19.938 C-4.594 18.968 -4.598 17.999 -4.602 17 C-4.605 16.113 -4.608 15.226 -4.612 14.312 C-5.077 11.539 -5.977 10.856 -8 9 C-8.398 5.818 -8.552 3.872 -6.812 1.125 C-4.345 -0.407 -2.855 -0.428 0 0 Z " fill="#FEF9EC" transform="translate(242,51)"/>
<path d="M0 0 C0.354 0.002 0.354 0.002 2.144 0.013 C11.608 0.213 19.454 2.395 27.5 7.312 C30.068 8.399 32.656 9.402 35.266 10.383 C37.5 11.312 37.5 11.312 40.5 13.312 C35.603 13.458 31.369 13.009 26.613 11.852 C25.345 11.545 24.078 11.238 22.771 10.922 C22.121 10.76 21.471 10.598 20.802 10.432 C18.809 9.937 16.814 9.456 14.818 8.977 C4.674 6.493 4.674 6.493 0.5 4.312 C-1.572 3.878 -3.657 3.506 -5.75 3.188 C-6.828 3.02 -7.905 2.852 -9.016 2.68 C-9.426 2.619 -9.426 2.619 -11.5 2.312 C-7.826 -0.04 -4.229 -0.034 0 0 Z " fill="#14521F" transform="translate(150.5,186.6875)"/>
<path d="M0 0 C5.568 0.568 5.568 0.568 7 2 C7.457 7.255 7.457 7.255 5.812 9.938 C4 11 4 11 1.375 10.75 C-1 10 -1 10 -2 9 C-5.273 8.282 -7.265 8.556 -10.141 10.293 C-13.889 13.455 -15.753 15.764 -16.73 20.648 C-16.973 24.118 -17.078 27.523 -17 31 C-18.65 31 -20.3 31 -22 31 C-21.34 30.67 -20.68 30.34 -20 30 C-20.128 29.045 -20.255 28.09 -20.387 27.105 C-21.23 16.116 -21.23 16.116 -17.797 11.625 C-13.066 6.462 -8.813 3.742 -2 2 C-1.34 1.34 -0.68 0.68 0 0 Z " fill="#FEF9E9" transform="translate(239,108)"/>
<path d="M0 0 C2.97 0 5.94 0 9 0 C9 15.18 9 30.36 9 46 C6.03 46 3.06 46 0 46 C0 30.82 0 15.64 0 0 Z M2 2 C2 15.86 2 29.72 2 44 C3.65 44 5.3 44 7 44 C7 30.14 7 16.28 7 2 C5.35 2 3.7 2 2 2 Z " fill="#23294C" transform="translate(302,223)"/>
<path d="M0 0 C0.33 0 0.66 0 1 0 C1 14.52 1 29.04 1 44 C-1.31 44 -3.62 44 -6 44 C-6 34.1 -6 24.2 -6 14 C-4 17 -4 17 -4 19 C-3.01 18.67 -2.02 18.34 -1 18 C-0.835 15.03 -0.835 15.03 0 0 Z " fill="#05133D" transform="translate(180,224)"/>
<path d="M0 0 C0.66 0 1.32 0 2 0 C2 14.52 2 29.04 2 44 C3.65 44 5.3 44 7 44 C6.988 42.857 6.977 41.713 6.965 40.535 C6.955 39.044 6.946 37.553 6.938 36.062 C6.929 35.308 6.921 34.553 6.912 33.775 C6.903 31.85 6.948 29.925 7 28 C8 27 8 27 11.562 26.938 C12.697 26.958 13.831 26.979 15 27 C15.33 27.66 15.66 28.32 16 29 C13.69 29 11.38 29 9 29 C9 34.61 9 40.22 9 46 C6.03 46 3.06 46 0 46 C0 30.82 0 15.64 0 0 Z " fill="#383C5C" transform="translate(28,223)"/>
<path d="M0 0 C0.33 1.32 0.66 2.64 1 4 C1.454 3.505 1.907 3.01 2.375 2.5 C4 1 4 1 6 1 C5.572 3.994 5.102 5.851 3.375 8.375 C1.525 11.907 2.178 14.187 3 18 C2.01 17.67 1.02 17.34 0 17 C-0.99 18.32 -1.98 19.64 -3 21 C-3.33 20.34 -3.66 19.68 -4 19 C-4.99 19 -5.98 19 -7 19 C-7.99 17.02 -8.98 15.04 -10 13 C-8.377 11.291 -6.707 9.626 -5 8 C-4.34 8 -3.68 8 -3 8 C-3 5.69 -3 3.38 -3 1 C-2.01 0.67 -1.02 0.34 0 0 Z " fill="#A09009" transform="translate(190,39)"/>
<path d="M0 0 C1.485 0.33 1.485 0.33 9 2 C9 1.34 9 0.68 9 0 C9.99 0 10.98 0 12 0 C12.671 1.623 13.337 3.249 14 4.875 C14.371 5.78 14.743 6.685 15.125 7.617 C16 10 16 10 16 12 C15.34 12 14.68 12 14 12 C14 11.34 14 10.68 14 10 C12.02 10 10.04 10 8 10 C8 10.66 8 11.32 8 12 C5.36 12 2.72 12 0 12 C0 8.04 0 4.08 0 0 Z " fill="#A7A9B7" transform="translate(149,305)"/>
<path d="M0 0 C2.084 3.126 3.286 6.057 4.625 9.562 C5.071 10.719 5.517 11.875 5.977 13.066 C7 16 7 16 7 18 C2.38 18 -2.24 18 -7 18 C-5.208 11.547 -3.167 5.897 0 0 Z " fill="#E8EAEE" transform="translate(344,233)"/>
<path d="M0 0 C2.917 3.388 4.283 7.073 5.688 11.25 C5.8 11.575 5.8 11.575 6.369 13.219 C6.919 14.81 7.46 16.405 8 18 C3.38 18 -1.24 18 -6 18 C-5.2 13.197 -4.324 9.979 -2.438 5.625 C-1.982 4.565 -1.527 3.506 -1.059 2.414 C-0.709 1.617 -0.36 0.821 0 0 Z " fill="#EAEBEE" transform="translate(214,233)"/>
<path d="M0 0 C3.03 1.515 3.371 3.854 4.625 6.938 C5.071 8.019 5.517 9.101 5.977 10.215 C7 13 7 13 7 15 C4.03 15 1.06 15 -2 15 C-3.65 11.04 -5.3 7.08 -7 3 C-5.845 2.835 -5.845 2.835 0 2 C0 1.34 0 0.68 0 0 Z " fill="#162246" transform="translate(360,254)"/>
<path d="M0 0 C2.155 3.233 2.469 4.252 2 8 C0.875 9.812 0.875 9.812 -1 11 C-4.149 11.394 -6.119 11.529 -8.875 9.875 C-10.529 7.119 -10.394 5.149 -10 2 C-7.656 -2.275 -4.201 -1.069 0 0 Z " fill="#2D3156" transform="translate(332,306)"/>
<path d="M0 0 C2.094 0.121 2.094 0.121 4 0.688 C8 5.287 8 5.287 8 8.688 C8.66 8.688 9.32 8.688 10 8.688 C10 9.347 10 10.007 10 10.688 C3.6 11.18 3.6 11.18 0.562 8.688 C0.047 8.028 -0.469 7.368 -1 6.688 C-1.371 7.347 -1.743 8.007 -2.125 8.688 C-4 10.688 -4 10.688 -7.188 10.938 C-8.116 10.855 -9.044 10.773 -10 10.688 C-8.141 5.267 -6.226 0.486 0 0 Z " fill="#07113D" transform="translate(215,208.3125)"/>
<path d="M0 0 C6.345 -0.359 6.345 -0.359 8.938 1.062 C10.592 4.079 10.306 6.637 10 10 C8 12 8 12 6.055 12.195 C4.036 12.13 2.018 12.065 0 12 C0 8.04 0 4.08 0 0 Z " fill="#343857" transform="translate(54,305)"/>
<path d="M0 0 C6.378 -0.361 6.378 -0.361 8.938 1.125 C10.504 3.89 10.39 5.882 10 9 C8.938 10.875 8.938 10.875 7 12 C3.312 12.188 3.312 12.188 0 12 C0 8.04 0 4.08 0 0 Z " fill="#313863" transform="translate(119,305)"/>
<path d="M0 0 C0.33 0.66 0.66 1.32 1 2 C0.67 2.66 0.34 3.32 0 4 C1.32 3.67 2.64 3.34 4 3 C4 8.28 4 13.56 4 19 C1.69 19 -0.62 19 -3 19 C-3.554 5.182 -3.554 5.182 0 0 Z " fill="#F3B417" transform="translate(205,116)"/>
<path d="M0 0 C0.695 0.001 1.39 0.001 2.105 0.002 C6.209 0.037 10.1 0.399 14.125 1.188 C13.465 1.847 12.805 2.507 12.125 3.188 C12.62 3.641 13.115 4.095 13.625 4.562 C15.125 6.188 15.125 6.188 15.125 8.188 C13.374 7.904 11.624 7.61 9.875 7.312 C9.388 7.231 9.388 7.231 6.922 6.82 C4.125 6.188 4.125 6.188 2.156 5.188 C-0.551 3.855 -3.149 3.515 -6.125 3.062 C-7.203 2.895 -8.28 2.727 -9.391 2.555 C-9.801 2.494 -9.801 2.494 -11.875 2.188 C-8.11 -0.281 -4.339 -0.076 0 0 Z " fill="#26612E" transform="translate(150.875,186.8125)"/>
<path d="M0 0 C-0.58 0.375 -1.16 0.75 -1.758 1.137 C-7.617 4.975 -13.159 8.89 -18 14 C-18 13.01 -18 12.02 -18 11 C-21.151 12.838 -24.12 14.76 -27 17 C-27 15.68 -27 14.36 -27 13 C-24.889 11.3 -22.933 9.942 -20.625 8.562 C-20.308 8.367 -20.308 8.367 -18.704 7.377 C-4.261 -1.42 -4.261 -1.42 0 0 Z " fill="#0F224B" transform="translate(204,112)"/>
<path d="M0 0 C0.144 1.196 0.289 2.392 0.438 3.625 C0.87 7.101 1.396 10.55 2 14 C1.34 14 0.68 14 0 14 C0 13.34 0 12.68 0 12 C-1.98 12 -3.96 12 -6 12 C-6 12.66 -6 13.32 -6 14 C-6.66 14 -7.32 14 -8 14 C-7.567 10.898 -7.088 8.211 -5.875 5.312 C-5 3 -5 3 -6 0 C-3.509 -1.245 -2.589 -0.777 0 0 Z " fill="#474B6A" transform="translate(210,303)"/>
<path d="M0 0 C3.375 -0.125 3.375 -0.125 7 0 C7.66 0.66 8.32 1.32 9 2 C8.702 4.338 8.368 6.672 8 9 C8.33 9.99 8.66 10.98 9 12 C8.01 11.67 7.02 11.34 6 11 C5.67 10.34 5.34 9.68 5 9 C4.01 8.67 3.02 8.34 2 8 C2 9.32 2 10.64 2 12 C1.34 12 0.68 12 0 12 C0 8.04 0 4.08 0 0 Z " fill="#2D3155" transform="translate(94,305)"/>
<path d="M0 0 C1.98 0 3.96 0 6 0 C8 2 8 2 8.062 5.438 C8.042 6.613 8.021 7.789 8 9 C8.33 9.99 8.66 10.98 9 12 C6 12 6 12 3.812 10 C3.214 9.34 2.616 8.68 2 8 C2 9.32 2 10.64 2 12 C1.34 12 0.68 12 0 12 C0 8.04 0 4.08 0 0 Z " fill="#23284F" transform="translate(337,305)"/>
<path d="M0 0 C0.66 0 1.32 0 2 0 C3.389 1.961 4.726 3.962 6 6 C6.33 4.02 6.66 2.04 7 0 C7.99 0 8.98 0 10 0 C10 3.96 10 7.92 10 12 C9.01 12 8.02 12 7 12 C4.812 9 4.812 9 3 6 C2.67 7.98 2.34 9.96 2 12 C1.34 12 0.68 12 0 12 C0 8.04 0 4.08 0 0 Z " fill="#3A4061" transform="translate(226,305)"/>
<path d="M0 0 C4 1 4 1 5.047 2.742 C5.279 3.446 5.511 4.15 5.75 4.875 C5.992 5.574 6.235 6.272 6.484 6.992 C7 9 7 9 7 12 C6.34 12 5.68 12 5 12 C5 11.34 5 10.68 5 10 C3.02 10 1.04 10 -1 10 C-1 10.66 -1 11.32 -1 12 C-1.99 11.67 -2.98 11.34 -4 11 C-3.34 9.185 -3.34 9.185 0 0 Z " fill="#2E3153" transform="translate(109,305)"/>
<path d="M0 0 C1.763 6.659 2.838 12.488 0 19 C-3.241 16.178 -4.675 14.334 -5 10 C-4.562 7.688 -4.562 7.688 -4 6 C-3.34 6 -2.68 6 -2 6 C-1.856 5.196 -1.711 4.391 -1.562 3.562 C-1 1 -1 1 0 0 Z " fill="#5B7316" transform="translate(179,34)"/>
<path d="M0 0 C2.64 0 5.28 0 8 0 C8 0.99 8 1.98 8 3 C6.35 3 4.7 3 3 3 C3 3.66 3 4.32 3 5 C4.65 5 6.3 5 8 5 C8 5.66 8 6.32 8 7 C6.35 7 4.7 7 3 7 C3 7.99 3 8.98 3 10 C4.65 10 6.3 10 8 10 C8 10.66 8 11.32 8 12 C5.36 12 2.72 12 0 12 C0 8.04 0 4.08 0 0 Z " fill="#3F4364" transform="translate(67,305)"/>
<path d="M0 0 C0.99 0 1.98 0 3 0 C3.671 1.623 4.337 3.249 5 4.875 C5.371 5.78 5.743 6.685 6.125 7.617 C7 10 7 10 7 12 C6.34 12 5.68 12 5 12 C5 11.34 5 10.68 5 10 C3.02 10 1.04 10 -1 10 C-1 10.66 -1 11.32 -1 12 C-1.99 12 -2.98 12 -4 12 C-3.523 10.374 -3.043 8.749 -2.562 7.125 C-2.296 6.22 -2.029 5.315 -1.754 4.383 C-1 2 -1 2 0 0 Z " fill="#666984" transform="translate(158,305)"/>
<path d="M0 0 C0.99 0 1.98 0 3 0 C4.32 2.31 5.64 4.62 7 7 C7.33 5.02 7.66 3.04 8 1 C8.66 1 9.32 1 10 1 C10 4.63 10 8.26 10 12 C6 10 6 10 4.75 7.375 C4.502 6.591 4.255 5.808 4 5 C3.34 5 2.68 5 2 5 C2 7.31 2 9.62 2 12 C1.34 12 0.68 12 0 12 C0 8.04 0 4.08 0 0 Z " fill="#161B44" transform="translate(179,305)"/>
<path d="M0 0 C0.66 0 1.32 0 2 0 C2 3.96 2 7.92 2 12 C-1.767 10.117 -2.794 9.309 -5 6 C-5.33 7.98 -5.66 9.96 -6 12 C-6.66 12 -7.32 12 -8 12 C-8 8.37 -8 4.74 -8 1 C-4 2 -4 2 -2.25 4.562 C-1.837 5.367 -1.425 6.171 -1 7 C-0.67 4.69 -0.34 2.38 0 0 Z " fill="#292E51" transform="translate(49,305)"/>
<path d="M0 0 C0.99 0 1.98 0 3 0 C3 3.3 3 6.6 3 10 C4.32 9.67 5.64 9.34 7 9 C7.33 6.03 7.66 3.06 8 0 C8.66 0 9.32 0 10 0 C10.054 1.625 10.093 3.25 10.125 4.875 C10.148 5.78 10.171 6.685 10.195 7.617 C10 10 10 10 8 12 C5 12.25 5 12.25 2 12 C0 10 0 10 -0.195 7.617 C-0.172 6.712 -0.149 5.807 -0.125 4.875 C-0.107 3.965 -0.089 3.055 -0.07 2.117 C-0.047 1.419 -0.024 0.72 0 0 Z " fill="#343859" transform="translate(348,305)"/>
<path d="M0 0 C0.66 0 1.32 0 2 0 C2.33 2.97 2.66 5.94 3 9 C4.32 9.33 5.64 9.66 7 10 C7 6.7 7 3.4 7 0 C7.99 0 8.98 0 10 0 C10.054 1.625 10.093 3.25 10.125 4.875 C10.148 5.78 10.171 6.685 10.195 7.617 C10 10 10 10 8 12 C5 12.25 5 12.25 2 12 C0 10 0 10 -0.195 7.617 C-0.172 6.712 -0.149 5.807 -0.125 4.875 C-0.107 3.965 -0.089 3.055 -0.07 2.117 C-0.047 1.419 -0.024 0.72 0 0 Z " fill="#474B6B" transform="translate(28,305)"/>
<path d="M0 0 C2.97 0 5.94 0 9 0 C9 0.66 9 1.32 9 2 C8.01 2 7.02 2 6 2 C6 6.95 6 11.9 6 17 C5.01 17 4.02 17 3 17 C3 12.38 3 7.76 3 3 C2.01 3 1.02 3 0 3 C0 2.01 0 1.02 0 0 Z " fill="#555877" transform="translate(137,305)"/>
<path d="M0 0 C2.64 0 5.28 0 8 0 C8 0.66 8 1.32 8 2 C6.02 2 4.04 2 2 2 C2 2.99 2 3.98 2 5 C3.65 5 5.3 5 7 5 C7 5.66 7 6.32 7 7 C5.35 7 3.7 7 2 7 C2 7.99 2 8.98 2 10 C3.98 10 5.96 10 8 10 C8 10.66 8 11.32 8 12 C5.36 12 2.72 12 0 12 C0 8.04 0 4.08 0 0 Z " fill="#24294F" transform="translate(272,305)"/>
<path d="M0 0 C2.64 0 5.28 0 8 0 C8 0.66 8 1.32 8 2 C6.02 2 4.04 2 2 2 C2 2.99 2 3.98 2 5 C3.65 5 5.3 5 7 5 C7 5.66 7 6.32 7 7 C5.35 7 3.7 7 2 7 C2 7.99 2 8.98 2 10 C3.98 10 5.96 10 8 10 C8 10.66 8 11.32 8 12 C5.36 12 2.72 12 0 12 C0 8.04 0 4.08 0 0 Z " fill="#2B2F54" transform="translate(239,305)"/>
<path d="M0 0 C-7.417 3.179 -15.108 4.551 -23 6 C-23 5.34 -23 4.68 -23 4 C-26.96 3.67 -30.92 3.34 -35 3 C-35 2.67 -35 2.34 -35 2 C-34.675 1.99 -34.675 1.99 -33.031 1.94 C-30.041 1.844 -27.052 1.734 -24.062 1.625 C-23.041 1.594 -22.019 1.563 -20.967 1.531 C-15.382 1.317 -10.234 0.813 -4.838 -0.682 C-3 -1 -3 -1 0 0 Z " fill="#4E7552" transform="translate(211,105)"/>
<path d="M0 0 C1.17 0.036 2.341 0.072 3.547 0.109 C4.439 0.156 5.331 0.202 6.25 0.25 C6.25 0.58 6.25 0.91 6.25 1.25 C5.546 1.148 4.842 1.046 4.117 0.941 C-0.347 0.749 -3.971 0.871 -7.628 3.705 C-11.481 7.385 -14.912 11.424 -18.301 15.53 C-20.007 17.555 -21.834 19.423 -23.75 21.25 C-23.75 19.93 -23.75 18.61 -23.75 17.25 C-22.376 16.043 -20.989 14.848 -19.535 13.738 C-16.856 11.505 -14.705 8.875 -12.461 6.215 C-11.896 5.566 -11.332 4.918 -10.75 4.25 C-10.16 3.514 -9.569 2.778 -8.961 2.02 C-5.906 -0.425 -3.855 -0.154 0 0 Z " fill="#FDBB20" transform="translate(236.75,102.75)"/>
<path d="M0 0 C0.99 0 1.98 0 3 0 C3.99 2.31 4.98 4.62 6 7 C6.66 5.02 7.32 3.04 8 1 C8.99 1.33 9.98 1.66 11 2 C10.522 3.292 10.043 4.584 9.562 5.875 C9.296 6.594 9.029 7.314 8.754 8.055 C8 10 8 10 7 12 C6.01 12 5.02 12 4 12 C3.329 10.377 2.663 8.751 2 7.125 C1.629 6.22 1.257 5.315 0.875 4.383 C0 2 0 2 0 0 Z " fill="#2A2F51" transform="translate(287,305)"/>
<path d="M0 0 C2.5 0.312 2.5 0.312 5 1 C5.33 1.66 5.66 2.32 6 3 C5.01 2.835 5.01 2.835 0 2 C0 2.99 0 3.98 0 5 C1.65 5.33 3.3 5.66 5 6 C5.382 7.656 5.714 9.325 6 11 C5 12 5 12 1.938 12.062 C0.968 12.042 -0.001 12.021 -1 12 C-1.33 11.01 -1.66 10.02 -2 9 C-1.01 9.165 -1.01 9.165 4 10 C2.608 7.216 0.844 7.021 -2 6 C-1.125 1.125 -1.125 1.125 0 0 Z " fill="#2B2E4E" transform="translate(252,305)"/>
<path d="M0 0 C1.255 3.766 0.371 5.372 -1 9 C-3.97 9 -6.94 9 -10 9 C-9.67 7.35 -9.34 5.7 -9 4 C-8.257 3.856 -7.515 3.711 -6.75 3.562 C-4.48 3.098 -2.242 2.581 0 2 C0 1.34 0 0.68 0 0 Z " fill="#0C1639" transform="translate(332,259)"/>
<path d="M0 0 C2.051 0.033 4.102 0.065 6.152 0.098 C4.832 0.428 3.512 0.758 2.152 1.098 C2.266 1.624 2.266 1.624 2.84 4.285 C3.184 8.486 2.64 9.814 0.152 13.098 C-0.508 12.768 -1.168 12.438 -1.848 12.098 C-1.827 11.025 -1.806 9.953 -1.785 8.848 C-1.834 5.917 -2.104 3.858 -2.848 1.098 C-1.848 0.098 -1.848 0.098 0 0 Z " fill="#9F8F09" transform="translate(188.84765625,24.90234375)"/>
<path d="M0 0 C0.66 0.165 0.66 0.165 4 1 C3.67 5.62 3.34 10.24 3 15 C2.01 15 1.02 15 0 15 C-0.194 12.688 -0.38 10.375 -0.562 8.062 C-0.615 7.419 -0.615 7.419 -0.879 4.16 C-0.919 3.117 -0.959 2.074 -1 1 C-0.67 0.67 -0.34 0.34 0 0 Z " fill="#65677E" transform="translate(173,302)"/>
<path d="M0 0 C0.33 2.31 0.66 4.62 1 7 C-1.64 7.33 -4.28 7.66 -7 8 C-6.67 5.69 -6.34 3.38 -6 1 C-3.924 0.447 -2.156 0 0 0 Z " fill="#0B1839" transform="translate(336,244)"/>
<path d="M0 0 C1.675 0.286 3.344 0.618 5 1 C5 2.98 5 4.96 5 7 C2.625 7.625 2.625 7.625 0 8 C-0.66 7.34 -1.32 6.68 -2 6 C-1.444 1.444 -1.444 1.444 0 0 Z " fill="#E3E4EB" transform="translate(326,307)"/>
<path d="M0 0 C5.249 -0.525 5.249 -0.525 8 0 C12 4.6 12 4.6 12 8 C12.66 8 13.32 8 14 8 C14 8.66 14 9.32 14 10 C11.69 10 9.38 10 7 10 C6.155 6.622 5.892 4.325 7 1 C4.69 1 2.38 1 0 1 C0 0.67 0 0.34 0 0 Z " fill="#32395D" transform="translate(211,209)"/>
<path d="M0 0 C0.99 0 1.98 0 3 0 C3 3.3 3 6.6 3 10 C4.65 10 6.3 10 8 10 C8 10.66 8 11.32 8 12 C5.36 12 2.72 12 0 12 C0 8.04 0 4.08 0 0 Z " fill="#414566" transform="translate(215,305)"/>
<path d="M0 0 C0.99 0 1.98 0 3 0 C3 3.3 3 6.6 3 10 C4.65 10 6.3 10 8 10 C8 10.66 8 11.32 8 12 C5.36 12 2.72 12 0 12 C0 8.04 0 4.08 0 0 Z " fill="#474B6D" transform="translate(361,305)"/>
<path d="M0 0 C0.99 0.33 1.98 0.66 3 1 C7.746 1.302 12.377 1.193 17 0 C16.477 1.953 16.477 1.953 15 4 C12.335 4.467 10.049 4.696 7.375 4.75 C7.022 4.765 7.022 4.765 5.234 4.84 C3.49 4.911 1.745 4.958 0 5 C0 3.35 0 1.7 0 0 Z " fill="#D4E1D6" transform="translate(139,183)"/>
<path d="M0 0 C4.875 0.875 4.875 0.875 6 2 C6.125 4.5 6.125 4.5 6 7 C5 8 5 8 2.438 8.062 C1.633 8.042 0.829 8.021 0 8 C0 5.36 0 2.72 0 0 Z " fill="#D6D7E0" transform="translate(56,307)"/>
<path d="M0 0 C2.094 3.402 2.179 6.053 2 10 C0 10.043 -2 10.041 -4 10 C-5 9 -5 9 -5.062 6.438 C-5.042 5.633 -5.021 4.829 -5 4 C-4.68 3.948 -4.68 3.948 -3.062 3.688 C-2.382 3.461 -1.701 3.234 -1 3 C-0.67 2.01 -0.34 1.02 0 0 Z " fill="#192647" transform="translate(120,238)"/>
<path d="M0 0 C2.97 0 5.94 0 9 0 C9 0.99 9 1.98 9 3 C7.68 3 6.36 3 5 3 C5 5.97 5 8.94 5 12 C4.34 12 3.68 12 3 12 C3 8.7 3 5.4 3 2 C2.01 2 1.02 2 0 2 C0 1.34 0 0.68 0 0 Z " fill="#33375B" transform="translate(312,305)"/>
<path d="M0 0 C0.825 0.165 0.825 0.165 5 1 C5.625 3.375 5.625 3.375 6 6 C5.34 6.66 4.68 7.32 4 8 C2.68 8 1.36 8 0 8 C0 5.36 0 2.72 0 0 Z " fill="#DCDDE5" transform="translate(121,307)"/>
<path d="M0 0 C0.66 0.66 1.32 1.32 2 2 C-1.104 2.058 -4.208 2.094 -7.312 2.125 C-7.753 2.133 -7.753 2.133 -9.982 2.176 C-10.83 2.182 -11.678 2.189 -12.551 2.195 C-13.331 2.206 -14.111 2.216 -14.915 2.227 C-17 2 -17 2 -20 0 C-17.605 -0.196 -15.209 -0.382 -12.812 -0.562 C-12.476 -0.591 -12.476 -0.591 -10.771 -0.732 C-6.998 -1.009 -3.638 -1.111 0 0 Z " fill="#0E1E46" transform="translate(208,198)"/>
<path d="M0 0 C5.28 0 10.56 0 16 0 C15.67 0.165 15.67 0.165 14 1 C14 1.66 14 2.32 14 3 C11.69 3.66 9.38 4.32 7 5 C6.588 4.546 6.175 4.093 5.75 3.625 C4 2 4 2 0 0 Z " fill="#13551A" transform="translate(174,108)"/>
<path d="M0 0 C0.66 0 1.32 0 2 0 C2 0.99 2 1.98 2 3 C2.99 2.67 3.98 2.34 5 2 C3.801 5.083 2.523 8.063 1 11 C-0.562 9.375 -0.562 9.375 -2 7 C-1.574 1.574 -1.574 1.574 0 0 Z " fill="#09163A" transform="translate(79,250)"/>
<path d="M0 0 C3.3 0 6.6 0 10 0 C10 0.66 10 1.32 10 2 C8.68 2 7.36 2 6 2 C6 5.3 6 8.6 6 12 C5.34 12 4.68 12 4 12 C4 8.7 4 5.4 4 2 C2.68 2 1.36 2 0 2 C0 1.34 0 0.68 0 0 Z " fill="#303556" transform="translate(82,305)"/>
<path d="M0 0 C5.467 1.748 10.758 3.658 16 6 C16 6.33 16 6.66 16 7 C10.581 7.226 6.225 6.467 1 5 C1.33 4.01 1.66 3.02 2 2 C1.34 2 0.68 2 0 2 C0 1.34 0 0.68 0 0 Z " fill="#185729" transform="translate(175,193)"/>
<path d="M0 0 C-0.603 0.398 -1.207 0.797 -1.828 1.207 C-2.627 1.737 -3.427 2.267 -4.25 2.812 C-5.039 3.335 -5.828 3.857 -6.641 4.395 C-8.811 5.871 -10.914 7.407 -13 9 C-13 8.34 -13 7.68 -13 7 C-14.32 6.67 -15.64 6.34 -17 6 C-14.735 4.8 -12.464 3.615 -10.188 2.438 C-9.545 2.095 -8.902 1.753 -8.24 1.4 C-3.34 -1.113 -3.34 -1.113 0 0 Z " fill="#232C54" transform="translate(204,112)"/>
<path d="M0 0 C2.97 0 5.94 0 9 0 C9 0.66 9 1.32 9 2 C8.01 2 7.02 2 6 2 C6 5.3 6 8.6 6 12 C5.34 12 4.68 12 4 12 C4 8.7 4 5.4 4 2 C2.68 2 1.36 2 0 2 C0 1.34 0 0.68 0 0 Z " fill="#32375A" transform="translate(260,305)"/>
<path d="M0 0 C0.99 0 1.98 0 3 0 C3 3.96 3 7.92 3 12 C2.01 12 1.02 12 0 12 C0 8.04 0 4.08 0 0 Z " fill="#3F415F" transform="translate(132,305)"/>
<path d="M0 0 C0.99 0 1.98 0 3 0 C3 0.99 3 1.98 3 3 C2.34 3 1.68 3 1 3 C0.67 4.65 0.34 6.3 0 8 C1.32 8.33 2.64 8.66 4 9 C2.35 9 0.7 9 -1 9 C-1 9.99 -1 10.98 -1 12 C-1.99 12 -2.98 12 -4 12 C-3.523 10.374 -3.043 8.749 -2.562 7.125 C-2.296 6.22 -2.029 5.315 -1.754 4.383 C-1 2 -1 2 0 0 Z " fill="#333657" transform="translate(158,305)"/>
<path d="M0 0 C0.268 0.578 0.536 1.155 0.812 1.75 C2.769 5.458 3.929 7.643 8 9 C7.67 10.65 7.34 12.3 7 14 C6.34 14 5.68 14 5 14 C2.023 10.445 0.101 7.135 -0.312 2.5 C-0.209 1.675 -0.106 0.85 0 0 Z " fill="#777E18" transform="translate(179,49)"/>
<path d="M0 0 C3.375 -0.125 3.375 -0.125 7 0 C9 2 9 2 9.125 5.125 C9.084 6.074 9.042 7.022 9 8 C8.67 8.165 8.67 8.165 7 9 C6.34 6.69 5.68 4.38 5 2 C3.68 1.67 2.36 1.34 1 1 C1 3.97 1 6.94 1 10 C0.67 10 0.34 10 0 10 C0 6.7 0 3.4 0 0 Z " fill="#090C3A" transform="translate(120,306)"/>
<path d="M0 0 C1.892 2.386 3.024 4.072 4 7 C3.34 7 2.68 7 2 7 C2 6.34 2 5.68 2 5 C1.01 5 0.02 5 -1 5 C-1 5.99 -1 6.98 -1 8 C-1.99 8.33 -2.98 8.66 -4 9 C-4.625 7.188 -4.625 7.188 -5 5 C-4.34 4.01 -3.68 3.02 -3 2 C-2.34 2 -1.68 2 -1 2 C-0.67 1.34 -0.34 0.68 0 0 Z " fill="#132046" transform="translate(151,237)"/>
<path d="M0 0 C1.98 0 3.96 0 6 0 C6 2 6 4 6 6 C4.02 6 2.04 6 0 6 C0 4.02 0 2.04 0 0 Z " fill="#898DA5" transform="translate(337,305)"/>
<path d="M0 0 C2.062 0.438 2.062 0.438 4 1 C3.67 2.65 3.34 4.3 3 6 C1.02 6 -0.96 6 -3 6 C-1.125 1.125 -1.125 1.125 0 0 Z " fill="#182346" transform="translate(208,213)"/>
<path d="M0 0 C0.66 0 1.32 0 2 0 C2.081 2.124 2.139 4.25 2.188 6.375 C2.222 7.558 2.257 8.742 2.293 9.961 C2.196 10.964 2.1 11.967 2 13 C1.01 13.66 0.02 14.32 -1 15 C-1.103 9.874 -1.036 5.05 0 0 Z " fill="#265E2D" transform="translate(137,103)"/>
<path d="M0 0 C0.99 0 1.98 0 3 0 C3.33 1.32 3.66 2.64 4 4 C3.34 4 2.68 4 2 4 C2 6.64 2 9.28 2 12 C1.34 12 0.68 12 0 12 C0 8.04 0 4.08 0 0 Z " fill="#343958" transform="translate(179,305)"/>
<path d="M0 0 C2.408 3.21 3.682 5.35 5 9 C4.01 9.33 3.02 9.66 2 10 C1.34 10.99 0.68 11.98 0 13 C0 8.71 0 4.42 0 0 Z " fill="#EFF0F4" transform="translate(143,238)"/>
<path d="M0 0 C3 3.36 3 3.36 3 6.125 C1.577 8.794 -0.191 9.136 -3 10 C-2.493 6.281 -1.884 3.265 0 0 Z " fill="#DBDBE4" transform="translate(214,233)"/>
<path d="M0 0 C6.93 0 13.86 0 21 0 C21 0.33 21 0.66 21 1 C19.808 1.049 18.615 1.098 17.387 1.148 C15.82 1.223 14.254 1.299 12.688 1.375 C11.902 1.406 11.116 1.437 10.307 1.469 C9.928 1.488 9.928 1.488 8.012 1.586 C7.315 1.617 6.619 1.649 5.901 1.681 C4 2 4 2 1 4 C0.67 2.68 0.34 1.36 0 0 Z " fill="#101D3F" transform="translate(30,223)"/>
<path d="M0 0 C0.33 1.32 0.66 2.64 1 4 C3.64 4 6.28 4 9 4 C9 4.33 9 4.66 9 5 C5.04 5 1.08 5 -3 5 C-3.33 4.01 -3.66 3.02 -4 2 C-2.68 1.34 -1.36 0.68 0 0 Z " fill="#CCA41D" transform="translate(196,55)"/>
<path d="M0 0 C0.66 0.33 1.32 0.66 2 1 C1.175 2.485 1.175 2.485 -3 10 C-3.33 10 -3.66 10 -4 10 C-4.25 7.25 -4.25 7.25 -4 4 C-2 1.625 -2 1.625 0 0 Z " fill="#16531E" transform="translate(144,73)"/>
<path d="M0 0 C2.875 -0.125 2.875 -0.125 6 0 C6.66 0.66 7.32 1.32 8 2 C7.34 2.66 6.68 3.32 6 4 C6.33 4.66 6.66 5.32 7 6 C6.01 6 5.02 6 4 6 C3.897 5.361 3.794 4.721 3.688 4.062 C3.461 3.382 3.234 2.701 3 2 C2.01 1.67 1.02 1.34 0 1 C0 0.67 0 0.34 0 0 Z " fill="#104B19" transform="translate(162,189)"/>
<path d="M0 0 C0.33 0.66 0.66 1.32 1 2 C0.67 2.495 0.67 2.495 -1 5 C-1.414 7.043 -1.414 7.043 -1.625 9.188 C-1.749 10.446 -1.873 11.704 -2 13 C-2.99 12.34 -3.98 11.68 -5 11 C-4.34 11 -3.68 11 -3 11 C-3 7.7 -3 4.4 -3 1 C-2.01 0.67 -1.02 0.34 0 0 Z " fill="#D1D2DE" transform="translate(146,306)"/>
<path d="M0 0 C0.33 0.99 0.66 1.98 1 3 C0.67 3.495 0.67 3.495 -1 6 C-2.32 6 -3.64 6 -5 6 C-5.33 5.01 -5.66 4.02 -6 3 C-4.02 2.01 -2.04 1.02 0 0 Z " fill="#202643" transform="translate(161,256)"/>
<path d="M0 0 C4.875 4.75 4.875 4.75 6 7 C5.01 7 4.02 7 3 7 C2.67 7.66 2.34 8.32 2 9 C0 2.25 0 2.25 0 0 Z " fill="#ECEBF0" transform="translate(256,238)"/>
<path d="M0 0 C0.66 0 1.32 0 2 0 C1.67 1.65 1.34 3.3 1 5 C-0.98 5 -2.96 5 -5 5 C-5.33 4.01 -5.66 3.02 -6 2 C-5.01 2.165 -5.01 2.165 0 3 C0 2.01 0 1.02 0 0 Z " fill="#212548" transform="translate(256,312)"/>
<path d="M0 0 C1.32 0.66 2.64 1.32 4 2 C3.67 3.32 3.34 4.64 3 6 C1.68 6.33 0.36 6.66 -1 7 C-0.34 6.67 0.32 6.34 1 6 C0.34 4.35 -0.32 2.7 -1 1 C-0.67 0.67 -0.34 0.34 0 0 Z " fill="#E5E6EC" transform="translate(102,311)"/>
<path d="M0 0 C0 0.66 0 1.32 0 2 C0.33 2.66 0.66 3.32 1 4 C-1.64 3.34 -4.28 2.68 -7 2 C-7 1.34 -7 0.68 -7 0 C-3.867 -1.044 -3.01 -0.934 0 0 Z " fill="#2B5533" transform="translate(123,181)"/>
<path d="M0 0 C1.32 0 2.64 0 4 0 C3.67 1.65 3.34 3.3 3 5 C1.68 4.67 0.36 4.34 -1 4 C-0.67 2.68 -0.34 1.36 0 0 Z " fill="#FCBD26" transform="translate(238,55)"/>
<path d="M0 0 C0.33 0 0.66 0 1 0 C1 3.3 1 6.6 1 10 C-3 8 -3 8 -3.75 5.875 C-3.833 5.256 -3.915 4.637 -4 4 C-3.67 4.165 -3.67 4.165 -2 5 C-2 5.66 -2 6.32 -2 7 C-1.34 7 -0.68 7 0 7 C0 4.69 0 2.38 0 0 Z " fill="#0C1037" transform="translate(234,306)"/>
<path d="M0 0 C2 3 2 3 1.625 5.188 C1.419 5.786 1.213 6.384 1 7 C-0.32 7 -1.64 7 -3 7 C-2.67 5.35 -2.34 3.7 -2 2 C-1.34 2 -0.68 2 0 2 C0 1.34 0 0.68 0 0 Z " fill="#797D9B" transform="translate(112,306)"/>
<path d="M0 0 C2.64 0 5.28 0 8 0 C8.33 0.66 8.66 1.32 9 2 C6.69 2.33 4.38 2.66 2 3 C1.34 2.01 0.68 1.02 0 0 Z " fill="#0F1737" transform="translate(248,223)"/>
<path d="M0 0 C1.32 0.66 2.64 1.32 4 2 C3.68 2.382 3.68 2.382 2.062 4.312 C0 7 0 7 -1 10 C-1.66 10 -2.32 10 -3 10 C-2.01 6.7 -1.02 3.4 0 0 Z " fill="#1D2547" transform="translate(200,246)"/>
<path d="M0 0 C0 2.64 0 5.28 0 8 C-0.248 7.361 -0.495 6.721 -0.75 6.062 C-2 4 -2 4 -4.125 3.25 C-4.434 3.209 -4.434 3.209 -6 3 C-5.67 2.34 -5.34 1.68 -5 1 C-3.318 0.474 -1.773 0 0 0 Z " fill="#EEEFF3" transform="translate(119,305)"/>
<path d="M0 0 C1.65 0.33 3.3 0.66 5 1 C4.01 2.32 3.02 3.64 2 5 C1.01 4.67 0.02 4.34 -1 4 C-0.67 2.68 -0.34 1.36 0 0 Z " fill="#0C1B4A" transform="translate(214,211)"/>
<path d="M0 0 C4.429 5.143 4.429 5.143 5 9 C3.02 7.35 1.04 5.7 -1 4 C-0.67 2.68 -0.34 1.36 0 0 Z " fill="#FDC139" transform="translate(240,146)"/>
<path d="M0 0 C-2.97 1.65 -5.94 3.3 -9 5 C-9.66 4.34 -10.32 3.68 -11 3 C-9.736 2.3 -8.463 1.616 -7.188 0.938 C-6.48 0.555 -5.772 0.172 -5.043 -0.223 C-3 -1 -3 -1 0 0 Z " fill="#3F496E" transform="translate(204,112)"/>
<path d="M0 0 C-0.639 0.103 -1.279 0.206 -1.938 0.312 C-2.618 0.539 -3.299 0.766 -4 1 C-4.33 1.99 -4.66 2.98 -5 4 C-5.66 4 -6.32 4 -7 4 C-7 5.65 -7 7.3 -7 9 C-7.33 9 -7.66 9 -8 9 C-8.362 3.571 -8.362 3.571 -6.812 1.125 C-4.44 -0.348 -2.741 -0.222 0 0 Z " fill="#454A6A" transform="translate(330,305)"/>
<path d="M0 0 C0.825 0.165 0.825 0.165 5 1 C4.67 1.99 4.34 2.98 4 4 C2.68 4 1.36 4 0 4 C0 2.68 0 1.36 0 0 Z " fill="#C0C1D2" transform="translate(96,307)"/>
<path d="M0 0 C0.99 0 1.98 0 3 0 C3.625 2.875 3.625 2.875 4 6 C3.34 6.66 2.68 7.32 2 8 C1.34 5.36 0.68 2.72 0 0 Z " fill="#4D4F68" transform="translate(287,305)"/>
<path d="M0 0 C-0.33 0.99 -0.66 1.98 -1 3 C-2.65 2.67 -4.3 2.34 -6 2 C-6 1.34 -6 0.68 -6 0 C-3.509 -1.245 -2.589 -0.777 0 0 Z " fill="#7B7F94" transform="translate(210,303)"/>
<path d="M0 0 C2.36 2.36 2.491 3.779 3 7 C2.67 7.165 2.67 7.165 1 8 C-1 5 -1 5 -0.625 2.312 C-0.419 1.549 -0.213 0.786 0 0 Z " fill="#17244E" transform="translate(233,259)"/>
<path d="M0 0 C2 3.75 2 3.75 2 6 C0.68 5.67 -0.64 5.34 -2 5 C-2.33 3.68 -2.66 2.36 -3 1 C-2.01 0.67 -1.02 0.34 0 0 Z " fill="#061334" transform="translate(164,244)"/>
<path d="M0 0 C1.966 2.949 2.739 4.52 3 8 C2.01 8.99 1.02 9.98 0 11 C0 7.37 0 3.74 0 0 Z " fill="#060F37" transform="translate(113,240)"/>
<path d="M0 0 C0.66 0 1.32 0 2 0 C3.32 2.64 4.64 5.28 6 8 C5.67 8.165 5.67 8.165 4 9 C0 2.25 0 2.25 0 0 Z " fill="#111E4B" transform="translate(206,162)"/>
<path d="M0 0 C0.66 0.99 1.32 1.98 2 3 C1.34 4.32 0.68 5.64 0 7 C-1.65 6.67 -3.3 6.34 -5 6 C-4.361 5.752 -3.721 5.505 -3.062 5.25 C-1 4 -1 4 -0.25 1.875 C-0.168 1.256 -0.085 0.637 0 0 Z " fill="#303459" transform="translate(62,310)"/>
<path d="M0 0 C0.33 0 0.66 0 1 0 C1 3.3 1 6.6 1 10 C0.01 10.33 -0.98 10.66 -2 11 C-2.66 10.34 -3.32 9.68 -4 9 C-3.01 8.67 -2.02 8.34 -1 8 C-0.67 5.36 -0.34 2.72 0 0 Z " fill="#1A1D41" transform="translate(36,306)"/>
<path d="M0 0 C1.5 1.312 1.5 1.312 3 3 C3 3.99 3 4.98 3 6 C2.34 6 1.68 6 1 6 C1 5.34 1 4.68 1 4 C-0.98 4 -2.96 4 -5 4 C-5 3.67 -5 3.34 -5 3 C-3.35 3 -1.7 3 0 3 C0 2.01 0 1.02 0 0 Z " fill="#3D4162" transform="translate(113,311)"/>
<path d="M0 0 C2.97 0.99 5.94 1.98 9 3 C9 3.33 9 3.66 9 4 C6.69 4 4.38 4 2 4 C1.34 2.68 0.68 1.36 0 0 Z " fill="#2E5A47" transform="translate(182,196)"/>
</svg>
