<?xml version="1.0" encoding="UTF-8"?>
<!-- Generator: visioncortex VTracer 0.6.12 -->
<svg version="1.1" xmlns="http://www.w3.org/2000/svg" width="470" height="356">
<path d="M0 0 C155.1 0 310.2 0 470 0 C470 117.48 470 234.96 470 356 C314.9 356 159.8 356 0 356 C0 238.52 0 121.04 0 0 Z " fill="#FCFCFC" transform="translate(0,0)"/>
<path d="M0 0 C25.603 -0.08 25.603 -0.08 36.592 -0.098 C44.064 -0.11 51.536 -0.124 59.008 -0.151 C65.038 -0.173 71.068 -0.185 77.098 -0.19 C79.388 -0.193 81.678 -0.201 83.968 -0.211 C115.416 -0.355 115.416 -0.355 128.688 4.688 C129.394 4.947 130.1 5.207 130.828 5.475 C153.946 14.304 171.206 31.712 181.312 54 C189.598 74.544 189.58 97.714 180.875 118.188 C172.656 136.282 159.453 150.576 142 160 C140.019 160.721 138.023 161.407 136 162 C136.393 162.573 136.785 163.147 137.19 163.737 C151.565 184.799 151.565 184.799 156 195 C152.237 193.746 151.446 192.078 149 189 C140.473 181.458 131.153 176.028 121 171 C118.423 151.712 118.423 151.712 124.059 144.199 C125.328 142.8 126.643 141.44 128 140.125 C128.324 139.81 128.324 139.81 129.961 138.219 C133.328 135.304 135.879 133.628 140.402 133.492 C144 134 144 134 145.562 136 C146.037 136.66 146.511 137.32 147 138 C150.757 138.335 153.42 138.193 157 137 C157.62 128.787 157.62 128.787 155.375 125.938 C152.264 124.71 150.315 124.447 147 125 C146.423 125.804 145.845 126.609 145.25 127.438 C144.507 128.283 143.765 129.129 143 130 C140.953 130.133 140.953 130.133 138.5 130.062 C132.156 130.326 129.156 134.083 125.023 138.432 C123.651 139.927 122.324 141.462 121 143 C120.463 143.614 119.925 144.228 119.372 144.861 C117.699 147.469 117.578 149.123 117.488 152.203 C117.471 152.693 117.471 152.693 117.381 155.172 C117.358 156.188 117.336 157.203 117.312 158.25 C117.278 159.281 117.244 160.312 117.209 161.375 C117.127 163.917 117.057 166.458 117 169 C114.03 168.67 111.06 168.34 108 168 C107.854 163.959 107.766 159.918 107.688 155.875 C107.646 154.733 107.604 153.591 107.561 152.414 C107.422 142.91 107.422 142.91 110.34 139.344 C112.653 137.306 114.997 135.326 117.406 133.402 C119.241 131.788 120.784 130.042 122.375 128.188 C122.976 127.509 123.576 126.831 124.195 126.133 C126 124 126 124 127.555 121.742 C129.585 119.132 131.081 117.605 134 116 C137.046 115.693 140.069 115.847 143.125 115.938 C149.813 115.999 154.176 115.094 159.277 110.595 C165.637 104.029 168.041 98.547 168.062 89.375 C167.97 87.695 167.878 86.016 167.785 84.336 C167.676 80.536 167.792 80.235 170.5 77.176 C171.325 76.458 172.15 75.74 173 75 C173.475 71.971 172.752 70.058 172 67 C170 65 170 65 166.625 64.625 C163 65 163 65 160.562 66.625 C158.515 69.737 158.314 71.344 159 75 C159.813 75.538 160.627 76.075 161.465 76.629 C164.62 79.58 164.822 81.263 165.104 85.45 C165.171 93.558 164.472 99.588 158.75 105.688 C153.929 110.325 149.563 111.672 142.933 111.872 C138.916 111.785 134.991 111.466 131 111 C130.75 111.577 130.5 112.153 130.243 112.747 C128.826 115.315 127.211 117 125.113 119.047 C124.726 119.428 124.726 119.428 122.768 121.359 C121.957 122.148 121.147 122.937 120.312 123.75 C117.936 126.075 115.568 128.405 113.229 130.768 C111.817 132.182 110.373 133.565 108.89 134.904 C103.916 139.743 103.17 143.733 103.029 150.59 C103.04 151.715 103.051 152.841 103.062 154 C103.046 155.156 103.03 156.313 103.014 157.504 C102.979 160.336 102.985 163.168 103 166 C99.37 165.67 95.74 165.34 92 165 C91.487 148.439 93.575 138.992 104.75 126.25 C105.821 125.01 106.892 123.769 107.961 122.527 C108.48 121.925 108.999 121.323 109.534 120.703 C121.229 107.119 127.187 96.178 126.231 78.04 C125.435 71.013 121.257 65.468 116 61 C115.257 60.299 114.515 59.597 113.75 58.875 C107.643 54.711 100.073 53.022 92.75 52.859 C91.977 52.84 91.203 52.821 90.406 52.801 C88.802 52.767 87.198 52.749 85.594 52.746 C81.141 52.605 79.495 52.412 75.938 49.453 C75.298 48.644 74.659 47.834 74 47 C73.518 47.866 73.036 48.733 72.539 49.625 C72.223 50.182 72.223 50.182 70.625 53 C69.999 54.114 69.372 55.227 68.727 56.375 C68.442 56.808 68.442 56.808 67 59 C66.34 59 65.68 59 65 59 C63.906 57.57 63.906 57.57 62.715 55.555 C62.271 54.813 61.826 54.072 61.368 53.308 C60.896 52.505 60.424 51.702 59.938 50.875 C58.952 49.228 57.965 47.583 56.977 45.938 C56.481 45.11 55.985 44.282 55.474 43.43 C53.315 39.871 51.075 36.368 48.812 32.875 C48.426 32.278 48.04 31.681 47.642 31.066 C46.763 29.709 45.882 28.355 45 27 C42.621 30.022 40.716 33.144 38.855 36.508 C38.558 37.043 38.558 37.043 37.053 39.75 C36.437 40.864 35.822 41.977 35.188 43.125 C30.919 50.832 26.593 58.481 22 66 C20.02 64.35 18.04 62.7 16 61 C15.336 62.062 14.672 63.124 13.988 64.219 C8.676 72.719 8.676 72.719 7.346 74.84 C6.419 76.327 5.5 77.82 4.587 79.316 C4.14 80.047 3.692 80.778 3.23 81.531 C3.028 81.864 3.028 81.864 2.005 83.549 C1.673 84.028 1.342 84.507 1 85 C0.67 85 0.34 85 0 85 C0 56.95 0 28.9 0 0 Z " fill="#C8A30D" transform="translate(144,50)"/>
<path d="M0 0 C0 0.66 0 1.32 0 2 C-5.495 4.584 -10.829 5.979 -16.75 7.25 C-38.006 12.107 -58.77 20.039 -75 35 C-75.703 35.611 -76.405 36.222 -77.129 36.852 C-87.247 46.158 -96.01 60.505 -97.312 74.312 C-97.261 74.756 -97.261 74.756 -97 77 C-96.01 77.66 -95.02 78.32 -94 79 C-94 79.66 -94 80.32 -94 81 C-96.64 81.33 -99.28 81.66 -102 82 C-101.567 82.554 -101.134 83.109 -100.688 83.68 C-100.409 84.042 -100.409 84.042 -99 85.875 C-98.443 86.594 -97.886 87.314 -97.312 88.055 C-96 90 -96 90 -96 92 C-95.711 92.124 -95.711 92.124 -94.25 92.75 C-91.7 94.167 -89.982 95.876 -88 98 C-91.062 99.784 -93.221 100.229 -96.75 100.125 C-97.549 100.107 -98.348 100.089 -99.172 100.07 C-99.775 100.047 -100.378 100.024 -101 100 C-96.494 105.548 -91.849 109.912 -86 114 C-84.664 114.996 -83.329 115.995 -82 117 C-89.404 120.627 -96.885 120.741 -105 120 C-105.99 119.34 -106.98 118.68 -108 118 C-108 120.31 -108 122.62 -108 125 C-106.728 124.675 -105.455 124.35 -104.145 124.016 C-98.953 122.867 -93.988 122.696 -88.688 122.75 C-87.773 122.754 -86.858 122.758 -85.915 122.762 C-79.107 122.848 -72.648 123.458 -66 125 C-66.424 124.513 -66.848 124.025 -67.285 123.523 C-79.261 109.047 -82.359 94.454 -81 76 C-77.505 56.508 -63.803 40.205 -48 29 C-39.097 22.903 -29.841 17.675 -20 13.25 C-19.228 12.902 -18.457 12.555 -17.662 12.197 C-15.802 11.396 -13.904 10.688 -12 10 C-11.67 10.165 -11.67 10.165 -10 11 C-10.739 11.473 -11.477 11.946 -12.238 12.434 C-30.473 24.32 -46.25 38.7 -51.523 60.777 C-54.357 79.938 -50.251 98.96 -38.969 114.863 C-30.798 125.264 -21.602 132.63 -10.223 139.152 C-8.107 140.365 -6.029 141.647 -4 143 C-26.364 144.093 -45.953 142.132 -67.482 135.995 C-75.946 133.602 -84.19 131.39 -93 131 C-93.669 130.967 -94.338 130.935 -95.028 130.901 C-105.557 130.45 -114.767 131.196 -124.875 134.223 C-128 135 -128 135 -131 134 C-129.067 132.825 -127.129 131.661 -125.188 130.5 C-124.648 130.175 -124.648 130.175 -121.918 128.531 C-119 127 -119 127 -116 127 C-116 124.36 -116 121.72 -116 119 C-116.508 119.16 -117.016 119.32 -117.539 119.484 C-120.841 120.176 -124.003 120.21 -127.375 120.25 C-128.661 120.276 -129.948 120.302 -131.273 120.328 C-135.211 119.981 -137.62 118.988 -141 117 C-139.701 114.403 -138.466 114.131 -135.875 112.875 C-130.36 109.924 -125.825 105.65 -123 100 C-123.338 100.017 -123.338 100.017 -125.047 100.105 C-125.939 100.133 -126.831 100.16 -127.75 100.188 C-128.191 100.205 -128.191 100.205 -130.422 100.293 C-133.447 99.949 -134.756 98.998 -137 97 C-136.42 96.599 -135.84 96.198 -135.242 95.785 C-129.418 91.547 -125.6 87.227 -122 81 C-124.97 81 -127.94 81 -131 81 C-131 80.34 -131 79.68 -131 79 C-130.134 78.34 -129.267 77.68 -128.375 77 C-124.001 73.553 -121.637 68.816 -119 64 C-119.99 64.33 -119.99 64.33 -125 66 C-125 66.66 -125 67.32 -125 68 C-125.66 68 -126.32 68 -127 68 C-126.158 51.158 -116.383 37.259 -104.453 26.016 C-88.62 11.782 -66.234 4.937 -45.242 4.824 C-43.547 4.801 -41.852 4.777 -40.156 4.752 C-37.524 4.717 -34.892 4.688 -32.259 4.674 C-22.384 4.614 -13.704 4.255 -4.34 0.851 C-2 0 -2 0 0 0 Z " fill="#185922" transform="translate(251,167)"/>
<path d="M0 0 C23.524 -0.69 46.294 2.769 64.438 19.43 C69.86 24.879 74.506 30.902 79.165 37.001 C92.59 54.563 107.4 71.864 130 77 C121.117 85.391 102.9 85.651 91.407 85.455 C71.37 84.687 52.755 77.014 38.938 62.246 C29.24 51.004 21.592 38.724 14 26 C13.358 24.924 12.716 23.848 12.054 22.739 C10.09 19.435 8.136 16.126 6.188 12.812 C5.57 11.767 4.953 10.721 4.317 9.643 C3.752 8.674 3.188 7.705 2.605 6.707 C2.102 5.846 1.598 4.984 1.079 4.097 C0 2 0 2 0 0 Z " fill="#042554" transform="translate(222,223)"/>
<path d="M0 0 C3.716 3.569 6.936 7.34 10.062 11.438 C15.791 18.845 21.852 25.939 28 33 C27.667 32.072 27.335 31.144 26.992 30.188 C25.844 26.5 25.924 24.689 27 21 C28.938 17.625 28.938 17.625 31 15 C31.66 15 32.32 15 33 15 C34.321 16.719 35.553 18.506 36.75 20.312 C40.694 26.169 44.802 31.886 49 37.562 C49.599 38.374 50.197 39.185 50.814 40.021 C53.487 43.635 56.172 47.238 58.898 50.812 C59.323 51.37 59.747 51.927 60.184 52.502 C61.292 53.954 62.408 55.401 63.523 56.848 C65 59 65 59 65 61 C55.778 65.508 46.321 66.307 36.172 66.09 C34.134 66.069 32.096 66.049 30.059 66.029 C26.908 65.986 23.758 65.938 20.608 65.884 C-3.375 65.503 -27.027 68.26 -45.48 85.289 C-46.869 86.68 -48.237 88.091 -49.574 89.531 C-50.045 90.016 -50.515 90.501 -51 91 C-51.33 91 -51.66 91 -52 91 C-53.799 67.651 -40.758 48.422 -28 30 C-23.524 31.563 -19.857 33.898 -15.938 36.5 C-8.56 41.366 -8.56 41.366 -5 43 C-5.733 42.047 -6.467 41.095 -7.223 40.113 C-8.17 38.847 -9.117 37.58 -10.062 36.312 C-10.548 35.687 -11.033 35.061 -11.533 34.416 C-11.988 33.8 -12.442 33.185 -12.91 32.551 C-13.334 31.99 -13.759 31.43 -14.196 30.853 C-15.351 28.193 -14.851 26.746 -14 24 C-13.097 22.138 -12.122 20.311 -11.094 18.516 C-10.515 17.499 -9.936 16.481 -9.34 15.434 C-8.733 14.383 -8.126 13.332 -7.5 12.25 C-6.893 11.184 -6.286 10.118 -5.66 9.02 C-1.171 1.171 -1.171 1.171 0 0 Z " fill="#1A5B23" transform="translate(188,97)"/>
<path d="M0 0 C0.33 0.165 0.33 0.165 2 1 C1.631 1.237 1.631 1.237 -0.238 2.434 C-18.473 14.32 -34.25 28.7 -39.523 50.777 C-42.357 69.938 -38.251 88.96 -26.969 104.863 C-18.798 115.264 -9.602 122.63 1.777 129.152 C3.893 130.365 5.971 131.647 8 133 C3.195 133.074 -1.611 133.129 -6.417 133.165 C-8.052 133.18 -9.687 133.2 -11.323 133.226 C-13.671 133.263 -16.019 133.28 -18.367 133.293 C-19.101 133.308 -19.834 133.324 -20.59 133.34 C-22.652 133.341 -22.652 133.341 -26 133 C-26.66 132.01 -27.32 131.02 -28 130 C-29.777 129.297 -29.777 129.297 -31.938 128.75 C-37.042 127.202 -41.065 124.584 -45.477 121.637 C-48 120 -48 120 -51.562 118.312 C-54.498 116.732 -54.586 115.946 -56 113 C-57.853 110.114 -59.729 107.247 -61.635 104.396 C-69.91 91.771 -70.95 76.876 -68.316 62.188 C-61.198 37.614 -41.945 21.462 -20.417 9.302 C-16.354 7.114 -12.207 5.142 -8 3.25 C-7.228 2.902 -6.457 2.555 -5.662 2.197 C-3.802 1.396 -1.904 0.688 0 0 Z " fill="#052855" transform="translate(239,177)"/>
<path d="M0 0 C0.66 0 1.32 0 2 0 C2 117.48 2 234.96 2 356 C-153.1 356 -308.2 356 -468 356 C-468 355.67 -468 355.34 -468 355 C-434.438 354.822 -400.875 354.657 -367.312 354.5 C-366.041 354.494 -364.77 354.488 -363.46 354.482 C-298.604 354.179 -233.748 353.957 -168.891 353.934 C-168.254 353.933 -168.254 353.933 -165.033 353.932 C-110.022 353.913 -55.011 353.967 0 354 C0 237.18 0 120.36 0 0 Z " fill="#9B9B9C" transform="translate(468,0)"/>
<path d="M0 0 C2.329 1.242 2.789 2.331 3.57 4.805 C4.393 8.767 4.393 8.767 4 11 C3.183 11.706 2.365 12.413 1.523 13.141 C-2.523 17.726 -1.499 22.651 -1.273 28.52 C-1.273 34.987 -1.273 34.987 -3.462 38.039 C-5.237 39.8 -7.077 41.404 -9 43 C-10.31 44.442 -11.607 45.896 -12.875 47.375 C-15.972 50.972 -15.972 50.972 -17 52 C-18.253 51.954 -19.506 51.907 -20.797 51.859 C-34.607 51.41 -34.607 51.41 -39.941 55.711 C-43.276 58.881 -46.163 62.387 -49 66 C-50.162 67.337 -51.328 68.671 -52.5 70 C-53.325 70.99 -54.15 71.98 -55 73 C-59.583 77.792 -59.583 77.792 -62 79 C-62 78.34 -62 77.68 -62 77 C-62.825 77.33 -62.825 77.33 -67 79 C-65.694 76.144 -64.279 73.998 -62.129 71.715 C-61.559 71.107 -60.99 70.498 -60.403 69.872 C-59.796 69.233 -59.188 68.595 -58.562 67.938 C-57.942 67.278 -57.321 66.618 -56.681 65.939 C-51.894 60.878 -46.995 55.941 -42.012 51.074 C-40 49 -40 49 -39 47 C-38.348 47.034 -38.348 47.034 -35.047 47.203 C-19.607 47.537 -19.607 47.537 -13.35 42.6 C-7.529 37.016 -6.033 31.73 -5.75 23.75 C-5.74 20.816 -5.841 17.932 -6 15 C-6.309 14.856 -6.309 14.856 -7.875 14.125 C-10 13 -10 13 -12 11 C-12.624 6.987 -12.329 5.459 -9.938 2.125 C-6.291 -0.513 -4.411 -0.653 0 0 Z " fill="#FDF9EC" transform="translate(314,114)"/>
<path d="M0 0 C3.375 2.125 3.375 2.125 6 5 C6.833 9 6.357 10.453 4.125 13.875 C3.424 14.576 2.723 15.278 2 16 C1.34 16 0.68 16 0 16 C0.052 17.068 0.105 18.137 0.159 19.238 C0.341 23.244 0.455 27.25 0.549 31.259 C0.599 32.986 0.667 34.712 0.754 36.438 C1.451 50.596 1.451 50.596 -2.055 56.405 C-5.558 60.111 -8.103 62.664 -13.22 63.57 C-15.901 63.621 -18.36 63.452 -21 63 C-20.67 61.35 -20.34 59.7 -20 58 C-18.112 57.935 -16.224 57.87 -14.336 57.805 C-10.643 56.533 -8.265 54.15 -6 51 C-5.402 47.985 -5.158 45.758 -5.195 42.758 C-5.182 41.989 -5.168 41.221 -5.154 40.429 C-5.117 37.994 -5.12 35.561 -5.125 33.125 C-5.107 31.466 -5.086 29.807 -5.062 28.148 C-5.011 24.099 -4.996 20.05 -5 16 C-5.309 15.948 -5.309 15.948 -6.875 15.688 C-9 15 -9 15 -11 12 C-11.335 8.985 -11.566 6.9 -11 4 C-7.737 0.161 -4.953 -0.91 0 0 Z " fill="#FDF9EF" transform="translate(294,89)"/>
<path d="M0 0 C6.002 3.926 11.772 7.027 18.551 9.395 C18.551 10.055 18.551 10.715 18.551 11.395 C12.956 10.795 7.682 9.797 2.246 8.363 C0.677 7.961 -0.892 7.558 -2.461 7.156 C-4.892 6.527 -7.323 5.895 -9.753 5.26 C-26.358 0.938 -26.358 0.938 -33.606 0.65 C-35.449 0.395 -35.449 0.395 -38.449 -1.605 C-41.586 -2.02 -41.586 -2.02 -45.137 -2.23 C-46.316 -2.305 -47.496 -2.38 -48.711 -2.457 C-49.615 -2.506 -50.518 -2.555 -51.449 -2.605 C-50.954 -3.08 -50.459 -3.554 -49.949 -4.043 C-48.449 -5.605 -48.449 -5.605 -48.449 -6.605 C-32.176 -9.358 -14.16 -9.282 0 0 Z " fill="#20612A" transform="translate(193.44921875,297.60546875)"/>
<path d="M0 0 C24.42 0 48.84 0 74 0 C74 0.33 74 0.66 74 1 C73.443 1.072 73.443 1.072 70.625 1.438 C67 2 67 2 65 3 C62.981 2.394 60.977 1.731 59 1 C58.67 1.66 58.34 2.32 58 3 C58 2.34 58 1.68 58 1 C57.501 1.082 57.501 1.082 54.975 1.496 C51.102 2.047 47.321 2.098 43.406 2.062 C42.697 2.059 41.988 2.055 41.257 2.051 C38.263 2.035 35.268 2.007 32.273 1.979 C22.127 1.894 12.117 2.17 2 3 C2.005 3.856 2.01 4.712 2.016 5.594 C2.14 29.413 1.723 53.192 1 77 C1.99 77 2.98 77 4 77 C4.206 76.237 4.412 75.474 4.625 74.688 C6.559 69.501 9.279 64.81 12 60 C12.66 60 13.32 60 14 60 C14.33 59.01 14.66 58.02 15 57 C17.169 57.506 19 58 21 59 C25.076 55.49 26.931 52.302 28.957 47.348 C30.327 44.264 32.085 41.532 33.949 38.727 C35 37 35 37 36 34 C36.66 34 37.32 34 38 34 C38.083 33.299 38.165 32.597 38.25 31.875 C39.17 28.347 40.881 25.939 43 23 C47.254 24.515 49.209 27.65 51.625 31.25 C51.822 31.53 51.822 31.53 52.82 32.949 C55.25 36.503 56.834 39.862 58 44 C54.115 40.388 51.367 36.749 48.688 32.188 C48.328 31.59 47.969 30.993 47.6 30.377 C46.727 28.922 45.862 27.461 45 26 C42.621 29.022 40.716 32.144 38.855 35.508 C38.558 36.043 38.558 36.043 37.053 38.75 C36.437 39.864 35.822 40.977 35.188 42.125 C30.919 49.832 26.593 57.481 22 65 C20.02 63.35 18.04 61.7 16 60 C15.336 61.062 14.672 62.124 13.988 63.219 C8.676 71.719 8.676 71.719 7.346 73.84 C6.419 75.327 5.5 76.82 4.587 78.316 C4.14 79.047 3.692 79.778 3.23 80.531 C3.028 80.864 3.028 80.864 2.005 82.549 C1.673 83.028 1.342 83.507 1 84 C0.67 84 0.34 84 0 84 C0 56.28 0 28.56 0 0 Z " fill="#1E4A0F" transform="translate(144,51)"/>
<path d="M0 0 C3.844 0.706 5.489 1.611 8.062 4.562 C8.7 8.528 8.682 10.595 6.5 14 C3.157 16.143 0.958 16.058 -2.938 15.562 C-4.875 14.188 -4.875 14.188 -5.938 12.562 C-5.938 11.903 -5.938 11.243 -5.938 10.562 C-12.907 10.685 -12.907 10.685 -15.887 13.223 C-17.061 14.503 -18.2 15.817 -19.297 17.164 C-19.838 17.626 -20.38 18.087 -20.938 18.562 C-23.031 18.184 -23.031 18.184 -24.938 17.562 C-26.688 19 -26.688 19 -27.938 20.562 C-28.598 20.233 -29.257 19.903 -29.938 19.562 C-18.954 7.185 -18.954 7.185 -13.988 5.652 C-11.375 5.562 -11.375 5.562 -8.949 5.66 C-8.285 5.628 -7.621 5.596 -6.938 5.562 C-2.468 0.473 -2.468 0.473 0 0 Z " fill="#FDF9EF" transform="translate(293.9375,173.4375)"/>
<path d="M0 0 C4.254 1.515 6.209 4.65 8.625 8.25 C9.019 8.811 9.414 9.371 9.82 9.949 C12.25 13.503 13.834 16.862 15 21 C11.115 17.388 8.367 13.749 5.688 9.188 C5.328 8.59 4.969 7.993 4.6 7.377 C3.727 5.922 2.862 4.461 2 3 C-0.379 6.022 -2.284 9.144 -4.145 12.508 C-4.739 13.578 -5.334 14.648 -5.947 15.75 C-6.563 16.864 -7.178 17.977 -7.812 19.125 C-12.081 26.832 -16.407 34.481 -21 42 C-22.98 40.35 -24.96 38.7 -27 37 C-28.585 39.52 -30.168 42.041 -31.75 44.562 C-32.193 45.267 -32.637 45.971 -33.094 46.697 C-35.838 51.076 -38.467 55.496 -41 60 C-41.33 60 -41.66 60 -42 60 C-42 58.02 -42 56.04 -42 54 C-41.01 54 -40.02 54 -39 54 C-38.794 53.237 -38.588 52.474 -38.375 51.688 C-36.441 46.501 -33.721 41.81 -31 37 C-30.34 37 -29.68 37 -29 37 C-28.67 36.01 -28.34 35.02 -28 34 C-25.831 34.506 -24 35 -22 36 C-17.924 32.49 -16.069 29.302 -14.043 24.348 C-12.673 21.264 -10.915 18.532 -9.051 15.727 C-8 14 -8 14 -7 11 C-6.34 11 -5.68 11 -5 11 C-4.917 10.299 -4.835 9.597 -4.75 8.875 C-3.83 5.347 -2.119 2.939 0 0 Z " fill="#255A21" transform="translate(187,74)"/>
<path d="M0 0 C0.66 0.33 1.32 0.66 2 1 C1.238 1.485 0.476 1.969 -0.309 2.469 C-6.415 6.433 -11.983 10.507 -17.258 15.531 C-19 17 -19 17 -21 17 C-21 16.34 -21 15.68 -21 15 C-21.99 14.67 -22.98 14.34 -24 14 C-22.958 10.638 -21.906 9.947 -18.77 8.184 C-17.456 7.589 -16.137 7.007 -14.812 6.438 C-14.165 6.147 -13.517 5.856 -12.85 5.557 C-11.551 4.977 -10.25 4.406 -8.944 3.843 C-7.629 3.273 -6.321 2.685 -5.021 2.083 C-3.373 1.33 -1.688 0.658 0 0 Z " fill="#17244E" transform="translate(239,177)"/>
<path d="M0 0 C0.66 0.33 1.32 0.66 2 1 C1.587 1.34 1.587 1.34 -0.5 3.062 C-4.267 7.486 -3.326 12.752 -3.078 18.246 C-2.999 22.025 -3.368 25.29 -4 29 C-2.68 29 -1.36 29 0 29 C1.834 25.331 1.373 20.747 1.518 16.678 C1.609 14.781 1.797 12.889 2 11 C2.66 10.67 3.32 10.34 4 10 C4 17.26 4 24.52 4 32 C1.03 31.67 -1.94 31.34 -5 31 C-5.146 26.959 -5.234 22.918 -5.312 18.875 C-5.354 17.733 -5.396 16.591 -5.439 15.414 C-5.578 5.912 -5.578 5.912 -2.48 2.195 C-1.662 1.471 -0.843 0.746 0 0 Z " fill="#FABF3D" transform="translate(257,187)"/>
<path d="M0 0 C1 3 1 3 0.223 4.824 C-0.852 6.549 -1.926 8.275 -3 10 C-4.98 8.35 -6.96 6.7 -9 5 C-10.585 7.52 -12.168 10.041 -13.75 12.562 C-14.193 13.267 -14.637 13.971 -15.094 14.697 C-17.838 19.076 -20.467 23.496 -23 28 C-23.33 28 -23.66 28 -24 28 C-24 26.02 -24 24.04 -24 22 C-23.01 22 -22.02 22 -21 22 C-20.897 21.618 -20.897 21.618 -20.375 19.688 C-18.441 14.501 -15.721 9.81 -13 5 C-12.34 5 -11.68 5 -11 5 C-10.67 4.01 -10.34 3.02 -10 2 C-7.831 2.506 -6 3 -4 4 C-2.68 2.68 -1.36 1.36 0 0 Z " fill="#1D5624" transform="translate(169,106)"/>
<path d="M0 0 C1.688 1.938 1.688 1.938 3 4 C5.688 4.75 5.688 4.75 8 5 C8 5.33 8 5.66 8 6 C5.188 6.188 5.188 6.188 2 6 C1.526 5.505 1.051 5.01 0.562 4.5 C-1 3 -1 3 -4.234 2.582 C-8.866 3.096 -10.809 4.888 -13.812 8.188 C-14.289 8.67 -14.765 9.153 -15.256 9.65 C-20.841 15.503 -21.332 20.582 -21.625 28.312 C-21.664 29.148 -21.702 29.984 -21.742 30.846 C-21.836 32.897 -21.919 34.948 -22 37 C-22.33 37 -22.66 37 -23 37 C-25.577 17.712 -25.577 17.712 -19.941 10.199 C-18.672 8.8 -17.357 7.44 -16 6.125 C-15.353 5.496 -14.706 4.867 -14.039 4.219 C-9.334 0.146 -6.182 -0.864 0 0 Z " fill="#FAC133" transform="translate(288,184)"/>
<path d="M0 0 C0 0.66 0 1.32 0 2 C-11.409 7.578 -23.172 7.219 -35.562 7 C-38.626 6.947 -41.69 6.907 -44.754 6.875 C-45.453 6.858 -46.152 6.842 -46.872 6.825 C-48.582 6.807 -50.293 6.895 -52 7 C-52.66 7.66 -53.32 8.32 -54 9 C-54 8.34 -54 7.68 -54 7 C-56.31 7 -58.62 7 -61 7 C-61 6.67 -61 6.34 -61 6 C-55.706 5.123 -50.603 4.853 -45.242 4.824 C-43.547 4.801 -41.852 4.777 -40.156 4.752 C-37.524 4.717 -34.892 4.688 -32.259 4.674 C-22.384 4.614 -13.704 4.255 -4.34 0.851 C-2 0 -2 0 0 0 Z " fill="#67906C" transform="translate(251,167)"/>
<path d="M0 0 C0.33 0.66 0.66 1.32 1 2 C0.528 2.695 0.056 3.39 -0.43 4.105 C-2.48 7.886 -2.281 11.14 -2.125 15.312 C-2.105 16.922 -2.089 18.531 -2.074 20.141 C-2.042 22.513 -2.003 24.884 -1.94 27.256 C-1.691 39.106 -1.691 39.106 -5.07 43.996 C-7.276 46.213 -9.473 48.162 -12 50 C-12.66 49.67 -13.32 49.34 -14 49 C-13.68 48.785 -13.68 48.785 -12.06 47.695 C-7.839 44.305 -4.906 41.325 -4.228 35.837 C-3.928 30.932 -4.045 26.034 -4.188 21.125 C-4.234 18.577 -4.267 16.03 -4.278 13.481 C-4.288 11.904 -4.319 10.327 -4.375 8.75 C-4.403 6.594 -4.403 6.594 -4 3 C-1.982 0.996 -1.982 0.996 0 0 Z " fill="#FBBC20" transform="translate(298,102)"/>
<path d="M0 0 C0.99 0.33 1.98 0.66 3 1 C5.566 1.227 8.117 1.416 10.688 1.562 C11.038 1.584 11.038 1.584 12.814 1.693 C14.543 1.799 16.271 1.9 18 2 C16.029 4.756 14.827 5.035 11.426 5.73 C10.056 5.896 8.685 6.048 7.312 6.188 C6.962 6.228 6.962 6.228 5.186 6.436 C3.458 6.635 1.729 6.819 0 7 C0 4.69 0 2.38 0 0 Z " fill="#E0EBE0" transform="translate(143,285)"/>
<path d="M0 0 C4.254 1.515 6.209 4.65 8.625 8.25 C9.019 8.811 9.414 9.371 9.82 9.949 C12.25 13.503 13.834 16.862 15 21 C11.115 17.388 8.367 13.749 5.688 9.188 C5.328 8.59 4.969 7.993 4.6 7.377 C3.727 5.922 2.862 4.461 2 3 C1.546 3.619 1.093 4.237 0.625 4.875 C-1 7 -1 7 -3 9 C-3.33 8.01 -3.66 7.02 -4 6 C-2.062 2.812 -2.062 2.812 0 0 Z " fill="#3F691F" transform="translate(187,74)"/>
<path d="M0 0 C0.99 0.33 1.98 0.66 3 1 C1.125 4.875 1.125 4.875 0 6 C-1.853 6.072 -3.708 6.084 -5.562 6.062 C-6.574 6.053 -7.586 6.044 -8.629 6.035 C-9.411 6.024 -10.194 6.012 -11 6 C-10.67 4.68 -10.34 3.36 -10 2 C-8.721 2.041 -7.442 2.083 -6.125 2.125 C-3.945 2.195 -3.945 2.195 -2 2 C-1.34 1.34 -0.68 0.68 0 0 Z " fill="#FEFAF2" transform="translate(284,146)"/>
<path d="M0 0 C2.469 0.902 2.469 0.902 5 3 C5.736 6.19 5.606 9.305 5.5 12.562 C5.503 13.438 5.505 14.314 5.508 15.217 C5.434 20.012 5.434 20.012 5 22 C4.01 22.66 3.02 23.32 2 24 C1.921 19.653 2.024 15.61 2.688 11.312 C3.203 7.27 2.507 5.309 0 2 C0 1.34 0 0.68 0 0 Z " fill="#FCC133" transform="translate(303,126)"/>
<path d="M0 0 C1.333 1.667 1.333 1.667 8 10 C10.599 7.531 12.79 4.819 15 2 C14.342 5.297 13.106 7.841 11.438 10.75 C10.982 11.549 10.527 12.348 10.059 13.172 C9.709 13.775 9.36 14.378 9 15 C8.34 15 7.68 15 7 15 C5.501 12.9 4.144 10.827 2.812 8.625 C2.622 8.323 2.622 8.323 1.658 6.797 C0.704 5.238 -0.156 3.622 -1 2 C-0.67 1.34 -0.34 0.68 0 0 Z " fill="#948A1F" transform="translate(202,94)"/>
<path d="M0 0 C3.037 2.599 4.462 5.621 6.188 9.188 C6.717 10.274 7.247 11.361 7.793 12.48 C8.191 13.312 8.59 14.143 9 15 C5.234 13.745 4.451 12.081 2 9 C0.061 7.242 -1.949 5.631 -4 4 C-2.333 4 -0.667 4 1 4 C0.67 2.68 0.34 1.36 0 0 Z " fill="#FCC127" transform="translate(291,230)"/>
<path d="M0 0 C0.66 0.33 1.32 0.66 2 1 C1.587 1.34 1.587 1.34 -0.5 3.062 C-4.267 7.486 -3.326 12.752 -3.078 18.246 C-2.999 22.025 -3.368 25.29 -4 29 C-3.01 29.33 -2.02 29.66 -1 30 C-2.32 30 -3.64 30 -5 30 C-5.146 26.125 -5.234 22.252 -5.312 18.375 C-5.333 17.828 -5.333 17.828 -5.439 15.059 C-5.578 5.943 -5.578 5.943 -2.48 2.227 C-1.662 1.492 -0.843 0.757 0 0 Z " fill="#F9B20C" transform="translate(257,187)"/>
<path d="M0 0 C2.125 0.375 2.125 0.375 4 1 C4.382 2.656 4.714 4.325 5 6 C4 7 4 7 1.438 7.062 C1.035 7.052 1.035 7.052 -1 7 C-1.625 4.625 -1.625 4.625 -2 2 C-1.34 1.34 -0.68 0.68 0 0 Z " fill="#FCC024" transform="translate(290,94)"/>
<path d="M0 0 C-0.195 1.887 -0.195 1.887 -1 4 C-3.18 5.082 -3.18 5.082 -5.875 5.812 C-6.317 5.939 -6.317 5.939 -8.555 6.582 C-11 7 -11 7 -14 6 C-12.424 4.989 -10.839 3.992 -9.25 3 C-8.368 2.443 -7.487 1.886 -6.578 1.312 C-4 0 -4 0 0 0 Z " fill="#295D2F" transform="translate(134,295)"/>
<path d="M0 0 C0.66 0.66 1.32 1.32 2 2 C0.275 3.921 -1.454 5.837 -3.188 7.75 C-3.67 8.289 -4.153 8.828 -4.65 9.383 C-7.562 12.587 -10.527 15.384 -14 18 C-12.387 14.123 -9.851 11.483 -7 8.438 C-4.426 5.68 -2.094 3.14 0 0 Z " fill="#F6B41A" transform="translate(259,164)"/>
<path d="M0 0 C11.706 0.41 11.706 0.41 16 5 C13.36 5 10.72 5 8 5 C7.67 4.34 7.34 3.68 7 3 C4.686 2.269 2.352 1.599 0 1 C0 0.67 0 0.34 0 0 Z " fill="#052C3C" transform="translate(204,304)"/>
<path d="M0 0 C0.33 0.66 0.66 1.32 1 2 C0.54 2.715 0.08 3.431 -0.395 4.168 C-2.382 7.674 -2.5 10.307 -2.688 14.312 C-2.753 15.567 -2.819 16.821 -2.887 18.113 C-2.924 19.066 -2.961 20.019 -3 21 C-3.33 21 -3.66 21 -4 21 C-4.108 18.062 -4.187 15.127 -4.25 12.188 C-4.284 11.354 -4.317 10.521 -4.352 9.662 C-4.388 7.374 -4.385 5.257 -4 3 C-1.984 0.926 -1.984 0.926 0 0 Z " fill="#FCC035" transform="translate(298,102)"/>
<path d="M0 0 C2.64 0.33 5.28 0.66 8 1 C8 1.99 8 2.98 8 4 C4.37 4 0.74 4 -3 4 C-2.01 3.01 -1.02 2.02 0 1 C0 0.67 0 0.34 0 0 Z " fill="#20702D" transform="translate(145,291)"/>
<path d="M0 0 C0.66 0.33 1.32 0.66 2 1 C-1.63 3.31 -5.26 5.62 -9 8 C-9.33 7.34 -9.66 6.68 -10 6 C-10.66 5.67 -11.32 5.34 -12 5 C-10.046 4.136 -8.086 3.284 -6.125 2.438 C-5.034 1.962 -3.944 1.486 -2.82 0.996 C-1.89 0.667 -0.959 0.339 0 0 Z " fill="#434A70" transform="translate(239,177)"/>
<path d="M0 0 C0.99 0.33 1.98 0.66 3 1 C-0.3 3.97 -3.6 6.94 -7 10 C-7.66 9.67 -8.32 9.34 -9 9 C-6.03 6.03 -3.06 3.06 0 0 Z " fill="#104B19" transform="translate(148,192)"/>
<path d="M0 0 C2.19 3.285 2.998 6.207 4 10 C-1.875 5.375 -1.875 5.375 -3 2 C-2.01 1.34 -1.02 0.68 0 0 Z " fill="#CFDDD0" transform="translate(213,121)"/>
<path d="M0 0 C3.277 1.053 4.605 2.638 6.312 5.5 C6.869 6.655 7.426 7.81 8 9 C7.67 9.66 7.34 10.32 7 11 C5.831 9.356 4.664 7.71 3.5 6.062 C2.85 5.146 2.201 4.229 1.531 3.285 C0 1 0 1 0 0 Z " fill="#5C7119" transform="translate(194,84)"/>
<path d="M0 0 C1.32 0 2.64 0 4 0 C4 1.98 4 3.96 4 6 C3.34 6 2.68 6 2 6 C2 5.34 2 4.68 2 4 C1.01 3.67 0.02 3.34 -1 3 C-0.67 2.01 -0.34 1.02 0 0 Z " fill="#0C1E49" transform="translate(216,188)"/>
<path d="M0 0 C2.31 0.33 4.62 0.66 7 1 C4.64 3.097 3.454 3.969 0.25 4.188 C-0.121 4.157 -0.121 4.157 -2 4 C-1.34 3.67 -0.68 3.34 0 3 C0 2.01 0 1.02 0 0 Z " fill="#104616" transform="translate(162,282)"/>
<path d="M0 0 C2.31 0 4.62 0 7 0 C6.34 1.65 5.68 3.3 5 5 C4.01 4.34 3.02 3.68 2 3 C2.33 2.34 2.66 1.68 3 1 C2.01 0.67 1.02 0.34 0 0 Z " fill="#C2D5C4" transform="translate(122,248)"/>
<path d="M0 0 C0 0.66 0 1.32 0 2 C-1.485 2.495 -1.485 2.495 -9 5 C-9.66 4.34 -10.32 3.68 -11 3 C-9.543 2.496 -8.084 1.997 -6.625 1.5 C-5.813 1.222 -5.001 0.943 -4.164 0.656 C-2 0 -2 0 0 0 Z " fill="#93B397" transform="translate(251,167)"/>
<path d="M0 0 C0.33 0 0.66 0 1 0 C1.392 2.664 1.406 4.392 -0.113 6.668 C-1.364 8.151 -2.679 9.58 -4 11 C-4 7.804 -3.453 6.583 -2 3.812 C-1.629 3.097 -1.257 2.382 -0.875 1.645 C-0.731 1.373 -0.731 1.373 0 0 Z " fill="#FBC233" transform="translate(267,151)"/>
<path d="M0 0 C0.66 0.165 0.66 0.165 4 1 C4 2.32 4 3.64 4 5 C3.175 4.67 3.175 4.67 -1 3 C-0.67 2.01 -0.34 1.02 0 0 Z " fill="#FBBB12" transform="translate(290,94)"/>
<path d="M0 0 C5.75 1.75 5.75 1.75 8 4 C6.02 4.33 4.04 4.66 2 5 C1.34 3.35 0.68 1.7 0 0 Z " fill="#1C6D30" transform="translate(198,302)"/>
<path d="M0 0 C1.65 0 3.3 0 5 0 C5.33 0.99 5.66 1.98 6 3 C5.01 3.66 4.02 4.32 3 5 C1.5 3.625 1.5 3.625 0 2 C0 1.34 0 0.68 0 0 Z " fill="#C9D8CA" transform="translate(150,267)"/>
<path d="M0 0 C2.31 0 4.62 0 7 0 C7.33 0.66 7.66 1.32 8 2 C2.25 3.125 2.25 3.125 0 2 C0 1.34 0 0.68 0 0 Z " fill="#206826" transform="translate(219,174)"/>
</svg>
