<?xml version="1.0" encoding="UTF-8"?>
<!-- Generator: visioncortex VTracer 0.6.12 -->
<svg version="1.1" xmlns="http://www.w3.org/2000/svg" width="582" height="356">
<path d="M0 0 C192.06 0 384.12 0 582 0 C582 117.48 582 234.96 582 356 C389.94 356 197.88 356 0 356 C0 238.52 0 121.04 0 0 Z " fill="#FCFCFD" transform="translate(0,0)"/>
<path d="M0 0 C5.534 4.116 9.353 9.269 11 16 C12.078 25.266 11.732 33.371 6 41 C0.807 46.725 -5.143 50.844 -13.051 51.504 C-14.471 51.548 -15.892 51.567 -17.312 51.562 C-18.057 51.56 -18.802 51.558 -19.569 51.555 C-27.916 51.278 -32.941 47.926 -38.875 42.25 C-43.909 34.551 -46.267 27.228 -45 18 C-42.957 9.383 -38.221 3.561 -30.973 -1.383 C-21.496 -6.43 -9.069 -5.484 0 0 Z " fill="#0A1A42" transform="translate(181,124)"/>
<path d="M0 0 C0.66 0 1.32 0 2 0 C2 116.82 2 233.64 2 354 C193.4 354 384.8 354 582 354 C582 354.66 582 355.32 582 356 C389.94 356 197.88 356 0 356 C0 238.52 0 121.04 0 0 Z " fill="#929192" transform="translate(0,0)"/>
<path d="M0 0 C4.641 -0.062 9.281 -0.124 14.062 -0.188 C14.788 -0.201 14.788 -0.201 18.457 -0.27 C26.274 -0.321 31.445 -0.039 37.996 4.332 C41.797 8.236 42.502 11.58 42.75 17 C42.508 22.553 41.688 25.876 37.801 29.863 C35.579 31.266 33.581 31.626 31 32 C32.769 34.584 34.541 37.167 36.312 39.75 C36.812 40.48 37.312 41.209 37.826 41.961 C38.313 42.67 38.799 43.379 39.301 44.109 C39.746 44.759 40.191 45.408 40.65 46.077 C41.616 47.453 42.628 48.797 43.669 50.118 C45 52 45 52 45 54 C40.598 55.264 37.366 55.495 33 54 C27.981 49.014 24.076 42.345 21 36 C21 35.34 21 34.68 21 34 C17.37 34 13.74 34 10 34 C10 40.6 10 47.2 10 54 C6.7 54 3.4 54 0 54 C0 36.18 0 18.36 0 0 Z " fill="#061841" transform="translate(79,121)"/>
<path d="M0 0 C3.63 0 7.26 0 11 0 C11.808 1.423 12.616 2.846 13.449 4.312 C14.529 6.208 15.608 8.104 16.688 10 C17.218 10.935 17.748 11.869 18.295 12.832 C21.413 18.302 24.622 23.686 28 29 C30.869 26.465 32.482 23.612 34.32 20.273 C34.938 19.16 35.555 18.046 36.191 16.898 C36.836 15.724 37.481 14.55 38.125 13.375 C39.396 11.069 40.67 8.765 41.945 6.461 C42.508 5.438 43.07 4.415 43.649 3.361 C45 1 45 1 46 0 C49.63 0 53.26 0 57 0 C57 17.82 57 35.64 57 54 C53.7 54 50.4 54 47 54 C46.835 48.225 46.835 48.225 46 19 C39.125 31.375 39.125 31.375 36.965 35.275 C36.402 36.285 35.838 37.295 35.258 38.336 C34.682 39.373 34.106 40.41 33.512 41.478 C32 44 32 44 30 46 C28.68 46 27.36 46 26 46 C25.581 45.248 25.162 44.496 24.731 43.721 C23.18 40.938 21.627 38.156 20.073 35.374 C19.401 34.168 18.728 32.963 18.057 31.757 C17.093 30.026 16.127 28.296 15.16 26.566 C14.579 25.524 13.998 24.482 13.399 23.408 C12 21 12 21 11 20 C10.67 31.22 10.34 42.44 10 54 C6.7 54 3.4 54 0 54 C0 36.18 0 18.36 0 0 Z " fill="#0F1F45" transform="translate(209,121)"/>
<path d="M0 0 C10 0 10 0 12.594 1.914 C13.223 2.809 13.852 3.703 14.5 4.625 C15.23 5.625 15.959 6.626 16.711 7.656 C17.474 8.771 18.237 9.885 19 11 C19.843 12.179 20.69 13.356 21.539 14.531 C23.194 16.823 24.826 19.128 26.445 21.445 C29.514 25.716 32.771 29.849 36 34 C36.33 22.78 36.66 11.56 37 0 C40.3 0 43.6 0 47 0 C47 17.82 47 35.64 47 54 C38 54 38 54 35.426 51.824 C34.728 50.789 34.031 49.754 33.312 48.688 C32.485 47.505 31.657 46.323 30.828 45.141 C30.385 44.486 29.943 43.832 29.486 43.158 C27.224 39.874 24.835 36.686 22.456 33.486 C20.112 30.331 17.789 27.162 15.467 23.992 C13.99 21.986 12.495 19.993 11 18 C10.67 29.88 10.34 41.76 10 54 C6.7 54 3.4 54 0 54 C0 36.18 0 18.36 0 0 Z " fill="#0A1B42" transform="translate(348,121)"/>
<path d="M0 0 C3.96 0 7.92 0 12 0 C15.677 8.996 19.344 17.996 23 27 C23.496 28.221 23.992 29.442 24.502 30.7 C25.902 34.153 27.296 37.607 28.688 41.062 C29.121 42.132 29.555 43.201 30.001 44.302 C30.397 45.287 30.792 46.271 31.199 47.285 C31.548 48.15 31.897 49.015 32.257 49.906 C33 52 33 52 33 54 C29.37 54 25.74 54 22 54 C18 44.375 18 44.375 18 41 C10.08 41.33 2.16 41.66 -6 42 C-7.65 45.96 -9.3 49.92 -11 54 C-14.3 54 -17.6 54 -21 54 C-20.41 49.573 -19.287 45.85 -17.559 41.738 C-17.061 40.545 -16.563 39.351 -16.05 38.122 C-15.513 36.852 -14.975 35.582 -14.438 34.312 C-13.893 33.014 -13.349 31.715 -12.806 30.415 C-11.721 27.825 -10.633 25.236 -9.541 22.649 C-8.165 19.39 -6.794 16.129 -5.426 12.867 C-3.624 8.575 -1.815 4.286 0 0 Z " fill="#0B1A41" transform="translate(462,121)"/>
<path d="M0 0 C3.96 0 7.92 0 12 0 C12.447 1.172 12.895 2.344 13.355 3.551 C13.966 5.138 14.577 6.725 15.188 8.312 C15.479 9.079 15.771 9.845 16.072 10.635 C17.734 14.94 19.504 19.161 21.438 23.352 C24.116 29.173 26.49 35.092 28.812 41.062 C29.219 42.093 29.626 43.124 30.045 44.186 C30.428 45.167 30.812 46.149 31.207 47.16 C31.552 48.043 31.897 48.926 32.253 49.836 C33 52 33 52 33 54 C29.37 54 25.74 54 22 54 C21.329 52.21 20.664 50.418 20 48.625 C19.629 47.627 19.257 46.63 18.875 45.602 C18 43 18 43 18 41 C10.08 41.33 2.16 41.66 -6 42 C-7.32 45.96 -8.64 49.92 -10 54 C-13.63 54 -17.26 54 -21 54 C-18.692 45.649 -15.554 37.786 -12.188 29.812 C-11.378 27.879 -10.57 25.944 -9.762 24.01 C-9.234 22.747 -8.706 21.484 -8.177 20.221 C-5.37 13.513 -2.664 6.766 0 0 Z " fill="#0B1C44" transform="translate(301,121)"/>
<path d="M0 0 C4.278 2.947 7.905 6.41 9.688 11.375 C9.729 12.221 9.77 13.066 9.812 13.938 C9.936 15.154 10.06 16.371 10.188 17.625 C10.105 23.036 7.812 27.524 4.812 31.938 C1.31 35.274 -2.578 36.78 -7.375 37.25 C-13.324 36.762 -18.012 34.569 -22.062 30.125 C-25.78 24.549 -26.683 19.673 -25.727 13.145 C-24.316 7.369 -21.191 3.19 -16.188 -0.062 C-10.809 -1.736 -5.331 -1.777 0 0 Z " fill="#F8F8F9" transform="translate(172.1875,130.0625)"/>
<path d="M0 0 C45.87 0 91.74 0 139 0 C139 2.31 139 4.62 139 7 C93.13 7 47.26 7 0 7 C0 4.69 0 2.38 0 0 Z " fill="#FCBE1F" transform="translate(215,196)"/>
<path d="M0 0 C45.21 0 90.42 0 137 0 C137 2.31 137 4.62 137 7 C91.79 7 46.58 7 0 7 C0 4.69 0 2.38 0 0 Z " fill="#E22527" transform="translate(359,196)"/>
<path d="M0 0 C43.23 0 86.46 0 131 0 C131 2.31 131 4.62 131 7 C87.77 7 44.54 7 0 7 C0 4.69 0 2.38 0 0 Z " fill="#183173" transform="translate(79,196)"/>
<path d="M0 0 C3.63 0 7.26 0 11 0 C11 17.82 11 35.64 11 54 C7.37 54 3.74 54 0 54 C0 36.18 0 18.36 0 0 Z " fill="#021846" transform="translate(415,121)"/>
<path d="M0 0 C3.96 0 7.92 0 12 0 C12.459 1.195 12.918 2.39 13.391 3.621 C14.01 5.227 14.63 6.832 15.25 8.438 C15.568 9.263 15.887 10.088 16.215 10.938 C17.848 15.141 19.528 19.288 21.438 23.375 C23 27 23 27 23 31 C17.375 33.125 17.375 33.125 14 32 C13.017 30.374 13.017 30.374 12.176 28.289 C11.87 27.539 11.563 26.789 11.248 26.016 C10.939 25.227 10.631 24.438 10.312 23.625 C9.992 22.844 9.672 22.063 9.342 21.258 C7 15.426 7 15.426 7 12 C6.34 12 5.68 12 5 12 C4.807 12.71 4.613 13.421 4.414 14.152 C4.154 15.071 3.893 15.991 3.625 16.938 C3.37 17.854 3.115 18.771 2.852 19.715 C2 22 2 22 0 23 C-2 21 -4 19 -6 17 C-4.132 11.278 -2.147 5.623 0 0 Z " fill="#091940" transform="translate(301,121)"/>
<path d="M0 0 C2.351 -0.062 4.703 -0.124 7.125 -0.188 C7.853 -0.215 8.582 -0.242 9.333 -0.27 C13.994 -0.329 17.032 0.606 21 3 C22.569 4.569 22.245 6.141 22.312 8.312 C22.28 11.682 22.221 12.695 20.188 15.5 C16.041 18.343 12.137 18.121 7.312 18.062 C6.106 18.052 6.106 18.052 0 18 C0 12.06 0 6.12 0 0 Z " fill="#EBEBEF" transform="translate(89,129)"/>
<path d="M0 0 C3.3 0 6.6 0 10 0 C10.33 2.64 10.66 5.28 11 8 C11.66 8 12.32 8 13 8 C12.959 7.051 12.918 6.102 12.875 5.125 C13 2 13 2 15 0 C18.625 0.375 18.625 0.375 22 1 C22.33 1.99 22.66 2.98 23 4 C20.69 3.67 18.38 3.34 16 3 C16.33 3.99 16.66 4.98 17 6 C20.562 7.688 20.562 7.688 24 9 C23.25 13.75 23.25 13.75 21 16 C17.42 16.233 14.447 15.894 11 15 C10.67 15.33 10.34 15.66 10 16 C6.664 16.143 3.34 16.042 0 16 C0 10.72 0 5.44 0 0 Z " fill="#E3E4EB" transform="translate(339,227)"/>
<path d="M0 0 C3.3 0 6.6 0 10 0 C10 17.49 10 34.98 10 53 C7.36 53 4.72 53 2 53 C2 41.12 2 29.24 2 17 C2.33 17 2.66 17 3 17 C3.33 18.98 3.66 20.96 4 23 C5.32 22.67 6.64 22.34 8 22 C8.33 15.07 8.66 8.14 9 1 C7.515 1.165 7.515 1.165 0 2 C0 1.34 0 0.68 0 0 Z " fill="#02123C" transform="translate(255,121)"/>
<path d="M0 0 C3.63 0 7.26 0 11 0 C11 17.82 11 35.64 11 54 C7.37 54 3.74 54 0 54 C0 36.18 0 18.36 0 0 Z M2 1 C2 17.83 2 34.66 2 52 C4.31 52 6.62 52 9 52 C9 35.17 9 18.34 9 1 C6.69 1 4.38 1 2 1 Z " fill="#2C2F4D" transform="translate(415,121)"/>
<path d="M0 0 C2.938 0.562 2.938 0.562 5.312 2.125 C7.571 5.512 7.499 7.564 6.938 11.562 C5.312 14.5 5.312 14.5 2.938 16.562 C0 17.188 0 17.188 -3.062 16.562 C-6.385 14.107 -7.839 12.637 -8.688 8.562 C-7.638 3.524 -5.07 0.931 0 0 Z " fill="#272E58" transform="translate(447.0625,226.4375)"/>
<path d="M0 0 C0.66 0 1.32 0 2 0 C3.175 2.934 4.339 5.873 5.5 8.812 C5.834 9.646 6.168 10.479 6.512 11.338 C6.828 12.14 7.143 12.943 7.469 13.77 C7.762 14.508 8.055 15.246 8.357 16.007 C9 18 9 18 9 21 C3.72 21 -1.56 21 -7 21 C-5.875 14.25 -5.875 14.25 -4.59 11.133 C-4.322 10.475 -4.055 9.818 -3.779 9.141 C-3.502 8.475 -3.224 7.81 -2.938 7.125 C-2.656 6.437 -2.374 5.748 -2.084 5.039 C-1.395 3.357 -0.698 1.678 0 0 Z " fill="#EDEDF1" transform="translate(306,133)"/>
<path d="M0 0 C2.306 2.088 3.536 3.809 4.605 6.723 C4.867 7.426 5.128 8.129 5.396 8.854 C5.658 9.582 5.919 10.311 6.188 11.062 C6.46 11.795 6.733 12.528 7.014 13.283 C9 18.705 9 18.705 9 21 C3.39 21 -2.22 21 -8 21 C-5.726 13.818 -2.964 6.924 0 0 Z " fill="#F0F0F3" transform="translate(467,133)"/>
<path d="M0 0 C8 0 8 0 11 1.5 C13.423 4.529 13.746 6.288 13.477 10.094 C13 12 13 12 11 14.5 C8 16 8 16 0 16 C0 10.72 0 5.44 0 0 Z " fill="#2F335A" transform="translate(192,227)"/>
<path d="M0 0 C6 0 12 0 18 0 C18 5.28 18 10.56 18 16 C16.68 16 15.36 16 14 16 C13.67 12.7 13.34 9.4 13 6 C11 7 11 7 10.148 9.066 C9.893 9.89 9.638 10.714 9.375 11.562 C9.115 12.389 8.854 13.215 8.586 14.066 C8.393 14.704 8.199 15.343 8 16 C6.68 16 5.36 16 4 16 C4 11.71 4 7.42 4 3 C2.68 3 1.36 3 0 3 C0 2.01 0 1.02 0 0 Z " fill="#C4C6D2" transform="translate(214,227)"/>
<path d="M0 0 C7.145 -0.606 7.145 -0.606 11 2.125 C13.35 5.503 13.685 6.973 13 11 C11.793 13.168 11.793 13.168 10 15 C6.596 15.536 3.467 15.18 0 15 C0 10.05 0 5.1 0 0 Z " fill="#1A214E" transform="translate(113,227)"/>
<path d="M0 0 C8.91 0 17.82 0 27 0 C27 0.33 27 0.66 27 1 C18.75 1 10.5 1 2 1 C2 17.83 2 34.66 2 52 C4.31 52 6.62 52 9 52 C9 46.06 9 40.12 9 34 C9.33 34 9.66 34 10 34 C10 40.6 10 47.2 10 54 C6.7 54 3.4 54 0 54 C0 36.18 0 18.36 0 0 Z " fill="#2D2F4F" transform="translate(79,121)"/>
<path d="M0 0 C4.735 1.573 7.203 5.593 9.516 9.836 C9.516 10.496 9.516 11.156 9.516 11.836 C3.116 12.328 3.116 12.328 0.078 9.836 C-0.438 9.176 -0.953 8.516 -1.484 7.836 C-5.359 9.586 -5.359 9.586 -6.484 11.836 C-9.124 11.836 -11.764 11.836 -14.484 11.836 C-13.884 10.471 -13.191 9.148 -12.484 7.836 C-12.189 7.234 -11.894 6.632 -11.59 6.012 C-8.671 0.927 -5.865 -0.369 0 0 Z " fill="#0F1C43" transform="translate(309.484375,104.1640625)"/>
<path d="M0 0 C1.423 -0.062 2.846 -0.124 4.312 -0.188 C4.713 -0.205 4.713 -0.205 6.738 -0.293 C9 0 9 0 10.781 1.344 C12.445 3.605 12.222 5.263 12 8 C11.01 8.33 10.02 8.66 9 9 C9.495 9.619 9.99 10.238 10.5 10.875 C12 13 12 13 12 15 C10.68 14.67 9.36 14.34 8 14 C7.67 12.68 7.34 11.36 7 10 C6.01 10 5.02 10 4 10 C4 11.98 4 13.96 4 16 C2.68 15.67 1.36 15.34 0 15 C0 10.05 0 5.1 0 0 Z " fill="#41476E" transform="translate(161,227)"/>
<path d="M0 0 C6.836 -0.195 6.836 -0.195 9 0 C11 2 11 2 11.188 4.938 C11 8 11 8 10 11 C10.938 13.688 10.938 13.688 12 16 C10.125 15.812 10.125 15.812 8 15 C6.75 12.438 6.75 12.438 6 10 C5.01 10 4.02 10 3 10 C3 11.65 3 13.3 3 15 C2.01 15 1.02 15 0 15 C0 10.05 0 5.1 0 0 Z " fill="#0A0F43" transform="translate(457,227)"/>
<path d="M0 0 C1.938 0.312 1.938 0.312 4 1 C5 4 5 4 5.375 6.625 C6.168 10.91 7.551 14.898 9 19 C8.01 19 7.02 19 6 19 C5.67 18.34 5.34 17.68 5 17 C2.678 16.593 0.343 16.256 -2 16 C-2 16.99 -2 17.98 -2 19 C-2.99 19 -3.98 19 -5 19 C-4.373 15.338 -3.355 12.118 -1.938 8.688 C-1.756 8.246 -1.756 8.246 -0.84 6.012 C-0.563 5.348 -0.286 4.684 0 4 C-0.66 4 -1.32 4 -2 4 C-1.34 2.68 -0.68 1.36 0 0 Z " fill="#1C2045" transform="translate(298,223)"/>
<path d="M0 0 C3.3 0 6.6 0 10 0 C10 0.33 10 0.66 10 1 C7.36 1 4.72 1 2 1 C2 17.83 2 34.66 2 52 C4.64 52 7.28 52 10 52 C10 52.66 10 53.32 10 54 C6.7 54 3.4 54 0 54 C0 36.18 0 18.36 0 0 Z " fill="#262949" transform="translate(348,121)"/>
<path d="M0 0 C0.99 0 1.98 0 3 0 C4.605 1.969 4.605 1.969 6.188 4.5 C6.717 5.335 7.247 6.171 7.793 7.031 C8.191 7.681 8.59 8.331 9 9 C9.33 6.03 9.66 3.06 10 0 C10.99 0 11.98 0 13 0 C13 5.28 13 10.56 13 16 C9 15 9 15 7.516 13.152 C7.098 12.421 6.68 11.691 6.25 10.938 C5.822 10.204 5.394 9.471 4.953 8.715 C4.639 8.149 4.324 7.583 4 7 C3.67 9.97 3.34 12.94 3 16 C2.01 16 1.02 16 0 16 C0 10.72 0 5.44 0 0 Z " fill="#3B4369" transform="translate(265,227)"/>
<path d="M0 0 C4.23 1.057 4.549 1.2 6.75 4.562 C7.178 5.203 7.606 5.844 8.047 6.504 C8.361 6.998 8.676 7.491 9 8 C9.33 5.36 9.66 2.72 10 0 C10.99 0 11.98 0 13 0 C13 4.95 13 9.9 13 15 C7.564 13.641 6.993 11.573 4 7 C3.67 9.97 3.34 12.94 3 16 C2.01 16 1.02 16 0 16 C0 10.72 0 5.44 0 0 Z " fill="#252B51" transform="translate(96,227)"/>
<path d="M0 0 C4.23 1.057 4.549 1.2 6.75 4.562 C7.178 5.203 7.606 5.844 8.047 6.504 C8.361 6.998 8.676 7.491 9 8 C9.33 5.36 9.66 2.72 10 0 C10.99 0 11.98 0 13 0 C13 4.95 13 9.9 13 15 C7.564 13.641 6.993 11.573 4 7 C3.67 9.97 3.34 12.94 3 16 C2.01 16 1.02 16 0 16 C0 10.72 0 5.44 0 0 Z " fill="#262B52" transform="translate(322,227)"/>
<path d="M0 0 C1.828 0.098 1.828 0.098 4 1 C5.484 3.871 5.484 3.871 6.75 7.438 C7.178 8.612 7.606 9.786 8.047 10.996 C9 14 9 14 9 16 C7.68 16 6.36 16 5 16 C5 14.68 5 13.36 5 12 C2.69 12 0.38 12 -2 12 C-2.33 13.32 -2.66 14.64 -3 16 C-3.99 16 -4.98 16 -6 16 C-4.436 10.386 -2.836 5.132 0 0 Z " fill="#222650" transform="translate(181,227)"/>
<path d="M0 0 C2.745 2.383 3.891 4.689 5.188 8.062 C5.532 8.94 5.876 9.818 6.23 10.723 C7 13 7 13 7 15 C3.37 15 -0.26 15 -4 15 C-6 10 -6 10 -6 7 C-4.35 5.646 -2.683 4.313 -1 3 C-0.67 2.01 -0.34 1.02 0 0 Z " fill="#182446" transform="translate(327,160)"/>
<path d="M0 0 C3.3 0 6.6 0 10 0 C10 0.99 10 1.98 10 3 C7.69 3 5.38 3 3 3 C3 4.32 3 5.64 3 7 C4.98 7 6.96 7 9 7 C9 7.66 9 8.32 9 9 C7.02 9 5.04 9 3 9 C3 10.32 3 11.64 3 13 C5.31 13 7.62 13 10 13 C10 13.99 10 14.98 10 16 C6.7 16 3.4 16 0 16 C0 10.72 0 5.44 0 0 Z " fill="#2E335A" transform="translate(339,227)"/>
<path d="M0 0 C3.3 0 6.6 0 10 0 C10 0.99 10 1.98 10 3 C7.69 3 5.38 3 3 3 C3 4.32 3 5.64 3 7 C4.98 7 6.96 7 9 7 C9 7.66 9 8.32 9 9 C7.02 9 5.04 9 3 9 C3 10.32 3 11.64 3 13 C5.31 13 7.62 13 10 13 C10 13.99 10 14.98 10 16 C6.7 16 3.4 16 0 16 C0 10.72 0 5.44 0 0 Z " fill="#262C54" transform="translate(379,227)"/>
<path d="M0 0 C1.484 1.559 1.484 1.559 2.75 3.438 C3.178 4.055 3.606 4.672 4.047 5.309 C5 7 5 7 5 9 C3.042 9.081 1.084 9.139 -0.875 9.188 C-1.966 9.222 -3.056 9.257 -4.18 9.293 C-5.11 9.196 -6.041 9.1 -7 9 C-9 6 -9 6 -9 2 C-5.76 -0.61 -3.906 -1.541 0 0 Z " fill="#17244C" transform="translate(119,166)"/>
<path d="M0 0 C3.625 0.375 3.625 0.375 7 1 C7.33 1.99 7.66 2.98 8 4 C5.69 3.67 3.38 3.34 1 3 C1.33 3.99 1.66 4.98 2 6 C5.562 7.688 5.562 7.688 9 9 C8.25 13.75 8.25 13.75 6 16 C2.875 16.125 2.875 16.125 0 16 C-0.66 14.68 -1.32 13.36 -2 12 C0.64 12.33 3.28 12.66 6 13 C5.67 12.01 5.34 11.02 5 10 C1.438 8.312 1.438 8.312 -2 7 C-2.125 4.625 -2.125 4.625 -2 2 C-1.34 1.34 -0.68 0.68 0 0 Z " fill="#23284F" transform="translate(354,227)"/>
<path d="M0 0 C3.3 0 6.6 0 10 0 C10 0.99 10 1.98 10 3 C7.69 3 5.38 3 3 3 C3 4.32 3 5.64 3 7 C4.98 7 6.96 7 9 7 C9 7.66 9 8.32 9 9 C7.02 9 5.04 9 3 9 C3 10.32 3 11.64 3 13 C5.31 13 7.62 13 10 13 C10 13.66 10 14.32 10 15 C6.7 15 3.4 15 0 15 C0 10.05 0 5.1 0 0 Z " fill="#0D1546" transform="translate(129,227)"/>
<path d="M0 0 C2.64 0.66 5.28 1.32 8 2 C7.457 6.565 6.205 9.973 4 14 C-1.636 10.642 -1.636 10.642 -3.062 8.125 C-2.969 4.95 -1.546 2.721 0 0 Z " fill="#081434" transform="translate(298,130)"/>
<path d="M0 0 C0.99 0 1.98 0 3 0 C3.506 1.268 4.005 2.54 4.5 3.812 C4.778 4.52 5.057 5.228 5.344 5.957 C6 8 6 8 6 11 C6.66 11 7.32 11 8 11 C8.124 9.928 8.248 8.855 8.375 7.75 C8.896 4.621 9.401 2.665 11 0 C11.99 0 12.98 0 14 0 C13.545 1.73 13.086 3.459 12.625 5.188 C12.37 6.15 12.115 7.113 11.852 8.105 C11.052 10.822 10.097 13.391 9 16 C7.68 16 6.36 16 5 16 C4.163 13.71 3.33 11.418 2.5 9.125 C2.381 8.8 2.381 8.8 1.777 7.152 C0 2.227 0 2.227 0 0 Z " fill="#21264E" transform="translate(397,227)"/>
<path d="M0 0 C0.99 0 1.98 0 3 0 C3.33 3.96 3.66 7.92 4 12 C5.65 11.67 7.3 11.34 9 11 C9.33 7.7 9.66 4.4 10 1 C10.66 1 11.32 1 12 1 C12.081 2.937 12.139 4.875 12.188 6.812 C12.222 7.891 12.257 8.97 12.293 10.082 C12 13 12 13 10.711 14.895 C9 16 9 16 5.438 15.875 C2 15 2 15 0 12 C-0.195 9.082 -0.195 9.082 -0.125 5.812 C-0.107 4.726 -0.089 3.639 -0.07 2.52 C-0.047 1.688 -0.024 0.857 0 0 Z " fill="#0F1642" transform="translate(80,227)"/>
<path d="M0 0 C0.99 0 1.98 0 3 0 C3.108 2.103 3.186 4.208 3.25 6.312 C3.296 7.484 3.343 8.656 3.391 9.863 C3 13 3 13 1.145 14.895 C-1.503 16.259 -3.06 16.452 -6 16 C-7.641 14.863 -7.641 14.863 -9 13 C-9.293 10.082 -9.293 10.082 -9.188 6.812 C-9.16 5.726 -9.133 4.639 -9.105 3.52 C-9.071 2.688 -9.036 1.857 -9 1 C-8.34 1 -7.68 1 -7 1 C-7 4.63 -7 8.26 -7 12 C-5.02 12 -3.04 12 -1 12 C-0.67 8.04 -0.34 4.08 0 0 Z " fill="#222952" transform="translate(481,227)"/>
<path d="M0 0 C0.99 0 1.98 0 3 0 C2.01 2.97 1.02 5.94 0 9 C1.32 9 2.64 9 4 9 C3.67 7.02 3.34 5.04 3 3 C6.077 5.769 7.778 8.029 9 12 C9 12.99 9 13.98 9 15 C8.01 15 7.02 15 6 15 C5.67 14.01 5.34 13.02 5 12 C2.69 11.67 0.38 11.34 -2 11 C-2 11.99 -2 12.98 -2 14 C-2.99 14 -3.98 14 -5 14 C-4.346 8.93 -2.145 4.58 0 0 Z " fill="#1E234D" transform="translate(240,228)"/>
<path d="M0 0 C1.32 0 2.64 0 4 0 C4 4.29 4 8.58 4 13 C6.31 13 8.62 13 11 13 C11 13.99 11 14.98 11 16 C7.37 16 3.74 16 0 16 C0 10.72 0 5.44 0 0 Z " fill="#9295AC" transform="translate(309,227)"/>
<path d="M0 0 C2.5 0.25 2.5 0.25 4.5 2.25 C4.75 5.25 4.75 5.25 4.5 8.25 C2.5 10.25 2.5 10.25 0 10.5 C-2.5 10.25 -2.5 10.25 -4.5 8.25 C-4.75 5.25 -4.75 5.25 -4.5 2.25 C-2.5 0.25 -2.5 0.25 0 0 Z " fill="#E7E8ED" transform="translate(446.5,229.75)"/>
<path d="M0 0 C4.29 0 8.58 0 13 0 C13 0.99 13 1.98 13 3 C11.35 3 9.7 3 8 3 C8 7.29 8 11.58 8 16 C7.01 16 6.02 16 5 16 C5 11.71 5 7.42 5 3 C3.35 3 1.7 3 0 3 C0 2.01 0 1.02 0 0 Z " fill="#31355B" transform="translate(364,227)"/>
<path d="M0 0 C3.96 0 7.92 0 12 0 C12 0.99 12 1.98 12 3 C10.35 3 8.7 3 7 3 C7 7.29 7 11.58 7 16 C6.01 16 5.02 16 4 16 C4 11.71 4 7.42 4 3 C2.35 3 0.7 3 -1 3 C-0.67 2.01 -0.34 1.02 0 0 Z " fill="#353C64" transform="translate(281,227)"/>
<path d="M0 0 C3.96 0 7.92 0 12 0 C12 0.99 12 1.98 12 3 C10.35 3 8.7 3 7 3 C7 7.29 7 11.58 7 16 C6.01 16 5.02 16 4 16 C4 11.71 4 7.42 4 3 C2.68 3 1.36 3 0 3 C0 2.01 0 1.02 0 0 Z " fill="#2F3459" transform="translate(426,227)"/>
<path d="M0 0 C3.96 0 7.92 0 12 0 C12 0.99 12 1.98 12 3 C10.68 3 9.36 3 8 3 C8 6.96 8 10.92 8 15 C7.01 15 6.02 15 5 15 C5 11.04 5 7.08 5 3 C3.35 3 1.7 3 0 3 C0 2.01 0 1.02 0 0 Z " fill="#2A2F54" transform="translate(147,227)"/>
<path d="M0 0 C2.429 3.643 2.257 6.307 2.195 10.512 C2.192 11.24 2.19 11.968 2.187 12.718 C2.176 15.042 2.15 17.364 2.125 19.688 C2.115 21.264 2.106 22.84 2.098 24.416 C2.076 28.277 2.041 32.139 2 36 C1.34 36 0.68 36 0 36 C-0.168 31.516 -0.328 27.032 -0.482 22.548 C-0.535 21.023 -0.591 19.498 -0.648 17.974 C-0.73 15.779 -0.805 13.585 -0.879 11.391 C-0.892 11.051 -0.892 11.051 -0.961 9.332 C-1.064 6.047 -1.036 3.139 0 0 Z " fill="#041237" transform="translate(356,137)"/>
<path d="M0 0 C2.97 0.33 5.94 0.66 9 1 C8.64 3.664 8.288 5.582 6.75 7.812 C4.367 9.43 2.821 9.362 0 9 C-0.66 8.34 -1.32 7.68 -2 7 C-1.673 4.384 -1.18 2.359 0 0 Z " fill="#091635" transform="translate(246,136)"/>
<path d="M0 0 C1.65 0 3.3 0 5 0 C7 2 7 2 7.25 5 C7 8 7 8 5 10 C3.35 10 1.7 10 0 10 C0 6.7 0 3.4 0 0 Z " fill="#E8E9EF" transform="translate(195,230)"/>
<path d="M0 0 C1.65 0 3.3 0 5 0 C7 2 7 2 7.25 5 C7 8 7 8 5 10 C3.35 10 1.7 10 0 10 C0 6.7 0 3.4 0 0 Z " fill="#EBECF1" transform="translate(116,230)"/>
<path d="M0 0 C1.32 0 2.64 0 4 0 C4 5.28 4 10.56 4 16 C2.68 16 1.36 16 0 16 C0 10.72 0 5.44 0 0 Z " fill="#575D7C" transform="translate(413,227)"/>
<path d="M0 0 C1.32 0.33 2.64 0.66 4 1 C4 5.95 4 10.9 4 16 C2.68 16 1.36 16 0 16 C0 10.72 0 5.44 0 0 Z " fill="#4C5070" transform="translate(420,227)"/>
<path d="M0 0 C1.32 0 2.64 0 4 0 C4 5.28 4 10.56 4 16 C2.68 15.67 1.36 15.34 0 15 C0 10.05 0 5.1 0 0 Z " fill="#4A4E6E" transform="translate(208,227)"/>
<path d="M0 0 C2.97 0 5.94 0 9 0 C10.431 2.862 9.6 4.934 9 8 C7.02 8 5.04 8 3 8 C3 6.02 3 4.04 3 2 C2.34 1.67 1.68 1.34 1 1 C1 5.62 1 10.24 1 15 C0.67 15 0.34 15 0 15 C0 10.05 0 5.1 0 0 Z " fill="#4B5378" transform="translate(457,227)"/>
<path d="M0 0 C3.96 0 7.92 0 12 0 C12 0.99 12 1.98 12 3 C10.35 3 8.7 3 7 3 C7 6.96 7 10.92 7 15 C6.34 15 5.68 15 5 15 C5 11.04 5 7.08 5 3 C3.35 3 1.7 3 0 3 C0 2.01 0 1.02 0 0 Z " fill="#2A3057" transform="translate(214,227)"/>
<path d="M0 0 C1.65 0 3.3 0 5 0 C5 3.96 5 7.92 5 12 C3.333 12 1.667 12 0 12 C0 8.04 0 4.08 0 0 Z " fill="#EBECF1" transform="translate(372,230)"/>
<path d="M0 0 C0.99 0 1.98 0 3 0 C3 5.28 3 10.56 3 16 C2.01 16 1.02 16 0 16 C0 10.72 0 5.44 0 0 Z " fill="#272D56" transform="translate(258,227)"/>
<path d="M0 0 C0.99 0 1.98 0 3 0 C3 5.28 3 10.56 3 16 C2.01 16 1.02 16 0 16 C0 10.72 0 5.44 0 0 Z " fill="#2F365C" transform="translate(229,227)"/>
<path d="M0 0 C0.33 0 0.66 0 1 0 C1 12.21 1 24.42 1 37 C0.67 37 0.34 37 0 37 C-0.33 27.1 -0.66 17.2 -1 7 C-1.99 7.66 -2.98 8.32 -4 9 C-2.801 5.917 -1.523 2.937 0 0 Z " fill="#ECEBEF" transform="translate(255,138)"/>
<path d="M0 0 C2.36 2.36 2.491 3.779 3 7 C2.01 7 1.02 7 0 7 C-0.33 6.34 -0.66 5.68 -1 5 C-3.322 4.593 -5.657 4.256 -8 4 C-8 4.99 -8 5.98 -8 7 C-8.99 7 -9.98 7 -11 7 C-10.67 5.35 -10.34 3.7 -10 2 C-6.803 0.934 -4.341 1 -1 1 C-0.67 0.67 -0.34 0.34 0 0 Z " fill="#272D4F" transform="translate(304,235)"/>
<path d="M0 0 C7.385 -0.492 7.385 -0.492 10.5 2 C10.995 2.66 11.49 3.32 12 4 C8.234 5.255 6.628 4.371 3 3 C3 6.3 3 9.6 3 13 C2.67 13 2.34 13 2 13 C1.67 10.69 1.34 8.38 1 6 C0.67 6 0.34 6 0 6 C0 4.02 0 2.04 0 0 Z " fill="#353B64" transform="translate(113,227)"/>
<path d="M0 0 C1.945 2.918 2.453 4.625 3 8 C1.68 8 0.36 8 -1 8 C-1 6.68 -1 5.36 -1 4 C-3.31 4 -5.62 4 -8 4 C-8.33 5.32 -8.66 6.64 -9 8 C-9.99 8 -10.98 8 -12 8 C-11.34 5.69 -10.68 3.38 -10 1 C-9.67 1.66 -9.34 2.32 -9 3 C-7.701 2.876 -6.401 2.752 -5.062 2.625 C-4.332 2.555 -3.601 2.486 -2.848 2.414 C-2.543 2.346 -2.543 2.346 -1 2 C-0.67 1.34 -0.34 0.68 0 0 Z " fill="#3E4162" transform="translate(187,235)"/>
<path d="M0 0 C-0.619 0.289 -1.238 0.577 -1.875 0.875 C-4 2 -4 2 -6 4 C-6.333 9.333 -6.333 9.333 -5 12 C-5.99 12.33 -6.98 12.66 -8 13 C-10.326 9.511 -10.419 8.103 -10 4 C-7.826 -0.859 -4.926 -0.372 0 0 Z " fill="#141843" transform="translate(449,228)"/>
<path d="M0 0 C0.66 0 1.32 0 2 0 C2 3.96 2 7.92 2 12 C4.31 12 6.62 12 9 12 C9 12.66 9 13.32 9 14 C6.03 14 3.06 14 0 14 C0 9.38 0 4.76 0 0 Z " fill="#0E123F" transform="translate(310,228)"/>
<path d="M0 0 C0.66 0 1.32 0 2 0 C2 3.96 2 7.92 2 12 C4.31 12 6.62 12 9 12 C9 12.66 9 13.32 9 14 C6.03 14 3.06 14 0 14 C0 9.38 0 4.76 0 0 Z " fill="#070B30" transform="translate(488,228)"/>
<path d="M0 0 C3.3 0 6.6 0 10 0 C10 0.99 10 1.98 10 3 C7.69 3 5.38 3 3 3 C2.876 3.639 2.752 4.279 2.625 4.938 C2.419 5.618 2.213 6.299 2 7 C1.67 7.165 1.67 7.165 0 8 C0 5.36 0 2.72 0 0 Z " fill="#2C335C" transform="translate(129,227)"/>
<path d="M0 0 C1.32 0 2.64 0 4 0 C4 3.96 4 7.92 4 12 C3.67 12 3.34 12 3 12 C3 8.37 3 4.74 3 1 C2.34 1 1.68 1 1 1 C1.035 1.699 1.07 2.397 1.105 3.117 C1.133 4.027 1.16 4.937 1.188 5.875 C1.222 6.78 1.257 7.685 1.293 8.617 C1.196 9.404 1.1 10.19 1 11 C0.01 11.66 -0.98 12.32 -2 13 C-3.555 8.334 -1.511 4.534 0 0 Z " fill="#B4B7C8" transform="translate(89,227)"/>
<path d="M0 0 C0.66 0 1.32 0 2 0 C2.074 3.343 2.065 5.804 1 9 C1.938 11.688 1.938 11.688 3 14 C1.68 13.67 0.36 13.34 -1 13 C-1.33 11.02 -1.66 9.04 -2 7 C-2.99 6.67 -3.98 6.34 -5 6 C-3.35 6 -1.7 6 0 6 C0 4.02 0 2.04 0 0 Z " fill="#1D214A" transform="translate(466,229)"/>
<path d="M0 0 C0 3.96 0 7.92 0 12 C-1.65 12.33 -3.3 12.66 -5 13 C-4.01 12.67 -3.02 12.34 -2 12 C-2.99 9.36 -3.98 6.72 -5 4 C-1.125 0 -1.125 0 0 0 Z " fill="#EDEEF1" transform="translate(309,230)"/>
<path d="M0 0 C-1.75 5.75 -1.75 5.75 -4 8 C-5.32 8 -6.64 8 -8 8 C-7.664 4.893 -7.41 3.396 -5.125 1.188 C-3 0 -3 0 0 0 Z " fill="#141D3C" transform="translate(243,159)"/>
<path d="M0 0 C0.99 0 1.98 0 3 0 C2.55 1.794 2.09 3.585 1.625 5.375 C1.37 6.373 1.115 7.37 0.852 8.398 C0 11 0 11 -2 13 C-3.468 7.527 -2.44 4.881 0 0 Z " fill="#41456E" transform="translate(408,227)"/>
<path d="M0 0 C0.66 0 1.32 0 2 0 C2 3.63 2 7.26 2 11 C2.66 11 3.32 11 4 11 C4 11.66 4 12.32 4 13 C4.99 13.33 5.98 13.66 7 14 C4.625 14.125 4.625 14.125 2 14 C0 12 0 12 -0.195 9.18 C-0.172 8.089 -0.149 6.999 -0.125 5.875 C-0.107 4.779 -0.089 3.684 -0.07 2.555 C-0.047 1.712 -0.024 0.869 0 0 Z " fill="#090D36" transform="translate(472,228)"/>
<path d="M0 0 C0.688 1.812 0.688 1.812 1 4 C-0.062 5.75 -0.062 5.75 -2 7 C-5.188 7.188 -5.188 7.188 -8 7 C-8.66 5.68 -9.32 4.36 -10 3 C-6.7 3 -3.4 3 0 3 C0 2.01 0 1.02 0 0 Z " fill="#383B5D" transform="translate(362,236)"/>
<path d="M0 0 C1.938 0.625 1.938 0.625 4 2 C4.75 5.125 4.75 5.125 5 8 C2.69 7.67 0.38 7.34 -2 7 C-1.34 4.69 -0.68 2.38 0 0 Z " fill="#797C96" transform="translate(297,229)"/>
<path d="M0 0 C0.66 0 1.32 0 2 0 C2 4.62 2 9.24 2 14 C1.01 14 0.02 14 -1 14 C-0.67 9.38 -0.34 4.76 0 0 Z " fill="#08103B" transform="translate(333,228)"/>
<path d="M0 0 C0.66 0 1.32 0 2 0 C2 4.62 2 9.24 2 14 C1.01 14 0.02 14 -1 14 C-0.67 9.38 -0.34 4.76 0 0 Z " fill="#0A103D" transform="translate(107,228)"/>
<path d="M0 0 C0.99 0.33 1.98 0.66 3 1 C2.34 1 1.68 1 1 1 C1 4.96 1 8.92 1 13 C0.01 13 -0.98 13 -2 13 C-2.66 11.68 -3.32 10.36 -4 9 C-3.01 8.67 -2.02 8.34 -1 8 C-0.67 5.36 -0.34 2.72 0 0 Z " fill="#41486E" transform="translate(106,227)"/>
<path d="M0 0 C0.99 1.32 1.98 2.64 3 4 C1.551 7.743 1.551 7.743 -0.875 8.875 C-3.474 9.028 -4.802 8.335 -7 7 C-5.02 6.34 -3.04 5.68 -1 5 C-0.67 3.35 -0.34 1.7 0 0 Z " fill="#30345C" transform="translate(202,233)"/>
<path d="M0 0 C0.33 0 0.66 0 1 0 C1.026 0.699 1.052 1.397 1.078 2.117 C1.135 3.027 1.192 3.937 1.25 4.875 C1.296 5.78 1.343 6.685 1.391 7.617 C2 10 2 10 4.047 11.32 C4.691 11.545 5.336 11.769 6 12 C3.69 12 1.38 12 -1 12 C-1.027 10.563 -1.046 9.125 -1.062 7.688 C-1.074 6.887 -1.086 6.086 -1.098 5.262 C-1 3 -1 3 0 0 Z " fill="#030837" transform="translate(114,230)"/>
<path d="M0 0 C0.99 0.33 1.98 0.66 3 1 C2.34 1 1.68 1 1 1 C1.023 1.687 1.046 2.374 1.07 3.082 C1.079 3.533 1.079 3.533 1.125 5.812 C1.148 6.706 1.171 7.599 1.195 8.52 C1 11 1 11 -1 14 C-4 10.25 -4 10.25 -4 8 C-3.01 8 -2.02 8 -1 8 C-0.67 5.36 -0.34 2.72 0 0 Z " fill="#3A4265" transform="translate(332,227)"/>
<path d="M0 0 C1.65 0 3.3 0 5 0 C4.763 0.516 4.763 0.516 3.562 3.125 C2.155 6.385 1.432 9.461 1 13 C0.67 13 0.34 13 0 13 C0 8.71 0 4.42 0 0 Z " fill="#E9EBF1" transform="translate(288,230)"/>
<path d="M0 0 C1.32 0 2.64 0 4 0 C4.8 3.287 5.097 4.71 4 8 C4 8.66 4 9.32 4 10 C2.68 10 1.36 10 0 10 C1.875 3.25 1.875 3.25 3 1 C2.01 0.67 1.02 0.34 0 0 Z " fill="#959AB2" transform="translate(240,227)"/>
<path d="M0 0 C0.33 0 0.66 0 1 0 C1 4.62 1 9.24 1 14 C0.01 14 -0.98 14 -2 14 C-2.33 12.68 -2.66 11.36 -3 10 C-2.01 10 -1.02 10 0 10 C0 6.7 0 3.4 0 0 Z " fill="#0C1242" transform="translate(276,228)"/>
<path d="M0 0 C1.98 0 3.96 0 6 0 C6.33 1.32 6.66 2.64 7 4 C4.69 4 2.38 4 0 4 C0 2.68 0 1.36 0 0 Z " fill="#E3E4EA" transform="translate(132,236)"/>
<path d="M0 0 C2.31 0 4.62 0 7 0 C6.67 1.32 6.34 2.64 6 4 C4.02 4 2.04 4 0 4 C0 2.68 0 1.36 0 0 Z " fill="#D8D9E1" transform="translate(382,230)"/>
<path d="M0 0 C0 2.31 0 4.62 0 7 C-0.66 6.67 -1.32 6.34 -2 6 C-2.99 6.99 -3.98 7.98 -5 9 C-4.387 3.484 -4.387 3.484 -2.5 1.125 C-1 0 -1 0 0 0 Z " fill="#E8E9EE" transform="translate(413,228)"/>
<path d="M0 0 C1.32 0.33 2.64 0.66 4 1 C4 2.32 4 3.64 4 5 C3.01 4.835 3.01 4.835 -2 4 C-1.34 2.68 -0.68 1.36 0 0 Z " fill="#6F7187" transform="translate(298,223)"/>
<path d="M0 0 C0.99 0.99 1.98 1.98 3 3 C1.755 6.736 0.366 7.188 -3 9 C-2.01 6.03 -1.02 3.06 0 0 Z " fill="#E2E3EA" transform="translate(467,133)"/>
<path d="M0 0 C3.63 0 7.26 0 11 0 C11.33 1.65 11.66 3.3 12 5 C10.333 5 8.667 5 7 5 C7 4.01 7 3.02 7 2 C4.69 1.67 2.38 1.34 0 1 C0 0.67 0 0.34 0 0 Z " fill="#050C2D" transform="translate(463,121)"/>
<path d="M0 0 C0.99 0 1.98 0 3 0 C3 0.99 3 1.98 3 3 C3.99 2.67 4.98 2.34 6 2 C5.67 3.65 5.34 5.3 5 7 C3.35 7 1.7 7 0 7 C0.99 6.67 1.98 6.34 3 6 C2.752 5.691 2.752 5.691 1.5 4.125 C0 2 0 2 0 0 Z " fill="#D3D5DE" transform="translate(170,236)"/>
<path d="M0 0 C3.875 1.875 3.875 1.875 5 3 C5.041 5 5.043 7 5 9 C2.2 7.6 1.432 5.734 0 3 C0 2.01 0 1.02 0 0 Z " fill="#141746" transform="translate(200,228)"/>
<path d="M0 0 C2.339 0.287 4.674 0.619 7 1 C7 1.33 7 1.66 7 2 C5.35 2.33 3.7 2.66 2 3 C1.67 3.99 1.34 4.98 1 6 C0.01 6 -0.98 6 -2 6 C-1.125 1.125 -1.125 1.125 0 0 Z " fill="#13173F" transform="translate(295,236)"/>
<path d="M0 0 C0.33 0.66 0.66 1.32 1 2 C2.65 2 4.3 2 6 2 C4.68 2.33 3.36 2.66 2 3 C1.67 4.32 1.34 5.64 1 7 C0.01 7 -0.98 7 -2 7 C-1.34 4.69 -0.68 2.38 0 0 Z " fill="#33385D" transform="translate(177,236)"/>
<path d="M0 0 C0.66 0 1.32 0 2 0 C2.66 2.31 3.32 4.62 4 7 C2.35 6.67 0.7 6.34 -1 6 C-0.67 4.02 -0.34 2.04 0 0 Z " fill="#151E3D" transform="translate(312,123)"/>
<path d="M0 0 C0.99 0.33 1.98 0.66 3 1 C3 1.99 3 2.98 3 4 C2.34 4 1.68 4 1 4 C1 7.3 1 10.6 1 14 C0.67 14 0.34 14 0 14 C0 9.38 0 4.76 0 0 Z " fill="#030831" transform="translate(266,228)"/>
<path d="M0 0 C1.65 1.65 3.3 3.3 5 5 C4.361 5.103 3.721 5.206 3.062 5.312 C2.382 5.539 1.701 5.766 1 6 C0.67 6.99 0.34 7.98 0 9 C0 6.03 0 3.06 0 0 Z " fill="#E3E6EE" transform="translate(99,233)"/>
<path d="M0 0 C2.565 2.565 2.54 4.477 3 8 C2.01 8 1.02 8 0 8 C-1.125 2.25 -1.125 2.25 0 0 Z " fill="#36395B" transform="translate(246,235)"/>
<path d="M0 0 C0 1.65 0 3.3 0 5 C-1.32 5 -2.64 5 -4 5 C-4.33 3.68 -4.66 2.36 -5 1 C-3 0 -3 0 0 0 Z " fill="#282E57" transform="translate(406,238)"/>
<path d="M0 0 C2.312 -0.25 2.312 -0.25 5 0 C6.976 2.044 8 3.118 8 6 C6.68 5.67 5.36 5.34 4 5 C3.897 4.361 3.794 3.721 3.688 3.062 C3.461 2.382 3.234 1.701 3 1 C2.01 0.67 1.02 0.34 0 0 Z " fill="#1C214C" transform="translate(165,236)"/>
<path d="M0 0 C1.65 0 3.3 0 5 0 C5 1.32 5 2.64 5 4 C3.35 4 1.7 4 0 4 C0 2.68 0 1.36 0 0 Z " fill="#E7E8EE" transform="translate(460,230)"/>
<path d="M0 0 C0.825 0.165 0.825 0.165 5 1 C5 1.99 5 2.98 5 4 C3.35 4 1.7 4 0 4 C0 2.68 0 1.36 0 0 Z " fill="#F1F1F5" transform="translate(165,230)"/>
<path d="M0 0 C2.31 0 4.62 0 7 0 C6.67 0.99 6.34 1.98 6 3 C4.02 3 2.04 3 0 3 C0 2.01 0 1.02 0 0 Z " fill="#EF1C1A" transform="translate(361,198)"/>
<path d="M0 0 C0.33 0 0.66 0 1 0 C1.66 2.64 2.32 5.28 3 8 C1.35 8 -0.3 8 -2 8 C-1.477 5.237 -0.891 2.674 0 0 Z " fill="#222A4F" transform="translate(283,165)"/>
<path d="M0 0 C0.33 0 0.66 0 1 0 C2.25 7.625 2.25 7.625 0 11 C-0.66 11 -1.32 11 -2 11 C-1.34 7.37 -0.68 3.74 0 0 Z " fill="#182649" transform="translate(182,146)"/>
<path d="M0 0 C-0.875 3.875 -0.875 3.875 -2 5 C-3.666 5.041 -5.334 5.043 -7 5 C-6 2 -6 2 -4.062 0.812 C-2 0 -2 0 0 0 Z " fill="#373D63" transform="translate(91,238)"/>
<path d="M0 0 C2.31 0.33 4.62 0.66 7 1 C6.67 1.495 6.67 1.495 5 4 C3.35 3.67 1.7 3.34 0 3 C0 2.01 0 1.02 0 0 Z " fill="#D3D5DF" transform="translate(355,230)"/>
<path d="M0 0 C3 3.75 3 3.75 3 6 C1.35 6 -0.3 6 -2 6 C-1.34 4.02 -0.68 2.04 0 0 Z " fill="#C3C5D4" transform="translate(182,231)"/>
<path d="M0 0 C0.99 0 1.98 0 3 0 C2.01 2.97 1.02 5.94 0 9 C-0.959 5.164 -0.919 3.676 0 0 Z " fill="#272A4F" transform="translate(408,227)"/>
</svg>
