<?xml version="1.0" encoding="UTF-8"?>
<!-- Generator: visioncortex VTracer 0.6.12 -->
<svg version="1.1" xmlns="http://www.w3.org/2000/svg" width="724" height="116">
<path d="M0 0 C238.92 0 477.84 0 724 0 C724 38.28 724 76.56 724 116 C485.08 116 246.16 116 0 116 C0 77.72 0 39.44 0 0 Z " fill="#050E1A" transform="translate(0,0)"/>
<path d="M0 0 C117.81 0 235.62 0 357 0 C357 0.66 357 1.32 357 2 C354.69 2 352.38 2 350 2 C350.33 13.55 350.66 25.1 351 37 C352.65 35.35 354.3 33.7 356 32 C355.441 36.659 354.119 40.142 352 44.312 C349.395 49.747 348.203 54.001 348 60 C348.825 59.258 349.65 58.515 350.5 57.75 C357.177 52.261 362.89 50.385 371.5 50.75 C372.322 50.768 373.145 50.786 373.992 50.805 C375.995 50.851 377.998 50.923 380 51 C380 51.33 380 51.66 380 52 C378.938 52.098 377.876 52.196 376.781 52.297 C365.006 53.49 357.651 55.123 349.77 64.559 C346.618 68.907 343.601 73.378 344.438 78.875 C344.623 79.576 344.809 80.278 345 81 C343.625 82.625 343.625 82.625 342 84 C341.67 84.99 341.34 85.98 341 87 C341.99 87.33 342.98 87.66 344 88 C342.68 89.65 341.36 91.3 340 93 C341.32 93.99 342.64 94.98 344 96 C341.687 98.5 341.687 98.5 339 101 C338.01 101 337.02 101 336 101 C336 101.66 336 102.32 336 103 C339.3 103.33 342.6 103.66 346 104 C346 104.99 346 105.98 346 107 C344.02 107.66 342.04 108.32 340 109 C342.464 109 344.923 108.97 347.387 108.93 C349.154 108.911 350.921 108.893 352.688 108.875 C353.561 108.858 354.434 108.841 355.334 108.824 C360.952 108.782 365.592 109.511 371 111 C372.85 111.194 374.705 111.346 376.562 111.438 C381.329 111.796 384.758 112.832 389 115 C389 115.33 389 115.66 389 116 C260.63 116 132.26 116 0 116 C0 77.72 0 39.44 0 0 Z " fill="#020C1A" transform="translate(0,0)"/>
<path d="M0 0 C0.617 -0.01 0.617 -0.01 3.74 -0.062 C16.805 -0.118 27.105 2.204 36.758 11.324 C44.888 19.919 47.142 27.009 46.963 38.654 C46.577 48.906 43.712 55.746 36.562 63.25 C33.654 65.761 30.682 67.994 27.562 70.25 C30.202 74.54 32.842 78.83 35.562 83.25 C34.572 83.25 33.582 83.25 32.562 83.25 C31.414 82.067 30.271 80.878 29.164 79.656 C27.206 77.937 25.189 77.119 22.812 76.062 C20.457 74.852 20.457 74.852 18.562 73.25 C17.5 69.881 17.392 66.762 17.562 63.25 C17.233 66.22 16.903 69.19 16.562 72.25 C15.572 72.25 14.582 72.25 13.562 72.25 C13.117 65.298 12.89 60.653 17.562 55.25 C14.32 57.661 12.813 58.992 12.008 63.031 C11.774 65.775 11.616 68.497 11.562 71.25 C9.913 71.25 8.262 71.25 6.562 71.25 C5.961 65.811 5.758 61.608 9.188 57.125 C10.3 55.822 11.425 54.531 12.562 53.25 C13.681 51.823 14.785 50.386 15.875 48.938 C16.366 48.302 16.857 47.666 17.363 47.012 C20.509 42.391 20.268 36.604 19.562 31.25 C17.008 27.773 14.474 25.935 10.562 24.25 C8.266 23.9 6.001 23.75 3.684 23.594 C1.562 23.25 1.562 23.25 -1.438 21.25 C-2.757 22.57 -4.077 23.89 -5.438 25.25 C-6.281 23.84 -7.112 22.421 -7.938 21 C-8.402 20.211 -8.866 19.422 -9.344 18.609 C-10.438 16.25 -10.438 16.25 -10.438 12.25 C-11.098 12.25 -11.757 12.25 -12.438 12.25 C-12.462 11.895 -12.462 11.895 -12.586 10.098 C-12.623 9.638 -12.623 9.638 -12.812 7.312 C-12.882 6.396 -12.952 5.479 -13.023 4.535 C-13.16 3.781 -13.297 3.027 -13.438 2.25 C-14.098 1.92 -14.757 1.59 -15.438 1.25 C-10.978 -0.98 -4.895 0.02 0 0 Z M-12.438 2.25 C-11.438 4.25 -11.438 4.25 -11.438 4.25 Z " fill="#F6B507" transform="translate(384.4375,1.75)"/>
<path d="M0 0 C-2.633 1.756 -3.938 2.377 -6.879 3.078 C-28.879 8.578 -28.879 8.578 -35.816 18.699 C-37.98 22.906 -39.034 27.392 -40 32 C-39.34 32 -38.68 32 -38 32 C-38 32.66 -38 33.32 -38 34 C-38.495 34.165 -38.495 34.165 -41 35 C-40.175 35.784 -39.35 36.567 -38.5 37.375 C-36 40 -36 40 -36 42 C-36.66 42.165 -36.66 42.165 -40 43 C-39.196 43.784 -38.391 44.567 -37.562 45.375 C-35 48 -35 48 -34 50 C-37.473 51.158 -40.361 51.069 -44 51 C-44 51.66 -44 52.32 -44 53 C-42.808 52.988 -41.615 52.977 -40.387 52.965 C-38.82 52.955 -37.254 52.946 -35.688 52.938 C-34.902 52.929 -34.116 52.921 -33.307 52.912 C-32.549 52.909 -31.792 52.906 -31.012 52.902 C-30.315 52.897 -29.619 52.892 -28.901 52.886 C-27 53 -27 53 -24 54 C-24.598 53.196 -25.196 52.391 -25.812 51.562 C-29.823 45.497 -32.172 38.291 -31 31 C-28.757 21.924 -23.202 14.623 -15.555 9.297 C-12.095 7.31 -8.907 5.852 -5 5 C-5.351 5.33 -5.351 5.33 -7.125 7 C-14.365 14.24 -17.295 19.819 -17.317 30.166 C-17.204 35.979 -16.082 40.123 -13 45 C-12.576 45.696 -12.152 46.392 -11.715 47.109 C-8.456 51.938 -4.72 54.866 0.242 57.871 C0.822 58.244 1.402 58.616 2 59 C2 59.33 2 59.66 2 60 C-8.602 60.271 -19.59 60.318 -29.905 57.475 C-32.217 56.951 -34.291 56.871 -36.66 56.867 C-37.536 56.866 -38.412 56.865 -39.314 56.863 C-40.221 56.867 -41.128 56.871 -42.062 56.875 C-42.973 56.871 -43.884 56.867 -44.822 56.863 C-45.697 56.865 -46.572 56.866 -47.473 56.867 C-47.871 56.868 -47.871 56.868 -49.887 56.871 C-52 57 -52 57 -55 58 C-55 57.34 -55 56.68 -55 56 C-53.02 55.34 -51.04 54.68 -49 54 C-49 53.01 -49 52.02 -49 51 C-50.093 51.021 -51.186 51.041 -52.312 51.062 C-56 51 -56 51 -59 50 C-59 49.34 -59 48.68 -59 48 C-57.357 46.962 -55.688 45.964 -54 45 C-53.34 44.34 -52.68 43.68 -52 43 C-53.65 42.34 -55.3 41.68 -57 41 C-56.67 40.835 -56.67 40.835 -55 40 C-54.301 38.684 -53.633 37.35 -53 36 C-52.835 35.835 -52.835 35.835 -52 35 C-52.66 34.67 -53.32 34.34 -54 34 C-53.387 31.038 -52.746 29.619 -51 27 C-51.162 26.374 -51.325 25.747 -51.492 25.102 C-52.373 21.457 -50.414 18.917 -48.719 15.738 C-43.565 7.527 -38.16 1.644 -28.602 -0.551 C-19.322 -2.153 -9.333 -0.705 0 0 Z " fill="#37992A" transform="translate(395,53)"/>
<path d="M0 0 C0.66 0 1.32 0 2 0 C3.313 2.291 4.626 4.583 5.938 6.875 C6.124 7.2 6.124 7.2 7.068 8.848 C9.887 13.773 9.887 13.773 11 16 C11.66 16 12.32 16 13 16 C13.33 15.34 13.66 14.68 14 14 C14.66 14 15.32 14 16 14 C17.205 15.437 17.205 15.437 18.531 17.43 C19.012 18.143 19.493 18.855 19.988 19.59 C20.487 20.344 20.986 21.098 21.5 21.875 C22.488 23.353 23.477 24.829 24.469 26.305 C24.688 26.635 24.688 26.635 25.795 28.304 C27 30 27 30 29 32 C29 32.99 29 33.98 29 35 C25.7 36.1 23.19 36.142 19.715 36.176 C18.461 36.2 17.208 36.223 15.916 36.248 C13.291 36.291 10.666 36.322 8.041 36.342 C-2.563 36.575 -10.452 38.745 -19 45 C-19.99 45.66 -20.98 46.32 -22 47 C-22 38.782 -19.347 32.631 -15.883 25.334 C-14.097 21.564 -12.535 18.189 -12 14 C-10.68 14.33 -9.36 14.66 -8 15 C-5.36 10.05 -2.72 5.1 0 0 Z " fill="#2D802A" transform="translate(369,14)"/>
<path d="M0 0 C8.242 -0.634 15.89 1.092 22.711 5.918 C27.81 10.35 31.947 15.307 36.066 20.637 C40.844 26.476 45.892 30.483 53 33 C46.623 37.251 37.856 36.895 30.5 35.539 C15.717 31.176 8.706 18.02 1.723 5.379 C0 2 0 2 0 0 Z " fill="#F6F6F6" transform="translate(386,76)"/>
<path d="M0 0 C3.06 2.748 4.566 5.386 5.23 9.449 C5.291 15.257 5.246 19.735 1.301 24.242 C-2.855 27.86 -6.859 28.849 -12.238 28.645 C-17.577 27.896 -20.868 25.746 -24.238 21.582 C-26.991 16.535 -26.72 11.035 -25.238 5.582 C-23.09 1.876 -20.514 -0.646 -16.863 -2.855 C-9.913 -4.345 -5.91 -3.776 0 0 Z " fill="#E8E9E8" transform="translate(550.23828125,30.41796875)"/>
<path d="M0 0 C0.66 0.33 1.32 0.66 2 1 C1.469 1.413 0.938 1.825 0.391 2.25 C-5.845 7.348 -9.505 11.348 -10.375 19.527 C-10.622 27.243 -10.158 33.42 -6 40 C-5.576 40.696 -5.152 41.392 -4.715 42.109 C-1.456 46.938 2.28 49.866 7.242 52.871 C7.822 53.244 8.402 53.616 9 54 C9 54.33 9 54.66 9 55 C-8.509 55.83 -8.509 55.83 -15 51 C-20.95 45.182 -23.533 38.204 -24.438 30.062 C-23.979 21.156 -19.437 14.504 -13.453 8.203 C-9.96 5.066 -6.256 2.935 -2 1 C-1.34 0.67 -0.68 0.34 0 0 Z " fill="#F1F2F1" transform="translate(388,58)"/>
<path d="M0 0 C2.867 -0.103 5.734 -0.206 8.688 -0.312 C9.135 -0.335 9.135 -0.335 11.397 -0.45 C15.693 -0.525 17.493 -0.377 21.051 2.27 C23.448 5.628 23.625 7.107 23.363 11.062 C22.832 13.898 21.853 15.804 20 18 C19.01 18 18.02 18 17 18 C17.494 18.687 17.987 19.374 18.496 20.082 C19.137 20.983 19.777 21.884 20.438 22.812 C21.076 23.706 21.714 24.599 22.371 25.52 C24 28 24 28 25 31 C19.885 31.882 19.885 31.882 17 31 C15.106 28.546 13.826 26.092 12.52 23.285 C12.269 22.908 12.269 22.908 11 21 C9.35 20.67 7.7 20.34 6 20 C6 23.63 6 27.26 6 31 C4.02 31 2.04 31 0 31 C0 20.77 0 10.54 0 0 Z " fill="#EAEAEB" transform="translate(494,28)"/>
<path d="M0 0 C2.31 0 4.62 0 7 0 C9.64 4.95 12.28 9.9 15 15 C17.923 11.347 19.799 8.752 21.75 4.688 C22.178 3.804 22.606 2.921 23.047 2.012 C23.361 1.348 23.676 0.684 24 0 C26.31 0 28.62 0 31 0 C31 9.9 31 19.8 31 30 C29.35 30 27.7 30 26 30 C26 23.73 26 17.46 26 11 C25.34 11 24.68 11 24 11 C23.773 11.825 23.546 12.65 23.312 13.5 C21.726 17.731 19.493 21.252 17 25 C15.203 24.848 15.203 24.848 13 24 C10.623 20.505 8.913 16.782 7 13 C6.67 18.94 6.34 24.88 6 31 C4.02 31 2.04 31 0 31 C0 20.77 0 10.54 0 0 Z " fill="#E9E9E9" transform="translate(564,28)"/>
<path d="M0 0 C6.93 0 13.86 0 21 0 C22.074 4.296 22.073 7.602 22 12 C22.66 12 23.32 12 24 12 C24.33 13.98 24.66 15.96 25 18 C23.624 16.71 22.292 15.373 21 14 C21 13.34 21 12.68 21 12 C20.34 12 19.68 12 19 12 C18.794 12.784 18.587 13.568 18.375 14.375 C16.51 19.293 13.791 23.558 11 28 C9.68 27.34 8.36 26.68 7 26 C7 27.65 7 29.3 7 31 C6.01 31.33 5.02 31.66 4 32 C2.68 33.65 1.36 35.3 0 37 C0 24.79 0 12.58 0 0 Z " fill="#276D22" transform="translate(350,2)"/>
<path d="M0 0 C6 0 6 0 7.751 1.421 C8.21 2.072 8.668 2.724 9.141 3.395 C9.654 4.103 10.167 4.811 10.695 5.541 C11.208 6.291 11.721 7.04 12.25 7.812 C12.779 8.55 13.307 9.288 13.852 10.049 C15.955 12.999 17.99 15.986 20 19 C20.33 12.73 20.66 6.46 21 0 C22.65 0 24.3 0 26 0 C26 9.9 26 19.8 26 30 C20 30 20 30 18.125 28.348 C17.612 27.594 17.099 26.839 16.57 26.062 C16.003 25.25 15.436 24.438 14.852 23.602 C14.282 22.743 13.712 21.885 13.125 21 C12.532 20.141 11.939 19.283 11.328 18.398 C9.867 16.278 8.431 14.141 7 12 C6.67 18.27 6.34 24.54 6 31 C4.02 31 2.04 31 0 31 C0 20.77 0 10.54 0 0 Z " fill="#F4F4F4" transform="translate(640,28)"/>
<path d="M0 0 C0 0.66 0 1.32 0 2 C-0.33 2.165 -0.33 2.165 -2 3 C-3.007 4.662 -4.005 6.33 -5 8 C-5.993 9.276 -6.993 10.547 -8 11.812 C-12.127 17.284 -14.627 22.775 -14.363 29.785 C-13.367 35.861 -10.734 41.533 -8 47 C-14.6 46.67 -21.2 46.34 -28 46 C-28 45.34 -28 44.68 -28 44 C-25.03 43.34 -22.06 42.68 -19 42 C-19.804 41.402 -20.609 40.804 -21.438 40.188 C-24 38 -24 38 -25 35 C-23.35 35 -21.7 35 -20 35 C-20 34.34 -20 33.68 -20 33 C-20.619 32.752 -21.238 32.505 -21.875 32.25 C-24.351 30.794 -24.951 29.622 -26 27 C-24.68 27 -23.36 27 -22 27 C-22 26.34 -22 25.68 -22 25 C-22.66 25 -23.32 25 -24 25 C-23.761 17.457 -21.993 12.713 -17 7 C-11.904 2.423 -7.014 -1.948 0 0 Z " fill="#06121A" transform="translate(379,60)"/>
<path d="M0 0 C2.64 0 5.28 0 8 0 C9.713 4.092 11.422 8.185 13.127 12.28 C13.708 13.674 14.29 15.067 14.873 16.459 C15.71 18.458 16.543 20.459 17.375 22.461 C17.626 23.063 17.626 23.063 18.898 26.111 C20 29 20 29 20 31 C17.69 31 15.38 31 13 31 C12.34 29.02 11.68 27.04 11 25 C8.69 24.835 8.69 24.835 -3 24 C-3.66 25.98 -4.32 27.96 -5 30 C-6.98 30 -8.96 30 -11 30 C-8.853 23.354 -6.596 16.8 -3.949 10.336 C-2.56 6.917 -1.282 3.461 0 0 Z " fill="#E5E6E6" transform="translate(701,28)"/>
<path d="M0 0 C2.31 0 4.62 0 7 0 C8.713 4.092 10.422 8.185 12.127 12.28 C12.708 13.674 13.29 15.067 13.873 16.459 C14.71 18.458 15.543 20.459 16.375 22.461 C16.626 23.063 16.626 23.063 17.898 26.111 C19 29 19 29 19 31 C16.69 31 14.38 31 12 31 C11.34 29.02 10.68 27.04 10 25 C7.69 24.835 7.69 24.835 -4 24 C-4.33 25.98 -4.66 27.96 -5 30 C-6.98 30 -8.96 30 -11 30 C-10.421 25.731 -9.397 22.125 -7.715 18.164 C-7.267 17.101 -6.819 16.037 -6.357 14.941 C-5.889 13.847 -5.42 12.753 -4.938 11.625 C-4.465 10.507 -3.993 9.39 -3.506 8.238 C-2.343 5.49 -1.174 2.744 0 0 Z " fill="#EFEFEF" transform="translate(614,28)"/>
<path d="M0 0 C24.75 0 49.5 0 75 0 C75 1.65 75 3.3 75 5 C50.25 5 25.5 5 0 5 C0 3.35 0 1.7 0 0 Z " fill="#D6B009" transform="translate(568,70)"/>
<path d="M0 0 C24.42 0 48.84 0 74 0 C74 1.65 74 3.3 74 5 C49.58 5 25.16 5 0 5 C0 3.35 0 1.7 0 0 Z " fill="#CF1A1B" transform="translate(647,70)"/>
<path d="M0 0 C2.025 1.933 3.421 3.632 5 6 C6.32 4.68 7.64 3.36 9 2 C9.66 2.66 10.32 3.32 11 4 C12.883 4.238 12.883 4.238 15.125 4.312 C20.294 4.772 24.026 6.703 28 10 C30.98 14.47 30.487 18.758 30 24 C28.472 28.277 26.862 30.603 23 33 C23 32.051 23 31.102 23 30.125 C22.208 24.297 17.664 20.318 14 16 C10 10.634 10 10.634 10 8 C9.34 8 8.68 8 8 8 C7.67 8.99 7.34 9.98 7 11 C4 10 4 10 2.832 8.223 C2.496 7.51 2.159 6.797 1.812 6.062 C1.468 5.352 1.124 4.642 0.77 3.91 C0 2 0 2 0 0 Z " fill="#040D13" transform="translate(375,20)"/>
<path d="M0 0 C0.485 0.01 0.485 0.01 2.938 0.062 C2.608 1.383 2.277 2.703 1.938 4.062 C1.938 3.402 1.938 2.742 1.938 2.062 C0.618 2.062 -0.702 2.062 -2.062 2.062 C-2.062 3.053 -2.062 4.043 -2.062 5.062 C-1.072 5.062 -0.082 5.062 0.938 5.062 C0.998 5.773 1.059 6.483 1.121 7.215 C1.205 8.134 1.289 9.053 1.375 10 C1.456 10.917 1.537 11.833 1.621 12.777 C1.938 15.062 1.938 15.062 2.938 16.062 C3.928 14.413 4.918 12.763 5.938 11.062 C6.762 11.227 6.762 11.227 10.938 12.062 C10.865 12.382 10.865 12.382 10.5 14 C9.938 17.062 9.938 17.062 9.859 19.188 C9.661 23.378 9.258 26.338 6.438 29.562 C3.158 32.469 0.174 32.607 -4.078 32.785 C-6.062 33.062 -6.062 33.062 -8 35.125 C-8.351 35.764 -8.701 36.404 -9.062 37.062 C-9.723 37.062 -10.382 37.062 -11.062 37.062 C-9.188 33.188 -9.188 33.188 -8.062 32.062 C-9.382 31.733 -10.702 31.403 -12.062 31.062 C-11.188 24.188 -11.188 24.188 -10.062 23.062 C-9.832 21.715 -9.651 20.359 -9.5 19 C-9.356 17.701 -9.211 16.401 -9.062 15.062 C-8.733 15.062 -8.402 15.062 -8.062 15.062 C-7.733 17.703 -7.402 20.343 -7.062 23.062 C-5.743 23.062 -4.423 23.062 -3.062 23.062 C-2.733 17.453 -2.402 11.843 -2.062 6.062 C-2.723 6.062 -3.382 6.062 -4.062 6.062 C-4.105 4.396 -4.103 2.729 -4.062 1.062 C-3.062 0.062 -3.062 0.062 0 0 Z " fill="#FCB70E" transform="translate(415.0625,19.9375)"/>
<path d="M0 0 C3.737 0.879 5.13 2.299 7.16 5.508 C7.972 9.864 7.643 13.374 5.91 17.445 C3.984 19.716 3.029 20.711 0.16 21.508 C-3.8 21.366 -6.077 21.11 -9.215 18.633 C-12.173 14.765 -12.322 11.249 -11.84 6.508 C-8.77 1.06 -6.046 -0.464 0 0 Z " fill="#0B121D" transform="translate(541.83984375,32.4921875)"/>
<path d="M0 0 C23.1 0 46.2 0 70 0 C70 1.32 70 2.64 70 4 C46.9 4 23.8 4 0 4 C0 2.68 0 1.36 0 0 Z " fill="#1076D7" transform="translate(494,71)"/>
<path d="M0 0 C1.257 0.003 2.514 0.006 3.809 0.01 C5.127 0.018 6.446 0.027 7.805 0.035 C9.145 0.04 10.484 0.045 11.824 0.049 C15.109 0.061 18.395 0.077 21.68 0.098 C21.68 0.428 21.68 0.758 21.68 1.098 C19.535 1.263 19.535 1.263 8.68 2.098 C8.721 3.438 8.762 4.779 8.805 6.16 C8.818 10.541 8.008 13.946 6.68 18.098 C6.68 19.088 6.68 20.078 6.68 21.098 C4.18 23.285 4.18 23.285 1.68 25.098 C0.836 23.687 0.005 22.269 -0.82 20.848 C-1.284 20.059 -1.748 19.27 -2.227 18.457 C-3.32 16.098 -3.32 16.098 -3.32 12.098 C-3.98 12.098 -4.64 12.098 -5.32 12.098 C-5.345 11.743 -5.345 11.743 -5.469 9.945 C-5.506 9.486 -5.506 9.486 -5.695 7.16 C-5.765 6.244 -5.835 5.327 -5.906 4.383 C-6.043 3.629 -6.18 2.875 -6.32 2.098 C-6.98 1.768 -7.64 1.438 -8.32 1.098 C-5.502 -0.311 -3.148 -0.014 0 0 Z M-5.32 2.098 C-4.32 4.098 -4.32 4.098 -4.32 4.098 Z " fill="#B79D07" transform="translate(377.3203125,1.90234375)"/>
<path d="M0 0 C2.31 0 4.62 0 7 0 C7 9.9 7 19.8 7 30 C5.35 30 3.7 30 2 30 C2 23.73 2 17.46 2 11 C1.34 11 0.68 11 0 11 C-0.66 12.98 -1.32 14.96 -2 17 C-2.66 17 -3.32 17 -4 17 C-4 16.34 -4 15.68 -4 15 C-4.99 15.33 -5.98 15.66 -7 16 C-6.28 12.247 -4.669 9.139 -2.938 5.75 C-2.664 5.211 -2.664 5.211 -1.277 2.484 C-1.067 2.074 -1.067 2.074 0 0 Z " fill="#F6F6F6" transform="translate(588,28)"/>
<path d="M0 0 C6 0 6 0 7.898 1.68 C8.386 2.404 8.873 3.129 9.375 3.875 C9.878 4.594 10.38 5.314 10.898 6.055 C12 8 12 8 12 10 C11.01 10 10.02 10 9 10 C9 10.66 9 11.32 9 12 C8.34 12 7.68 12 7 12 C6.67 18.27 6.34 24.54 6 31 C4.02 31 2.04 31 0 31 C0 20.77 0 10.54 0 0 Z " fill="#EDEEED" transform="translate(640,28)"/>
<path d="M0 0 C1.98 0.66 3.96 1.32 6 2 C5.505 2.557 5.01 3.114 4.5 3.688 C2.752 6.382 2.738 7.854 3 11 C4.32 10.67 5.64 10.34 7 10 C3.375 14.875 3.375 14.875 0 16 C-0.33 18.97 -0.66 21.94 -1 25 C-1.99 25 -2.98 25 -4 25 C-4.445 18.048 -4.673 13.403 0 8 C-3.242 10.411 -4.749 11.742 -5.555 15.781 C-5.788 18.525 -5.947 21.247 -6 24 C-7.65 24 -9.3 24 -11 24 C-11.611 18.483 -11.766 14.307 -8.312 9.75 C-7.228 8.483 -6.124 7.232 -5 6 C-4.038 4.836 -3.079 3.67 -2.125 2.5 C-1.424 1.675 -0.723 0.85 0 0 Z " fill="#D5A21C" transform="translate(402,49)"/>
<path d="M0 0 C2.207 0.059 2.207 0.059 4.812 0.438 C7.873 0.83 9.895 1.022 12.938 0.375 C15 0 15 0 16.812 1.125 C18.398 3.628 18.437 5.087 18 8 C16.938 9.875 16.938 9.875 15 11 C12.659 10.725 10.326 10.381 8 10 C6.557 10.143 5.119 10.331 3.688 10.562 C3.079 10.635 3.079 10.635 0 11 C-2 9 -2 9 -2.25 5.5 C-2 2 -2 2 0 0 Z " fill="#898989" transform="translate(40,31)"/>
<path d="M0 0 C1.98 0 3.96 0 6 0 C6 10.23 6 20.46 6 31 C4.02 31 2.04 31 0 31 C0 20.77 0 10.54 0 0 Z " fill="#E5E5E5" transform="translate(677,28)"/>
<path d="M0 0 C2.647 2.647 3.599 5.562 5 9 C5.99 9 6.98 9 8 9 C8.33 8.34 8.66 7.68 9 7 C11.94 12.578 14.53 17.853 16 24 C13.69 24 11.38 24 9 24 C8.34 22.02 7.68 20.04 7 18 C2.71 17.67 -1.58 17.34 -6 17 C-4 15 -4 15 -1.836 14.805 C-1.43 14.816 -1.43 14.816 0.625 14.875 C1.034 14.884 1.034 14.884 3.102 14.93 C3.415 14.941 3.415 14.941 5 15 C5 14.01 5 13.02 5 12 C2.03 12 -0.94 12 -4 12 C-3.335 7.611 -1.812 4.019 0 0 Z " fill="#DFDFE0" transform="translate(617,35)"/>
<path d="M0 0 C0.66 0 1.32 0 2 0 C2.543 0.953 3.085 1.905 3.645 2.887 C4.367 4.154 5.09 5.421 5.812 6.688 C5.991 7 5.991 7 6.893 8.584 C7.244 9.2 7.595 9.815 7.957 10.449 C8.301 11.054 8.644 11.659 8.999 12.283 C9.898 13.825 10.858 15.331 11.824 16.832 C12.212 17.547 12.6 18.263 13 19 C12.67 19.66 12.34 20.32 12 21 C11.301 20.218 10.603 19.435 9.883 18.629 C8.964 17.607 8.044 16.585 7.125 15.562 C6.665 15.046 6.205 14.53 5.73 13.998 C2.227 10.113 2.227 10.113 0 9 C-0.268 9.722 -0.536 10.444 -0.812 11.188 C-1.993 13.983 -3.412 16.419 -5 19 C-5.681 20.326 -6.353 21.657 -7 23 C-7.598 22.773 -8.196 22.546 -8.812 22.312 C-9.534 22.209 -10.256 22.106 -11 22 C-11.99 22.99 -12.98 23.98 -14 25 C-13.34 21.37 -12.68 17.74 -12 14 C-10.68 14.33 -9.36 14.66 -8 15 C-5.36 10.05 -2.72 5.1 0 0 Z " fill="#E9EDE8" transform="translate(369,14)"/>
<path d="M0 0 C2.375 1 2.375 1 4 2 C4.33 1.34 4.66 0.68 5 0 C5.99 0.33 6.98 0.66 8 1 C8.949 3.285 8.949 3.285 9.688 6.062 C9.939 6.982 10.19 7.901 10.449 8.848 C10.631 9.558 10.813 10.268 11 11 C10.34 11 9.68 11 9 11 C8.67 10.34 8.34 9.68 8 9 C5.938 8.375 5.938 8.375 4 8 C4 8.99 4 9.98 4 11 C2.397 11.081 0.792 11.139 -0.812 11.188 C-1.706 11.222 -2.599 11.257 -3.52 11.293 C-6 11 -6 11 -7.801 9.645 C-9.507 7.304 -9.424 5.827 -9 3 C-6.722 -0.67 -4.046 -0.413 0 0 Z " fill="#858586" transform="translate(128,31)"/>
<path d="M0 0 C0.812 2.125 0.812 2.125 1 5 C-0.444 7.301 -2.109 9.016 -4 11 C-4.33 10.34 -4.66 9.68 -5 9 C-11.227 10.654 -16.54 12.558 -22 16 C-21.67 15.01 -21.34 14.02 -21 13 C-20.34 13 -19.68 13 -19 13 C-19.99 11.68 -20.98 10.36 -22 9 C-16.72 7.68 -11.44 6.36 -6 5 C-9.96 4.67 -13.92 4.34 -18 4 C-18 3.34 -18 2.68 -18 2 C-22.62 2 -27.24 2 -32 2 C-32 1.67 -32 1.34 -32 1 C-27.925 0.857 -23.85 0.715 -19.775 0.573 C-18.389 0.524 -17.003 0.476 -15.616 0.427 C-13.623 0.357 -11.63 0.288 -9.637 0.219 C-8.437 0.177 -7.238 0.135 -6.003 0.092 C-4.002 0.031 -2.001 0 0 0 Z " fill="#142419" transform="translate(398,49)"/>
<path d="M0 0 C0.884 -0.026 1.769 -0.052 2.68 -0.078 C5.535 0.305 6.365 1.035 8.125 3.25 C8.455 2.26 8.785 1.27 9.125 0.25 C9.785 0.25 10.445 0.25 11.125 0.25 C10.754 1.137 10.382 2.024 10 2.938 C9.017 6.658 9.364 7.924 11.125 11.25 C10.465 11.25 9.805 11.25 9.125 11.25 C8.795 10.59 8.465 9.93 8.125 9.25 C7.3 9.58 6.475 9.91 5.625 10.25 C1.538 11.418 -1.644 11.396 -5.875 11.25 C-5.902 9.604 -5.921 7.958 -5.938 6.312 C-5.949 5.396 -5.961 4.479 -5.973 3.535 C-5.795 -0.629 -3.669 0.064 0 0 Z " fill="#656667" transform="translate(161.875,30.75)"/>
<path d="M0 0 C0.701 0.144 1.403 0.289 2.125 0.438 C5.465 1.091 8.605 1.067 12 1 C11.67 1.165 11.67 1.165 10 2 C10 4.64 10 7.28 10 10 C9.34 10 8.68 10 8 10 C8 7.69 8 5.38 8 3 C6.35 3.33 4.7 3.66 3 4 C3.392 4.557 3.784 5.114 4.188 5.688 C4.456 6.451 4.724 7.214 5 8 C3.625 10.75 3.625 10.75 2 13 C1.34 12.01 0.68 11.02 0 10 C-3.039 9.589 -5.922 9.868 -9 10 C-9 7.03 -9 4.06 -9 1 C-7.701 1.021 -6.401 1.041 -5.062 1.062 C-3.708 1.084 -2.352 1.071 -1 1 C-0.67 0.67 -0.34 0.34 0 0 Z " fill="#7D7D7E" transform="translate(643,86)"/>
<path d="M0 0 C0.66 0 1.32 0 2 0 C2.66 1.32 3.32 2.64 4 4 C4.99 2.68 5.98 1.36 7 0 C7.825 0.165 7.825 0.165 12 1 C12 3.97 12 6.94 12 10 C11.258 9.649 10.515 9.299 9.75 8.938 C6.868 7.955 5.788 7.967 3 9 C2.835 8.175 2.835 8.175 2 4 C1.34 4 0.68 4 0 4 C-0.309 4.619 -0.619 5.237 -0.938 5.875 C-1.625 7.25 -2.312 8.625 -3 10 C-4.98 10 -6.96 10 -9 10 C-9 7.03 -9 4.06 -9 1 C-6.667 0.958 -4.333 0.959 -2 1 C-1.67 1.33 -1.34 1.66 -1 2 C-0.67 1.34 -0.34 0.68 0 0 Z " fill="#66696D" transform="translate(666,86)"/>
<path d="M0 0 C-3.246 2.164 -4.185 2.248 -7.938 2.273 C-8.91 2.291 -9.883 2.309 -10.885 2.327 C-11.913 2.343 -12.941 2.359 -14 2.375 C-24.763 2.69 -33.701 3.504 -42 11 C-42.66 11 -43.32 11 -44 11 C-44.66 12.32 -45.32 13.64 -46 15 C-46 10.686 -43.889 9.041 -41.07 5.938 C-30.081 -4.347 -13.691 -1.035 0 0 Z " fill="#E4E9E1" transform="translate(395,53)"/>
<path d="M0 0 C0.33 0 0.66 0 1 0 C1 3.63 1 7.26 1 11 C1.825 11.206 2.65 11.412 3.5 11.625 C9.545 14 14.277 17.675 18 23 C16.35 23.66 14.7 24.32 13 25 C12.49 24.469 11.979 23.938 11.453 23.391 C5.514 17.62 -0.02 15.052 -8 13 C-5 11 -5 11 -2 10 C-1.939 9.362 -1.879 8.724 -1.816 8.066 C-1.733 7.24 -1.649 6.414 -1.562 5.562 C-1.481 4.739 -1.4 3.915 -1.316 3.066 C-1 1 -1 1 0 0 Z " fill="#26241D" transform="translate(402,64)"/>
<path d="M0 0 C0.99 0 1.98 0 3 0 C3.66 2.64 4.32 5.28 5 8 C5.33 6.35 5.66 4.7 6 3 C6.66 3 7.32 3 8 3 C8 5.31 8 7.62 8 10 C9.32 10 10.64 10 12 10 C12 10.66 12 11.32 12 12 C7.079 12.167 3.497 12.248 -1 10 C-1 10.66 -1 11.32 -1 12 C-1.66 12 -2.32 12 -3 12 C-2.67 10.35 -2.34 8.7 -2 7 C-2.66 6.67 -3.32 6.34 -4 6 C-4.33 5.67 -4.66 5.34 -5 5 C-5 6.98 -5 8.96 -5 11 C-5.66 11 -6.32 11 -7 11 C-7 8.69 -7 6.38 -7 4 C-7.66 4 -8.32 4 -9 4 C-9 3.34 -9 2.68 -9 2 C-6.949 1.772 -4.898 1.544 -2.848 1.316 C-1 1 -1 1 0 0 Z " fill="#87888A" transform="translate(612,84)"/>
<path d="M0 0 C-0.33 0.66 -0.66 1.32 -1 2 C-0.67 2.66 -0.34 3.32 0 4 C0.02 6.063 -0.008 8.126 -0.062 10.188 C-0.113 15.261 0.236 19.261 2 24 C1.34 24.33 0.68 24.66 0 25 C-0.844 23.59 -1.675 22.171 -2.5 20.75 C-2.964 19.961 -3.428 19.172 -3.906 18.359 C-5 16 -5 16 -5 12 C-5.66 12 -6.32 12 -7 12 C-7.024 11.645 -7.024 11.645 -7.148 9.848 C-7.186 9.388 -7.186 9.388 -7.375 7.062 C-7.445 6.146 -7.514 5.229 -7.586 4.285 C-7.723 3.531 -7.859 2.777 -8 2 C-8.66 1.67 -9.32 1.34 -10 1 C-6.785 -0.607 -3.564 -0.057 0 0 Z M-7 2 C-6 4 -6 4 -6 4 Z " fill="#868B10" transform="translate(379,2)"/>
<path d="M0 0 C2.724 2.353 3.814 4.625 5 8 C5.33 5.36 5.66 2.72 6 0 C8.875 -0.125 8.875 -0.125 12 0 C12.66 0.66 13.32 1.32 14 2 C13.625 4.125 13.625 4.125 13 6 C11.68 6.33 10.36 6.66 9 7 C9 8.32 9 9.64 9 11 C5.25 12.125 5.25 12.125 3 11 C3 10.01 3 9.02 3 8 C1.35 8 -0.3 8 -2 8 C-2 8.99 -2 9.98 -2 11 C-2.66 11 -3.32 11 -4 11 C-3.49 6.611 -2.478 3.663 0 0 Z " fill="#969699" transform="translate(238,31)"/>
<path d="M0 0 C8.625 -0.25 8.625 -0.25 12 2 C11.125 7.875 11.125 7.875 10 9 C8.314 9.072 6.625 9.084 4.938 9.062 C4.018 9.053 3.099 9.044 2.152 9.035 C1.442 9.024 0.732 9.012 0 9 C0 6.03 0 3.06 0 0 Z " fill="#0D141E" transform="translate(500,33)"/>
<path d="M0 0 C1.675 0.286 3.344 0.618 5 1 C4.856 1.639 4.711 2.279 4.562 2.938 C4 6 4 6 3.922 8.125 C3.724 12.315 3.321 15.275 0.5 18.5 C-2.779 21.406 -5.763 21.544 -10.016 21.723 C-12 22 -12 22 -13.938 24.062 C-14.288 24.702 -14.639 25.341 -15 26 C-15.66 26 -16.32 26 -17 26 C-15.707 23.115 -14.584 20.871 -12 19 C-9.667 18.667 -7.333 18.333 -5 18 C-3.188 16.438 -3.188 16.438 -2 15 C-1.34 15 -0.68 15 0 15 C0.095 10.168 0.037 5.742 -1 1 C-0.67 0.67 -0.34 0.34 0 0 Z " fill="#F9EFD7" transform="translate(421,31)"/>
<path d="M0 0 C0.99 0.33 1.98 0.66 3 1 C2.67 4.3 2.34 7.6 2 11 C0.68 11 -0.64 11 -2 11 C-2.66 11.186 -3.32 11.371 -4 11.562 C-6.345 12.076 -7.726 11.682 -10 11 C-10.66 11 -11.32 11 -12 11 C-11.453 7.625 -10.945 5.918 -9 3 C-8.34 3 -7.68 3 -7 3 C-6.34 3.66 -5.68 4.32 -5 5 C-2 4 -2 4 -0.812 1.938 C-0.544 1.298 -0.276 0.659 0 0 Z " fill="#171B20" transform="translate(590,84)"/>
<path d="M0 0 C0.99 0.33 1.98 0.66 3 1 C3.33 2.65 3.66 4.3 4 6 C4.66 5.67 5.32 5.34 6 5 C6.625 2.438 6.625 2.438 7 0 C7.66 0 8.32 0 9 0 C9 2.97 9 5.94 9 9 C10.65 9 12.3 9 14 9 C14 9.66 14 10.32 14 11 C10.7 11 7.4 11 4 11 C4 10.01 4 9.02 4 8 C1.69 8.66 -0.62 9.32 -3 10 C-2.25 3.375 -2.25 3.375 0 0 Z " fill="#A2A3A2" transform="translate(70,60)"/>
<path d="M0 0 C0.66 0.33 1.32 0.66 2 1 C1.368 5.678 1.368 5.678 -0.5 7.312 C-2.607 9.683 -2.504 11.563 -2.688 14.688 C-2.753 15.681 -2.819 16.675 -2.887 17.699 C-2.924 18.458 -2.961 19.218 -3 20 C-4.65 20 -6.3 20 -8 20 C-8.632 14.292 -8.69 10.207 -5.125 5.5 C-3.488 3.57 -1.79 1.79 0 0 Z " fill="#CFA208" transform="translate(399,53)"/>
<path d="M0 0 C0.485 0.01 0.485 0.01 2.938 0.062 C2.608 1.383 2.277 2.703 1.938 4.062 C1.938 3.402 1.938 2.742 1.938 2.062 C0.618 2.062 -0.702 2.062 -2.062 2.062 C-2.062 3.053 -2.062 4.043 -2.062 5.062 C-1.072 5.062 -0.082 5.062 0.938 5.062 C1.046 7.814 1.125 10.56 1.188 13.312 C1.221 14.09 1.255 14.867 1.289 15.668 C1.388 21.444 1.388 21.444 -0.906 24.594 C-3.5 26.361 -4.986 26.404 -8.062 26.062 C-8.062 25.403 -8.062 24.742 -8.062 24.062 C-7.423 23.939 -6.784 23.815 -6.125 23.688 C-5.444 23.481 -4.764 23.275 -4.062 23.062 C-2.541 20.02 -2.688 16.782 -2.5 13.438 C-2.478 13.084 -2.478 13.084 -2.369 11.297 C-2.263 9.552 -2.162 7.807 -2.062 6.062 C-2.723 6.062 -3.382 6.062 -4.062 6.062 C-4.105 4.396 -4.103 2.729 -4.062 1.062 C-3.062 0.062 -3.062 0.062 0 0 Z " fill="#FBE9BB" transform="translate(415.0625,19.9375)"/>
<path d="M0 0 C4.29 0 8.58 0 13 0 C13 3.3 13 6.6 13 10 C12.34 10 11.68 10 11 10 C11 7.69 11 5.38 11 3 C10.01 3 9.02 3 8 3 C8 5.97 8 8.94 8 12 C7.67 12.165 7.67 12.165 6 13 C6 9.7 6 6.4 6 3 C5.01 3 4.02 3 3 3 C3 4.98 3 6.96 3 9 C2.01 9.33 1.02 9.66 0 10 C0 6.7 0 3.4 0 0 Z " fill="#CBCBC9" transform="translate(563,86)"/>
<path d="M0 0 C1.331 6.412 1.331 6.412 -0.125 9 C-2 10 -2 10 -4.562 9.812 C-7 9 -7 9 -9 7 C-9.363 4.166 -9.357 2.595 -7.875 0.125 C-5.078 -1.553 -3.063 -0.749 0 0 Z " fill="#D6D6D4" transform="translate(57,32)"/>
<path d="M0 0 C5.429 -0.362 5.429 -0.362 7.875 1.188 C9.407 3.655 9.428 5.145 9 8 C7.875 9.812 7.875 9.812 6 11 C2.812 11.188 2.812 11.188 0 11 C0 7.37 0 3.74 0 0 Z " fill="#CDCECC" transform="translate(206,31)"/>
<path d="M0 0 C3.125 0.375 3.125 0.375 6 1 C7.331 7.412 7.331 7.412 5.875 10 C4 11 4 11 1.438 10.875 C-1 10 -1 10 -3 7 C-2.676 3.678 -2.392 2.392 0 0 Z " fill="#CFCFCE" transform="translate(29,31)"/>
<path d="M0 0 C2.31 0 4.62 0 7 0 C6.576 1.94 6.135 3.877 5.688 5.812 C5.444 6.891 5.2 7.97 4.949 9.082 C3.997 12.009 3.206 12.994 1 15 C1.312 17.188 1.312 17.188 2 19 C1.01 19.33 0.02 19.66 -1 20 C-1 19.01 -1 18.02 -1 17 C-1.66 16.67 -2.32 16.34 -3 16 C-2.845 15.515 -2.845 15.515 -2.062 13.062 C-0.82 8.763 -0.383 4.447 0 0 Z " fill="#D3A602" transform="translate(386,4)"/>
<path d="M0 0 C0.91 0.009 1.82 0.018 2.758 0.027 C3.456 0.039 4.155 0.051 4.875 0.062 C4.875 1.383 4.875 2.703 4.875 4.062 C4.267 4.166 4.267 4.166 1.188 4.688 C-3.63 5.851 -5.347 8.069 -8.125 12.062 C-8.455 11.403 -8.785 10.742 -9.125 10.062 C-10.115 10.392 -11.105 10.722 -12.125 11.062 C-9.482 3.947 -7.978 -0.102 0 0 Z " fill="#F3F2F2" transform="translate(538.125,27.9375)"/>
<path d="M0 0 C3.375 -0.188 3.375 -0.188 7 0 C9 3 9 3 8.75 5.562 C8 8 8 8 6 10 C2.875 10.125 2.875 10.125 0 10 C0 6.7 0 3.4 0 0 Z " fill="#DADAD9" transform="translate(57,60)"/>
<path d="M0 0 C1.675 0.286 3.344 0.618 5 1 C5 1.66 5 2.32 5 3 C3.35 2.67 1.7 2.34 0 2 C0 2.66 0 3.32 0 4 C1.32 4.33 2.64 4.66 4 5 C4.33 6.65 4.66 8.3 5 10 C2.688 10.625 2.688 10.625 0 11 C-0.99 10.34 -1.98 9.68 -3 9 C-3 8.34 -3 7.68 -3 7 C-3.99 7.33 -4.98 7.66 -6 8 C-6 6.02 -6 4.04 -6 2 C-5.598 1.928 -5.598 1.928 -3.562 1.562 C-1 1 -1 1 0 0 Z " fill="#1C1F23" transform="translate(84,31)"/>
<path d="M0 0 C2.025 1.933 3.421 3.632 5 6 C6.32 4.68 7.64 3.36 9 2 C9.66 2.66 10.32 3.32 11 4 C12.953 4.309 12.953 4.309 15.25 4.438 C19.397 4.799 22.377 5.863 26 8 C25.01 8.33 24.02 8.66 23 9 C22.34 8.67 21.68 8.34 21 8 C19.866 8 18.731 8 17.562 8 C14 8 14 8 11 7 C11.33 7.99 11.66 8.98 12 10 C11.34 10 10.68 10 10 10 C10 9.34 10 8.68 10 8 C9.34 8 8.68 8 8 8 C7.67 8.99 7.34 9.98 7 11 C4 10 4 10 2.832 8.223 C2.496 7.51 2.159 6.797 1.812 6.062 C1.468 5.352 1.124 4.642 0.77 3.91 C0 2 0 2 0 0 Z " fill="#151608" transform="translate(375,20)"/>
<path d="M0 0 C0.66 0 1.32 0 2 0 C2 2.64 2 5.28 2 8 C2.99 8 3.98 8 5 8 C5.33 7.34 5.66 6.68 6 6 C10.383 8.188 12.116 10.345 14.312 14.688 C14.824 15.681 15.336 16.675 15.863 17.699 C16.238 18.458 16.614 19.218 17 20 C14 19 14 19 11.875 16.75 C8.289 13.32 4.39 11.248 0 9 C0 6.03 0 3.06 0 0 Z " fill="#E9BE19" transform="translate(403,66)"/>
<path d="M0 0 C0.66 0 1.32 0 2 0 C3.524 2.983 4.939 5.818 6 9 C-0.6 8.67 -7.2 8.34 -14 8 C-14 7.34 -14 6.68 -14 6 C-13.385 5.867 -12.77 5.734 -12.137 5.598 C-11.328 5.421 -10.52 5.244 -9.688 5.062 C-8.887 4.888 -8.086 4.714 -7.262 4.535 C-5 4 -5 4 -2 3 C-1.34 3 -0.68 3 0 3 C0 2.01 0 1.02 0 0 Z " fill="#0B1815" transform="translate(365,98)"/>
<path d="M0 0 C1.65 0.33 3.3 0.66 5 1 C5 3.97 5 6.94 5 10 C4.258 9.649 3.515 9.299 2.75 8.938 C-0.132 7.955 -1.212 7.967 -4 9 C-6.125 4.375 -6.125 4.375 -5 1 C-4.34 1.99 -3.68 2.98 -3 4 C-2.01 2.68 -1.02 1.36 0 0 Z " fill="#686A6C" transform="translate(673,86)"/>
<path d="M0 0 C0.681 0.165 1.361 0.33 2.062 0.5 C5.416 1.071 8.604 1.067 12 1 C11.67 1.165 11.67 1.165 10 2 C10 4.64 10 7.28 10 10 C9.34 10 8.68 10 8 10 C8 7.69 8 5.38 8 3 C6.35 3.33 4.7 3.66 3 4 C3.196 4.278 3.196 4.278 4.188 5.688 C4.456 6.451 4.724 7.214 5 8 C3.625 10.75 3.625 10.75 2 13 C1.01 11.68 0.02 10.36 -1 9 C-0.67 8.34 -0.34 7.68 0 7 C0.99 7.33 1.98 7.66 3 8 C3 7.34 3 6.68 3 6 C1.68 5.67 0.36 5.34 -1 5 C-0.67 3.35 -0.34 1.7 0 0 Z " fill="#DADBDB" transform="translate(643,86)"/>
<path d="M0 0 C2.935 0.367 3.864 0.864 6 3 C6.125 5.625 6.125 5.625 6 8 C2.625 8.625 2.625 8.625 -1 9 C-1.66 8.34 -2.32 7.68 -3 7 C-2.67 3.703 -2.377 2.377 0 0 Z " fill="#C4C4C5" transform="translate(692,86)"/>
<path d="M0 0 C2.31 0 4.62 0 7 0 C7.33 1.65 7.66 3.3 8 5 C7.34 5 6.68 5 6 5 C6.66 6.65 7.32 8.3 8 10 C5.007 9.002 4.052 8.248 2 6 C2 7.32 2 8.64 2 10 C1.34 10 0.68 10 0 10 C0 6.7 0 3.4 0 0 Z " fill="#8F8F90" transform="translate(120,60)"/>
<path d="M0 0 C0.66 0 1.32 0 2 0 C3.508 1.68 3.508 1.68 5.125 3.875 C5.664 4.594 6.203 5.314 6.758 6.055 C8 8 8 8 8 10 C2.72 10.433 2.72 10.433 0 10 C-2.125 7.75 -2.125 7.75 -3 5 C-2.285 2.856 -1.588 1.588 0 0 Z " fill="#E6E6E6" transform="translate(511,49)"/>
<path d="M0 0 C2.349 2.349 2.731 3.957 3.625 7.125 C3.885 8.035 4.146 8.945 4.414 9.883 C4.607 10.581 4.801 11.28 5 12 C2.03 12 -0.94 12 -4 12 C-3.335 7.611 -1.812 4.019 0 0 Z " fill="#2A2B2E" transform="translate(617,35)"/>
<path d="M0 0 C1.98 0 3.96 0 6 0 C6 2.64 6 5.28 6 8 C6.99 8.33 7.98 8.66 9 9 C7.35 9 5.7 9 4 9 C4 6.69 4 4.38 4 2 C3.34 2 2.68 2 2 2 C2.021 2.969 2.041 3.939 2.062 4.938 C2 8 2 8 1 9 C-1.5 9.125 -1.5 9.125 -4 9 C-5 8 -5 8 -5.062 4.438 C-5.042 3.303 -5.021 2.169 -5 1 C-4.34 1 -3.68 1 -3 1 C-2.938 1.485 -2.938 1.485 -2.625 3.938 C-2.522 4.443 -2.522 4.443 -2 7 C-1.34 7.33 -0.68 7.66 0 8 C0 5.36 0 2.72 0 0 Z " fill="#CECDCE" transform="translate(712,86)"/>
<path d="M0 0 C1.708 1.634 2.935 2.869 4 5 C4.33 3.35 4.66 1.7 5 0 C5.66 0 6.32 0 7 0 C7 2.31 7 4.62 7 7 C8.32 7 9.64 7 11 7 C11 7.66 11 8.32 11 9 C6.079 9.167 2.497 9.248 -2 7 C-2 7.66 -2 8.32 -2 9 C-2.66 9 -3.32 9 -4 9 C-3.34 7.02 -2.68 5.04 -2 3 C-1.67 3.66 -1.34 4.32 -1 5 C-0.34 5 0.32 5 1 5 C0.835 4.175 0.835 4.175 0 0 Z " fill="#C3C5C5" transform="translate(613,87)"/>
<path d="M0 0 C3.3 0 6.6 0 10 0 C10 0.66 10 1.32 10 2 C9.34 2 8.68 2 8 2 C8 3.98 8 5.96 8 8 C7.01 8 6.02 8 5 8 C5 6.02 5 4.04 5 2 C4.34 2 3.68 2 3 2 C3.33 4.31 3.66 6.62 4 9 C2.68 9 1.36 9 0 9 C0 6.03 0 3.06 0 0 Z " fill="#868788" transform="translate(679,87)"/>
<path d="M0 0 C2.875 -0.125 2.875 -0.125 6 0 C6.66 0.66 7.32 1.32 8 2 C7.625 4.625 7.625 4.625 7 7 C5.35 7 3.7 7 2 7 C2 8.32 2 9.64 2 11 C1.34 11 0.68 11 0 11 C0 7.37 0 3.74 0 0 Z " fill="#A2A1A0" transform="translate(4,59)"/>
<path d="M0 0 C1.65 1.65 3.3 3.3 5 5 C5.33 3.35 5.66 1.7 6 0 C6.66 0 7.32 0 8 0 C8 3.63 8 7.26 8 11 C7.34 11 6.68 11 6 11 C4.611 9.039 3.274 7.038 2 5 C1.67 6.98 1.34 8.96 1 11 C0.34 11 -0.32 11 -1 11 C-1.027 9.354 -1.046 7.708 -1.062 6.062 C-1.074 5.146 -1.086 4.229 -1.098 3.285 C-1 1 -1 1 0 0 Z " fill="#C4C5C3" transform="translate(192,31)"/>
<path d="M0 0 C0.66 0 1.32 0 2 0 C3.625 2 3.625 2 5 4 C5.33 2.68 5.66 1.36 6 0 C6.66 0 7.32 0 8 0 C8 3.63 8 7.26 8 11 C6.35 9.35 4.7 7.7 3 6 C2.67 7.65 2.34 9.3 2 11 C1.34 11 0.68 11 0 11 C0 7.37 0 3.74 0 0 Z " fill="#C0C0C0" transform="translate(68,31)"/>
<path d="M0 0 C2.625 -0.188 2.625 -0.188 5 0 C6.32 2.31 7.64 4.62 9 7 C6.625 7.125 6.625 7.125 4 7 C3.34 6.34 2.68 5.68 2 5 C1.34 5.66 0.68 6.32 0 7 C-1.32 7 -2.64 7 -4 7 C-2.796 4.506 -1.546 2.319 0 0 Z " fill="#E6E6E6" transform="translate(615,18)"/>
<path d="M0 0 C0.825 0.165 0.825 0.165 5 1 C5.085 5.698 5.114 10.215 4.438 14.875 C4.039 17.723 4.041 19.336 5 22 C4.34 22 3.68 22 3 22 C1.295 17.579 0.8 14.037 0.938 9.312 C1.097 3.292 1.097 3.292 0 0 Z " fill="#9A9309" transform="translate(377,3)"/>
<path d="M0 0 C0.66 0 1.32 0 2 0 C2.054 1.458 2.093 2.916 2.125 4.375 C2.148 5.187 2.171 5.999 2.195 6.836 C2 9 2 9 0 11 C-2.5 11.25 -2.5 11.25 -5 11 C-7 9 -7 9 -7.195 7.055 C-7.163 6.046 -7.163 6.046 -7 1 C-6.34 1 -5.68 1 -5 1 C-5 3.64 -5 6.28 -5 9 C-3.68 9 -2.36 9 -1 9 C-1.021 7.701 -1.041 6.401 -1.062 5.062 C-1.084 3.708 -1.071 2.352 -1 1 C-0.67 0.67 -0.34 0.34 0 0 Z " fill="#B1B2B2" transform="translate(42,59)"/>
<path d="M0 0 C0.66 0 1.32 0 2 0 C3.625 2.5 3.625 2.5 5 5 C5.33 3.35 5.66 1.7 6 0 C6.66 0 7.32 0 8 0 C8 3.3 8 6.6 8 10 C4 8 4 8 3 6 C2.67 7.65 2.34 9.3 2 11 C1.34 11 0.68 11 0 11 C0 7.37 0 3.74 0 0 Z " fill="#C9CACA" transform="translate(109,31)"/>
<path d="M0 0 C4 2 4 2 5 4 C5.33 2.68 5.66 1.36 6 0 C6.66 0 7.32 0 8 0 C8 3.3 8 6.6 8 10 C7.34 10 6.68 10 6 10 C4.375 8 4.375 8 3 6 C2.67 7.32 2.34 8.64 2 10 C1.34 10 0.68 10 0 10 C0 6.7 0 3.4 0 0 Z " fill="#C7C8C7" transform="translate(46,60)"/>
<path d="M0 0 C2.375 -0.125 2.375 -0.125 5 0 C7 2 7 2 7.188 4.562 C7 7 7 7 6 8 C4 8.041 2 8.043 0 8 C0 5.36 0 2.72 0 0 Z " fill="#DFDEDE" transform="translate(512,87)"/>
<path d="M0 0 C0 1.32 0 2.64 0 4 C-4.6 5.15 -4.6 5.15 -7 4.25 C-7.66 4.168 -8.32 4.085 -9 4 C-11.625 6.438 -11.625 6.438 -14 9 C-14.66 9 -15.32 9 -16 9 C-16 7 -16 7 -14.645 5.562 C-5.663 -2.097 -5.663 -2.097 0 0 Z " fill="#F9F0DB" transform="translate(419,57)"/>
<path d="M0 0 C0.66 0 1.32 0 2 0 C2.504 1.457 3.003 2.916 3.5 4.375 C3.639 4.781 3.639 4.781 4.344 6.836 C5 9 5 9 5 11 C2.36 11 -0.28 11 -3 11 C-2.01 7.37 -1.02 3.74 0 0 Z " fill="#0D0F12" transform="translate(704,35)"/>
<path d="M0 0 C1.65 0 3.3 0 5 0 C5.66 0.66 6.32 1.32 7 2 C6.7 3.673 6.364 5.34 6 7 C6.33 7.99 6.66 8.98 7 10 C6.01 9.67 5.02 9.34 4 9 C4 8.34 4 7.68 4 7 C3.01 7 2.02 7 1 7 C0.67 7.99 0.34 8.98 0 10 C0 6.7 0 3.4 0 0 Z " fill="#EBECEB" transform="translate(217,31)"/>
<path d="M0 0 C1.32 0 2.64 0 4 0 C4.667 4 5.333 8 6 12 C5.34 12 4.68 12 4 12 C4 11.34 4 10.68 4 10 C2.35 10 0.7 10 -1 10 C-1.33 10.66 -1.66 11.32 -2 12 C-1.333 8 -0.667 4 0 0 Z " fill="#C7CACB" transform="translate(101,29)"/>
<path d="M0 0 C6.463 -0.454 9.609 0.406 15 4 C13.625 6.125 13.625 6.125 11 8 C7.552 7.751 4.32 6.938 1 6 C1 5.67 1 5.34 1 5 C2.65 4.67 4.3 4.34 6 4 C6 3.34 6 2.68 6 2 C5.01 1.835 5.01 1.835 0 1 C0 0.67 0 0.34 0 0 Z " fill="#ECEBEB" transform="translate(536,27)"/>
<path d="M0 0 C2.375 -0.125 2.375 -0.125 5 0 C5.66 0.66 6.32 1.32 7 2 C6.444 6.556 6.444 6.556 5 8 C3.334 8.041 1.666 8.043 0 8 C0 5.36 0 2.72 0 0 Z " fill="#EDECEC" transform="translate(555,87)"/>
<path d="M0 0 C2.31 0 4.62 0 7 0 C7 0.66 7 1.32 7 2 C5.35 2 3.7 2 2 2 C2 2.66 2 3.32 2 4 C3.32 4 4.64 4 6 4 C6 4.66 6 5.32 6 6 C4.68 6 3.36 6 2 6 C2 6.99 2 7.98 2 9 C3.65 9 5.3 9 7 9 C7 9.66 7 10.32 7 11 C4.69 11 2.38 11 0 11 C0 7.37 0 3.74 0 0 Z " fill="#CCCCC7" transform="translate(226,31)"/>
<path d="M0 0 C2.149 3.224 2.383 4.267 2 8 C1.34 8.66 0.68 9.32 0 10 C-0.66 11.32 -1.32 12.64 -2 14 C-2.99 10.04 -3.98 6.08 -5 2 C-2 0 -2 0 0 0 Z " fill="#F3F3F3" transform="translate(552,32)"/>
<path d="M0 0 C2.534 1.134 4.662 2.473 7 4 C7 4.33 7 4.66 7 5 C0.427 5.365 -4.795 4.136 -11 2 C-7.111 -0.118 -4.47 -0.455 0 0 Z " fill="#3F922D" transform="translate(372,107)"/>
<path d="M0 0 C0.949 0.041 1.897 0.083 2.875 0.125 C2.875 1.115 2.875 2.105 2.875 3.125 C1.225 2.795 -0.425 2.465 -2.125 2.125 C-2.125 3.775 -2.125 5.425 -2.125 7.125 C-0.475 7.455 1.175 7.785 2.875 8.125 C2.875 7.465 2.875 6.805 2.875 6.125 C1.885 6.125 0.895 6.125 -0.125 6.125 C-0.125 5.465 -0.125 4.805 -0.125 4.125 C1.195 4.125 2.515 4.125 3.875 4.125 C3.918 5.791 3.916 7.459 3.875 9.125 C2.875 10.125 2.875 10.125 -0.062 10.312 C-3.125 10.125 -3.125 10.125 -5.125 8.125 C-5.375 5.125 -5.375 5.125 -5.125 2.125 C-3.125 0.125 -3.125 0.125 0 0 Z " fill="#CACAC9" transform="translate(114.125,59.875)"/>
<path d="M0 0 C0.99 0.33 1.98 0.66 3 1 C3 1.99 3 2.98 3 4 C2.67 4.165 2.67 4.165 1 5 C0.586 7.066 0.586 7.066 0.375 9.562 C0.3 10.389 0.225 11.215 0.148 12.066 C0.099 12.704 0.05 13.343 0 14 C-0.99 14 -1.98 14 -3 14 C-3.081 12.23 -3.139 10.459 -3.188 8.688 C-3.222 7.701 -3.257 6.715 -3.293 5.699 C-3 3 -3 3 -1.488 1.145 C-0.997 0.767 -0.506 0.389 0 0 Z " fill="#F0C108" transform="translate(401,60)"/>
<path d="M0 0 C2 1 2 1 2.852 3.285 C3.107 4.202 3.362 5.118 3.625 6.062 C3.885 6.982 4.146 7.901 4.414 8.848 C4.607 9.558 4.801 10.268 5 11 C4.34 11 3.68 11 3 11 C3 10.01 3 9.02 3 8 C1.35 8 -0.3 8 -2 8 C-2 8.99 -2 9.98 -2 11 C-2.66 11 -3.32 11 -4 11 C-3.49 6.611 -2.478 3.663 0 0 Z " fill="#B6B5B5" transform="translate(265,31)"/>
<path d="M0 0 C3.442 2.66 3.995 5.903 5 10 C4.34 10 3.68 10 3 10 C3 9.34 3 8.68 3 8 C1.35 8 -0.3 8 -2 8 C-2 8.99 -2 9.98 -2 11 C-2.66 11 -3.32 11 -4 11 C-3.49 6.611 -2.478 3.663 0 0 Z " fill="#DDDDDD" transform="translate(238,31)"/>
<path d="M0 0 C0.99 0.33 1.98 0.66 3 1 C3.949 3.285 3.949 3.285 4.688 6.062 C4.813 6.522 4.813 6.522 5.449 8.848 C5.631 9.558 5.813 10.268 6 11 C5.34 11 4.68 11 4 11 C3.67 10.34 3.34 9.68 3 9 C1.02 9.33 -0.96 9.66 -3 10 C-2.39 6.442 -1.422 3.317 0 0 Z " fill="#C2C2C1" transform="translate(133,31)"/>
<path d="M0 0 C0.99 0.165 0.99 0.165 6 1 C5.673 1.175 5.673 1.175 4.02 2.062 C2 4 2 4 1.578 7.155 C1.611 8.425 1.645 9.695 1.68 11.004 C1.685 11.343 1.685 11.343 1.711 13.062 C1.747 15.23 1.809 17.395 1.875 19.562 C1.93 21.733 1.98 23.903 2.017 26.074 C2.053 28.041 2.108 30.008 2.164 31.975 C2 35 2 35 0 37 C0 24.79 0 12.58 0 0 Z " fill="#258529" transform="translate(350,2)"/>
<path d="M0 0 C1.98 0 3.96 0 6 0 C6.826 2.892 7 4.887 7 8 C6.175 7.67 6.175 7.67 2 6 C2 6.66 2 7.32 2 8 C1.34 8 0.68 8 0 8 C0 5.36 0 2.72 0 0 Z " fill="#BCBDBC" transform="translate(699,87)"/>
<path d="M0 0 C4 2 4 2 5 3 C5.33 2.01 5.66 1.02 6 0 C6.66 0 7.32 0 8 0 C8 2.64 8 5.28 8 8 C4.125 6.125 4.125 6.125 3 5 C2.67 6.32 2.34 7.64 2 9 C1.34 9 0.68 9 0 9 C0 6.03 0 3.06 0 0 Z " fill="#CCCDCE" transform="translate(625,87)"/>
<path d="M0 0 C0.33 0 0.66 0 1 0 C1 3.63 1 7.26 1 11 C1.66 11.33 2.32 11.66 3 12 C1 14 1 14 -1 15 C-3.349 14.392 -5.685 13.729 -8 13 C-5 11 -5 11 -2 10 C-1.939 9.362 -1.879 8.724 -1.816 8.066 C-1.733 7.24 -1.649 6.414 -1.562 5.562 C-1.481 4.739 -1.4 3.915 -1.316 3.066 C-1 1 -1 1 0 0 Z " fill="#353210" transform="translate(402,64)"/>
<path d="M0 0 C2.64 0.66 5.28 1.32 8 2 C5.762 5.357 5.067 5.58 1.375 6.688 C0.558 6.939 -0.26 7.19 -1.102 7.449 C-1.728 7.631 -2.355 7.813 -3 8 C-3 3.732 -2.624 3.061 0 0 Z " fill="#EEAC11" transform="translate(408,53)"/>
<path d="M0 0 C1.675 0.286 3.344 0.618 5 1 C4.257 5.084 3.171 9.019 2 13 C1.67 13 1.34 13 1 13 C0.856 11.948 0.711 10.896 0.562 9.812 C0.232 7.573 -0.144 5.337 -0.625 3.125 C-0.749 2.424 -0.873 1.722 -1 1 C-0.67 0.67 -0.34 0.34 0 0 Z " fill="#FDF9EB" transform="translate(421,31)"/>
<path d="M0 0 C0.66 0.99 1.32 1.98 2 3 C1.752 3.371 1.752 3.371 0.5 5.25 C-1 8 -1 8 -1 12 C-0.34 12.33 0.32 12.66 1 13 C0.01 13.825 0.01 13.825 -5 18 C-4.713 11 -3.496 6.09 0 0 Z " fill="#329629" transform="translate(352,43)"/>
<path d="M0 0 C0.66 0 1.32 0 2 0 C2 6.27 2 12.54 2 19 C1.67 19 1.34 19 1 19 C0.856 18.093 0.711 17.185 0.562 16.25 C0.377 15.178 0.191 14.105 0 13 C-0.124 12.237 -0.247 11.474 -0.375 10.688 C-0.581 10.131 -0.788 9.574 -1 9 C-1.99 8.67 -2.98 8.34 -4 8 C-2.68 5.36 -1.36 2.72 0 0 Z " fill="#414447" transform="translate(588,39)"/>
<path d="M0 0 C2 0 2 0 3.625 1.5 C4.079 1.995 4.532 2.49 5 3 C5.33 2.01 5.66 1.02 6 0 C6.66 0 7.32 0 8 0 C7.629 0.887 7.257 1.774 6.875 2.688 C5.892 6.408 6.239 7.674 8 11 C7.34 11 6.68 11 6 11 C5.67 10.34 5.34 9.68 5 9 C3.35 9.66 1.7 10.32 0 11 C0.293 9.014 0.586 7.029 0.879 5.043 C1 3 1 3 0 0 Z " fill="#C2C2C0" transform="translate(165,31)"/>
<path d="M0 0 C0.66 0 1.32 0 2 0 C2 2.97 2 5.94 2 9 C3.65 9 5.3 9 7 9 C7 9.66 7 10.32 7 11 C3.7 11 0.4 11 -3 11 C-2.34 10.67 -1.68 10.34 -1 10 C-1.103 9.732 -1.103 9.732 -1.625 8.375 C-2.131 5.167 -1.154 2.987 0 0 Z " fill="#858688" transform="translate(77,60)"/>
<path d="M0 0 C0.416 0.007 0.416 0.007 2.52 0.041 C4.555 0.076 6.59 0.13 8.625 0.188 C8.625 0.517 8.625 0.847 8.625 1.188 C8.094 1.242 8.094 1.242 5.406 1.52 C-1.918 2.324 -8.607 3.085 -15.375 6.188 C-15.375 5.197 -15.375 4.207 -15.375 3.188 C-10.108 -0.06 -5.976 -0.186 0 0 Z " fill="#090F0A" transform="translate(371.375,50.8125)"/>
<path d="M0 0 C0.66 0 1.32 0 2 0 C2.66 1.65 3.32 3.3 4 5 C2.358 7.021 0.691 9.02 -1 11 C-1.33 11 -1.66 11 -2 11 C-2.33 8.36 -2.66 5.72 -3 3 C-2.34 3 -1.68 3 -1 3 C-0.67 2.01 -0.34 1.02 0 0 Z " fill="#080B07" transform="translate(400,42)"/>
<path d="M0 0 C0.485 0.01 0.485 0.01 2.938 0.062 C2.608 1.383 2.277 2.703 1.938 4.062 C1.938 3.402 1.938 2.742 1.938 2.062 C0.618 2.062 -0.702 2.062 -2.062 2.062 C-2.062 3.053 -2.062 4.043 -2.062 5.062 C-1.072 5.062 -0.082 5.062 0.938 5.062 C0.608 10.012 0.277 14.962 -0.062 20.062 C-0.392 20.062 -0.723 20.062 -1.062 20.062 C-1.111 19.136 -1.16 18.209 -1.211 17.254 C-1.286 16.056 -1.36 14.859 -1.438 13.625 C-1.507 12.43 -1.577 11.235 -1.648 10.004 C-1.717 9.519 -1.717 9.519 -2.062 7.062 C-2.723 6.733 -3.382 6.402 -4.062 6.062 C-4.105 4.396 -4.103 2.729 -4.062 1.062 C-3.062 0.062 -3.062 0.062 0 0 Z " fill="#FEFAEC" transform="translate(415.0625,19.9375)"/>
<path d="M0 0 C0.99 0.165 0.99 0.165 6 1 C5.175 2.155 5.175 2.155 1 8 C0.67 7.34 0.34 6.68 0 6 C-0.99 6.33 -1.98 6.66 -3 7 C-5.188 6.062 -5.188 6.062 -7 5 C-4.69 3.68 -2.38 2.36 0 1 C0 0.67 0 0.34 0 0 Z " fill="#23271E" transform="translate(393,52)"/>
<path d="M0 0 C3.3 0 6.6 0 10 0 C6 3 6 3 3 3 C3 4.98 3 6.96 3 9 C2.01 9.33 1.02 9.66 0 10 C0 6.7 0 3.4 0 0 Z " fill="#808184" transform="translate(563,86)"/>
<path d="M0 0 C1.65 0 3.3 0 5 0 C5.826 2.892 6 4.887 6 8 C5.34 8 4.68 8 4 8 C4 7.34 4 6.68 4 6 C3.34 6 2.68 6 2 6 C2 6.66 2 7.32 2 8 C1.34 8 0.68 8 0 8 C0 5.36 0 2.72 0 0 Z " fill="#C4C4C3" transform="translate(538,87)"/>
<path d="M0 0 C1.98 0 3.96 0 6 0 C4.68 0.33 3.36 0.66 2 1 C2 1.99 2 2.98 2 4 C3.32 4 4.64 4 6 4 C6 4.66 6 5.32 6 6 C4.68 6 3.36 6 2 6 C2 6.66 2 7.32 2 8 C3.32 8 4.64 8 6 8 C6 8.66 6 9.32 6 10 C4.02 10 2.04 10 0 10 C0 6.7 0 3.4 0 0 Z " fill="#D6D6D4" transform="translate(14,60)"/>
<path d="M0 0 C2 2 2 2 2 5 C2.66 5.33 3.32 5.66 4 6 C3.67 6.33 3.34 6.66 3 7 C2.632 9.328 2.298 11.662 2 14 C-1.338 10.359 -1.979 6.714 -3 2 C-2.01 1.34 -1.02 0.68 0 0 Z " fill="#05080C" transform="translate(616,80)"/>
<path d="M0 0 C1.65 0.33 3.3 0.66 5 1 C5 1.66 5 2.32 5 3 C3.35 2.67 1.7 2.34 0 2 C0 2.66 0 3.32 0 4 C1.32 4.33 2.64 4.66 4 5 C4.33 6.65 4.66 8.3 5 10 C3.35 10.33 1.7 10.66 0 11 C-0.66 10.01 -1.32 9.02 -2 8 C-1.01 8.165 -1.01 8.165 4 9 C2.623 6.246 0.633 5.485 -2 4 C-1.34 2.68 -0.68 1.36 0 0 Z " fill="#DDDDDB" transform="translate(84,31)"/>
<path d="M0 0 C0.99 0 1.98 0 3 0 C4.257 2.906 5 4.796 5 8 C2.69 8 0.38 8 -2 8 C-1.125 2.25 -1.125 2.25 0 0 Z " fill="#CACACA" transform="translate(548,87)"/>
<path d="M0 0 C1.155 0.495 1.155 0.495 7 3 C7 2.34 7 1.68 7 1 C7.66 1 8.32 1 9 1 C7.751 4.459 6.325 7.147 4 10 C0 3.375 0 3.375 0 0 Z " fill="#15181F" transform="translate(575,35)"/>
<path d="M0 0 C1.675 0.286 3.344 0.618 5 1 C5 2.65 5 4.3 5 6 C3.344 6.382 1.675 6.714 0 7 C-1 6 -1 6 -1.125 3.5 C-1 1 -1 1 0 0 Z " fill="#161719" transform="translate(29,33)"/>
<path d="M0 0 C1.675 0.286 3.344 0.618 5 1 C5 2.65 5 4.3 5 6 C3.344 6.382 1.675 6.714 0 7 C-1 6 -1 6 -1.125 3.5 C-1 1 -1 1 0 0 Z " fill="#1B1C1D" transform="translate(51,33)"/>
<path d="M0 0 C1.32 0.33 2.64 0.66 4 1 C3.67 1.33 3.34 1.66 3 2 C2.468 4.574 2.036 7.159 1.598 9.75 C1.4 10.492 1.203 11.235 1 12 C0.67 12.165 0.67 12.165 -1 13 C-2.007 7.965 -1.974 4.761 0 0 Z " fill="#E4AB01" transform="translate(389,4)"/>
<path d="M0 0 C0.66 0 1.32 0 2 0 C3.257 2.906 4 4.796 4 8 C1.69 8 -0.62 8 -3 8 C-2.453 4.625 -1.945 2.918 0 0 Z " fill="#D2D3D0" transform="translate(581,87)"/>
<path d="M0 0 C3.736 1.245 4.188 2.634 6 6 C6.33 4.02 6.66 2.04 7 0 C7.33 0 7.66 0 8 0 C8 3.3 8 6.6 8 10 C7.34 10 6.68 10 6 10 C4.611 8.039 3.274 6.038 2 4 C1.67 5.98 1.34 7.96 1 10 C0.67 10 0.34 10 0 10 C0 6.7 0 3.4 0 0 Z " fill="#EDEDED" transform="translate(90,60)"/>
<path d="M0 0 C3.875 1.75 3.875 1.75 5 4 C5.66 2.68 6.32 1.36 7 0 C7 2.64 7 5.28 7 8 C6.01 7.67 5.02 7.34 4 7 C3.67 6.34 3.34 5.68 3 5 C2.67 5.99 2.34 6.98 2 8 C1.34 8 0.68 8 0 8 C0 5.36 0 2.72 0 0 Z " fill="#E7E7E6" transform="translate(594,87)"/>
<path d="M0 0 C1.32 0 2.64 0 4 0 C4 2.97 4 5.94 4 9 C2.68 9 1.36 9 0 9 C0 6.03 0 3.06 0 0 Z " fill="#F1BE02" transform="translate(391,63)"/>
<path d="M0 0 C1.98 0 3.96 0 6 0 C6 0.66 6 1.32 6 2 C4.68 2 3.36 2 2 2 C2 2.66 2 3.32 2 4 C3.32 4 4.64 4 6 4 C6 4.66 6 5.32 6 6 C4.68 6 3.36 6 2 6 C2 7.32 2 8.64 2 10 C1.34 10 0.68 10 0 10 C0 6.7 0 3.4 0 0 Z " fill="#B8B8B7" transform="translate(27,60)"/>
<path d="M0 0 C1.98 0 3.96 0 6 0 C4.68 0.33 3.36 0.66 2 1 C2 1.99 2 2.98 2 4 C3.32 4 4.64 4 6 4 C6 4.66 6 5.32 6 6 C4.68 6 3.36 6 2 6 C2 6.99 2 7.98 2 9 C3.32 9.33 4.64 9.66 6 10 C4.02 10 2.04 10 0 10 C0 6.7 0 3.4 0 0 Z " fill="#DAD9D6" transform="translate(101,60)"/>
<path d="M0 0 C-0.593 3.392 -1.767 5.211 -4.062 7.75 C-4.336 8.057 -4.336 8.057 -5.723 9.609 C-6.144 10.068 -6.566 10.527 -7 11 C-8.065 7.805 -8.277 7.01 -7 4 C-2.667 0 -2.667 0 0 0 Z " fill="#131F18" transform="translate(356,55)"/>
<path d="M0 0 C1.32 0 2.64 0 4 0 C4.077 4.516 4.102 8.591 3 13 C2.34 13 1.68 13 1 13 C0.67 8.71 0.34 4.42 0 0 Z " fill="#9B9B9B" transform="translate(186,29)"/>
<path d="M0 0 C0.66 0 1.32 0 2 0 C2.66 0.99 3.32 1.98 4 3 C4.33 2.01 4.66 1.02 5 0 C5.66 0 6.32 0 7 0 C7 2.64 7 5.28 7 8 C3.125 6.25 3.125 6.25 2 4 C1.34 5.32 0.68 6.64 0 8 C0 5.36 0 2.72 0 0 Z " fill="#E7E7E7" transform="translate(503,87)"/>
<path d="M0 0 C0.75 3.25 0.75 3.25 1 7 C-0.938 9.437 -0.938 9.437 -3 11 C-3.049 10.362 -3.098 9.724 -3.148 9.066 C-3.223 8.24 -3.298 7.414 -3.375 6.562 C-3.445 5.739 -3.514 4.915 -3.586 4.066 C-3.654 3.725 -3.654 3.725 -4 2 C-4.66 1.67 -5.32 1.34 -6 1 C-4 0 -4 0 0 0 Z M-3 2 C-2 4 -2 4 -2 4 Z " fill="#5E7D17" transform="translate(375,2)"/>
<path d="M0 0 C0.33 2.97 0.66 5.94 1 9 C0.67 9.165 0.67 9.165 -1 10 C-1 9.01 -1 8.02 -1 7 C-2.65 7 -4.3 7 -6 7 C-6 6.34 -6 5.68 -6 5 C-4.68 5 -3.36 5 -2 5 C-2 4.34 -2 3.68 -2 3 C-3.32 3 -4.64 3 -6 3 C-6 2.34 -6 1.68 -6 1 C-1.125 0 -1.125 0 0 0 Z " fill="#030307" transform="translate(109,61)"/>
<path d="M0 0 C2.64 0 5.28 0 8 0 C8 0.66 8 1.32 8 2 C7.01 2 6.02 2 5 2 C5 4.97 5 7.94 5 11 C4.34 11 3.68 11 3 11 C3 8.03 3 5.06 3 2 C2.01 2 1.02 2 0 2 C0 1.34 0 0.68 0 0 Z " fill="#D5D4D2" transform="translate(147,31)"/>
<path d="M0 0 C2.64 0 5.28 0 8 0 C8 0.66 8 1.32 8 2 C7.01 2 6.02 2 5 2 C5 4.97 5 7.94 5 11 C4.34 11 3.68 11 3 11 C3 8.03 3 5.06 3 2 C2.01 2 1.02 2 0 2 C0 1.34 0 0.68 0 0 Z " fill="#CFCECA" transform="translate(174,31)"/>
<path d="M0 0 C2.64 0 5.28 0 8 0 C8 0.66 8 1.32 8 2 C7.01 2 6.02 2 5 2 C5 4.97 5 7.94 5 11 C4.34 11 3.68 11 3 11 C3 8.03 3 5.06 3 2 C2.01 2 1.02 2 0 2 C0 1.34 0 0.68 0 0 Z " fill="#C8C8C7" transform="translate(253,31)"/>
<path d="M0 0 C2 2 2 2 2.23 3.988 C2.154 8.106 2.036 11.986 1 16 C0.34 15.34 -0.32 14.68 -1 14 C-1 12.68 -1 11.36 -1 10 C-1.66 9.67 -2.32 9.34 -3 9 C-2.505 8.258 -2.01 7.515 -1.5 6.75 C0 4 0 4 0 0 Z " fill="#738512" transform="translate(375,4)"/>
<path d="M0 0 C4.62 0 9.24 0 14 0 C14 0.99 14 1.98 14 3 C8.808 3.212 4.873 2.591 0 1 C0 0.67 0 0.34 0 0 Z " fill="#EDC501" transform="translate(628,71)"/>
<path d="M0 0 C1.675 0.286 3.344 0.618 5 1 C5 1.66 5 2.32 5 3 C4.01 3 3.02 3 2 3 C2 3.66 2 4.32 2 5 C2.99 5 3.98 5 5 5 C5 5.66 5 6.32 5 7 C3.334 7.043 1.666 7.041 0 7 C-1 6 -1 6 -1.125 3.5 C-1 1 -1 1 0 0 Z " fill="#1A1A1C" transform="translate(112,61)"/>
<path d="M0 0 C0.825 0.165 0.825 0.165 5 1 C5 2.65 5 4.3 5 6 C3.35 6.33 1.7 6.66 0 7 C0 4.69 0 2.38 0 0 Z " fill="#1A1D22" transform="translate(208,33)"/>
<path d="M0 0 C2.31 0 4.62 0 7 0 C7.312 2.812 7.312 2.812 7 6 C4.5 7.875 4.5 7.875 2 9 C2.227 8.072 2.454 7.144 2.688 6.188 C3 3 3 3 1.562 1.125 C1.047 0.754 0.531 0.382 0 0 Z " fill="#13161C" transform="translate(644,89)"/>
<path d="M0 0 C5.359 0.466 5.359 0.466 7.875 2.562 C8.061 2.8 8.061 2.8 9 4 C8.67 4.33 8.34 4.66 8 5 C4.562 4.75 4.562 4.75 1 4 C0.34 3.01 -0.32 2.02 -1 1 C-0.67 0.67 -0.34 0.34 0 0 Z " fill="#17160F" transform="translate(403,76)"/>
<path d="M0 0 C0.66 0.99 1.32 1.98 2 3 C1.125 6.187 1.125 6.187 0 9 C-0.33 8.34 -0.66 7.68 -1 7 C-2.65 7 -4.3 7 -6 7 C-6 6.01 -6 5.02 -6 4 C-4.68 4 -3.36 4 -2 4 C-1.34 2.68 -0.68 1.36 0 0 Z " fill="#0F1014" transform="translate(234,33)"/>
<path d="M0 0 C0.66 0 1.32 0 2 0 C2 2.97 2 5.94 2 9 C3.65 9 5.3 9 7 9 C7 9.66 7 10.32 7 11 C4.69 11 2.38 11 0 11 C0 7.37 0 3.74 0 0 Z " fill="#BCBAB8" transform="translate(19,31)"/>
<path d="M0 0 C0.99 0.165 0.99 0.165 6 1 C5.602 3.886 5.21 4.822 2.938 6.75 C2.298 7.163 1.659 7.575 1 8 C-0.354 5.291 -0.065 2.991 0 0 Z " fill="#0B0D11" transform="translate(200,31)"/>
<path d="M0 0 C2.64 0 5.28 0 8 0 C8 0.66 8 1.32 8 2 C7.01 2 6.02 2 5 2 C5 4.64 5 7.28 5 10 C4.34 10 3.68 10 3 10 C3 7.36 3 4.72 3 2 C2.01 2 1.02 2 0 2 C0 1.34 0 0.68 0 0 Z " fill="#C3C1C1" transform="translate(90,31)"/>
<path d="M0 0 C0.66 0 1.32 0 2 0 C2 3.96 2 7.92 2 12 C-0.31 11.67 -2.62 11.34 -5 11 C-5 9.02 -5 7.04 -5 5 C-3.624 6.29 -2.292 7.627 -1 9 C-1 9.66 -1 10.32 -1 11 C-0.34 11 0.32 11 1 11 C0.67 7.37 0.34 3.74 0 0 Z " fill="#363B3F" transform="translate(53,59)"/>
<path d="M0 0 C0.66 2.64 1.32 5.28 2 8 C0.02 8.33 -1.96 8.66 -4 9 C-4 7.68 -4 6.36 -4 5 C-3.01 5 -2.02 5 -1 5 C-1 4.34 -1 3.68 -1 3 C-2.32 3 -3.64 3 -5 3 C-5 2.34 -5 1.68 -5 1 C-1.125 0 -1.125 0 0 0 Z " fill="#090B0F" transform="translate(34,61)"/>
<path d="M0 0 C1.32 0.33 2.64 0.66 4 1 C4.33 2.65 4.66 4.3 5 6 C3.35 6.33 1.7 6.66 0 7 C0 4.69 0 2.38 0 0 Z " fill="#101114" transform="translate(59,61)"/>
<path d="M0 0 C1.128 3.383 0.818 4.768 0.062 8.188 C-0.132 9.089 -0.327 9.99 -0.527 10.918 C-0.605 11.262 -0.605 11.262 -1 13 C-0.34 13 0.32 13 1 13 C0.67 14.32 0.67 14.32 -1 21 C-2.755 13.981 -2.912 6.733 0 0 Z " fill="#020D0A" transform="translate(348,48)"/>
<path d="M0 0 C1.32 0 2.64 0 4 0 C3.67 4.29 3.34 8.58 3 13 C2.34 13 1.68 13 1 13 C1 9.37 1 5.74 1 2 C0.34 1.67 -0.32 1.34 -1 1 C-0.67 0.67 -0.34 0.34 0 0 Z " fill="#ADAFAD" transform="translate(63,29)"/>
<path d="M0 0 C1.32 0 2.64 0 4 0 C4.33 0.99 4.66 1.98 5 3 C4.01 3 3.02 3 2 3 C2 3.66 2 4.32 2 5 C2.99 5.33 3.98 5.66 5 6 C3.344 6.382 1.675 6.714 0 7 C-1 6 -1 6 -1.125 3.5 C-1 1 -1 1 0 0 Z " fill="#111317" transform="translate(122,33)"/>
<path d="M0 0 C3.269 3.269 4.916 5.907 7 10 C6.67 10.66 6.34 11.32 6 12 C5.34 11.67 4.68 11.34 4 11 C4 10.01 4 9.02 4 8 C3.01 8.33 2.02 8.66 1 9 C0.67 6.03 0.34 3.06 0 0 Z " fill="#1A1C20" transform="translate(570,40)"/>
<path d="M0 0 C0.66 0 1.32 0 2 0 C2 2.31 2 4.62 2 7 C3.32 7 4.64 7 6 7 C6 7.66 6 8.32 6 9 C3.36 9 0.72 9 -2 9 C-1.34 6.03 -0.68 3.06 0 0 Z " fill="#9DA0A3" transform="translate(618,87)"/>
<path d="M0 0 C1.65 0 3.3 0 5 0 C5 1.65 5 3.3 5 5 C3.68 5 2.36 5 1 5 C1 5.66 1 6.32 1 7 C1.66 7.165 1.66 7.165 5 8 C3.35 8 1.7 8 0 8 C0 5.36 0 2.72 0 0 Z " fill="#D1D1CF" transform="translate(521,87)"/>
<path d="M0 0 C0 1.65 0 3.3 0 5 C-2.64 5.33 -5.28 5.66 -8 6 C-7.34 5.67 -6.68 5.34 -6 5 C-6 3.68 -6 2.36 -6 1 C-1.125 0 -1.125 0 0 0 Z " fill="#1A1F26" transform="translate(12,65)"/>
<path d="M0 0 C1.32 0 2.64 0 4 0 C5.165 3.494 4.608 5.426 4 9 C4.33 9.66 4.66 10.32 5 11 C4.01 10.835 4.01 10.835 -1 10 C-0.34 9.01 0.32 8.02 1 7 C0.625 3.312 0.625 3.312 0 0 Z " fill="#1A1D23" transform="translate(64,60)"/>
<path d="M0 0 C1.746 2.619 2.387 4.038 3 7 C0.69 7 -1.62 7 -4 7 C-3.34 5.35 -2.68 3.7 -2 2 C-1.34 2 -0.68 2 0 2 C0 1.34 0 0.68 0 0 Z " fill="#C3C3C4" transform="translate(718,52)"/>
<path d="M0 0 C2.64 0 5.28 0 8 0 C8 2.31 8 4.62 8 7 C7.01 7 6.02 7 5 7 C4.732 6.361 4.464 5.721 4.188 5.062 C3 3 3 3 0 2 C0 1.34 0 0.68 0 0 Z " fill="#222429" transform="translate(84,33)"/>
<path d="M0 0 C0.66 0 1.32 0 2 0 C2 3.63 2 7.26 2 11 C0.68 10.67 -0.64 10.34 -2 10 C-1.333 6.667 -0.667 3.333 0 0 Z " fill="#171A1E" transform="translate(224,31)"/>
<path d="M0 0 C0.99 0.165 0.99 0.165 6 1 C5.34 1.66 4.68 2.32 4 3 C3.586 4.945 3.586 4.945 3.375 7.125 C3.313 7.764 3.313 7.764 3 11 C0.285 8.285 -0.143 5.693 -1 2 C-0.67 1.34 -0.34 0.68 0 0 Z " fill="#020408" transform="translate(105,29)"/>
<path d="M0 0 C2.31 0 4.62 0 7 0 C6.67 0.66 6.34 1.32 6 2 C4.68 1.67 3.36 1.34 2 1 C2 2.32 2 3.64 2 5 C2.66 5.33 3.32 5.66 4 6 C3.34 6 2.68 6 2 6 C2 7.32 2 8.64 2 10 C1.34 10 0.68 10 0 10 C0 6.7 0 3.4 0 0 Z " fill="#CECECE" transform="translate(120,60)"/>
<path d="M0 0 C1.32 0.66 2.64 1.32 4 2 C3.67 3.32 3.34 4.64 3 6 C1.02 6 -0.96 6 -3 6 C-1.125 1.125 -1.125 1.125 0 0 Z " fill="#F5F5F4" transform="translate(693,52)"/>
<path d="M0 0 C3 1 3 1 4 2 C3.552 5.407 2.947 7.079 1 10 C0.01 9.67 -0.98 9.34 -2 9 C-1.34 9 -0.68 9 0 9 C0 6.03 0 3.06 0 0 Z " fill="#010309" transform="translate(258,33)"/>
<path d="M0 0 C0.825 0.165 0.825 0.165 5 1 C5 3.64 5 6.28 5 9 C4.01 9.33 3.02 9.66 2 10 C2 8.35 2 6.7 2 5 C1.34 5 0.68 5 0 5 C0 3.333 0 1.667 0 0 Z " fill="#2A2C30" transform="translate(44,31)"/>
<path d="M0 0 C0.99 0.99 1.98 1.98 3 3 C3.66 2.01 4.32 1.02 5 0 C5.66 0 6.32 0 7 0 C6.188 3.438 6.188 3.438 5 7 C4.01 7.33 3.02 7.66 2 8 C0.743 5.094 0 3.204 0 0 Z " fill="#D0D2D1" transform="translate(667,87)"/>
<path d="M0 0 C1.98 0 3.96 0 6 0 C6 2.64 6 5.28 6 8 C6.99 8.33 7.98 8.66 9 9 C7.35 9 5.7 9 4 9 C4 6.69 4 4.38 4 2 C2.68 1.34 1.36 0.68 0 0 Z " fill="#999B9D" transform="translate(712,86)"/>
<path d="M0 0 C3.972 0.567 6.794 1.554 10 4 C11.812 7.188 11.812 7.188 13 10 C9.259 8.753 7.742 6.807 5 4 C3.351 2.644 1.69 1.304 0 0 Z " fill="#DCB70A" transform="translate(407,76)"/>
<path d="M0 0 C0.66 0.33 1.32 0.66 2 1 C0.68 2.155 0.68 2.155 -6 8 C-6.99 7.01 -7.98 6.02 -9 5 C-2.25 1.125 -2.25 1.125 0 0 Z " fill="#E1E0E2" transform="translate(388,58)"/>
<path d="M0 0 C0.33 0 0.66 0 1 0 C1.33 2.64 1.66 5.28 2 8 C2.99 8.33 3.98 8.66 5 9 C3.68 9 2.36 9 1 9 C1 9.66 1 10.32 1 11 C2.32 11.33 3.64 11.66 5 12 C3.35 12 1.7 12 0 12 C-1.532 7.916 -0.631 4.205 0 0 Z " fill="#F7CA13" transform="translate(406,35)"/>
<path d="M0 0 C0.99 0.33 1.98 0.66 3 1 C2.67 4.3 2.34 7.6 2 11 C1.34 11 0.68 11 0 11 C-0.194 9.355 -0.38 7.709 -0.562 6.062 C-0.667 5.146 -0.771 4.229 -0.879 3.285 C-0.919 2.531 -0.959 1.777 -1 1 C-0.67 0.67 -0.34 0.34 0 0 Z " fill="#BDBEBF" transform="translate(590,84)"/>
<path d="M0 0 C0 3 0 3 -1.457 4.859 C-3.316 7.438 -3.481 9.106 -3.688 12.25 C-3.72 12.696 -3.72 12.696 -3.887 14.953 C-3.905 15.291 -3.905 15.291 -4 17 C-4.33 17 -4.66 17 -5 17 C-6.874 7.423 -6.874 7.423 -4.73 3.934 C-3.062 2.312 -3.062 2.312 0 0 Z " fill="#554C16" transform="translate(402,56)"/>
<path d="M0 0 C0.66 0.33 1.32 0.66 2 1 C1.67 2.65 1.34 4.3 1 6 C-0.65 6.33 -2.3 6.66 -4 7 C-3.436 3.73 -2.5 2.174 0 0 Z " fill="#F1C109" transform="translate(399,53)"/>
<path d="M0 0 C2.31 0 4.62 0 7 0 C5.891 3.487 4.737 6.775 3 10 C2.34 9.67 1.68 9.34 1 9 C1.99 7.02 2.98 5.04 4 3 C2.68 2.67 1.36 2.34 0 2 C0 1.34 0 0.68 0 0 Z " fill="#D6D3D2" transform="translate(4,31)"/>
<path d="M0 0 C0.33 0.66 0.66 1.32 1 2 C1.99 2 2.98 2 4 2 C3.34 4.31 2.68 6.62 2 9 C1.34 9 0.68 9 0 9 C-0.845 5.622 -1.108 3.325 0 0 Z " fill="#191A1E" transform="translate(98,29)"/>
<path d="M0 0 C0 3.3 0 6.6 0 10 C-0.66 10 -1.32 10 -2 10 C-2 7.69 -2 5.38 -2 3 C-2.99 2.67 -3.98 2.34 -5 2 C-2 0 -2 0 0 0 Z " fill="#969899" transform="translate(576,86)"/>
<path d="M0 0 C0.33 0 0.66 0 1 0 C1 2.31 1 4.62 1 7 C2.65 6.67 4.3 6.34 6 6 C5.67 6.99 5.34 7.98 5 9 C3.02 9 1.04 9 -1 9 C-0.67 6.03 -0.34 3.06 0 0 Z " fill="#C4C4C2" transform="translate(58,61)"/>
<path d="M0 0 C0.985 0.018 1.97 0.036 2.984 0.055 C3.358 0.066 3.358 0.066 5.25 0.125 C5.25 0.455 5.25 0.785 5.25 1.125 C4.54 1.174 3.829 1.223 3.098 1.273 C2.638 1.311 2.638 1.311 0.312 1.5 C-0.604 1.57 -1.521 1.639 -2.465 1.711 C-3.219 1.848 -3.973 1.984 -4.75 2.125 C-5.08 2.785 -5.41 3.445 -5.75 4.125 C-8.312 4.75 -8.312 4.75 -10.75 5.125 C-9.75 2.125 -9.75 2.125 -8.047 0.945 C-5.241 -0.057 -2.973 -0.071 0 0 Z " fill="#C3C6C3" transform="translate(374.75,51.875)"/>
<path d="M0 0 C4.875 3.875 4.875 3.875 6 5 C5.67 5.66 5.34 6.32 5 7 C3.02 7 1.04 7 -1 7 C-0.67 4.69 -0.34 2.38 0 0 Z " fill="#EDB308" transform="translate(404,44)"/>
<path d="M0 0 C1.5 1.375 1.5 1.375 3 3 C3 3.66 3 4.32 3 5 C1.68 5 0.36 5 -1 5 C-1 6.32 -1 7.64 -1 9 C-1.66 9 -2.32 9 -3 9 C-2.502 5.265 -2.125 3.188 0 0 Z " fill="#979899" transform="translate(237,33)"/>
<path d="M0 0 C1.32 0 2.64 0 4 0 C4.66 2.64 5.32 5.28 6 8 C5.01 7.67 4.02 7.34 3 7 C3 6.34 3 5.68 3 5 C2.01 4.67 1.02 4.34 0 4 C0 2.68 0 1.36 0 0 Z " fill="#878787" transform="translate(218,33)"/>
<path d="M0 0 C2.31 0 4.62 0 7 0 C7 0.66 7 1.32 7 2 C5.35 2 3.7 2 2 2 C2 2.66 2 3.32 2 4 C3.32 4.33 4.64 4.66 6 5 C4.02 5 2.04 5 0 5 C0 3.35 0 1.7 0 0 Z " fill="#C4C4C4" transform="translate(226,31)"/>
<path d="M0 0 C6.055 -0.195 6.055 -0.195 8 0 C8.66 0.66 9.32 1.32 10 2 C9.34 3.32 8.68 4.64 8 6 C5.69 6 3.38 6 1 6 C1 5.67 1 5.34 1 5 C2.65 4.67 4.3 4.34 6 4 C6 3.34 6 2.68 6 2 C5.01 1.835 5.01 1.835 0 1 C0 0.67 0 0.34 0 0 Z " fill="#C0C0C0" transform="translate(536,27)"/>
<path d="M0 0 C-0.33 0.99 -0.66 1.98 -1 3 C-4.375 3.125 -4.375 3.125 -8 3 C-8.66 2.34 -9.32 1.68 -10 1 C-6.62 -0.04 -3.522 -0.08 0 0 Z " fill="#40B02F" transform="translate(371,107)"/>
<path d="M0 0 C2.31 0 4.62 0 7 0 C7 0.66 7 1.32 7 2 C6.34 2 5.68 2 5 2 C5 3.98 5 5.96 5 8 C4.34 8 3.68 8 3 8 C3 5.69 3 3.38 3 1 C2.01 0.67 1.02 0.34 0 0 Z " fill="#C9CACB" transform="translate(682,87)"/>
<path d="M0 0 C0.99 0 1.98 0 3 0 C3 0.66 3 1.32 3 2 C0.038 4.172 -2.507 5.836 -6 7 C-5.67 5.68 -5.34 4.36 -5 3 C-3.35 2.67 -1.7 2.34 0 2 C0 1.34 0 0.68 0 0 Z " fill="#E5AE06" transform="translate(415,66)"/>
<path d="M0 0 C0.66 0.33 1.32 0.66 2 1 C1.67 4.3 1.34 7.6 1 11 C0.34 11 -0.32 11 -1 11 C-1.027 9.354 -1.046 7.708 -1.062 6.062 C-1.074 5.146 -1.086 4.229 -1.098 3.285 C-1 1 -1 1 0 0 Z " fill="#B7B7B7" transform="translate(192,31)"/>
<path d="M0 0 C0.33 0.165 0.33 0.165 2 1 C2 2.32 2 3.64 2 5 C2.66 5.33 3.32 5.66 4 6 C3.34 7.65 2.68 9.3 2 11 C-0.679 6.981 -0.156 4.758 0 0 Z " fill="#FCB001" transform="translate(416,27)"/>
<path d="M0 0 C0.33 0 0.66 0 1 0 C1 1.65 1 3.3 1 5 C1.66 5 2.32 5 3 5 C3.33 6.98 3.66 8.96 4 11 C0.919 8.227 -0.688 5.937 -2 2 C-1.34 1.34 -0.68 0.68 0 0 Z " fill="#49691B" transform="translate(371,9)"/>
<path d="M0 0 C2.31 0 4.62 0 7 0 C7 0.66 7 1.32 7 2 C7.66 2.66 8.32 3.32 9 4 C6.03 3.67 3.06 3.34 0 3 C0 2.01 0 1.02 0 0 Z " fill="#14140F" transform="translate(399,0)"/>
<path d="M0 0 C1.32 0.33 2.64 0.66 4 1 C3.67 2.65 3.34 4.3 3 6 C2.01 6 1.02 6 0 6 C0 4.02 0 2.04 0 0 Z " fill="#3D3E3F" transform="translate(556,88)"/>
<path d="M0 0 C0 0.66 0 1.32 0 2 C-0.66 2 -1.32 2 -2 2 C-2 4.31 -2 6.62 -2 9 C-2.33 9 -2.66 9 -3 9 C-3.33 7.02 -3.66 5.04 -4 3 C-4.99 2.835 -4.99 2.835 -10 2 C-10 1.67 -10 1.34 -10 1 C-6.565 0.375 -3.509 0 0 0 Z " fill="#3C3C42" transform="translate(37,58)"/>
<path d="M0 0 C0.949 0.351 1.898 0.701 2.875 1.062 C2.875 1.722 2.875 2.383 2.875 3.062 C0.235 3.062 -2.405 3.062 -5.125 3.062 C-5.125 2.072 -5.125 1.083 -5.125 0.062 C-3.125 -0.938 -3.125 -0.938 0 0 Z " fill="#C9CACA" transform="translate(516.125,55.9375)"/>
<path d="M0 0 C0.66 0 1.32 0 2 0 C2.66 2.31 3.32 4.62 4 7 C3.67 7.165 3.67 7.165 2 8 C2 7.34 2 6.68 2 6 C1.01 6 0.02 6 -1 6 C-0.67 4.02 -0.34 2.04 0 0 Z " fill="#292B30" transform="translate(704,35)"/>
<path d="M0 0 C0.688 1.625 0.688 1.625 1 4 C-0.438 7.25 -0.438 7.25 -2 10 C-2.66 8.68 -3.32 7.36 -4 6 C-2.68 4.02 -1.36 2.04 0 0 Z " fill="#080F0F" transform="translate(355,32)"/>
<path d="M0 0 C0.66 0.33 1.32 0.66 2 1 C2 1.66 2 2.32 2 3 C3.98 2.34 5.96 1.68 8 1 C8.33 1.99 8.66 2.98 9 4 C5.717 5.642 2.575 4.519 -1 4 C-1 1 -1 1 0 0 Z " fill="#24292F" transform="translate(617,22)"/>
<path d="M0 0 C0.33 0 0.66 0 1 0 C1.024 0.349 1.024 0.349 1.148 2.117 C1.223 3.027 1.298 3.937 1.375 4.875 C1.445 5.78 1.514 6.685 1.586 7.617 C2 10 2 10 4 12 C2.02 12.33 0.04 12.66 -2 13 C-1.34 8.71 -0.68 4.42 0 0 Z " fill="#0B100F" transform="translate(396,63)"/>
<path d="M0 0 C1.65 0 3.3 0 5 0 C5 2.31 5 4.62 5 7 C2.474 4.637 1.112 3.335 0 0 Z " fill="#35353B" transform="translate(92,60)"/>
<path d="M0 0 C0.99 0.33 1.98 0.66 3 1 C3.949 3.066 3.949 3.066 4.688 5.562 C4.939 6.389 5.19 7.215 5.449 8.066 C5.631 8.704 5.813 9.343 6 10 C5.34 10 4.68 10 4 10 C1.848 6.772 1.799 5.716 2 2 C1.34 2 0.68 2 0 2 C0 1.34 0 0.68 0 0 Z " fill="#DBDBDA" transform="translate(70,60)"/>
<path d="M0 0 C1.32 0.33 2.64 0.66 4 1 C4.33 2.98 4.66 4.96 5 7 C3 7 3 7 1.375 5.75 C0 4 0 4 0 0 Z " fill="#9C9E9E" transform="translate(102,34)"/>
<path d="M0 0 C0.66 0.33 1.32 0.66 2 1 C1.01 2.65 0.02 4.3 -1 6 C-0.34 6.33 0.32 6.66 1 7 C0.01 6.835 0.01 6.835 -5 6 C-4.34 5.67 -3.68 5.34 -3 5 C-2.301 3.684 -1.633 2.35 -1 1 C-0.67 0.67 -0.34 0.34 0 0 Z " fill="#2B9222" transform="translate(343,88)"/>
<path d="M0 0 C0.99 0.33 1.98 0.66 3 1 C1.906 1.867 0.799 2.718 -0.312 3.562 C-0.927 4.038 -1.542 4.514 -2.176 5.004 C-2.778 5.333 -3.38 5.661 -4 6 C-4.99 5.67 -5.98 5.34 -7 5 C-2.25 1.125 -2.25 1.125 0 0 Z " fill="#020D0A" transform="translate(372,60)"/>
<path d="M0 0 C1.98 0.66 3.96 1.32 6 2 C4.625 4 4.625 4 3 6 C2.34 6 1.68 6 1 6 C0.34 4.35 -0.32 2.7 -1 1 C-0.67 0.67 -0.34 0.34 0 0 Z " fill="#D69B0C" transform="translate(402,49)"/>
<path d="M0 0 C2 0 2 0 3.625 1.5 C4.079 1.995 4.532 2.49 5 3 C5.33 2.01 5.66 1.02 6 0 C6.66 0 7.32 0 8 0 C6.63 3.161 6.011 3.993 3 6 C0 2.25 0 2.25 0 0 Z " fill="#CECECD" transform="translate(165,31)"/>
<path d="M0 0 C0.33 0 0.66 0 1 0 C1.144 0.784 1.289 1.567 1.438 2.375 C2 5 2 5 3 7 C1.35 7 -0.3 7 -2 7 C-2 5.35 -2 3.7 -2 2 C-1.34 2 -0.68 2 0 2 C0 1.34 0 0.68 0 0 Z " fill="#383A3D" transform="translate(545,89)"/>
<path d="M0 0 C1.32 0 2.64 0 4 0 C3.67 1.65 3.34 3.3 3 5 C2.01 5 1.02 5 0 5 C0 3.35 0 1.7 0 0 Z " fill="#323436" transform="translate(513,89)"/>
<path d="M0 0 C1.32 0 2.64 0 4 0 C3.67 1.65 3.34 3.3 3 5 C2.01 5 1.02 5 0 5 C0 3.35 0 1.7 0 0 Z " fill="#1F2022" transform="translate(692,89)"/>
<path d="M0 0 C0.99 0 1.98 0 3 0 C3 2.31 3 4.62 3 7 C2.01 6.67 1.02 6.34 0 6 C0 4.02 0 2.04 0 0 Z " fill="#010205" transform="translate(571,89)"/>
<path d="M0 0 C0.99 0 1.98 0 3 0 C3.33 1.65 3.66 3.3 4 5 C2.35 4.67 0.7 4.34 -1 4 C-0.67 2.68 -0.34 1.36 0 0 Z " fill="#B1B2B2" transform="translate(548,87)"/>
<path d="M0 0 C0.99 0.66 0.99 0.66 6 4 C3 6 3 6 0 6 C0 4.02 0 2.04 0 0 Z " fill="#1A1E23" transform="translate(627,91)"/>
<path d="M0 0 C2 3 2 3 2 6 C0.35 5.67 -1.3 5.34 -3 5 C-2.625 3.062 -2.625 3.062 -2 1 C-1.34 0.67 -0.68 0.34 0 0 Z " fill="#AEAFAC" transform="translate(583,89)"/>
<path d="M0 0 C5.595 0.595 5.595 0.595 8 3 C5.36 3.33 2.72 3.66 0 4 C-0.33 3.01 -0.66 2.02 -1 1 C-0.67 0.67 -0.34 0.34 0 0 Z " fill="#989A9C" transform="translate(643,86)"/>
<path d="M0 0 C0.928 0.206 1.856 0.412 2.812 0.625 C2.812 1.615 2.812 2.605 2.812 3.625 C1.327 3.295 1.327 3.295 -6.188 1.625 C-3.188 -0.375 -3.188 -0.375 0 0 Z " fill="#31373B" transform="translate(400.1875,75.375)"/>
<path d="M0 0 C0.66 0 1.32 0 2 0 C2 1.32 2 2.64 2 4 C1.34 4.33 1.34 4.33 -2 6 C-2 2 -2 2 0 0 Z " fill="#F0AF02" transform="translate(407,55)"/>
<path d="M0 0 C0.66 0 1.32 0 2 0 C2 1.65 2 3.3 2 5 C0.35 5.33 -1.3 5.66 -3 6 C-3 5.34 -3 4.68 -3 4 C-2.34 3.67 -1.68 3.34 -1 3 C-0.67 2.01 -0.34 1.02 0 0 Z " fill="#131518" transform="translate(54,34)"/>
<path d="M0 0 C0.33 0 0.66 0 1 0 C1 3.3 1 6.6 1 10 C-1.595 7.405 -1.7 5.601 -2 2 C-1.34 1.34 -0.68 0.68 0 0 Z " fill="#060708" transform="translate(243,31)"/>
<path d="M0 0 C0.33 0.66 0.66 1.32 1 2 C2.65 2 4.3 2 6 2 C5.34 3.65 4.68 5.3 4 7 C3.67 6.34 3.34 5.68 3 5 C2.34 5 1.68 5 1 5 C0.835 4.175 0.835 4.175 0 0 Z " fill="#1F2125" transform="translate(3,31)"/>
<path d="M0 0 C1.98 0 3.96 0 6 0 C5.67 1.32 5.34 2.64 5 4 C3.35 3.67 1.7 3.34 0 3 C0 2.01 0 1.02 0 0 Z " fill="#FCCD6E" transform="translate(413,22)"/>
<path d="M0 0 C2.867 0.573 3.861 0.861 6 3 C4.35 3.66 2.7 4.32 1 5 C0.835 4.175 0.835 4.175 0 0 Z " fill="#14191C" transform="translate(414,84)"/>
<path d="M0 0 C0 1.65 0 3.3 0 5 C-1.65 4.67 -3.3 4.34 -5 4 C-5 3.01 -5 2.02 -5 1 C-1.125 0 -1.125 0 0 0 Z " fill="#21252A" transform="translate(21,60)"/>
<path d="M0 0 C2.603 2.712 2.995 3.891 3.188 7.75 C3.126 8.822 3.064 9.895 3 11 C2.67 11 2.34 11 2 11 C1.876 10.196 1.752 9.391 1.625 8.562 C1.522 8.14 1.522 8.14 1 6 C0.34 5.67 -0.32 5.34 -1 5 C-0.67 3.35 -0.34 1.7 0 0 Z " fill="#FDC536" transform="translate(419,33)"/>
</svg>
