<?xml version="1.0" encoding="UTF-8"?>
<!-- Generator: visioncortex VTracer 0.6.12 -->
<svg version="1.1" xmlns="http://www.w3.org/2000/svg" width="535" height="89">
<path d="M0 0 C176.55 0 353.1 0 535 0 C535 29.37 535 58.74 535 89 C358.45 89 181.9 89 0 89 C0 59.63 0 30.26 0 0 Z " fill="#040C1A" transform="translate(0,0)"/>
<path d="M0 0 C0.33 -0.33 0.66 -0.66 1 -1 C3.333 -1.041 5.667 -1.042 8 -1 C8 -0.34 8 0.32 8 1 C7.01 1 6.02 1 5 1 C5 3.64 5 6.28 5 9 C5.99 9 6.98 9 8 9 C8.33 5.7 8.66 2.4 9 -1 C10.98 -1 12.96 -1 15 -1 C15.66 0.32 16.32 1.64 17 3 C17.99 2.67 18.98 2.34 20 2 C20 1.34 20 0.68 20 0 C20.99 0 21.98 0 23 0 C23.66 0.99 24.32 1.98 25 3 C25.66 1.68 26.32 0.36 27 -1 C33 -1 39 -1 45 -1 C45.165 -0.67 45.165 -0.67 46 1 C46.99 0.34 47.98 -0.32 49 -1 C51.961 -0.641 52.847 -0.153 55 2 C55.33 1.34 55.66 0.68 56 0 C57.986 0.033 59.971 0.065 61.957 0.098 C64 0 64 0 67 -1 C67 1.64 67 4.28 67 7 C68.32 7 69.64 7 71 7 C71 4.36 71 1.72 71 -1 C72.98 -1 74.96 -1 77 -1 C77 1.64 77 4.28 77 7 C78.32 7 79.64 7 81 7 C81.165 8.155 81.165 8.155 82 14 C54.28 14 26.56 14 -2 14 C-2 13.34 -2 12.68 -2 12 C-2.66 12 -3.32 12 -4 12 C-4 11.01 -4 10.02 -4 9 C-4.99 8.67 -5.98 8.34 -7 8 C-7 7.34 -7 6.68 -7 6 C-6.175 6.165 -6.175 6.165 -2 7 C-2 6.34 -2 5.68 -2 5 C-3.65 4.67 -5.3 4.34 -7 4 C-7 2.68 -7 1.36 -7 0 C-4.335 -1.332 -2.852 -0.585 0 0 Z " fill="#1E242F" transform="translate(453,75)"/>
<path d="M0 0 C4.04 3.922 7.122 7.359 7.312 13.125 C7.231 19.421 5.048 23.952 0.625 28.375 C-4.621 31.622 -8.786 32.418 -14.824 31.535 C-19.672 30.343 -22.367 27.838 -25.312 23.938 C-28.163 18.975 -28.808 14.622 -28 9 C-25.896 3.946 -23.111 0.228 -18 -2 C-11.709 -4.307 -5.713 -3.22 0 0 Z " fill="#F1F1F1" transform="translate(344,14)"/>
<path d="M0 0 C1.506 -0.052 1.506 -0.052 9.125 -0.312 C10.062 -0.358 11 -0.404 11.965 -0.45 C16.266 -0.521 19.141 -0.384 22.555 2.395 C25.974 6.038 25.974 6.038 26.055 9.023 C25.565 15.435 25.565 15.435 22.438 18.562 C21.633 19.037 20.829 19.511 20 20 C21.36 24.079 23.42 27.148 25.977 30.547 C27 32 27 32 27 33 C21.97 33.971 21.97 33.971 19 33 C16.898 30.299 15.374 27.56 13.836 24.504 C12 22 12 22 8.789 21.152 C7.869 21.102 6.948 21.052 6 21 C6 24.96 6 28.92 6 33 C4.02 33 2.04 33 0 33 C0 22.11 0 11.22 0 0 Z " fill="#F2F2F2" transform="translate(282,12)"/>
<path d="M0 0 C7 0 7 0 8.713 1.561 C8.904 1.917 8.904 1.917 9.871 3.719 C10.3 4.486 10.728 5.253 11.17 6.043 C11.588 6.854 12.007 7.665 12.438 8.5 C12.883 9.311 13.328 10.122 13.787 10.957 C14.883 12.96 15.952 14.972 17 17 C20.826 12.507 23.306 7.708 25.926 2.449 C26.61 1.641 27.295 0.833 28 0 C30.31 0 32.62 0 35 0 C35 10.89 35 21.78 35 33 C33.02 33 31.04 33 29 33 C28.67 26.07 28.34 19.14 28 12 C25.03 17.28 22.06 22.56 19 28 C17.68 28 16.36 28 15 28 C12.333 22.667 9.667 17.333 7 12 C6.67 18.93 6.34 25.86 6 33 C4.02 33 2.04 33 0 33 C0 22.11 0 11.22 0 0 Z " fill="#EDEEEE" transform="translate(360,12)"/>
<path d="M0 0 C7 0 7 0 8.972 1.589 C9.474 2.318 9.975 3.046 10.492 3.797 C11.052 4.591 11.611 5.385 12.188 6.203 C12.466 6.623 12.466 6.623 13.875 8.75 C14.455 9.575 15.035 10.4 15.633 11.25 C20.21 17.881 20.21 17.881 21 22 C21.66 22 22.32 22 23 22 C23 14.74 23 7.48 23 0 C24.98 0 26.96 0 29 0 C29 10.89 29 21.78 29 33 C22 33 22 33 20.044 31.395 C19.548 30.66 19.053 29.925 18.543 29.168 C17.988 28.369 17.433 27.571 16.861 26.748 C16.309 25.903 15.757 25.058 15.188 24.188 C14.616 23.354 14.044 22.521 13.455 21.662 C11.947 19.456 10.467 17.234 9 15 C8.34 14.01 7.68 13.02 7 12 C6.67 18.93 6.34 25.86 6 33 C4.02 33 2.04 33 0 33 C0 22.11 0 11.22 0 0 Z " fill="#EBEBEB" transform="translate(445,12)"/>
<path d="M0 0 C2.051 0.033 4.102 0.065 6.152 0.098 C7.868 4.313 9.577 8.53 11.279 12.75 C11.859 14.186 12.441 15.62 13.025 17.054 C13.864 19.115 14.696 21.178 15.527 23.242 C15.79 23.883 16.052 24.524 16.323 25.184 C17.448 27.997 18.152 30.035 18.152 33.098 C15.34 33.41 15.34 33.41 12.152 33.098 C10.266 30.709 9.152 29.179 9.152 26.098 C4.202 26.098 -0.748 26.098 -5.848 26.098 C-6.178 27.253 -6.178 27.253 -7.848 33.098 C-10.158 33.098 -12.468 33.098 -14.848 33.098 C-12.061 25.109 -9.151 17.176 -6.098 9.285 C-5.792 8.491 -5.486 7.696 -5.172 6.877 C-2.546 0.135 -2.546 0.135 0 0 Z " fill="#E9E9E9" transform="translate(417.84765625,11.90234375)"/>
<path d="M0 0 C2.64 0 5.28 0 8 0 C11.38 6.465 14.115 13.077 16.75 19.875 C17.161 20.919 17.572 21.963 17.996 23.039 C21 30.743 21 30.743 21 33 C18.69 33 16.38 33 14 33 C13.34 30.69 12.68 28.38 12 26 C7.05 26 2.1 26 -3 26 C-3.66 27.98 -4.32 29.96 -5 32 C-6 33 -6 33 -9.062 33.062 C-10.032 33.042 -11.001 33.021 -12 33 C-10.112 25.813 -7.416 19.16 -4.43 12.363 C-2.702 8.298 -1.309 4.217 0 0 Z " fill="#E9E9E9" transform="translate(512,12)"/>
<path d="M0 0 C27.39 0 54.78 0 83 0 C83 1.65 83 3.3 83 5 C55.61 5 28.22 5 0 5 C0 3.35 0 1.7 0 0 Z " fill="#D8AE08" transform="translate(365,57)"/>
<path d="M0 0 C27.06 0 54.12 0 82 0 C82 1.65 82 3.3 82 5 C54.94 5 27.88 5 0 5 C0 3.35 0 1.7 0 0 Z " fill="#C7181B" transform="translate(451,57)"/>
<path d="M0 0 C26.4 0 52.8 0 80 0 C80 1.65 80 3.3 80 5 C53.6 5 27.2 5 0 5 C0 3.35 0 1.7 0 0 Z " fill="#0E6ACA" transform="translate(281,57)"/>
<path d="M0 0 C3 2.438 3 2.438 5 5 C5.33 5.33 5.66 5.66 6 6 C6.454 10.224 6.443 13.928 4.812 17.875 C1.946 21.236 -0.536 22.714 -4.875 23.562 C-8.705 22.873 -10.804 21.685 -13.637 19.047 C-16.319 15.019 -15.903 10.597 -15 6 C-11.293 -0.179 -6.87 -1.103 0 0 Z " fill="#09111E" transform="translate(338,17)"/>
<path d="M0 0 C0.33 0 0.66 0 1 0 C1.551 6.614 0.841 11.482 -3 17 C-6.796 20.796 -10.715 22.947 -16.172 23.035 C-21.427 22.674 -24.909 21.507 -29 18 C-30.875 15.25 -30.875 15.25 -32 13 C-31.526 12.67 -31.051 12.34 -30.562 12 C-28.142 8.902 -28.318 5.88 -28 2 C-27.67 2 -27.34 2 -27 2 C-26.997 2.592 -26.995 3.183 -26.992 3.793 C-26.79 7.934 -26.57 11.132 -23.5 14.125 C-19.468 16.285 -17.453 16.296 -13.051 15.688 C-10.589 14.862 -9.551 14.079 -8 12 C-7.445 9.809 -7.445 9.809 -7.125 7.438 C-6.668 5.027 -6.668 5.027 -6 3 C-3.438 1.5 -3.438 1.5 -1 1 C-0.67 0.67 -0.34 0.34 0 0 Z " fill="#E8E8E8" transform="translate(350,23)"/>
<path d="M0 0 C7 0 7 0 9.215 2.188 C9.783 3.116 10.352 4.044 10.938 5 C11.524 5.928 12.111 6.856 12.715 7.812 C13.139 8.534 13.563 9.256 14 10 C13.188 11.938 13.188 11.938 12 14 C11.01 14.33 10.02 14.66 9 15 C8.34 14.01 7.68 13.02 7 12 C6.67 18.93 6.34 25.86 6 33 C4.02 33 2.04 33 0 33 C0 22.11 0 11.22 0 0 Z " fill="#F3F3F3" transform="translate(445,12)"/>
<path d="M0 0 C2.31 0 4.62 0 7 0 C7 10.89 7 21.78 7 33 C5.02 33 3.04 33 1 33 C0.835 29.535 0.835 29.535 0 12 C-1.65 12.66 -3.3 13.32 -5 14 C-6.065 11.286 -6.075 10.199 -5.031 7.422 C-4.526 6.54 -4.021 5.658 -3.5 4.75 C-3.015 3.858 -2.531 2.966 -2.031 2.047 C-1.361 1.371 -0.691 0.696 0 0 Z " fill="#F5F5F5" transform="translate(388,12)"/>
<path d="M0 0 C2.31 0 4.62 0 7 0 C7 10.89 7 21.78 7 33 C4.69 33 2.38 33 0 33 C0 22.11 0 11.22 0 0 Z " fill="#E1E1E2" transform="translate(485,12)"/>
<path d="M0 0 C2.64 0 5.28 0 8 0 C8.671 1.623 9.337 3.249 10 4.875 C10.371 5.78 10.743 6.685 11.125 7.617 C12 10 12 10 12 12 C10.35 12.66 8.7 13.32 7 14 C5 11 5 11 5 7 C4.34 7 3.68 7 3 7 C2.856 7.763 2.711 8.526 2.562 9.312 C2 12 2 12 1 15 C0.34 15 -0.32 15 -1 15 C-1 14.01 -1 13.02 -1 12 C-1.66 12.33 -1.66 12.33 -5 14 C-4.346 8.93 -2.145 4.58 0 0 Z " fill="#EDEDED" transform="translate(416,12)"/>
<path d="M0 0 C2.64 0 5.28 0 8 0 C8.702 1.242 9.386 2.494 10.062 3.75 C10.445 4.446 10.828 5.142 11.223 5.859 C12.143 8.394 12.022 9.529 11 12 C8.938 13.25 8.938 13.25 7 14 C6.01 12.02 5.02 10.04 4 8 C3.34 9.65 2.68 11.3 2 13 C1.381 12.814 0.763 12.629 0.125 12.438 C-2 12 -2 12 -4 13 C-3.521 11.396 -3.042 9.792 -2.562 8.188 C-2.296 7.294 -2.029 6.401 -1.754 5.48 C-1.196 3.645 -0.607 1.82 0 0 Z " fill="#F2F2F2" transform="translate(512,12)"/>
<path d="M0 0 C9.625 -0.25 9.625 -0.25 13 2 C13.393 5.078 13.648 7.092 11.801 9.68 C9.372 11.461 7.79 11.304 4.812 11.188 C3.224 11.126 1.636 11.064 0 11 C0 7.37 0 3.74 0 0 Z " fill="#161C25" transform="translate(288,17)"/>
<path d="M0 0 C0.815 0.003 1.629 0.005 2.469 0.008 C3.283 0.005 4.098 0.003 4.938 0 C6.969 0.133 6.969 0.133 7.969 1.133 C8.111 4.469 8.011 7.793 7.969 11.133 C4.339 11.133 0.709 11.133 -3.031 11.133 C-3.129 3.418 -3.129 3.418 -3.031 1.133 C-2.031 0.133 -2.031 0.133 0 0 Z " fill="#13161C" transform="translate(113.03125,16.8671875)"/>
<path d="M0 0 C0.516 0.01 0.516 0.01 3.125 0.062 C4.115 0.062 5.105 0.062 6.125 0.062 C6.455 2.703 6.785 5.343 7.125 8.062 C8.445 8.392 9.765 8.723 11.125 9.062 C11.125 6.093 11.125 3.122 11.125 0.062 C11.785 0.062 12.445 0.062 13.125 0.062 C13.179 1.52 13.218 2.979 13.25 4.438 C13.273 5.25 13.296 6.062 13.32 6.898 C13.125 9.062 13.125 9.062 11.125 11.062 C7.828 10.733 6.502 10.44 4.125 8.062 C1.5 7.438 1.5 7.438 -0.875 7.062 C-0.875 8.383 -0.875 9.703 -0.875 11.062 C-1.865 11.062 -2.855 11.062 -3.875 11.062 C-3.902 9.417 -3.921 7.771 -3.938 6.125 C-3.949 5.208 -3.961 4.292 -3.973 3.348 C-3.826 -0.087 -3.485 0.076 0 0 Z " fill="#999A9A" transform="translate(125.875,16.9375)"/>
<path d="M0 0 C6.27 0 12.54 0 19 0 C18.67 1.32 18.34 2.64 18 4 C15.475 5.262 13.688 5.099 10.875 5.062 C9.965 5.053 9.055 5.044 8.117 5.035 C7.419 5.024 6.72 5.012 6 5 C5.67 5.99 5.34 6.98 5 8 C4.34 7.67 3.68 7.34 3 7 C2.34 7.66 1.68 8.32 1 9 C0.67 8.67 0.34 8.34 0 8 C0 5.36 0 2.72 0 0 Z " fill="#F5F5F5" transform="translate(282,12)"/>
<path d="M0 0 C3.3 0 6.6 0 10 0 C10.33 0.66 10.66 1.32 11 2 C11.66 2 12.32 2 13 2 C13.33 1.34 13.66 0.68 14 0 C14.66 0 15.32 0 16 0 C15.629 0.887 15.257 1.774 14.875 2.688 C13.892 6.408 14.239 7.674 16 11 C15.34 11 14.68 11 14 11 C13.67 10.34 13.34 9.68 13 9 C12.34 9 11.68 9 11 9 C10.67 9.66 10.34 10.32 10 11 C9.34 11 8.68 11 8 11 C8.66 9.02 9.32 7.04 10 5 C8.812 3.5 8.812 3.5 7 2 C4.312 1.812 4.312 1.812 2 2 C2 2.99 2 3.98 2 5 C3.32 5.33 4.64 5.66 6 6 C4.68 6 3.36 6 2 6 C2 6.99 2 7.98 2 9 C3.65 9 5.3 9 7 9 C7 9.66 7 10.32 7 11 C4.69 11 2.38 11 0 11 C0 7.37 0 3.74 0 0 Z " fill="#BDBDBC" transform="translate(71,17)"/>
<path d="M0 0 C2.897 0.31 4.077 1.067 6.312 3 C8.678 7.206 7.922 10.399 7 15 C6.34 15 5.68 15 5 15 C5 14.34 5 13.68 5 13 C3.35 13 1.7 13 0 13 C0 10.69 0 8.38 0 6 C-0.66 5.67 -1.32 5.34 -2 5 C-2 3 -2 3 0 1 C0 0.67 0 0.34 0 0 Z " fill="#E8E8E8" transform="translate(300,13)"/>
<path d="M0 0 C5.429 -0.362 5.429 -0.362 7.875 1.188 C9.407 3.655 9.428 5.145 9 8 C7.875 9.812 7.875 9.812 6 11 C2.812 11.188 2.812 11.188 0 11 C0 7.37 0 3.74 0 0 Z " fill="#D0D1D0" transform="translate(152,17)"/>
<path d="M0 0 C2.438 0.812 2.438 0.812 4.438 2.812 C4.805 5.683 4.813 7.22 3.25 9.688 C1.438 10.812 1.438 10.812 -1.125 10.625 C-3.562 9.812 -3.562 9.812 -5.562 7.812 C-5.93 4.942 -5.938 3.405 -4.375 0.938 C-2.562 -0.188 -2.562 -0.188 0 0 Z " fill="#CCCDCC" transform="translate(33.5625,17.1875)"/>
<path d="M0 0 C2.875 -0.125 2.875 -0.125 6 0 C8 2 8 2 8.25 5.5 C8 9 8 9 6 11 C2.875 11.125 2.875 11.125 0 11 C0 7.37 0 3.74 0 0 Z " fill="#D0D0CD" transform="translate(18,17)"/>
<path d="M0 0 C5.411 -0.361 5.411 -0.361 7.938 1.188 C9 3 9 3 8.812 5.562 C8 8 8 8 6 10 C2.875 10.125 2.875 10.125 0 10 C0 6.7 0 3.4 0 0 Z " fill="#BDBBBB" transform="translate(301,74)"/>
<path d="M0 0 C1.439 0.08 2.878 0.177 4.312 0.312 C4.312 0.973 4.312 1.633 4.312 2.312 C3.323 2.312 2.332 2.312 1.312 2.312 C1.312 5.282 1.312 8.253 1.312 11.312 C0.323 10.983 -0.668 10.652 -1.688 10.312 C-2.677 10.642 -3.668 10.973 -4.688 11.312 C-6.375 8.625 -6.375 8.625 -7.688 5.312 C-6.455 0.59 -4.545 0.007 0 0 Z " fill="#0C121D" transform="translate(91.6875,16.6875)"/>
<path d="M0 0 C1.938 0.75 1.938 0.75 3.938 2.75 C3.608 6.047 3.315 7.373 0.938 9.75 C-3.618 9.194 -3.618 9.194 -5.062 7.75 C-5.312 4.812 -5.312 4.812 -5.062 1.75 C-2.062 -0.25 -2.062 -0.25 0 0 Z " fill="#CECECC" transform="translate(504.0625,74.25)"/>
<path d="M0 0 C2.705 4.058 5 8.049 5 13 C1.7 13 -1.6 13 -5 13 C-4.358 11.02 -3.711 9.041 -3.062 7.062 C-2.703 5.96 -2.343 4.858 -1.973 3.723 C-1 1 -1 1 0 0 Z " fill="#1E2126" transform="translate(516,19)"/>
<path d="M0 0 C0.66 0 1.32 0 2 0 C2.508 1.414 3.006 2.831 3.5 4.25 C3.778 5.039 4.057 5.828 4.344 6.641 C5 9 5 9 5 13 C2.03 13 -0.94 13 -4 13 C-3.521 11.396 -3.042 9.792 -2.562 8.188 C-2.296 7.294 -2.029 6.401 -1.754 5.48 C-1.196 3.645 -0.607 1.82 0 0 Z " fill="#1C1E23" transform="translate(419,19)"/>
<path d="M0 0 C3.375 -0.5 3.375 -0.5 7 0 C9.438 2.375 9.438 2.375 11 5 C11 5.66 11 6.32 11 7 C9.35 7 7.7 7 6 7 C5.67 6.01 5.34 5.02 5 4 C4.01 4 3.02 4 2 4 C1.67 4.99 1.34 5.98 1 7 C-0.65 7 -2.3 7 -4 7 C-2.796 4.506 -1.546 2.319 0 0 Z " fill="#E7E7E7" transform="translate(416,2)"/>
<path d="M0 0 C2 -0.043 4 -0.041 6 0 C7.903 1.903 7 5.45 7 8 C7.33 8.99 7.66 9.98 8 11 C5.007 10.002 4.052 9.248 2 7 C2 8.32 2 9.64 2 11 C1.34 11 0.68 11 0 11 C0 7.37 0 3.74 0 0 Z " fill="#CBCBCC" transform="translate(49,17)"/>
<path d="M0 0 C3.63 0 7.26 0 11 0 C11 0.66 11 1.32 11 2 C10.01 2 9.02 2 8 2 C8 4.64 8 7.28 8 10 C7.34 10 6.68 10 6 10 C6 7.69 6 5.38 6 3 C5.01 3 4.02 3 3 3 C2.67 5.31 2.34 7.62 2 10 C1.34 10 0.68 10 0 10 C0 6.7 0 3.4 0 0 Z " fill="#B6B7B8" transform="translate(487,74)"/>
<path d="M0 0 C3.736 1.245 4.188 2.634 6 6 C6.33 4.02 6.66 2.04 7 0 C7.66 0 8.32 0 9 0 C9 3.63 9 7.26 9 11 C4.5 8.75 4.5 8.75 3 5 C2.67 6.98 2.34 8.96 2 11 C1.34 11 0.68 11 0 11 C0 7.37 0 3.74 0 0 Z " fill="#CCCDCD" transform="translate(141,17)"/>
<path d="M0 0 C2.875 -0.125 2.875 -0.125 6 0 C6.66 0.66 7.32 1.32 8 2 C7.625 4.125 7.625 4.125 7 6 C5.35 6.33 3.7 6.66 2 7 C2 8.32 2 9.64 2 11 C1.34 11 0.68 11 0 11 C0 7.37 0 3.74 0 0 Z " fill="#A9A9A8" transform="translate(101,17)"/>
<path d="M0 0 C0.66 0 1.32 0 2 0 C3.625 2.5 3.625 2.5 5 5 C5.33 3.35 5.66 1.7 6 0 C6.66 0 7.32 0 8 0 C8 3.63 8 7.26 8 11 C7.34 11 6.68 11 6 11 C4.375 8.5 4.375 8.5 3 6 C2.67 7.65 2.34 9.3 2 11 C1.34 11 0.68 11 0 11 C0 7.37 0 3.74 0 0 Z " fill="#C2C2C3" transform="translate(184,17)"/>
<path d="M0 0 C1.65 0.33 3.3 0.66 5 1 C5 4 5 7 5 10 C3.35 10.33 1.7 10.66 0 11 C-0.66 9.68 -1.32 8.36 -2 7 C-1.34 6.34 -0.68 5.68 0 5 C0.99 5 1.98 5 3 5 C3 4.01 3 3.02 3 2 C2.34 2 1.68 2 1 2 C1 2.66 1 3.32 1 4 C0.34 4 -0.32 4 -1 4 C-0.67 2.68 -0.34 1.36 0 0 Z " fill="#B1B1AF" transform="translate(3,17)"/>
<path d="M0 0 C1.32 0 2.64 0 4 0 C3.67 0.99 3.34 1.98 3 3 C3.987 4.674 4.988 6.341 6 8 C6 9.32 6 10.64 6 12 C5.34 12 4.68 12 4 12 C4 11.34 4 10.68 4 10 C1.69 10.66 -0.62 11.32 -3 12 C-2.691 11.134 -2.381 10.267 -2.062 9.375 C-1.075 6.238 -0.464 3.249 0 0 Z " fill="#CACAC8" transform="translate(413,72)"/>
<path d="M0 0 C0.33 0 0.66 0 1 0 C1 7.26 1 14.52 1 22 C0.67 22 0.34 22 0 22 C-0.33 17.38 -0.66 12.76 -1 8 C-3.224 10.965 -5.143 13.816 -7 17 C-8 14 -8 14 -6.348 10.645 C-5.596 9.361 -4.834 8.084 -4.062 6.812 C-3.869 6.485 -3.869 6.485 -2.893 4.83 C-1.937 3.215 -0.97 1.607 0 0 Z " fill="#303338" transform="translate(388,23)"/>
<path d="M0 0 C0.784 0.247 1.567 0.495 2.375 0.75 C2.705 1.41 3.035 2.07 3.375 2.75 C1.395 2.75 -0.585 2.75 -2.625 2.75 C-2.625 4.4 -2.625 6.05 -2.625 7.75 C-1.305 8.08 0.015 8.41 1.375 8.75 C1.375 8.09 1.375 7.43 1.375 6.75 C0.715 6.75 0.055 6.75 -0.625 6.75 C-0.625 6.09 -0.625 5.43 -0.625 4.75 C0.695 4.75 2.015 4.75 3.375 4.75 C3.375 6.4 3.375 8.05 3.375 9.75 C0.562 10.375 0.562 10.375 -2.625 10.75 C-3.615 10.09 -4.605 9.43 -5.625 8.75 C-6 5.25 -6 5.25 -5.625 1.75 C-2.625 -0.25 -2.625 -0.25 0 0 Z " fill="#C7C6C4" transform="translate(208.625,17.25)"/>
<path d="M0 0 C0.99 0.33 1.98 0.66 3 1 C3.33 2.65 3.66 4.3 4 6 C4.66 6 5.32 6 6 6 C6 4.02 6 2.04 6 0 C6.66 0 7.32 0 8 0 C8 3.3 8 6.6 8 10 C4 8 4 8 3 7 C2.67 7.99 2.34 8.98 2 10 C1.34 10 0.68 10 0 10 C0 6.7 0 3.4 0 0 Z " fill="#D2D3D2" transform="translate(394,74)"/>
<path d="M0 0 C4 2 4 2 5 4 C5.33 2.68 5.66 1.36 6 0 C6.66 0 7.32 0 8 0 C8 3.3 8 6.6 8 10 C7.34 10 6.68 10 6 10 C4.375 7.5 4.375 7.5 3 5 C2.67 6.65 2.34 8.3 2 10 C1.34 10 0.68 10 0 10 C0 6.7 0 3.4 0 0 Z " fill="#C6C6C6" transform="translate(291,74)"/>
<path d="M0 0 C1.98 0 3.96 0 6 0 C6.853 3.093 7 5.793 7 9 C6.01 8.67 5.02 8.34 4 8 C4 7.34 4 6.68 4 6 C3.34 6 2.68 6 2 6 C2 6.99 2 7.98 2 9 C1.34 9 0.68 9 0 9 C0 6.03 0 3.06 0 0 Z " fill="#DEDCDC" transform="translate(331,75)"/>
<path d="M0 0 C0.66 0 1.32 0 2 0 C2 2.64 2 5.28 2 8 C2.99 8 3.98 8 5 8 C5 5.69 5 3.38 5 1 C5.99 0.67 6.98 0.34 8 0 C8.195 6.055 8.195 6.055 8 8 C6 10 6 10 3.438 10.188 C1 10 1 10 0 9 C-0.072 7.481 -0.084 5.958 -0.062 4.438 C-0.053 3.611 -0.044 2.785 -0.035 1.934 C-0.024 1.296 -0.012 0.657 0 0 Z " fill="#B5B4B4" transform="translate(282,74)"/>
<path d="M0 0 C3 1 3 1 5 4 C5.33 2.68 5.66 1.36 6 0 C6.66 0 7.32 0 8 0 C8 3.3 8 6.6 8 10 C7.34 10 6.68 10 6 10 C4.375 7.5 4.375 7.5 3 5 C2.67 6.65 2.34 8.3 2 10 C1.34 10 0.68 10 0 10 C0 6.7 0 3.4 0 0 Z " fill="#D0D0D0" transform="translate(428,74)"/>
<path d="M0 0 C0.99 0.33 1.98 0.66 3 1 C3.949 3.066 3.949 3.066 4.688 5.562 C4.813 5.976 4.813 5.976 5.449 8.066 C5.631 8.704 5.813 9.343 6 10 C3.36 9.34 0.72 8.68 -2 8 C-2.33 8.66 -2.66 9.32 -3 10 C-2.25 3.375 -2.25 3.375 0 0 Z " fill="#A2A4A4" transform="translate(42,18)"/>
<path d="M0 0 C0.99 0.33 1.98 0.66 3 1 C3.949 3.285 3.949 3.285 4.688 6.062 C4.813 6.522 4.813 6.522 5.449 8.848 C5.631 9.558 5.813 10.268 6 11 C5.34 11 4.68 11 4 11 C3.67 10.34 3.34 9.68 3 9 C0.938 8.375 0.938 8.375 -1 8 C-1.33 8.99 -1.66 9.98 -2 11 C-3.136 7.591 -2.867 6.997 -1.562 3.812 C-1.419 3.455 -1.419 3.455 -0.691 1.645 C-0.577 1.373 -0.577 1.373 0 0 Z " fill="#D0D0CF" transform="translate(165,17)"/>
<path d="M0 0 C0.66 0 1.32 0 2 0 C4 2 4 2 4.375 5.938 C4.307 9.693 4.307 9.693 2 12 C1.67 12.165 1.67 12.165 0 13 C-1 12 -1 12 -1.098 9.934 C-1.086 9.11 -1.074 8.286 -1.062 7.438 C-1.053 6.611 -1.044 5.785 -1.035 4.934 C-1.024 4.296 -1.012 3.657 -1 3 C-0.34 3 0.32 3 1 3 C0.67 2.01 0.34 1.02 0 0 Z " fill="#FBFBFB" transform="translate(318,23)"/>
<path d="M0 0 C0.99 0 1.98 0 3 0 C3.33 0.66 3.66 1.32 4 2 C6.062 3.125 6.062 3.125 8 4 C7.34 4 6.68 4 6 4 C6 4.66 6 5.32 6 6 C2.99 6.581 0.071 7.06 -3 7 C-5.062 5.062 -5.062 5.062 -6 3 C-5.196 2.876 -4.391 2.752 -3.562 2.625 C-2.717 2.419 -1.871 2.213 -1 2 C-0.67 1.34 -0.34 0.68 0 0 Z " fill="#222529" transform="translate(418,6)"/>
<path d="M0 0 C0.99 0 1.98 0 3 0 C6 5.625 6 5.625 6 9 C5.34 9 4.68 9 4 9 C4 8.34 4 7.68 4 7 C2.35 7 0.7 7 -1 7 C-1 7.66 -1 8.32 -1 9 C-1.66 9 -2.32 9 -3 9 C-2.01 6.03 -1.02 3.06 0 0 Z " fill="#BFBFBE" transform="translate(342,75)"/>
<path d="M0 0 C1.98 0 3.96 0 6 0 C6 0.66 6 1.32 6 2 C4.68 2 3.36 2 2 2 C2 2.66 2 3.32 2 4 C3.32 4 4.64 4 6 4 C6 4.66 6 5.32 6 6 C4.68 6 3.36 6 2 6 C2 6.66 2 7.32 2 8 C3.65 8 5.3 8 7 8 C7 8.66 7 9.32 7 10 C4.69 10 2.38 10 0 10 C0 6.7 0 3.4 0 0 Z " fill="#C2C1C0" transform="translate(462,74)"/>
<path d="M0 0 C1.98 0 3.96 0 6 0 C6 0.66 6 1.32 6 2 C4.68 2 3.36 2 2 2 C2 2.66 2 3.32 2 4 C3.32 4 4.64 4 6 4 C6 4.66 6 5.32 6 6 C4.68 6 3.36 6 2 6 C2 6.66 2 7.32 2 8 C3.65 8 5.3 8 7 8 C7 8.66 7 9.32 7 10 C4.69 10 2.38 10 0 10 C0 6.7 0 3.4 0 0 Z " fill="#C9C7C5" transform="translate(311,74)"/>
<path d="M0 0 C1.32 0.33 2.64 0.66 4 1 C5.522 3.891 6 5.718 6 9 C5.34 9 4.68 9 4 9 C4 8.34 4 7.68 4 7 C1.69 7.66 -0.62 8.32 -3 9 C-2.01 6.03 -1.02 3.06 0 0 Z " fill="#BFBFBF" transform="translate(378,75)"/>
<path d="M0 0 C1.125 5.75 1.125 5.75 0 8 C2.97 8 5.94 8 9 8 C9.33 7.34 9.66 6.68 10 6 C10 6.99 10 7.98 10 9 C6.37 9 2.74 9 -1 9 C-1.33 8.34 -1.66 7.68 -2 7 C-3.32 7 -4.64 7 -6 7 C-5.688 4.625 -5.688 4.625 -5 2 C-2 0 -2 0 0 0 Z " fill="#DCDCDD" transform="translate(415,24)"/>
<path d="M0 0 C0.485 0.01 0.485 0.01 2.938 0.062 C2.938 0.723 2.938 1.383 2.938 2.062 C1.287 2.062 -0.362 2.062 -2.062 2.062 C-2.062 3.053 -2.062 4.043 -2.062 5.062 C-0.412 5.062 1.237 5.062 2.938 5.062 C2.938 5.392 2.938 5.723 2.938 6.062 C1.287 6.062 -0.362 6.062 -2.062 6.062 C-2.062 7.053 -2.062 8.043 -2.062 9.062 C-0.412 9.062 1.237 9.062 2.938 9.062 C2.938 9.723 2.938 10.383 2.938 11.062 C0.627 11.062 -1.683 11.062 -4.062 11.062 C-4.089 9.417 -4.109 7.771 -4.125 6.125 C-4.137 5.208 -4.148 4.292 -4.16 3.348 C-4.009 -0.185 -3.607 0.074 0 0 Z " fill="#C7C5C2" transform="translate(114.0625,16.9375)"/>
<path d="M0 0 C-0.33 0.66 -0.66 1.32 -1 2 C-1.99 1.67 -2.98 1.34 -4 1 C-4 1.66 -4 2.32 -4 3 C-3.175 3.33 -3.175 3.33 1 5 C1 5.99 1 6.98 1 8 C0.34 8.66 -0.32 9.32 -1 10 C-1 10.66 -1 11.32 -1 12 C-1.66 12 -2.32 12 -3 12 C-3 11.01 -3 10.02 -3 9 C-3.99 8.67 -4.98 8.34 -6 8 C-6 7.34 -6 6.68 -6 6 C-5.175 6.165 -5.175 6.165 -1 7 C-1 6.34 -1 5.68 -1 5 C-2.65 4.67 -4.3 4.34 -6 4 C-6 2.68 -6 1.36 -6 0 C-3.509 -1.245 -2.589 -0.777 0 0 Z " fill="#D2D1CF" transform="translate(452,75)"/>
<path d="M0 0 C1.98 0 3.96 0 6 0 C6 0.66 6 1.32 6 2 C4.68 2 3.36 2 2 2 C2 2.66 2 3.32 2 4 C3.32 4 4.64 4 6 4 C6 4.66 6 5.32 6 6 C4.68 6 3.36 6 2 6 C2 6.66 2 7.32 2 8 C3.32 8 4.64 8 6 8 C6 8.66 6 9.32 6 10 C4.02 10 2.04 10 0 10 C0 6.7 0 3.4 0 0 Z " fill="#CFCECC" transform="translate(438,74)"/>
<path d="M0 0 C0.33 0.99 0.66 1.98 1 3 C3.062 3.688 3.062 3.688 5 4 C5 4.66 5 5.32 5 6 C3.35 5.67 1.7 5.34 0 5 C0.33 5.99 0.66 6.98 1 8 C0.01 8 -0.98 8 -2 8 C-2 7.34 -2 6.68 -2 6 C-3.32 6 -4.64 6 -6 6 C-6 5.34 -6 4.68 -6 4 C-4.68 4 -3.36 4 -2 4 C-2 3.34 -2 2.68 -2 2 C-3.32 2 -4.64 2 -6 2 C-6 1.34 -6 0.68 -6 0 C-2.25 -1.125 -2.25 -1.125 0 0 Z " fill="#212226" transform="translate(446,76)"/>
<path d="M0 0 C1.98 0 3.96 0 6 0 C6 2.97 6 5.94 6 9 C4.35 8.01 2.7 7.02 1 6 C0.67 6.99 0.34 7.98 0 9 C0 6.03 0 3.06 0 0 Z " fill="#C0BFBF" transform="translate(510,75)"/>
<path d="M0 0 C1.98 0 3.96 0 6 0 C6 0.66 6 1.32 6 2 C4.68 2 3.36 2 2 2 C2 2.99 2 3.98 2 5 C3.32 5.33 4.64 5.66 6 6 C4.68 6 3.36 6 2 6 C2 6.99 2 7.98 2 9 C3.32 9 4.64 9 6 9 C6 9.66 6 10.32 6 11 C4.02 11 2.04 11 0 11 C0 7.37 0 3.74 0 0 Z " fill="#CACAC7" transform="translate(195,17)"/>
<path d="M0 0 C2.64 0 5.28 0 8 0 C7.01 0.33 6.02 0.66 5 1 C5 4.3 5 7.6 5 11 C4.01 11 3.02 11 2 11 C2 8.03 2 5.06 2 2 C1.34 2 0.68 2 0 2 C0 1.34 0 0.68 0 0 Z " fill="#ACADAC" transform="translate(363,75)"/>
<path d="M0 0 C1.65 0 3.3 0 5 0 C6.125 4.75 6.125 4.75 5 7 C2.69 7 0.38 7 -2 7 C-1.34 4.69 -0.68 2.38 0 0 Z " fill="#E3E3E4" transform="translate(405,38)"/>
<path d="M0 0 C1.32 0.33 2.64 0.66 4 1 C3.34 1 2.68 1 2 1 C2 2.98 2 4.96 2 7 C3.65 6.67 5.3 6.34 7 6 C7 4.68 7 3.36 7 2 C7.66 2 8.32 2 9 2 C8.25 6.75 8.25 6.75 6 9 C3.438 9.188 3.438 9.188 1 9 C0 8 0 8 -0.098 6.152 C-0.065 4.102 -0.033 2.051 0 0 Z " fill="#CDCDCB" transform="translate(349,75)"/>
<path d="M0 0 C0.66 0 1.32 0 2 0 C2 2.97 2 5.94 2 9 C3.32 8.67 4.64 8.34 6 8 C6.33 5.69 6.66 3.38 7 1 C7.33 1 7.66 1 8 1 C8.027 2.479 8.046 3.958 8.062 5.438 C8.074 6.261 8.086 7.085 8.098 7.934 C8 10 8 10 7 11 C4.562 11.188 4.562 11.188 2 11 C0 9 0 9 -0.195 6.836 C-0.172 6.024 -0.149 5.212 -0.125 4.375 C-0.116 3.966 -0.116 3.966 -0.07 1.898 C-0.047 1.272 -0.024 0.645 0 0 Z " fill="#C6C7C6" transform="translate(223,17)"/>
<path d="M0 0 C0.66 0 1.32 0 2 0 C1.577 1.484 1.136 2.962 0.688 4.438 C0.444 5.261 0.2 6.085 -0.051 6.934 C-0.207 7.275 -0.207 7.275 -1 9 C-1.99 9.33 -2.98 9.66 -4 10 C-4.99 7.03 -5.98 4.06 -7 1 C-6.01 1 -5.02 1 -4 1 C-3.34 1.99 -2.68 2.98 -2 4 C-1.34 2.68 -0.68 1.36 0 0 Z " fill="#C4C5C4" transform="translate(480,74)"/>
<path d="M0 0 C0.99 0 1.98 0 3 0 C3 3.3 3 6.6 3 10 C1.35 8.68 -0.3 7.36 -2 6 C-2 7.32 -2 8.64 -2 10 C-2.66 10 -3.32 10 -4 10 C-4 7.36 -4 4.72 -4 2 C-3.67 2.66 -3.34 3.32 -3 4 C-1.68 3.34 -0.36 2.68 1 2 C0.67 1.34 0.34 0.68 0 0 Z " fill="#D7D8D6" transform="translate(218,18)"/>
<path d="M0 0 C1.675 0.286 3.344 0.618 5 1 C5 2.65 5 4.3 5 6 C3.344 6.382 1.675 6.714 0 7 C-1 6 -1 6 -1.125 3.5 C-1 1 -1 1 0 0 Z " fill="#18191C" transform="translate(31,19)"/>
<path d="M0 0 C1.98 0 3.96 0 6 0 C4.68 0.33 3.36 0.66 2 1 C2 1.99 2 2.98 2 4 C3.32 4.33 4.64 4.66 6 5 C4.68 5 3.36 5 2 5 C2 5.99 2 6.98 2 8 C3.65 8 5.3 8 7 8 C7 8.66 7 9.32 7 10 C4.69 10 2.38 10 0 10 C0 6.7 0 3.4 0 0 Z " fill="#D7D7D4" transform="translate(71,18)"/>
<path d="M0 0 C1.32 0.33 2.64 0.66 4 1 C4.33 4.3 4.66 7.6 5 11 C3.35 11 1.7 11 0 11 C1.32 10.67 2.64 10.34 4 10 C4 9.34 4 8.68 4 8 C2.68 8 1.36 8 0 8 C0 5.36 0 2.72 0 0 Z " fill="#03050A" transform="translate(423,74)"/>
<path d="M0 0 C2.375 -0.188 2.375 -0.188 5 0 C7 3 7 3 6.625 5.188 C6.419 5.786 6.212 6.384 6 7 C4.35 7.33 2.7 7.66 1 8 C1.021 7.051 1.041 6.103 1.062 5.125 C1 2 1 2 0 0 Z " fill="#949597" transform="translate(350,74)"/>
<path d="M0 0 C2.312 1.938 2.312 1.938 4 4 C3.67 4.99 3.34 5.98 3 7 C2.01 6.67 1.02 6.34 0 6 C-1.666 5.961 -3.334 5.955 -5 6 C-5 4.35 -5 2.7 -5 1 C-2.75 0.25 -2.75 0.25 0 0 Z " fill="#1C1E23" transform="translate(78,18)"/>
<path d="M0 0 C2.64 0 5.28 0 8 0 C8 0.66 8 1.32 8 2 C7.01 2 6.02 2 5 2 C5 4.97 5 7.94 5 11 C4.34 11 3.68 11 3 11 C3 8.03 3 5.06 3 2 C2.01 2 1.02 2 0 2 C0 1.34 0 0.68 0 0 Z " fill="#CAC9C8" transform="translate(88,17)"/>
<path d="M0 0 C0.66 0 1.32 0 2 0 C2 2.97 2 5.94 2 9 C1.01 9 0.02 9 -1 9 C-1.33 9.66 -1.66 10.32 -2 11 C-2 8.36 -2 5.72 -2 3 C-1.34 3 -0.68 3 0 3 C0 2.01 0 1.02 0 0 Z " fill="#EBEBEC" transform="translate(284,34)"/>
<path d="M0 0 C0.66 0 1.32 0 2 0 C2 2.97 2 5.94 2 9 C3.65 9 5.3 9 7 9 C7 9.66 7 10.32 7 11 C4.69 11 2.38 11 0 11 C0 7.37 0 3.74 0 0 Z " fill="#C3C4C4" transform="translate(172,17)"/>
<path d="M0 0 C0.825 0.165 0.825 0.165 5 1 C5 2.65 5 4.3 5 6 C3.35 6.33 1.7 6.66 0 7 C0 4.69 0 2.38 0 0 Z " fill="#141518" transform="translate(154,19)"/>
<path d="M0 0 C1.32 0.33 2.64 0.66 4 1 C4.33 2.65 4.66 4.3 5 6 C3.35 6.33 1.7 6.66 0 7 C0 4.69 0 2.38 0 0 Z " fill="#1B1C20" transform="translate(20,19)"/>
<path d="M0 0 C2.31 0 4.62 0 7 0 C7 0.66 7 1.32 7 2 C6.01 2 5.02 2 4 2 C4 4.64 4 7.28 4 10 C3.34 10 2.68 10 2 10 C2 7.36 2 4.72 2 2 C1.34 2 0.68 2 0 2 C0 1.34 0 0.68 0 0 Z " fill="#BFBFBF" transform="translate(454,74)"/>
<path d="M0 0 C2.31 0 4.62 0 7 0 C7 0.66 7 1.32 7 2 C6.34 2 5.68 2 5 2 C5 4.64 5 7.28 5 10 C4.34 10 3.68 10 3 10 C3 7.36 3 4.72 3 2 C2.01 2 1.02 2 0 2 C0 1.34 0 0.68 0 0 Z " fill="#CACACA" transform="translate(403,74)"/>
<path d="M0 0 C0.66 0.33 1.32 0.66 2 1 C2.731 3.314 3.401 5.648 4 8 C2.02 8 0.04 8 -2 8 C-1.125 1.125 -1.125 1.125 0 0 Z " fill="#101216" transform="translate(515,22)"/>
<path d="M0 0 C0.66 0 1.32 0 2 0 C2 3.3 2 6.6 2 10 C1.01 10 0.02 10 -1 10 C-1.027 8.521 -1.046 7.042 -1.062 5.562 C-1.074 4.739 -1.086 3.915 -1.098 3.066 C-1 1 -1 1 0 0 Z " fill="#9B9999" transform="translate(360,74)"/>
<path d="M0 0 C0.33 0 0.66 0 1 0 C1.061 0.626 1.121 1.253 1.184 1.898 C1.267 2.716 1.351 3.533 1.438 4.375 C1.519 5.187 1.6 5.999 1.684 6.836 C2 9 2 9 3 11 C1.02 11.99 -0.96 12.98 -3 14 C-3.33 13.01 -3.66 12.02 -4 11 C-3.526 10.67 -3.051 10.34 -2.562 10 C-0.142 6.902 -0.318 3.88 0 0 Z " fill="#D5D6D7" transform="translate(322,25)"/>
<path d="M0 0 C1.32 0.33 2.64 0.66 4 1 C4.66 3.64 5.32 6.28 6 9 C2.961 7.987 1.879 7.505 0 5 C-0.188 2.312 -0.188 2.312 0 0 Z " fill="#878786" transform="translate(51,19)"/>
<path d="M0 0 C2.007 0.287 4.009 0.619 6 1 C4.68 2.32 3.36 3.64 2 5 C2.66 5 3.32 5 4 5 C4 5.66 4 6.32 4 7 C2.35 6.67 0.7 6.34 -1 6 C-1.043 4.334 -1.041 2.666 -1 1 C-0.67 0.67 -0.34 0.34 0 0 Z " fill="#101218" transform="translate(206,19)"/>
<path d="M0 0 C1.32 0 2.64 0 4 0 C3.67 3.96 3.34 7.92 3 12 C2.34 12 1.68 12 1 12 C0.67 8.04 0.34 4.08 0 0 Z " fill="#C0C1C0" transform="translate(389,72)"/>
<path d="M0 0 C0.66 0 1.32 0 2 0 C2 2.64 2 5.28 2 8 C3.32 8 4.64 8 6 8 C6 8.66 6 9.32 6 10 C4.02 10 2.04 10 0 10 C0 6.7 0 3.4 0 0 Z " fill="#BCBDBB" transform="translate(421,74)"/>
<path d="M0 0 C0.66 0 1.32 0 2 0 C2 2.64 2 5.28 2 8 C3.32 8 4.64 8 6 8 C6 8.66 6 9.32 6 10 C4.02 10 2.04 10 0 10 C0 6.7 0 3.4 0 0 Z " fill="#C4C4BF" transform="translate(528,74)"/>
<path d="M0 0 C1.32 0.33 2.64 0.66 4 1 C4.33 2.98 4.66 4.96 5 7 C3.68 6.67 2.36 6.34 1 6 C0.67 6.66 0.34 7.32 0 8 C0 5.36 0 2.72 0 0 Z " fill="#212528" transform="translate(495,76)"/>
<path d="M0 0 C0.66 0 1.32 0 2 0 C2.33 1.98 2.66 3.96 3 6 C1.68 6.33 0.36 6.66 -1 7 C-1 7.99 -1 8.98 -1 10 C-1.66 10 -2.32 10 -3 10 C-2.01 6.7 -1.02 3.4 0 0 Z " fill="#282B33" transform="translate(419,19)"/>
<path d="M0 0 C2.97 0 5.94 0 9 0 C9 0.66 9 1.32 9 2 C7.68 2 6.36 2 5 2 C5 4.97 5 7.94 5 11 C4.67 11 4.34 11 4 11 C4 8.03 4 5.06 4 2 C2.68 2 1.36 2 0 2 C0 1.34 0 0.68 0 0 Z " fill="#C8C8C8" transform="translate(61,17)"/>
<path d="M0 0 C0.66 0.165 0.66 0.165 4 1 C3.67 2.65 3.34 4.3 3 6 C1.68 5.67 0.36 5.34 -1 5 C-0.67 3.35 -0.34 1.7 0 0 Z " fill="#17181B" transform="translate(502,76)"/>
<path d="M0 0 C0.66 0 1.32 0 2 0 C3.125 1.562 3.125 1.562 4 4 C3.125 7.75 3.125 7.75 2 11 C1.34 11 0.68 11 0 11 C0 7.37 0 3.74 0 0 Z " fill="#C8C9C9" transform="translate(184,17)"/>
<path d="M0 0 C0.99 0 1.98 0 3 0 C3 2.64 3 5.28 3 8 C1.35 8 -0.3 8 -2 8 C-1.34 7.67 -0.68 7.34 0 7 C0 4.69 0 2.38 0 0 Z " fill="#000108" transform="translate(459,77)"/>
<path d="M0 0 C0.495 0.33 0.495 0.33 3 2 C2.67 2.99 2.34 3.98 2 5 C1.774 7.393 1.592 9.789 1.438 12.188 C1.354 13.46 1.27 14.732 1.184 16.043 C1.123 17.019 1.062 17.995 1 19 C0.67 19 0.34 19 0 19 C0 12.73 0 6.46 0 0 Z " fill="#08090D" transform="translate(367,26)"/>
<path d="M0 0 C1.98 0 3.96 0 6 0 C6.66 1.65 7.32 3.3 8 5 C5.36 4.34 2.72 3.68 0 3 C-0.33 3.66 -0.66 4.32 -1 5 C-0.67 3.35 -0.34 1.7 0 0 Z " fill="#C0C1BF" transform="translate(40,23)"/>
<path d="M0 0 C1.062 1.875 1.062 1.875 2 4 C1.67 4.66 1.34 5.32 1 6 C1.99 6.33 2.98 6.66 4 7 C2.02 7 0.04 7 -2 7 C-1.34 6.67 -0.68 6.34 0 6 C0 5.34 0 4.68 0 4 C-1.65 4 -3.3 4 -5 4 C-5 3.34 -5 2.68 -5 2 C-3.35 2 -1.7 2 0 2 C0 1.34 0 0.68 0 0 Z " fill="#04050B" transform="translate(78,22)"/>
<path d="M0 0 C1.98 0 3.96 0 6 0 C6 3 6 3 5 5 C3.68 5 2.36 5 1 5 C0.835 4.175 0.835 4.175 0 0 Z " fill="#717273" transform="translate(214,17)"/>
<path d="M0 0 C0.33 0.66 0.66 1.32 1 2 C1.66 2 2.32 2 3 2 C3 1.34 3 0.68 3 0 C3.66 0 4.32 0 5 0 C5 0.99 5 1.98 5 3 C4.34 3.33 4.34 3.33 1 5 C1.33 6.32 1.66 7.64 2 9 C1.01 8.67 0.02 8.34 -1 8 C-1.125 2.25 -1.125 2.25 0 0 Z " fill="#33353A" transform="translate(1,19)"/>
<path d="M0 0 C1.32 0 2.64 0 4 0 C4 1.65 4 3.3 4 5 C2.02 5.33 0.04 5.66 -2 6 C-2.33 5.34 -2.66 4.68 -3 4 C-1.35 4 0.3 4 2 4 C2 3.34 2 2.68 2 2 C1.34 2 0.68 2 0 2 C0 1.34 0 0.68 0 0 Z " fill="#D7D4CE" transform="translate(208,22)"/>
<path d="M0 0 C1.32 0.33 2.64 0.66 4 1 C3.67 2.65 3.34 4.3 3 6 C2.01 6 1.02 6 0 6 C0 4.02 0 2.04 0 0 Z " fill="#252627" transform="translate(303,76)"/>
<path d="M0 0 C-1.75 5.75 -1.75 5.75 -4 8 C-4.66 6.02 -5.32 4.04 -6 2 C-2.25 0 -2.25 0 0 0 Z " fill="#24272B" transform="translate(414,74)"/>
<path d="M0 0 C0.33 0.66 0.66 1.32 1 2 C1.99 2 2.98 2 4 2 C4 4.64 4 7.28 4 10 C3.01 9.67 2.02 9.34 1 9 C0.67 6.03 0.34 3.06 0 0 Z " fill="#2D2E32" transform="translate(402,74)"/>
<path d="M0 0 C1.65 0 3.3 0 5 0 C5.33 1.65 5.66 3.3 6 5 C5.01 4.835 5.01 4.835 0 4 C0 2.68 0 1.36 0 0 Z " fill="#292B2E" transform="translate(197,20)"/>
<path d="M0 0 C0.99 0 1.98 0 3 0 C3 2.31 3 4.62 3 7 C2.01 7 1.02 7 0 7 C0 4.69 0 2.38 0 0 Z " fill="#07090F" transform="translate(490,77)"/>
<path d="M0 0 C0.99 0.33 1.98 0.66 3 1 C4.188 4.562 4.188 4.562 5 8 C4.01 7.67 3.02 7.34 2 7 C2 6.34 2 5.68 2 5 C1.34 4.67 0.68 4.34 0 4 C0 2.68 0 1.36 0 0 Z " fill="#989796" transform="translate(333,76)"/>
<path d="M0 0 C0.99 0 1.98 0 3 0 C3.66 2.97 4.32 5.94 5 9 C4.34 9 3.68 9 3 9 C2.01 6.03 1.02 3.06 0 0 Z " fill="#13181E" transform="translate(345,75)"/>
<path d="M0 0 C1.32 0 2.64 0 4 0 C3.67 0.99 3.34 1.98 3 3 C3.33 3.66 3.66 4.32 4 5 C3.67 5.99 3.34 6.98 3 8 C2.34 8 1.68 8 1 8 C0.67 5.36 0.34 2.72 0 0 Z " fill="#A4A4A3" transform="translate(413,72)"/>
<path d="M0 0 C0.99 0 1.98 0 3 0 C3 2.31 3 4.62 3 7 C2.34 7 1.68 7 1 7 C0.67 4.69 0.34 2.38 0 0 Z " fill="#04080E" transform="translate(327,77)"/>
<path d="M0 0 C0.825 0.165 0.825 0.165 5 1 C5 2.65 5 4.3 5 6 C4.67 6.165 4.67 6.165 3 7 C2.34 5.35 1.68 3.7 1 2 C1.66 1.67 2.32 1.34 3 1 C2.01 0.67 1.02 0.34 0 0 Z " fill="#282C2F" transform="translate(414,71)"/>
<path d="M0 0 C0.33 1.32 0.66 2.64 1 4 C-2 6 -2 6 -5 6 C-5 5.34 -5 4.68 -5 4 C-4.34 4 -3.68 4 -3 4 C-3 3.01 -3 2.02 -3 1 C-2.01 0.67 -1.02 0.34 0 0 Z " fill="#0C0E12" transform="translate(421,25)"/>
<path d="M0 0 C0.33 0 0.66 0 1 0 C1.027 1.479 1.046 2.958 1.062 4.438 C1.074 5.261 1.086 6.085 1.098 6.934 C1 9 1 9 0 10 C-1.666 10.041 -3.334 10.043 -5 10 C-4 8 -4 8 -1 7 C-0.67 4.69 -0.34 2.38 0 0 Z " fill="#D4D2CE" transform="translate(230,18)"/>
<path d="M0 0 C0.553 2.076 1 3.844 1 6 C0.34 6 -0.32 6 -1 6 C-1 7.98 -1 9.96 -1 12 C-1.33 12 -1.66 12 -2 12 C-2.054 10.563 -2.093 9.125 -2.125 7.688 C-2.148 6.887 -2.171 6.086 -2.195 5.262 C-2 3 -2 3 0 0 Z " fill="#D6D7D8" transform="translate(318,20)"/>
<path d="M0 0 C-1.32 0.99 -2.64 1.98 -4 3 C-5.32 2.34 -6.64 1.68 -8 1 C-8 0.34 -8 -0.32 -8 -1 C-3.375 -2.25 -3.375 -2.25 0 0 Z " fill="#383A3C" transform="translate(456,77)"/>
<path d="M0 0 C0.33 0 0.66 0 1 0 C1 2.64 1 5.28 1 8 C-0.32 8 -1.64 8 -3 8 C-3 7.01 -3 6.02 -3 5 C-2.01 5 -1.02 5 0 5 C0 3.35 0 1.7 0 0 Z " fill="#26282E" transform="translate(523,74)"/>
<path d="M0 0 C1.32 0.33 2.64 0.66 4 1 C4 1.99 4 2.98 4 4 C2.68 4.33 1.36 4.66 0 5 C0 3.35 0 1.7 0 0 Z " fill="#1C1E21" transform="translate(352,77)"/>
<path d="M0 0 C0.825 0.165 0.825 0.165 5 1 C5 1.99 5 2.98 5 4 C4.34 4 3.68 4 3 4 C2.67 4.66 2.34 5.32 2 6 C0 3 0 3 0 0 Z " fill="#E4E4E6" transform="translate(299,39)"/>
<path d="M0 0 C0.99 0.33 1.98 0.66 3 1 C2.67 2.98 2.34 4.96 2 7 C1.34 7 0.68 7 0 7 C-1.125 2.25 -1.125 2.25 0 0 Z " fill="#898B8A" transform="translate(165,17)"/>
</svg>
